<?xml version="1.0" encoding="utf-8"?>
<!-- Generator: Adobe Illustrator 16.0.0, SVG Export Plug-In . SVG Version: 6.00 Build 0)  -->
<!DOCTYPE svg PUBLIC "-//W3C//DTD SVG 1.1//EN" "http://www.w3.org/Graphics/SVG/1.1/DTD/svg11.dtd">
<svg version="1.1" id="Calque_1" xmlns="http://www.w3.org/2000/svg" xmlns:xlink="http://www.w3.org/1999/xlink" x="0px" y="0px"
	 width="66.25px" height="26.75px" viewBox="0 0 66.25 26.75" enable-background="new 0 0 66.25 26.75" xml:space="preserve">
<g id="ui">
	<g>
		<path fill="#16A1A8" d="M58.604,12.634c0.899,0.957,1.117,1.929,0.649,2.917c-0.188,0.297-0.476,0.596-0.956,0.9
			C58.2,16.55,58.2,16.55,58.006,16.652c-0.188,0.199-0.574,0.402-1.251,0.809l-0.675,0.406c-1.729,1.307-3.545,3.203-5.348,5.686
			c-0.664,0.896-1.931,1.118-2.727,0.452c-0.895-0.666-1.117-1.93-0.451-2.728c0.951-1.291,1.902-2.385,2.856-3.385
			c1.146-1.293,0.731-2.359-0.931-2.322c-2.543-0.141-5.961-0.162-10.265-0.264c-13.393-0.391-21.602-0.506-30.489-0.311
			c-1.075,0.023-1.973-0.836-1.996-1.91c-0.023-1.074,0.836-1.972,1.911-1.996c8.69-0.19,16.409-0.164,30.196,0.315
			c4.203,0.104,7.43,0.132,9.773,0.178c1.762,0.059,2.227-1.026,1.025-2.27c-0.701-0.767-1.4-1.533-2.104-2.397
			c-0.705-0.863-0.534-2.039,0.328-2.742c0.766-0.799,1.94-0.629,2.74,0.136c2.209,2.687,4.408,4.982,6.502,6.892L58.604,12.634z"/>
	</g>
</g>
<g id="Calque_2">
</g>
<g id="home-tablette">
</g>
<g id="home-desktop">
</g>
<g id="rtfm-desktop">
</g>
<g id="rtfm-tablette">
</g>
</svg>
