<?xml version="1.0" encoding="utf-8"?>
<!-- Generator: Adobe Illustrator 16.0.0, SVG Export Plug-In . SVG Version: 6.00 Build 0)  -->
<!DOCTYPE svg PUBLIC "-//W3C//DTD SVG 1.1//EN" "http://www.w3.org/Graphics/SVG/1.1/DTD/svg11.dtd">
<svg version="1.1" id="Calque_1" xmlns="http://www.w3.org/2000/svg" xmlns:xlink="http://www.w3.org/1999/xlink" x="0px" y="0px"
	 width="320px" height="1199.598px" viewBox="0 0 320 1199.598" enable-background="new 0 0 320 1199.598" xml:space="preserve">
<g>
	<g>
		<g id="Calque_2">
			<defs>
				<rect id="SVGID_1_" width="319" height="1199.598"/>
			</defs>
			<clipPath id="SVGID_2_">
				<use xlink:href="#SVGID_1_"  overflow="visible"/>
			</clipPath>
			<g clip-path="url(#SVGID_2_)">
				<g>
					<path fill="none" stroke="#00A99D" stroke-miterlimit="10" d="M-132.501,361.976c14.137-5.695,46.2-1.993,62.457-3.109
						c42.516-2.922,88.799,3.146,132.014,2.134c93.389-2.185,188.023-1.023,281.529-1.023"/>
					<path fill="none" stroke="#00A99D" stroke-miterlimit="10" d="M352.499,396.976c-14.137-5.695-46.2-1.993-62.457-3.109
						c-42.517-2.922-88.799,3.146-132.014,2.134c-93.388-2.185-188.023-1.024-281.529-1.024"/>
					<path fill="none" stroke="#00A99D" stroke-miterlimit="10" d="M421.499,385.976c-14.137-5.695-46.2-1.993-62.457-3.109
						c-42.516-2.922-88.799,3.146-132.015,2.134c-93.387-2.185-188.022-1.024-281.528-1.024"/>
					<path fill="none" stroke="#00A99D" stroke-miterlimit="10" d="M-61.501,376.976c14.137-5.695,46.2-1.993,62.457-3.109
						c42.516-2.922,88.799,3.146,132.014,2.134c93.389-2.185,188.023-1.023,281.529-1.023"/>
					<path fill="none" stroke="#00A99D" stroke-miterlimit="10" d="M-130.501,366.976c14.137-5.695,46.2-1.993,62.457-3.109
						c42.516-2.922,88.799,3.146,132.014,2.134c93.389-2.185,188.023-1.023,281.529-1.023"/>
					<path fill="none" stroke="#00A99D" stroke-miterlimit="10" d="M357.499,436.976c-14.137-5.695-46.2-1.993-62.457-3.109
						c-42.517-2.922-88.799,3.146-132.015,2.134c-93.387-2.185-188.022-1.024-281.528-1.024"/>
					<path fill="none" stroke="#00A99D" stroke-miterlimit="10" d="M426.499,426.976c-14.137-5.695-46.2-1.993-62.457-3.109
						c-42.516-2.922-88.799,3.146-132.015,2.134c-93.387-2.185-188.022-1.024-281.528-1.024"/>
					<path fill="none" stroke="#00A99D" stroke-miterlimit="10" d="M-56.501,416.976c14.137-5.695,46.2-1.993,62.457-3.109
						c42.516-2.922,88.799,3.146,132.014,2.134c93.389-2.185,188.023-1.023,281.529-1.023"/>
					<path fill="none" stroke="#00A99D" stroke-miterlimit="10" d="M-125.501,406.976c14.137-5.695,46.2-1.993,62.457-3.109
						c42.516-2.922,88.799,3.146,132.014,2.134c93.389-2.185,188.023-1.023,281.529-1.023"/>
					<path fill="none" stroke="#00A99D" stroke-miterlimit="10" d="M-68.501,466.976c14.137-5.695,46.2-1.993,62.457-3.109
						c42.516-2.922,88.799,3.146,132.014,2.134c93.389-2.185,188.023-1.023,281.529-1.023"/>
					<path fill="none" stroke="#00A99D" stroke-miterlimit="10" d="M428.499,456.976c-14.137-5.695-46.2-1.993-62.457-3.109
						c-42.516-2.922-88.799,3.146-132.015,2.134c-93.387-2.185-188.022-1.024-281.528-1.024"/>
					<path fill="none" stroke="#00A99D" stroke-miterlimit="10" d="M359.499,446.976c-14.137-5.695-46.2-1.993-62.457-3.109
						c-42.517-2.922-88.799,3.146-132.015,2.134c-93.387-2.185-188.022-1.024-281.528-1.024"/>
					<g id="lignes_6_">
						<g>
							<defs>
								<polygon id="SVGID_3_" points="159.999,463.652 -26.677,357.976 -24.335,-127.19 352.999,-90.524 346.675,357.976 								
									"/>
							</defs>
							<clipPath id="SVGID_4_">
								<use xlink:href="#SVGID_3_"  overflow="visible"/>
							</clipPath>
							<g clip-path="url(#SVGID_4_)">
								<path fill="none" stroke="#00877A" stroke-miterlimit="10" d="M-137.501,197.976c14.137-5.696,46.2-1.993,62.457-3.109
									c42.516-2.921,88.799,3.144,132.014,2.133c93.389-2.184,188.023-1.023,281.529-1.023"/>
								<path fill="none" stroke="#00877A" stroke-miterlimit="10" d="M352.499,192.976c-14.137-5.696-46.2-1.993-62.457-3.109
									c-42.517-2.921-88.799,3.144-132.014,2.133c-93.388-2.185-188.023-1.024-281.529-1.024"/>
								<path fill="none" stroke="#00877A" stroke-miterlimit="10" d="M-68.501,187.976c14.137-5.696,46.2-1.993,62.457-3.109
									c42.516-2.921,88.799,3.144,132.014,2.133c93.389-2.184,188.023-1.023,281.529-1.023"/>
								<path fill="none" stroke="#00877A" stroke-miterlimit="10" d="M421.499,182.976c-14.137-5.696-46.2-1.993-62.457-3.109
									c-42.516-2.921-88.799,3.144-132.015,2.133c-93.387-2.185-188.022-1.024-281.528-1.024"/>
								<path fill="none" stroke="#00877A" stroke-miterlimit="10" d="M428.499,177.976c-14.137-5.696-46.2-1.993-62.457-3.109
									c-42.516-2.921-88.799,3.144-132.015,2.133c-93.387-2.185-188.022-1.024-281.528-1.024"/>
								<path fill="none" stroke="#00877A" stroke-miterlimit="10" d="M-61.501,172.976c14.137-5.696,46.2-1.993,62.457-3.109
									c42.516-2.921,88.799,3.144,132.014,2.133c93.389-2.184,188.023-1.023,281.529-1.023"/>
								<path fill="none" stroke="#00877A" stroke-miterlimit="10" d="M359.499,167.976c-14.137-5.696-46.2-1.993-62.457-3.109
									c-42.517-2.921-88.799,3.144-132.015,2.133c-93.387-2.185-188.022-1.024-281.528-1.024"/>
								<path fill="none" stroke="#00877A" stroke-miterlimit="10" d="M-130.501,162.976c14.137-5.696,46.2-1.993,62.457-3.109
									c42.516-2.921,88.799,3.144,132.014,2.133c93.389-2.184,188.023-1.023,281.529-1.023"/>
								<path fill="none" stroke="#00877A" stroke-miterlimit="10" d="M-132.501,237.976c14.137-5.696,46.2-1.993,62.457-3.109
									c42.516-2.921,88.799,3.144,132.014,2.133c93.389-2.184,188.023-1.023,281.529-1.023"/>
								<path fill="none" stroke="#00877A" stroke-miterlimit="10" d="M357.499,232.976c-14.137-5.696-46.2-1.993-62.457-3.109
									c-42.517-2.921-88.799,3.144-132.015,2.133c-93.387-2.185-188.022-1.024-281.528-1.024"/>
								<path fill="none" stroke="#00877A" stroke-miterlimit="10" d="M-63.501,227.976c14.137-5.696,46.2-1.993,62.457-3.109
									c42.516-2.921,88.799,3.144,132.014,2.133c93.389-2.184,188.023-1.023,281.529-1.023"/>
								<path fill="none" stroke="#00877A" stroke-miterlimit="10" d="M426.499,222.976c-14.137-5.696-46.2-1.993-62.457-3.109
									c-42.516-2.921-88.799,3.144-132.015,2.133c-93.387-2.185-188.022-1.024-281.528-1.024"/>
								<path fill="none" stroke="#00877A" stroke-miterlimit="10" d="M433.499,217.976c-14.137-5.696-46.2-1.993-62.457-3.109
									c-42.516-2.921-88.799,3.144-132.015,2.133c-93.387-2.185-188.022-1.024-281.528-1.024"/>
								<path fill="none" stroke="#00877A" stroke-miterlimit="10" d="M-56.501,212.976c14.137-5.696,46.2-1.993,62.457-3.109
									c42.516-2.921,88.799,3.144,132.014,2.133c93.389-2.184,188.023-1.023,281.529-1.023"/>
								<path fill="none" stroke="#00877A" stroke-miterlimit="10" d="M364.499,207.976c-14.137-5.696-46.2-1.993-62.457-3.109
									c-42.517-2.921-88.799,3.144-132.015,2.133c-93.387-2.185-188.022-1.024-281.528-1.024"/>
								<path fill="none" stroke="#00877A" stroke-miterlimit="10" d="M-125.501,202.976c14.137-5.696,46.2-1.993,62.457-3.109
									c42.516-2.921,88.799,3.144,132.014,2.133c93.389-2.184,188.023-1.023,281.529-1.023"/>
								<path fill="none" stroke="#00877A" stroke-miterlimit="10" d="M-137.501,277.976c14.137-5.696,46.2-1.993,62.457-3.109
									c42.516-2.921,88.799,3.144,132.014,2.133c93.389-2.184,188.023-1.023,281.529-1.023"/>
								<path fill="none" stroke="#00877A" stroke-miterlimit="10" d="M352.499,271.976c-14.137-5.696-46.2-1.993-62.457-3.109
									c-42.517-2.921-88.799,3.144-132.014,2.133c-93.388-2.185-188.023-1.024-281.529-1.024"/>
								<path fill="none" stroke="#00877A" stroke-miterlimit="10" d="M-68.501,267.976c14.137-5.696,46.2-1.993,62.457-3.109
									c42.516-2.921,88.799,3.144,132.014,2.133c93.389-2.184,188.023-1.023,281.529-1.023"/>
								<path fill="none" stroke="#00877A" stroke-miterlimit="10" d="M421.499,262.976c-14.137-5.696-46.2-1.993-62.457-3.109
									c-42.516-2.921-88.799,3.144-132.015,2.133c-93.387-2.185-188.022-1.024-281.528-1.024"/>
								<path fill="none" stroke="#00877A" stroke-miterlimit="10" d="M428.499,257.976c-14.137-5.696-46.2-1.993-62.457-3.109
									c-42.516-2.921-88.799,3.144-132.015,2.133c-93.387-2.185-188.022-1.024-281.528-1.024"/>
								<path fill="none" stroke="#00877A" stroke-miterlimit="10" d="M-61.501,252.976c14.137-5.696,46.2-1.993,62.457-3.109
									c42.516-2.921,88.799,3.144,132.014,2.133c93.389-2.184,188.023-1.023,281.529-1.023"/>
								<path fill="none" stroke="#00877A" stroke-miterlimit="10" d="M359.499,247.976c-14.137-5.696-46.2-1.993-62.457-3.109
									c-42.517-2.921-88.799,3.144-132.015,2.133c-93.387-2.185-188.022-1.024-281.528-1.024"/>
								<path fill="none" stroke="#00877A" stroke-miterlimit="10" d="M-130.501,242.976c14.137-5.696,46.2-1.993,62.457-3.109
									c42.516-2.921,88.799,3.144,132.014,2.133c93.389-2.184,188.023-1.023,281.529-1.023"/>
								<path fill="none" stroke="#00877A" stroke-miterlimit="10" d="M-132.501,317.976c14.137-5.696,46.2-1.993,62.457-3.109
									c42.516-2.921,88.799,3.145,132.014,2.133c93.389-2.184,188.023-1.023,281.529-1.023"/>
								<path fill="none" stroke="#00877A" stroke-miterlimit="10" d="M357.499,312.976c-14.137-5.696-46.2-1.993-62.457-3.109
									c-42.517-2.921-88.799,3.144-132.015,2.133c-93.387-2.185-188.022-1.024-281.528-1.024"/>
								<path fill="none" stroke="#00877A" stroke-miterlimit="10" d="M-63.501,307.976c14.137-5.696,46.2-1.993,62.457-3.109
									c42.516-2.921,88.799,3.144,132.014,2.133c93.389-2.184,188.023-1.023,281.529-1.023"/>
								<path fill="none" stroke="#00877A" stroke-miterlimit="10" d="M426.499,302.976c-14.137-5.696-46.2-1.993-62.457-3.109
									c-42.516-2.921-88.799,3.144-132.015,2.133c-93.387-2.185-188.022-1.024-281.528-1.024"/>
								<path fill="none" stroke="#00877A" stroke-miterlimit="10" d="M433.499,297.976c-14.137-5.696-46.2-1.993-62.457-3.109
									c-42.516-2.921-88.799,3.144-132.015,2.133c-93.387-2.185-188.022-1.024-281.528-1.024"/>
								<path fill="none" stroke="#00877A" stroke-miterlimit="10" d="M-56.501,292.976c14.137-5.696,46.2-1.993,62.457-3.109
									c42.516-2.921,88.799,3.144,132.014,2.133c93.389-2.184,188.023-1.023,281.529-1.023"/>
								<path fill="none" stroke="#00877A" stroke-miterlimit="10" d="M364.499,287.976c-14.137-5.696-46.2-1.993-62.457-3.109
									c-42.517-2.921-88.799,3.144-132.015,2.133c-93.387-2.185-188.022-1.024-281.528-1.024"/>
								<path fill="none" stroke="#00877A" stroke-miterlimit="10" d="M-125.501,282.976c14.137-5.696,46.2-1.993,62.457-3.109
									c42.516-2.921,88.799,3.144,132.014,2.133c93.389-2.184,188.023-1.023,281.529-1.023"/>
								<path fill="none" stroke="#00877A" stroke-miterlimit="10" d="M-137.501,321.976c14.137-5.696,46.2-1.993,62.457-3.109
									c42.516-2.921,88.799,3.145,132.014,2.133c93.389-2.184,188.023-1.023,281.529-1.023"/>
								<path fill="none" stroke="#00877A" stroke-miterlimit="10" d="M-132.501,361.976c14.137-5.695,46.2-1.993,62.457-3.109
									c42.516-2.922,88.799,3.146,132.014,2.134c93.389-2.185,188.023-1.023,281.529-1.023"/>
								<path fill="none" stroke="#00877A" stroke-miterlimit="10" d="M357.499,356.976c-14.137-5.695-46.2-1.993-62.457-3.109
									c-42.517-2.922-88.799,3.146-132.015,2.134c-93.387-2.185-188.022-1.024-281.528-1.024"/>
								<path fill="none" stroke="#00877A" stroke-miterlimit="10" d="M-63.501,351.976c14.137-5.695,46.2-1.993,62.457-3.109
									c42.516-2.922,88.799,3.146,132.014,2.134c93.389-2.185,188.023-1.023,281.529-1.023"/>
								<path fill="none" stroke="#00877A" stroke-miterlimit="10" d="M426.499,346.976c-14.137-5.695-46.2-1.993-62.457-3.109
									c-42.516-2.922-88.799,3.146-132.015,2.134c-93.387-2.185-188.022-1.024-281.528-1.024"/>
								<path fill="none" stroke="#00877A" stroke-miterlimit="10" d="M433.499,341.976c-14.137-5.695-46.2-1.993-62.457-3.109
									c-42.516-2.922-88.799,3.146-132.015,2.134c-93.387-2.185-188.022-1.024-281.528-1.024"/>
								<path fill="none" stroke="#00877A" stroke-miterlimit="10" d="M-56.501,336.976c14.137-5.695,46.2-1.993,62.457-3.109
									c42.516-2.922,88.799,3.146,132.014,2.134c93.389-2.185,188.023-1.023,281.529-1.023"/>
								<path fill="none" stroke="#00877A" stroke-miterlimit="10" d="M364.499,331.976c-14.137-5.695-46.2-1.993-62.457-3.109
									c-42.517-2.922-88.799,3.145-132.015,2.133c-93.387-2.184-188.022-1.024-281.528-1.024"/>
								<path fill="none" stroke="#00877A" stroke-miterlimit="10" d="M-125.501,326.976c14.137-5.695,46.2-1.993,62.457-3.109
									c42.516-2.922,88.799,3.145,132.014,2.133c93.389-2.184,188.023-1.023,281.529-1.023"/>
								<path fill="none" stroke="#00877A" stroke-miterlimit="10" d="M-137.501,401.976c14.137-5.695,46.2-1.993,62.457-3.109
									c42.516-2.922,88.799,3.146,132.014,2.134c93.389-2.185,188.023-1.023,281.529-1.023"/>
								<path fill="none" stroke="#00877A" stroke-miterlimit="10" d="M352.499,396.976c-14.137-5.695-46.2-1.993-62.457-3.109
									c-42.517-2.922-88.799,3.146-132.014,2.134c-93.388-2.185-188.023-1.024-281.529-1.024"/>
								<path fill="none" stroke="#00877A" stroke-miterlimit="10" d="M-68.501,392.976c14.137-5.695,46.2-1.993,62.457-3.109
									c42.516-2.922,88.799,3.146,132.014,2.134c93.389-2.185,188.023-1.023,281.529-1.023"/>
								<path fill="none" stroke="#00877A" stroke-miterlimit="10" d="M421.499,385.976c-14.137-5.695-46.2-1.993-62.457-3.109
									c-42.516-2.922-88.799,3.146-132.015,2.134c-93.387-2.185-188.022-1.024-281.528-1.024"/>
								<path fill="none" stroke="#00877A" stroke-miterlimit="10" d="M428.499,381.976c-14.137-5.695-46.2-1.993-62.457-3.109
									c-42.516-2.922-88.799,3.146-132.015,2.134c-93.387-2.185-188.022-1.024-281.528-1.024"/>
								<path fill="none" stroke="#00877A" stroke-miterlimit="10" d="M-61.501,376.976c14.137-5.695,46.2-1.993,62.457-3.109
									c42.516-2.922,88.799,3.146,132.014,2.134c93.389-2.185,188.023-1.023,281.529-1.023"/>
								<path fill="none" stroke="#00877A" stroke-miterlimit="10" d="M359.499,371.976c-14.137-5.695-46.2-1.993-62.457-3.109
									c-42.517-2.922-88.799,3.146-132.015,2.134c-93.387-2.185-188.022-1.024-281.528-1.024"/>
								<path fill="none" stroke="#00877A" stroke-miterlimit="10" d="M-130.501,366.976c14.137-5.695,46.2-1.993,62.457-3.109
									c42.516-2.922,88.799,3.146,132.014,2.134c93.389-2.185,188.023-1.023,281.529-1.023"/>
								<path fill="none" stroke="#00877A" stroke-miterlimit="10" d="M-132.501,441.976c14.137-5.695,46.2-1.993,62.457-3.109
									c42.516-2.922,88.799,3.146,132.014,2.134c93.389-2.185,188.023-1.023,281.529-1.023"/>
								<path fill="none" stroke="#00877A" stroke-miterlimit="10" d="M357.499,436.976c-14.137-5.695-46.2-1.993-62.457-3.109
									c-42.517-2.922-88.799,3.146-132.015,2.134c-93.387-2.185-188.022-1.024-281.528-1.024"/>
								<path fill="none" stroke="#00877A" stroke-miterlimit="10" d="M-63.501,431.976c14.137-5.695,46.2-1.993,62.457-3.109
									c42.516-2.922,88.799,3.146,132.014,2.134c93.389-2.185,188.023-1.023,281.529-1.023"/>
								<path fill="none" stroke="#00877A" stroke-miterlimit="10" d="M426.499,426.976c-14.137-5.695-46.2-1.993-62.457-3.109
									c-42.516-2.922-88.799,3.146-132.015,2.134c-93.387-2.185-188.022-1.024-281.528-1.024"/>
								<path fill="none" stroke="#00877A" stroke-miterlimit="10" d="M433.499,421.976c-14.137-5.695-46.2-1.993-62.457-3.109
									c-42.516-2.922-88.799,3.146-132.015,2.134c-93.387-2.185-188.022-1.024-281.528-1.024"/>
								<path fill="none" stroke="#00877A" stroke-miterlimit="10" d="M-56.501,416.976c14.137-5.695,46.2-1.993,62.457-3.109
									c42.516-2.922,88.799,3.146,132.014,2.134c93.389-2.185,188.023-1.023,281.529-1.023"/>
								<path fill="none" stroke="#00877A" stroke-miterlimit="10" d="M364.499,411.976c-14.137-5.695-46.2-1.993-62.457-3.109
									c-42.517-2.922-88.799,3.146-132.015,2.134c-93.387-2.185-188.022-1.024-281.528-1.024"/>
								<path fill="none" stroke="#00877A" stroke-miterlimit="10" d="M-125.501,406.976c14.137-5.695,46.2-1.993,62.457-3.109
									c42.516-2.922,88.799,3.146,132.014,2.134c93.389-2.185,188.023-1.023,281.529-1.023"/>
								<path fill="none" stroke="#00877A" stroke-miterlimit="10" d="M-137.501,36.976c14.137-5.696,46.2-1.993,62.457-3.109
									C-32.528,30.946,13.755,37.011,56.97,36c93.389-2.184,188.023-1.023,281.529-1.023"/>
								<path fill="none" stroke="#00877A" stroke-miterlimit="10" d="M352.499,31.976c-14.137-5.696-46.2-1.993-62.457-3.109
									c-42.517-2.921-88.799,3.144-132.014,2.133c-93.388-2.185-188.023-1.024-281.529-1.024"/>
								<path fill="none" stroke="#00877A" stroke-miterlimit="10" d="M-68.501,26.976c14.137-5.696,46.2-1.993,62.457-3.109
									C36.472,20.946,82.755,27.011,125.97,26c93.389-2.184,188.023-1.023,281.529-1.023"/>
								<path fill="none" stroke="#00877A" stroke-miterlimit="10" d="M421.499,21.976c-14.137-5.696-46.2-1.993-62.457-3.109
									c-42.516-2.921-88.799,3.144-132.015,2.133c-93.387-2.185-188.022-1.024-281.528-1.024"/>
								<path fill="none" stroke="#00877A" stroke-miterlimit="10" d="M428.499,16.976c-14.137-5.696-46.2-1.993-62.457-3.109
									c-42.516-2.921-88.799,3.144-132.015,2.133c-93.387-2.185-188.022-1.024-281.528-1.024"/>
								<path fill="none" stroke="#00877A" stroke-miterlimit="10" d="M-61.501,11.976c14.137-5.696,46.2-1.993,62.457-3.109
									C43.472,5.946,89.755,12.011,132.97,11c93.389-2.184,188.023-1.023,281.529-1.023"/>
								<path fill="none" stroke="#00877A" stroke-miterlimit="10" d="M359.499,6.976c-14.137-5.696-46.2-1.993-62.457-3.109
									C254.525,0.946,208.243,7.011,165.027,6C71.64,3.815-22.995,4.976-116.501,4.976"/>
								<path fill="none" stroke="#00877A" stroke-miterlimit="10" d="M-132.501,76.976c14.137-5.696,46.2-1.993,62.457-3.109
									C-27.528,70.946,18.755,77.011,61.97,76c93.389-2.184,188.023-1.023,281.529-1.023"/>
								<path fill="none" stroke="#00877A" stroke-miterlimit="10" d="M357.499,71.976c-14.137-5.696-46.2-1.993-62.457-3.109
									c-42.517-2.921-88.799,3.144-132.015,2.133c-93.387-2.185-188.022-1.024-281.528-1.024"/>
								<path fill="none" stroke="#00877A" stroke-miterlimit="10" d="M-63.501,66.976c14.137-5.696,46.2-1.993,62.457-3.109
									C41.472,60.946,87.755,67.011,130.97,66c93.389-2.184,188.023-1.023,281.529-1.023"/>
								<path fill="none" stroke="#00877A" stroke-miterlimit="10" d="M426.499,61.976c-14.137-5.696-46.2-1.993-62.457-3.109
									c-42.516-2.921-88.799,3.144-132.015,2.133c-93.387-2.185-188.022-1.024-281.528-1.024"/>
								<path fill="none" stroke="#00877A" stroke-miterlimit="10" d="M433.499,56.976c-14.137-5.696-46.2-1.993-62.457-3.109
									c-42.516-2.921-88.799,3.144-132.015,2.133c-93.387-2.185-188.022-1.024-281.528-1.024"/>
								<path fill="none" stroke="#00877A" stroke-miterlimit="10" d="M-56.501,51.976c14.137-5.696,46.2-1.993,62.457-3.109
									C48.472,45.946,94.755,52.011,137.97,51c93.389-2.184,188.023-1.023,281.529-1.023"/>
								<path fill="none" stroke="#00877A" stroke-miterlimit="10" d="M364.499,46.976c-14.137-5.696-46.2-1.993-62.457-3.109
									c-42.517-2.921-88.799,3.144-132.015,2.133c-93.387-2.185-188.022-1.024-281.528-1.024"/>
								<path fill="none" stroke="#00877A" stroke-miterlimit="10" d="M-125.501,41.976c14.137-5.696,46.2-1.993,62.457-3.109
									C-20.528,35.946,25.755,42.011,68.97,41c93.389-2.184,188.023-1.023,281.529-1.023"/>
								<path fill="none" stroke="#00877A" stroke-miterlimit="10" d="M-137.501,116.976c14.137-5.696,46.2-1.993,62.457-3.109
									c42.516-2.921,88.799,3.144,132.014,2.133c93.389-2.184,188.023-1.023,281.529-1.023"/>
								<path fill="none" stroke="#00877A" stroke-miterlimit="10" d="M352.499,111.976c-14.137-5.696-46.2-1.993-62.457-3.109
									c-42.517-2.921-88.799,3.144-132.014,2.133c-93.388-2.185-188.023-1.024-281.529-1.024"/>
								<path fill="none" stroke="#00877A" stroke-miterlimit="10" d="M-68.501,106.976c14.137-5.696,46.2-1.993,62.457-3.109
									c42.516-2.921,88.799,3.144,132.014,2.133c93.389-2.184,188.023-1.023,281.529-1.023"/>
								<path fill="none" stroke="#00877A" stroke-miterlimit="10" d="M421.499,101.976c-14.137-5.696-46.2-1.993-62.457-3.109
									c-42.516-2.921-88.799,3.144-132.015,2.133c-93.387-2.185-188.022-1.024-281.528-1.024"/>
								<path fill="none" stroke="#00877A" stroke-miterlimit="10" d="M428.499,96.976c-14.137-5.696-46.2-1.993-62.457-3.109
									c-42.516-2.921-88.799,3.144-132.015,2.133c-93.387-2.185-188.022-1.024-281.528-1.024"/>
								<path fill="none" stroke="#00877A" stroke-miterlimit="10" d="M-61.501,91.976c14.137-5.696,46.2-1.993,62.457-3.109
									C43.472,85.946,89.755,92.011,132.97,91c93.389-2.184,188.023-1.023,281.529-1.023"/>
								<path fill="none" stroke="#00877A" stroke-miterlimit="10" d="M359.499,86.976c-14.137-5.696-46.2-1.993-62.457-3.109
									c-42.517-2.921-88.799,3.144-132.015,2.133c-93.387-2.185-188.022-1.024-281.528-1.024"/>
								<path fill="none" stroke="#00877A" stroke-miterlimit="10" d="M-130.501,81.976c14.137-5.696,46.2-1.993,62.457-3.109
									C-25.528,75.946,20.755,82.011,63.97,81c93.389-2.184,188.023-1.023,281.529-1.023"/>
								<path fill="none" stroke="#00877A" stroke-miterlimit="10" d="M-132.501,156.976c14.137-5.696,46.2-1.993,62.457-3.109
									c42.516-2.921,88.799,3.144,132.014,2.133c93.389-2.184,188.023-1.023,281.529-1.023"/>
								<path fill="none" stroke="#00877A" stroke-miterlimit="10" d="M357.499,151.976c-14.137-5.696-46.2-1.993-62.457-3.109
									c-42.517-2.921-88.799,3.144-132.015,2.133c-93.387-2.185-188.022-1.024-281.528-1.024"/>
								<path fill="none" stroke="#00877A" stroke-miterlimit="10" d="M-63.501,146.976c14.137-5.696,46.2-1.993,62.457-3.109
									c42.516-2.921,88.799,3.144,132.014,2.133c93.389-2.184,188.023-1.023,281.529-1.023"/>
								<path fill="none" stroke="#00877A" stroke-miterlimit="10" d="M426.499,141.976c-14.137-5.696-46.2-1.993-62.457-3.109
									c-42.516-2.921-88.799,3.144-132.015,2.133c-93.387-2.185-188.022-1.024-281.528-1.024"/>
								<path fill="none" stroke="#00877A" stroke-miterlimit="10" d="M433.499,136.976c-14.137-5.696-46.2-1.993-62.457-3.109
									c-42.516-2.921-88.799,3.144-132.015,2.133c-93.387-2.185-188.022-1.024-281.528-1.024"/>
								<path fill="none" stroke="#00877A" stroke-miterlimit="10" d="M-56.501,131.976c14.137-5.696,46.2-1.993,62.457-3.109
									c42.516-2.921,88.799,3.144,132.014,2.133c93.389-2.184,188.023-1.023,281.529-1.023"/>
								<path fill="none" stroke="#00877A" stroke-miterlimit="10" d="M364.499,126.976c-14.137-5.696-46.2-1.993-62.457-3.109
									c-42.517-2.921-88.799,3.144-132.015,2.133c-93.387-2.185-188.022-1.024-281.528-1.024"/>
								<path fill="none" stroke="#00877A" stroke-miterlimit="10" d="M-125.501,121.976c14.137-5.696,46.2-1.993,62.457-3.109
									c42.516-2.921,88.799,3.144,132.014,2.133c93.389-2.184,188.023-1.023,281.529-1.023"/>
								<path fill="none" stroke="#00877A" stroke-miterlimit="10" d="M-68.501,466.976c14.137-5.695,46.2-1.993,62.457-3.109
									c42.516-2.922,88.799,3.146,132.014,2.134c93.389-2.185,188.023-1.023,281.529-1.023"/>
								<path fill="none" stroke="#00877A" stroke-miterlimit="10" d="M421.499,461.976c-14.137-5.695-46.2-1.993-62.457-3.109
									c-42.516-2.922-88.799,3.146-132.015,2.134c-93.387-2.185-188.022-1.024-281.528-1.024"/>
								<path fill="none" stroke="#00877A" stroke-miterlimit="10" d="M428.499,456.976c-14.137-5.695-46.2-1.993-62.457-3.109
									c-42.516-2.922-88.799,3.146-132.015,2.134c-93.387-2.185-188.022-1.024-281.528-1.024"/>
								<path fill="none" stroke="#00877A" stroke-miterlimit="10" d="M-61.501,451.976c14.137-5.695,46.2-1.993,62.457-3.109
									c42.516-2.922,88.799,3.146,132.014,2.134c93.389-2.185,188.023-1.023,281.529-1.023"/>
								<path fill="none" stroke="#00877A" stroke-miterlimit="10" d="M359.499,446.976c-14.137-5.695-46.2-1.993-62.457-3.109
									c-42.517-2.922-88.799,3.146-132.015,2.134c-93.387-2.185-188.022-1.024-281.528-1.024"/>
							</g>
						</g>
						<path fill="none" stroke="#00A99D" stroke-miterlimit="10" d="M-137.501,821.194c14.137-5.693,46.2-1.992,62.457-3.107
							c42.516-2.922,88.799,3.145,132.014,2.133c93.389-2.186,188.023-1.023,281.529-1.023"/>
						<path fill="none" stroke="#00A99D" stroke-miterlimit="10" d="M352.499,810.776c-14.137-5.695-46.2-1.992-62.457-3.109
							c-42.517-2.922-88.799,3.145-132.014,2.133c-93.389-2.184-188.023-1.023-281.529-1.023"/>
						<path fill="none" stroke="#00A99D" stroke-miterlimit="10" d="M-68.501,800.358c14.137-5.695,46.2-1.994,62.457-3.109
							c42.516-2.922,88.799,3.145,132.014,2.133c93.389-2.184,188.023-1.023,281.529-1.023"/>
						<path fill="none" stroke="#00A99D" stroke-miterlimit="10" d="M421.499,789.94c-14.137-5.695-46.2-1.994-62.457-3.109
							c-42.516-2.922-88.799,3.145-132.015,2.133c-93.388-2.184-188.022-1.023-281.528-1.023"/>
						<path fill="none" stroke="#00A99D" stroke-miterlimit="10" d="M428.499,779.522c-14.137-5.696-46.2-1.995-62.457-3.11
							c-42.516-2.922-88.799,3.145-132.015,2.133c-93.388-2.184-188.022-1.024-281.528-1.024"/>
						<path fill="none" stroke="#00A99D" stroke-miterlimit="10" d="M-61.501,769.104c14.137-5.695,46.2-1.994,62.457-3.109
							c42.516-2.922,88.799,3.145,132.014,2.133c93.389-2.184,188.023-1.023,281.529-1.023"/>
						<path fill="none" stroke="#00A99D" stroke-miterlimit="10" d="M359.499,758.684c-14.137-5.695-46.2-1.992-62.457-3.109
							c-42.517-2.922-88.799,3.146-132.015,2.135c-93.388-2.186-188.022-1.023-281.528-1.023"/>
						<path fill="none" stroke="#00A99D" stroke-miterlimit="10" d="M-130.501,748.266c14.137-5.695,46.2-1.992,62.457-3.109
							c42.516-2.922,88.799,3.146,132.014,2.135c93.389-2.186,188.023-1.023,281.529-1.023"/>
						<path fill="none" stroke="#00A99D" stroke-miterlimit="10" d="M-132.501,904.54c14.137-5.695,46.2-1.992,62.457-3.109
							c42.516-2.922,88.799,3.145,132.014,2.133c93.389-2.184,188.023-1.021,281.529-1.021"/>
						<path fill="none" stroke="#00A99D" stroke-miterlimit="10" d="M357.499,894.122c-14.137-5.695-46.2-1.992-62.457-3.109
							c-42.517-2.922-88.799,3.145-132.015,2.133c-93.388-2.184-188.022-1.021-281.528-1.021"/>
						<path fill="none" stroke="#00A99D" stroke-miterlimit="10" d="M-63.501,883.704c14.137-5.695,46.2-1.992,62.457-3.109
							c42.516-2.922,88.799,3.145,132.014,2.133c93.389-2.184,188.023-1.023,281.529-1.023"/>
						<path fill="none" stroke="#00A99D" stroke-miterlimit="10" d="M426.499,873.286c-14.137-5.695-46.2-1.992-62.457-3.109
							c-42.516-2.922-88.799,3.145-132.015,2.133c-93.388-2.184-188.022-1.023-281.528-1.023"/>
						<path fill="none" stroke="#00A99D" stroke-miterlimit="10" d="M433.499,862.868c-14.137-5.695-46.2-1.992-62.457-3.109
							c-42.516-2.922-88.799,3.145-132.015,2.133c-93.388-2.184-188.022-1.023-281.528-1.023"/>
						<path fill="none" stroke="#00A99D" stroke-miterlimit="10" d="M-56.501,852.45c14.137-5.695,46.2-1.994,62.457-3.109
							c42.516-2.922,88.799,3.145,132.014,2.133c93.389-2.184,188.023-1.023,281.529-1.023"/>
						<path fill="none" stroke="#00A99D" stroke-miterlimit="10" d="M364.499,842.03c-14.137-5.693-46.2-1.992-62.457-3.107
							c-42.517-2.922-88.799,3.145-132.015,2.133c-93.388-2.186-188.022-1.023-281.528-1.023"/>
						<path fill="none" stroke="#00A99D" stroke-miterlimit="10" d="M-125.501,831.612c14.137-5.693,46.2-1.992,62.457-3.107
							c42.516-2.922,88.799,3.145,132.014,2.133c93.389-2.186,188.023-1.023,281.529-1.023"/>
						<path fill="none" stroke="#00A99D" stroke-miterlimit="10" d="M-137.501,987.885c14.137-5.695,46.2-1.992,62.457-3.109
							c42.516-2.922,88.799,3.146,132.014,2.135c93.389-2.186,188.023-1.023,281.529-1.023"/>
						<path fill="none" stroke="#00A99D" stroke-miterlimit="10" d="M352.499,977.467c-14.137-5.695-46.2-1.992-62.457-3.109
							c-42.517-2.922-88.799,3.145-132.014,2.133c-93.389-2.184-188.023-1.023-281.529-1.023"/>
						<path fill="none" stroke="#00A99D" stroke-miterlimit="10" d="M-68.501,967.049c14.137-5.695,46.2-1.994,62.457-3.109
							c42.516-2.922,88.799,3.145,132.014,2.133c93.389-2.184,188.023-1.023,281.529-1.023"/>
						<path fill="none" stroke="#00A99D" stroke-miterlimit="10" d="M421.499,956.631c-14.137-5.695-46.2-1.994-62.457-3.109
							c-42.516-2.922-88.799,3.145-132.015,2.133c-93.388-2.184-188.022-1.023-281.528-1.023"/>
						<path fill="none" stroke="#00A99D" stroke-miterlimit="10" d="M428.499,946.213c-14.137-5.695-46.2-1.994-62.457-3.109
							c-42.516-2.922-88.799,3.145-132.015,2.133c-93.388-2.184-188.022-1.023-281.528-1.023"/>
						<path fill="none" stroke="#00A99D" stroke-miterlimit="10" d="M-61.501,935.795c14.137-5.695,46.2-1.994,62.457-3.109
							c42.516-2.922,88.799,3.145,132.014,2.133c93.389-2.184,188.023-1.023,281.529-1.023"/>
						<path fill="none" stroke="#00A99D" stroke-miterlimit="10" d="M359.499,925.375c-14.137-5.695-46.2-1.992-62.457-3.109
							c-42.517-2.922-88.799,3.145-132.015,2.133c-93.388-2.184-188.022-1.021-281.528-1.021"/>
						<path fill="none" stroke="#00A99D" stroke-miterlimit="10" d="M-130.501,914.958c14.137-5.695,46.2-1.992,62.457-3.109
							c42.516-2.922,88.799,3.145,132.014,2.133c93.389-2.184,188.023-1.021,281.529-1.021"/>
						<path fill="none" stroke="#00A99D" stroke-miterlimit="10" d="M-56.501,1019.141c14.137-5.695,46.2-1.994,62.457-3.109
							c42.516-2.922,88.799,3.145,132.014,2.133c93.389-2.184,188.023-1.023,281.529-1.023"/>
						<path fill="none" stroke="#00A99D" stroke-miterlimit="10" d="M364.499,1008.721c-14.137-5.695-46.2-1.992-62.457-3.109
							c-42.517-2.922-88.799,3.146-132.015,2.135c-93.388-2.186-188.022-1.023-281.528-1.023"/>
						<path fill="none" stroke="#00A99D" stroke-miterlimit="10" d="M-125.501,998.303c14.137-5.695,46.2-1.992,62.457-3.109
							c42.516-2.922,88.799,3.146,132.014,2.135c93.389-2.186,188.023-1.023,281.529-1.023"/>
						<path fill="none" stroke="#00A99D" stroke-miterlimit="10" d="M-132.501,1081.54c14.137-5.695,46.2-1.992,62.457-3.109
							c42.516-2.922,88.799,3.145,132.014,2.133c93.389-2.184,188.023-1.021,281.529-1.021"/>
						<path fill="none" stroke="#00A99D" stroke-miterlimit="10" d="M357.499,1071.122c-14.137-5.695-46.2-1.992-62.457-3.109
							c-42.517-2.922-88.799,3.145-132.015,2.133c-93.388-2.184-188.022-1.021-281.528-1.021"/>
						<path fill="none" stroke="#00A99D" stroke-miterlimit="10" d="M-63.501,1060.704c14.137-5.695,46.2-1.992,62.457-3.109
							c42.516-2.922,88.799,3.145,132.014,2.133c93.389-2.184,188.023-1.021,281.529-1.021"/>
						<path fill="none" stroke="#00A99D" stroke-miterlimit="10" d="M426.499,1050.286c-14.137-5.695-46.2-1.992-62.457-3.109
							c-42.516-2.922-88.799,3.145-132.015,2.133c-93.388-2.184-188.022-1.021-281.528-1.021"/>
						<path fill="none" stroke="#00A99D" stroke-miterlimit="10" d="M433.499,1039.868c-14.137-5.695-46.2-1.992-62.457-3.109
							c-42.516-2.922-88.799,3.145-132.015,2.133c-93.388-2.184-188.022-1.021-281.528-1.021"/>
						<path fill="none" stroke="#00A99D" stroke-miterlimit="10" d="M-56.501,1029.45c14.137-5.695,46.2-1.994,62.457-3.109
							c42.516-2.922,88.799,3.145,132.014,2.133c93.389-2.184,188.023-1.021,281.529-1.021"/>
						<path fill="none" stroke="#00A99D" stroke-miterlimit="10" d="M-137.501,1164.885c14.137-5.695,46.2-1.992,62.457-3.109
							c42.516-2.922,88.799,3.146,132.014,2.135c93.389-2.186,188.023-1.023,281.529-1.023"/>
						<path fill="none" stroke="#00A99D" stroke-miterlimit="10" d="M352.499,1154.467c-14.137-5.695-46.2-1.992-62.457-3.109
							c-42.517-2.922-88.799,3.145-132.014,2.133c-93.389-2.184-188.023-1.023-281.529-1.023"/>
						<path fill="none" stroke="#00A99D" stroke-miterlimit="10" d="M-68.501,1144.049c14.137-5.695,46.2-1.994,62.457-3.109
							c42.516-2.922,88.799,3.145,132.014,2.133c93.389-2.184,188.023-1.023,281.529-1.023"/>
						<path fill="none" stroke="#00A99D" stroke-miterlimit="10" d="M421.499,1133.631c-14.137-5.695-46.2-1.994-62.457-3.109
							c-42.516-2.922-88.799,3.145-132.015,2.133c-93.388-2.184-188.022-1.023-281.528-1.023"/>
						<path fill="none" stroke="#00A99D" stroke-miterlimit="10" d="M428.499,1123.213c-14.137-5.695-46.2-1.994-62.457-3.109
							c-42.516-2.922-88.799,3.145-132.015,2.133c-93.388-2.184-188.022-1.023-281.528-1.023"/>
						<path fill="none" stroke="#00A99D" stroke-miterlimit="10" d="M-61.501,1112.795c14.137-5.695,46.2-1.994,62.457-3.109
							c42.516-2.922,88.799,3.145,132.014,2.133c93.389-2.184,188.023-1.023,281.529-1.023"/>
						<path fill="none" stroke="#00A99D" stroke-miterlimit="10" d="M359.499,1102.375c-14.137-5.695-46.2-1.992-62.457-3.109
							c-42.517-2.922-88.799,3.146-132.015,2.133c-93.388-2.184-188.022-1.021-281.528-1.021"/>
						<path fill="none" stroke="#00A99D" stroke-miterlimit="10" d="M-130.501,1091.958c14.137-5.695,46.2-1.992,62.457-3.109
							c42.516-2.922,88.799,3.145,132.014,2.133c93.389-2.184,188.023-1.021,281.529-1.021"/>
						<path fill="none" stroke="#00A99D" stroke-miterlimit="10" d="M-56.501,1196.141c14.137-5.695,46.2-1.994,62.457-3.109
							c42.516-2.922,88.799,3.145,132.014,2.133c93.389-2.184,188.023-1.023,281.529-1.023"/>
						<path fill="none" stroke="#00A99D" stroke-miterlimit="10" d="M364.499,1185.721c-14.137-5.695-46.2-1.992-62.457-3.109
							c-42.517-2.922-88.799,3.146-132.015,2.135c-93.388-2.186-188.022-1.023-281.528-1.023"/>
						<path fill="none" stroke="#00A99D" stroke-miterlimit="10" d="M-125.501,1175.303c14.137-5.695,46.2-1.992,62.457-3.109
							c42.516-2.922,88.799,3.146,132.014,2.135c93.389-2.186,188.023-1.023,281.529-1.023"/>
						<path fill="none" stroke="#00A99D" stroke-miterlimit="10" d="M-137.501,487.811c14.137-5.695,46.2-1.993,62.457-3.109
							c42.516-2.922,88.799,3.146,132.014,2.134c93.389-2.185,188.023-1.023,281.529-1.023"/>
						<path fill="none" stroke="#00A99D" stroke-miterlimit="10" d="M352.499,477.393c-14.137-5.695-46.2-1.993-62.457-3.109
							c-42.517-2.922-88.799,3.146-132.014,2.134c-93.389-2.185-188.023-1.023-281.529-1.023"/>
						<path fill="none" stroke="#00A99D" stroke-miterlimit="10" d="M-132.501,571.157c14.137-5.694,46.2-1.992,62.457-3.108
							c42.516-2.922,88.799,3.145,132.014,2.133c93.389-2.184,188.023-1.023,281.529-1.023"/>
						<path fill="none" stroke="#00A99D" stroke-miterlimit="10" d="M357.499,560.738c-14.137-5.694-46.2-1.992-62.457-3.108
							c-42.517-2.922-88.799,3.145-132.015,2.133c-93.388-2.185-188.022-1.023-281.528-1.023"/>
						<path fill="none" stroke="#00A99D" stroke-miterlimit="10" d="M-63.501,550.32c14.137-5.694,46.2-1.993,62.457-3.108
							c42.516-2.923,88.799,3.145,132.014,2.133c93.389-2.185,188.023-1.023,281.529-1.023"/>
						<path fill="none" stroke="#00A99D" stroke-miterlimit="10" d="M426.499,539.902c-14.137-5.694-46.2-1.993-62.457-3.108
							c-42.516-2.923-88.799,3.145-132.015,2.133c-93.388-2.185-188.022-1.023-281.528-1.023"/>
						<path fill="none" stroke="#00A99D" stroke-miterlimit="10" d="M433.499,529.484c-14.137-5.695-46.2-1.993-62.457-3.108
							c-42.516-2.923-88.799,3.145-132.015,2.133c-93.388-2.185-188.022-1.023-281.528-1.023"/>
						<path fill="none" stroke="#00A99D" stroke-miterlimit="10" d="M-56.501,519.066c14.137-5.695,46.2-1.994,62.457-3.108
							c42.516-2.923,88.799,3.145,132.014,2.133c93.389-2.185,188.023-1.023,281.529-1.023"/>
						<path fill="none" stroke="#00A99D" stroke-miterlimit="10" d="M364.499,508.647c-14.137-5.695-46.2-1.993-62.457-3.108
							c-42.517-2.923-88.799,3.145-132.015,2.133c-93.388-2.185-188.022-1.023-281.528-1.023"/>
						<path fill="none" stroke="#00A99D" stroke-miterlimit="10" d="M-125.501,498.229c14.137-5.695,46.2-1.993,62.457-3.109
							c42.516-2.922,88.799,3.146,132.014,2.134c93.389-2.185,188.023-1.023,281.529-1.023"/>
						<path fill="none" stroke="#00A99D" stroke-miterlimit="10" d="M-137.501,654.502c14.137-5.695,46.2-1.993,62.457-3.109
							c42.516-2.922,88.799,3.146,132.014,2.133c93.389-2.184,188.023-1.022,281.529-1.022"/>
						<path fill="none" stroke="#00A99D" stroke-miterlimit="10" d="M352.499,644.083c-14.137-5.695-46.2-1.992-62.457-3.109
							c-42.517-2.922-88.799,3.145-132.014,2.133c-93.389-2.184-188.023-1.022-281.529-1.022"/>
						<path fill="none" stroke="#00A99D" stroke-miterlimit="10" d="M-68.501,633.666c14.137-5.695,46.2-1.993,62.457-3.109
							c42.516-2.922,88.799,3.145,132.014,2.133c93.389-2.184,188.023-1.022,281.529-1.022"/>
						<path fill="none" stroke="#00A99D" stroke-miterlimit="10" d="M421.499,623.248c-14.137-5.695-46.2-1.993-62.457-3.109
							c-42.516-2.922-88.799,3.145-132.015,2.133c-93.388-2.184-188.022-1.023-281.528-1.023"/>
						<path fill="none" stroke="#00A99D" stroke-miterlimit="10" d="M428.499,612.83c-14.137-5.694-46.2-1.992-62.457-3.108
							c-42.516-2.922-88.799,3.145-132.015,2.133c-93.388-2.184-188.022-1.022-281.528-1.022"/>
						<path fill="none" stroke="#00A99D" stroke-miterlimit="10" d="M-61.501,602.412c14.137-5.694,46.2-1.993,62.457-3.108
							c42.516-2.922,88.799,3.145,132.014,2.133c93.389-2.184,188.023-1.023,281.529-1.023"/>
						<path fill="none" stroke="#00A99D" stroke-miterlimit="10" d="M359.499,591.993c-14.137-5.694-46.2-1.992-62.457-3.108
							c-42.517-2.922-88.799,3.145-132.015,2.133c-93.388-2.184-188.022-1.023-281.528-1.023"/>
						<path fill="none" stroke="#00A99D" stroke-miterlimit="10" d="M-130.501,581.575c14.137-5.694,46.2-1.992,62.457-3.108
							c42.516-2.922,88.799,3.145,132.014,2.133c93.389-2.184,188.023-1.023,281.529-1.023"/>
						<path fill="none" stroke="#00A99D" stroke-miterlimit="10" d="M-132.501,737.848c14.137-5.695,46.2-1.992,62.457-3.109
							c42.516-2.922,88.799,3.146,132.014,2.135c93.389-2.186,188.023-1.023,281.529-1.023"/>
						<path fill="none" stroke="#00A99D" stroke-miterlimit="10" d="M357.499,727.43c-14.137-5.695-46.2-1.992-62.457-3.109
							c-42.517-2.922-88.799,3.145-132.015,2.133c-93.388-2.184-188.022-1.023-281.528-1.023"/>
						<path fill="none" stroke="#00A99D" stroke-miterlimit="10" d="M-63.501,717.012c14.137-5.696,46.2-1.994,62.457-3.11
							c42.516-2.922,88.799,3.145,132.014,2.133c93.389-2.184,188.023-1.023,281.529-1.023"/>
						<path fill="none" stroke="#00A99D" stroke-miterlimit="10" d="M426.499,706.593c-14.137-5.695-46.2-1.993-62.457-3.109
							c-42.516-2.922-88.799,3.146-132.015,2.133c-93.388-2.184-188.022-1.022-281.528-1.022"/>
						<path fill="none" stroke="#00A99D" stroke-miterlimit="10" d="M433.499,696.175c-14.137-5.695-46.2-1.993-62.457-3.109
							c-42.516-2.922-88.799,3.146-132.015,2.133c-93.388-2.184-188.022-1.022-281.528-1.022"/>
						<path fill="none" stroke="#00A99D" stroke-miterlimit="10" d="M-56.501,685.757c14.137-5.695,46.2-1.994,62.457-3.109
							c42.516-2.922,88.799,3.146,132.014,2.133c93.389-2.184,188.023-1.022,281.529-1.022"/>
						<path fill="none" stroke="#00A99D" stroke-miterlimit="10" d="M364.499,675.338c-14.137-5.695-46.2-1.993-62.457-3.109
							c-42.517-2.922-88.799,3.146-132.015,2.133c-93.388-2.184-188.022-1.022-281.528-1.022"/>
						<path fill="none" stroke="#00A99D" stroke-miterlimit="10" d="M-125.501,664.92c14.137-5.695,46.2-1.993,62.457-3.109
							c42.516-2.922,88.799,3.146,132.014,2.133c93.389-2.184,188.023-1.022,281.529-1.022"/>
					</g>
				</g>
			</g>
		</g>
		<g id="home-tablette">
		</g>
		<g id="home-desktop">
		</g>
	</g>
</g>
</svg>
