<?xml version="1.0" encoding="utf-8"?>
<!-- Generator: Adobe Illustrator 16.0.0, SVG Export Plug-In . SVG Version: 6.00 Build 0)  -->
<!DOCTYPE svg PUBLIC "-//W3C//DTD SVG 1.1//EN" "http://www.w3.org/Graphics/SVG/1.1/DTD/svg11.dtd">
<svg version="1.1" id="Calque_2" xmlns="http://www.w3.org/2000/svg" xmlns:xlink="http://www.w3.org/1999/xlink" x="0px" y="0px"
	 width="2186px" height="924px" viewBox="324.5 0 2186 924" enable-background="new 324.5 0 2186 924" xml:space="preserve">
<g id="lignes_2_">
	<path fill="none" stroke="#00A99D" stroke-miterlimit="10" d="M2624.576,463.5c-83.15-5.695-271.738-2.993-367.36-4.109
		c-250.07-2.922-522.298,3.146-776.478,2.134c-549.291-2.185-1105.911-1.023-1655.894-1.023"/>
	<path fill="none" stroke="#00A99D" stroke-miterlimit="10" d="M3030.418,451.5c-83.148-5.695-271.738,0.007-367.36-1.109
		c-250.068-2.922-522.296,1.146-776.476,0.134c-549.29-2.185-1105.914-1.024-1655.895-1.024"/>
	<path fill="none" stroke="#00A99D" stroke-miterlimit="10" d="M189.515,442.5c83.148-5.695,271.74-1.993,367.359-3.109
		c250.068-2.922,522.298,3.146,776.478,2.134c549.292-2.185,1105.913-1.023,1655.895-1.023"/>
	<path fill="none" stroke="#00A99D" stroke-miterlimit="10" d="M-216.328,432.5c83.15-5.695,271.74-1.993,367.362-3.109
		c250.068-2.922,522.295,3.146,776.475,2.134c549.293-2.185,1105.912-3.023,1655.894-3.023"/>
	<path fill="none" stroke="#00A99D" stroke-miterlimit="10" d="M2653.984,503.5c-83.148-5.695-271.736-2.993-367.359-4.109
		c-250.067-2.922-522.295,3.146-776.477,2.134C960.856,499.34,404.235,500.5-145.746,500.5"/>
	<path fill="none" stroke="#00A99D" stroke-miterlimit="10" d="M3059.828,492.5c-83.15-5.695-271.74,0.007-367.359-1.109
		c-250.069-2.922-522.299,1.146-776.479,0.134C1366.7,489.34,810.079,490.5,260.098,490.5"/>
	<path fill="none" stroke="#00A99D" stroke-miterlimit="10" d="M218.926,482.5c83.148-5.695,271.737-1.993,367.359-3.109
		c250.068-2.922,522.297,3.146,776.479,2.134c549.29-2.185,1105.909-1.023,1655.893-1.023"/>
	<path fill="none" stroke="#00A99D" stroke-miterlimit="10" d="M-186.918,472.5c83.148-5.695,271.74-1.993,367.359-3.109
		c250.069-2.922,522.296,3.146,776.479,2.134c549.292-2.185,1105.911-3.023,1655.893-3.023"/>
	<path fill="none" stroke="#00A99D" stroke-miterlimit="10" d="M148.343,532.5c83.149-5.695,271.741-1.993,367.359-3.109
		c250.069-2.922,522.296,3.146,776.478,2.134c549.292-2.185,1105.913-2.023,1655.895-2.023"/>
	<path fill="none" stroke="#00A99D" stroke-miterlimit="10" d="M3071.592,522.5c-83.15-5.695-271.74,1.007-367.362-0.109
		c-250.067-2.922-522.295,0.146-776.475-0.866C1378.464,519.34,821.842,520.5,271.859,520.5"/>
	<path fill="none" stroke="#00A99D" stroke-miterlimit="10" d="M2665.748,513.5c-83.15-5.695-271.738-2.993-367.358-4.109
		c-250.069-2.922-522.299,3.146-776.479,2.134C972.62,509.34,416,510.5-133.981,510.5"/>
	<path fill="none" stroke="#00A99D" stroke-miterlimit="10" d="M-257.5,886.718c83.148-5.694,271.74-1.993,367.359-3.108
		c250.068-2.922,522.298,3.145,776.478,2.133c549.293-2.185,1105.912-3.023,1655.894-3.023"/>
	<path fill="none" stroke="#00A99D" stroke-miterlimit="10" d="M2624.576,877.299c-83.15-5.695-271.738-2.992-367.36-4.108
		c-250.07-2.923-522.298,3.145-776.478,2.133C931.447,873.139,374.827,874.3-175.156,874.3"/>
	<path fill="none" stroke="#00A99D" stroke-miterlimit="10" d="M148.343,865.881c83.149-5.695,271.741-1.993,367.359-3.109
		c250.069-2.922,522.296,3.146,776.478,2.134c549.292-2.185,1105.913-2.023,1655.895-2.023"/>
	<path fill="none" stroke="#00A99D" stroke-miterlimit="10" d="M3030.418,855.463c-83.148-5.695-271.738,0.007-367.36-1.109
		c-250.068-2.922-522.296,1.146-776.476,0.134c-549.292-2.185-1105.914-1.023-1655.895-1.023"/>
	<path fill="none" stroke="#00A99D" stroke-miterlimit="10" d="M3071.592,845.045c-83.15-5.695-271.74,1.007-367.362-0.109
		c-250.067-2.922-522.295,0.146-776.475-0.866c-549.293-2.185-1105.913-1.023-1655.896-1.023"/>
	<path fill="none" stroke="#00A99D" stroke-miterlimit="10" d="M189.515,834.627c83.148-5.695,271.74-1.994,367.359-3.109
		c250.068-2.922,522.298,3.146,776.478,2.134c549.292-2.185,1105.913-2.023,1655.895-2.023"/>
	<path fill="none" stroke="#00A99D" stroke-miterlimit="10" d="M2665.748,826.208c-83.15-5.695-271.738-3.993-367.358-5.109
		c-250.069-2.922-522.299,3.146-776.479,2.134C972.618,821.048,416,822.209-133.981,822.209"/>
	<path fill="none" stroke="#00A99D" stroke-miterlimit="10" d="M-216.328,813.79c83.15-5.695,271.74-1.993,367.362-3.109
		c250.068-2.922,522.295,3.146,776.475,2.134c549.293-2.185,1105.912-3.023,1655.894-3.023"/>
	<path fill="none" stroke="#00A99D" stroke-miterlimit="10" d="M3101,928.391c-83.148-5.694-271.736-1.992-367.358-3.108
		c-250.07-2.922-522.298,3.145-776.479,2.133c-549.292-2.185-1105.911-1.023-1655.893-1.023"/>
	<path fill="none" stroke="#00A99D" stroke-miterlimit="10" d="M218.926,917.973c83.148-5.694,271.737-1.994,367.359-3.108
		c250.068-2.922,522.297,3.145,776.479,2.133c549.29-2.185,1105.909-1.023,1655.893-1.023"/>
	<path fill="none" stroke="#00A99D" stroke-miterlimit="10" d="M2695.156,909.554c-83.148-5.694-271.736-3.993-367.358-5.108
		c-250.068-2.922-522.296,3.145-776.476,2.133c-549.292-2.185-1105.915-1.023-1655.896-1.023"/>
	<path fill="none" stroke="#00A99D" stroke-miterlimit="10" d="M-186.918,897.136c83.148-5.694,271.74-1.993,367.359-3.108
		c250.069-2.922,522.296,3.145,776.479,2.133c549.292-2.185,1105.911-3.023,1655.893-3.023"/>
	<path fill="none" stroke="#00A99D" stroke-miterlimit="10" d="M-257.5,553.335c83.148-5.695,271.74-1.993,367.359-3.109
		c250.068-2.922,522.298,3.146,776.478,2.134c549.293-2.185,1105.912-3.023,1655.894-3.023"/>
	<path fill="none" stroke="#00A99D" stroke-miterlimit="10" d="M2624.576,542.917c-83.15-5.695-271.738-1.993-367.36-3.109
		c-250.07-2.922-522.298,3.146-776.478,2.134c-549.291-2.185-1105.911-1.023-1655.894-1.023"/>
	<path fill="none" stroke="#00A99D" stroke-miterlimit="10" d="M-228.09,636.681c83.149-5.694,271.739-1.992,367.36-3.108
		c250.069-2.922,522.296,3.145,776.478,2.133c549.291-2.184,1105.912-3.023,1655.894-3.023"/>
	<path fill="none" stroke="#00A99D" stroke-miterlimit="10" d="M2653.984,628.262c-83.148-5.694-271.736-3.992-367.359-5.108
		c-250.067-2.922-522.295,3.145-776.477,2.133c-549.292-2.185-1105.914-1.023-1655.895-1.023"/>
	<path fill="none" stroke="#00A99D" stroke-miterlimit="10" d="M177.753,615.844c83.148-5.694,271.738-1.993,367.358-3.108
		c250.067-2.923,522.298,3.145,776.478,2.133c549.293-2.185,1105.911-2.023,1655.893-2.023"/>
	<path fill="none" stroke="#00A99D" stroke-miterlimit="10" d="M3059.828,605.426c-83.15-5.694-271.74,0.007-367.359-1.108
		c-250.069-2.923-522.299,1.145-776.479,0.133c-549.292-2.185-1105.911-1.023-1655.893-1.023"/>
	<path fill="none" stroke="#00A99D" stroke-miterlimit="10" d="M3101,595.008c-83.148-5.695-271.736,1.007-367.358-0.108
		c-250.07-2.923-522.298,0.145-776.479-0.867c-549.292-2.185-1123.056-1.023-1673.037-1.023"/>
	<path fill="none" stroke="#00A99D" stroke-miterlimit="10" d="M218.926,584.59c83.148-5.695,271.737-1.994,367.359-3.108
		c250.068-2.923,522.297,3.145,776.479,2.133c549.29-2.185,1105.909-1.023,1655.893-1.023"/>
	<path fill="none" stroke="#00A99D" stroke-miterlimit="10" d="M2695.156,576.171c-82.898-5.68-271.67-3.993-367.358-5.108
		c-250.068-2.923-522.296,3.145-776.476,2.133c-549.292-2.185-1105.915-1.023-1655.896-1.023"/>
	<path fill="none" stroke="#00A99D" stroke-miterlimit="10" d="M-186.918,563.753c83.148-5.695,271.74-1.993,367.359-3.109
		c250.069-2.922,522.296,3.146,776.479,2.134c549.292-2.185,1105.911-3.023,1655.893-3.023"/>
	<path fill="none" stroke="#00A99D" stroke-miterlimit="10" d="M-257.5,720.026c83.148-5.695,271.74-1.993,367.359-3.109
		c250.068-2.922,522.298,3.146,776.478,2.133c549.293-2.184,1105.912-3.022,1655.894-3.022"/>
	<path fill="none" stroke="#00A99D" stroke-miterlimit="10" d="M2624.576,710.607c-83.15-5.695-271.738-2.992-367.36-4.109
		c-250.07-2.922-522.298,3.145-776.478,2.133c-549.291-2.184-1105.911-1.022-1655.894-1.022"/>
	<path fill="none" stroke="#00A99D" stroke-miterlimit="10" d="M148.343,699.189c83.149-5.695,271.741-1.993,367.359-3.109
		c250.069-2.922,522.296,3.145,776.478,2.133c549.292-2.184,1105.913-2.022,1655.895-2.022"/>
	<path fill="none" stroke="#00A99D" stroke-miterlimit="10" d="M3030.418,688.771c-83.148-5.695-271.738,0.007-367.36-1.109
		c-250.068-2.922-522.296,1.145-776.476,0.133c-549.292-2.184-1105.914-1.023-1655.895-1.023"/>
	<path fill="none" stroke="#00A99D" stroke-miterlimit="10" d="M3071.592,678.354c-83.15-5.694-271.74,1.008-367.362-0.108
		c-250.067-2.922-522.295,0.145-776.475-0.867c-549.293-2.184-1105.913-1.022-1655.896-1.022"/>
	<path fill="none" stroke="#00A99D" stroke-miterlimit="10" d="M189.515,667.936c83.148-5.694,271.74-1.993,367.359-3.108
		c250.068-2.922,522.298,3.145,776.478,2.133c549.292-2.184,1105.913-2.023,1655.895-2.023"/>
	<path fill="none" stroke="#00A99D" stroke-miterlimit="10" d="M2665.748,659.517c-83.15-5.694-271.738-3.992-367.358-5.108
		c-250.069-2.922-522.299,3.145-776.479,2.133C972.618,654.357,416,655.518-133.981,655.518"/>
	<path fill="none" stroke="#00A99D" stroke-miterlimit="10" d="M-216.328,647.099c83.15-5.694,271.74-1.992,367.362-3.108
		c250.068-2.922,522.295,3.145,776.475,2.133c549.293-2.184,1105.912-3.023,1655.894-3.023"/>
	<path fill="none" stroke="#00A99D" stroke-miterlimit="10" d="M-228.09,803.372c83.149-5.695,271.739-1.993,367.36-3.109
		c250.069-2.922,522.296,3.146,776.478,2.134c549.291-2.185,1105.912-3.023,1655.894-3.023"/>
	<path fill="none" stroke="#00A99D" stroke-miterlimit="10" d="M2653.984,794.953c-83.148-5.695-271.736-3.992-367.359-5.109
		c-250.067-2.922-522.295,3.146-776.477,2.133c-549.292-2.184-1105.914-1.022-1655.895-1.022"/>
	<path fill="none" stroke="#00A99D" stroke-miterlimit="10" d="M177.753,782.535c83.148-5.695,271.738-1.993,367.358-3.109
		c250.067-2.922,522.298,3.146,776.478,2.133c549.293-2.184,1105.911-2.022,1655.893-2.022"/>
	<path fill="none" stroke="#00A99D" stroke-miterlimit="10" d="M3059.828,772.117c-83.15-5.695-271.74,1.007-367.359-0.109
		c-250.069-2.922-522.299,0.146-776.479-0.867c-549.292-2.184-1105.911-1.022-1655.893-1.022"/>
	<path fill="none" stroke="#00A99D" stroke-miterlimit="10" d="M3101,761.699c-83.148-5.695-271.736,1.007-367.358-0.109
		c-250.07-2.922-522.298,0.146-776.479-0.867C1407.87,758.539,834.106,759.7,284.125,759.7"/>
	<path fill="none" stroke="#00A99D" stroke-miterlimit="10" d="M218.926,751.281c83.148-5.695,271.737-1.994,367.359-3.109
		c250.068-2.922,522.297,3.146,776.479,2.133c549.29-2.184,1105.909-1.022,1655.893-1.022"/>
	<path fill="none" stroke="#00A99D" stroke-miterlimit="10" d="M2695.156,742.862c-83.148-5.695-271.736-3.993-367.358-5.109
		c-250.068-2.922-522.296,3.146-776.476,2.133c-549.292-2.184-1105.915-1.022-1655.896-1.022"/>
	<path fill="none" stroke="#00A99D" stroke-miterlimit="10" d="M-186.918,730.444c83.148-5.695,271.74-1.993,367.359-3.109
		c250.069-2.922,522.296,3.146,776.479,2.133c549.292-2.184,1105.911-3.022,1655.893-3.022"/>
</g>
<g id="lignes_3_">
	<path fill="none" stroke="#00A99D" stroke-miterlimit="10" d="M-257.5,223.718c83.148-5.695,271.74-1.993,367.359-3.109
		c250.068-2.922,522.298,3.145,776.478,2.133c549.293-2.184,1105.912-3.023,1655.894-3.023"/>
	<path fill="none" stroke="#00A99D" stroke-miterlimit="10" d="M2624.576,215.299c-83.15-5.695-271.738-3.992-367.36-5.109
		c-250.07-2.922-522.298,3.145-776.478,2.133C931.447,210.139,374.827,211.3-175.156,211.3"/>
	<path fill="none" stroke="#00A99D" stroke-miterlimit="10" d="M148.343,202.881c83.149-5.695,271.741-1.993,367.359-3.109
		c250.069-2.922,522.296,3.145,776.478,2.133c549.292-2.184,1105.913-2.023,1655.895-2.023"/>
	<path fill="none" stroke="#00A99D" stroke-miterlimit="10" d="M3030.418,192.463c-83.148-5.695-271.738,0.007-367.36-1.109
		c-250.068-2.922-522.296,1.145-776.476,0.133c-549.292-2.184-1105.914-1.023-1655.895-1.023"/>
	<path fill="none" stroke="#00A99D" stroke-miterlimit="10" d="M3071.592,182.045c-83.15-5.695-271.74,0.007-367.362-1.109
		c-250.067-2.922-522.295,1.145-776.475,0.133c-549.293-2.184-1105.913-1.023-1655.896-1.023"/>
	<path fill="none" stroke="#00A99D" stroke-miterlimit="10" d="M189.515,171.627c83.148-5.695,271.74-1.994,367.359-3.109
		c250.068-2.922,522.298,3.145,776.478,2.133c549.292-2.184,1105.913-2.023,1655.895-2.023"/>
	<path fill="none" stroke="#00A99D" stroke-miterlimit="10" d="M2665.748,163.208c-83.15-5.695-271.738-3.993-367.358-5.109
		c-250.069-2.922-522.299,3.145-776.479,2.133C972.618,158.048,416,159.209-133.981,159.209"/>
	<path fill="none" stroke="#00A99D" stroke-miterlimit="10" d="M-216.328,150.79c83.15-5.695,271.74-1.993,367.362-3.109
		c250.068-2.922,522.295,3.145,776.475,2.133c549.293-2.184,1105.912-3.023,1655.894-3.023"/>
	<path fill="none" stroke="#00A99D" stroke-miterlimit="10" d="M-228.09,307.063c83.149-5.695,271.739-1.993,367.36-3.109
		c250.069-2.922,522.296,3.145,776.478,2.133c549.291-2.184,1105.912-3.023,1655.894-3.023"/>
	<path fill="none" stroke="#00A99D" stroke-miterlimit="10" d="M2653.984,298.645c-83.148-5.695-271.736-3.992-367.359-5.109
		c-250.067-2.922-522.295,3.145-776.477,2.133c-549.292-2.184-1105.914-1.023-1655.895-1.023"/>
	<path fill="none" stroke="#00A99D" stroke-miterlimit="10" d="M177.753,286.227c83.148-5.695,271.738-1.993,367.358-3.109
		c250.067-2.922,522.298,3.145,776.478,2.133c549.293-2.184,1105.911-2.023,1655.893-2.023"/>
	<path fill="none" stroke="#00A99D" stroke-miterlimit="10" d="M3059.828,275.809c-83.15-5.695-271.74,0.007-367.359-1.109
		c-250.069-2.922-522.299,1.145-776.479,0.133c-549.292-2.184-1105.911-1.023-1655.893-1.023"/>
	<path fill="none" stroke="#00A99D" stroke-miterlimit="10" d="M3101,265.391c-83.148-5.695-271.736,0.007-367.358-1.109
		c-250.07-2.922-522.298,1.145-776.479,0.133c-549.292-2.184-1123.056-1.023-1673.037-1.023"/>
	<path fill="none" stroke="#00A99D" stroke-miterlimit="10" d="M218.926,254.973c83.148-5.695,271.737-1.994,367.359-3.109
		c250.068-2.922,522.297,3.145,776.479,2.133c549.29-2.184,1105.909-2.023,1655.893-2.023"/>
	<path fill="none" stroke="#00A99D" stroke-miterlimit="10" d="M2695.156,246.554c-83.148-5.695-271.736-3.993-367.358-5.109
		c-250.068-2.922-522.296,3.145-776.476,2.133c-549.292-2.184-1105.915-1.023-1655.896-1.023"/>
	<path fill="none" stroke="#00A99D" stroke-miterlimit="10" d="M-186.918,234.136c83.148-5.695,271.74-1.993,367.359-3.109
		c250.069-2.922,522.296,3.145,776.479,2.133c549.292-2.184,1105.911-3.023,1655.893-3.023"/>
	<path fill="none" stroke="#00A99D" stroke-miterlimit="10" d="M-257.5,390.409c83.148-5.695,271.74-1.993,367.359-3.109
		c250.068-2.922,522.298,3.145,776.478,2.133c549.293-2.184,1105.912-3.023,1655.894-3.023"/>
	<path fill="none" stroke="#00A99D" stroke-miterlimit="10" d="M2624.576,381.99c-83.15-5.695-271.738-3.992-367.36-5.109
		c-250.07-2.922-522.298,3.145-776.478,2.133c-549.291-2.184-1105.911-1.023-1655.894-1.023"/>
	<path fill="none" stroke="#00A99D" stroke-miterlimit="10" d="M148.343,369.572c83.149-5.695,271.741-1.993,367.359-3.109
		c250.069-2.922,522.296,3.145,776.478,2.133c549.292-2.184,1105.913-2.022,1655.895-2.022"/>
	<path fill="none" stroke="#00A99D" stroke-miterlimit="10" d="M3030.418,359.154c-83.148-5.695-271.738,0.007-367.36-1.109
		c-250.068-2.922-522.296,1.145-776.476,0.133c-549.292-2.184-1105.914-1.023-1655.895-1.023"/>
	<path fill="none" stroke="#00A99D" stroke-miterlimit="10" d="M3071.592,350.736c-83.15-5.695-271.74-1.993-367.362-3.109
		c-250.067-2.922-522.295,1.145-776.475,0.133c-549.293-2.184-1105.913-1.023-1655.896-1.023"/>
	<path fill="none" stroke="#00A99D" stroke-miterlimit="10" d="M189.515,338.318c83.148-5.695,271.74-1.994,367.359-3.109
		c250.068-2.922,522.298,3.145,776.478,2.133c549.292-2.184,1105.913-2.023,1655.895-2.023"/>
	<path fill="none" stroke="#00A99D" stroke-miterlimit="10" d="M2665.748,329.899c-83.15-5.695-271.738-3.993-367.358-5.109
		c-250.069-2.922-522.299,3.145-776.479,2.133C972.618,324.739,416,325.9-133.981,325.9"/>
	<path fill="none" stroke="#00A99D" stroke-miterlimit="10" d="M-216.328,317.481c83.15-5.695,271.74-1.993,367.362-3.109
		c250.068-2.922,522.295,3.145,776.475,2.133c549.293-2.184,1105.912-3.023,1655.894-3.023"/>
	<path fill="none" stroke="#00A99D" stroke-miterlimit="10" d="M218.926,421.664c83.148-5.695,271.737-1.994,367.359-3.109
		c250.068-2.922,522.297,3.146,776.479,2.133c549.29-2.184,1105.909-2.022,1655.893-2.022"/>
	<path fill="none" stroke="#00A99D" stroke-miterlimit="10" d="M2695.156,414.245c-83.148-5.695-271.736-4.993-367.358-6.109
		c-250.068-2.922-522.296,3.146-776.476,2.133c-549.292-2.184-1105.915-1.022-1655.896-1.022"/>
	<path fill="none" stroke="#00A99D" stroke-miterlimit="10" d="M-186.918,400.827c83.148-5.695,271.74-1.993,367.359-3.109
		c250.069-2.922,522.296,3.146,776.479,2.133c549.292-2.184,1105.911-3.022,1655.893-3.022"/>
	<path fill="none" stroke="#00A99D" stroke-miterlimit="10" d="M-257.5,57.026c83.148-5.695,271.74-1.993,367.359-3.109
		c250.068-2.922,522.298,3.145,776.478,2.133c549.293-2.184,1105.912-3.023,1655.894-3.023"/>
	<path fill="none" stroke="#00A99D" stroke-miterlimit="10" d="M2624.576,48.607c-83.15-5.695-271.738-3.992-367.36-5.109
		c-250.07-2.922-522.298,3.145-776.478,2.133c-549.291-2.184-1105.911-1.023-1655.894-1.023"/>
	<path fill="none" stroke="#00A99D" stroke-miterlimit="10" d="M148.343,36.189c83.149-5.695,271.741-1.993,367.359-3.109
		c250.069-2.922,522.296,3.145,776.478,2.133c549.292-2.184,1105.913-2.023,1655.895-2.023"/>
	<path fill="none" stroke="#00A99D" stroke-miterlimit="10" d="M3030.418,25.771c-83.148-5.695-271.738,0.007-367.36-1.109
		c-250.068-2.922-522.296,1.145-776.476,0.133c-549.292-2.184-1105.914-1.023-1655.895-1.023"/>
	<path fill="none" stroke="#00A99D" stroke-miterlimit="10" d="M3071.592,15.354c-83.15-5.695-271.74-1.993-367.362-3.109
		c-250.067-2.922-522.295,3.145-776.475,2.133c-549.36-2.184-1105.9-3.023-1655.896-3.023"/>
	<path fill="none" stroke="#00A99D" stroke-miterlimit="10" d="M189.515,4.936c83.148-5.696,271.742-1.995,367.359-3.11
		c250.068-2.922,522.298,3.145,776.478,2.133c549.292-2.184,1105.913-2.023,1655.895-2.023"/>
	<path fill="none" stroke="#00A99D" stroke-miterlimit="10" d="M-228.09,140.372c83.149-5.695,271.739-1.993,367.36-3.109
		c250.069-2.922,522.296,3.145,776.478,2.133c549.291-2.184,1105.912-3.023,1655.894-3.023"/>
	<path fill="none" stroke="#00A99D" stroke-miterlimit="10" d="M2653.984,131.953c-83.148-5.695-271.736-3.992-367.359-5.109
		c-250.067-2.922-522.295,3.146-776.477,2.133c-549.292-2.184-1105.914-1.023-1655.895-1.023"/>
	<path fill="none" stroke="#00A99D" stroke-miterlimit="10" d="M177.753,119.535c83.148-5.695,271.738-1.993,367.358-3.109
		c250.067-2.922,522.298,3.145,776.478,2.133c549.293-2.184,1105.911-2.023,1655.893-2.023"/>
	<path fill="none" stroke="#00A99D" stroke-miterlimit="10" d="M3059.828,109.117c-83.15-5.695-271.74,0.007-367.359-1.109
		c-250.069-2.922-522.299,1.145-776.479,0.133c-549.292-2.184-1105.911-1.023-1655.893-1.023"/>
	<path fill="none" stroke="#00A99D" stroke-miterlimit="10" d="M3101,98.699c-83.148-5.695-271.736,0.007-367.358-1.109
		c-250.07-2.922-522.298,1.145-776.479,0.133C1407.87,95.539,834.106,96.7,284.125,96.7"/>
	<path fill="none" stroke="#00A99D" stroke-miterlimit="10" d="M218.926,88.281c83.148-5.695,271.739-1.994,367.359-3.109
		c250.068-2.922,522.297,3.145,776.479,2.133c549.29-2.184,1105.909-2.023,1655.893-2.023"/>
	<path fill="none" stroke="#00A99D" stroke-miterlimit="10" d="M2695.156,79.862c-83.148-5.695-271.736-3.993-367.358-5.109
		c-250.068-2.922-522.296,3.145-776.476,2.133c-549.292-2.184-1105.915-1.023-1655.896-1.023"/>
	<path fill="none" stroke="#00A99D" stroke-miterlimit="10" d="M-186.918,67.444c83.148-5.695,271.74-1.993,367.359-3.109
		c250.069-2.922,522.296,3.145,776.479,2.133c549.292-2.184,1105.911-3.023,1655.893-3.023"/>
</g>
<g display="none">
	<g id="elise_1_" display="inline">
		<path fill="#FFFFFF" d="M484.892,575.884c0.381,4.405,1.037,8.716,1.693,12.899c0.741,4.731-0.057,5.791,4.373,8.199
			c3.955,2.149,8.303,3.938,12.697,5.024c10.53,2.605,21.965,3.459,32.845,2.25c3.289-0.365,15.976-2.243,15.399-6.924
			c0.058-0.484-0.427-1.135-1.181-1.85c5.308,1.969,13.286,1.565,17.922,1.307c5.088-0.287,10.079-0.837,15.066-1.616
			c3.412-0.533,11.951-0.718,12.866-4.841c0.814-3.676-2.283-5.834-4.925-6.834l-2.75-1.5c0.702-5-0.565-9.178-0.999-13.642
			c-0.348-3.569-0.667-7.819-0.667-11.432c0-2.604,0.692-6.434-0.334-8.803l-0.095-0.529c6.827-4.006,12.057-10.289,15.096-17.563
			c2.3-5.509,2.984-12.081,3.99-18.017c1.989-11.74,2.736-23.479,1.018-35.431c-1.685-11.7-4.104-23.699-8.092-34.913
			c-1.662-4.674-3.445-9.45-5.845-13.744c-1.938-3.469-4.96-6.242-7.129-9.518c0.062-0.104,0.13-0.199,0.19-0.305
			c0,0,13.422,6.491,15.532-4.974c1.002-5.441,0.22-8.738-1.351-10.699c28.586-5.065,27.5-36.979,27.5-36.979
			s-25.482-0.121,2.418-0.078c27.901,0.043,47.271-29.944,47.271-29.944l-40.838-141.767l-245.333-2l-7.334,44.666
			c0,0-47.002,29.668-46.562,75.275c0.44,45.608,51.98,57.504,51.98,57.504c0.432,29.785,18.893,35.475,28.218,36.446
			c-1.696,1.479-2.729,3.748-2.155,7.227c1.851,11.217,9.984,10.537,17.083,9.711c0,0,0.741,0.455,2.097,1.178
			c-1.807,2.921-4.627,5.84-6.846,8.453c-2.067,2.436-4.116,5.075-5.826,7.801c-3.405,5.431-7.174,11.507-8.657,17.814
			c-0.72,3.047-1.48,5.758-2,8.813c-0.585,3.438-1.195,6.833-1.602,10.316c-0.585,5.028-0.739,10.34-0.732,15.401
			c0.013,10.905,1.838,20.955,6.064,31.035c1.179,2.812,2.776,5.526,4.636,7.963c0.202,1.584-0.146,3.704-0.033,5.053
			c0.188,2.236,0.386,4.388,0.667,6.604c0.57,4.514,1.698,9.195,3.231,13.479c2.822,7.887,7.644,15.542,13.769,21.261
			c6.516,6.083,15.506,12.322,24.34,14.091c5.657,1.134,11.379,0.973,17-0.434c2.688-0.674,5-2.115,7.66-2.99"/>
		<path fill="none" stroke="#000000" stroke-miterlimit="10" d="M547.566,593.666c4.63,3.918,15.378,3.32,21.074,3
			c5.088-0.287,10.079-0.962,15.066-1.741c3.412-0.533,11.951-1.468,12.866-5.591c0.814-3.676-4.699-6.311-7.341-7.334"/>
		<path fill="#FFFFFF" stroke="#000000" stroke-miterlimit="10" d="M422.816,405.675c0,0-32.917,3.325-33.495-36.563
			c0,0-46.918-12.176-51.98-57.504C329.901,245,365.901,235,365.901,235s-32-58,14-105.334c46.768-48.123,111.334-8,111.334-8
			S597.326,37.137,677.899,147c22.002,30-15.331,103.334-15.331,103.334s44.667,22.666,14.838,85.099
			c-9.818,20.55-32.171,32.233-47.271,29.944c-2.391-0.362-2.418,0.078-2.418,0.078s1.184,34.369-30.84,37.443L422.816,405.675z"/>
		<path fill="#FFFFFF" stroke="#000000" stroke-miterlimit="10" d="M428.378,402.898c0,0-14.844-1.331-12.994,9.885
			c1.851,11.217,9.984,10.537,17.083,9.711c0,0,12.403,7.635,29.251,10.237c16.849,2.602,38.176,8.269,51.604,8.269
			c13.427,0,33.002-6.059,46.681-8.418c13.521-2.332,21.5-6.703,26.032-14.476c0,0,13.422,6.49,15.532-4.975
			c2.109-11.465-3.651-13.482-8.159-13.309c-4.509,0.176-80.086-9.49-80.086-9.49L428.378,402.898z"/>
		<path fill="#FFFFFF" stroke="#000000" stroke-miterlimit="10" d="M527.297,348.904c-8.759,5.763-14.075,17.43-14.177,34.611
			c-0.152,25.455,4.96,41.192,33.938,42.171c28.981,0.979,49.452-5.276,47.814-40.975c-1.333-29.046-11.888-38.707-32.093-42.509
			C547.865,339.397,536.057,343.142,527.297,348.904z"/>
		<path fill="#FFFFFF" stroke="#000000" stroke-miterlimit="10" d="M512.019,398.796c0,0,13.926,9.491,15.736,19.348
			c0,0-2.548,2.532-7.868,4.694c0,0,0.53,1.513,3.181,1.754c2.649,0.241,3.482,1.676,1.271,3.959s-13.438,6.782-23.771-1.051"/>
		<path fill="#FFFFFF" stroke="#000000" stroke-miterlimit="10" d="M440.242,348.904c-9.343,5.763-15.015,17.43-15.122,34.611
			c-0.162,25.455,5.291,41.192,36.201,42.171c30.912,0.979,52.747-5.276,51-40.975c-1.422-29.046-12.681-38.707-34.23-42.509
			C462.181,339.397,449.585,343.142,440.242,348.904z"/>
		<path fill="#16A1A8" d="M480.899,377.357c0-15.422-5.547-27.663-8.771-33.481c-4.227-0.439-9.186-0.382-12.878,0.062
			c-4.067,3.945-12.851,15.514-12.851,35.547c0,22.752,0.149,34.978,6.579,43.397c2.033,0.249,5.194,0.421,7.524,0.495
			c1.914,0.062,3.788,0.09,5.625,0.086C481.132,411.384,480.899,397.029,480.899,377.357z"/>
		<path fill="#16A1A8" d="M565.604,377.463c0-15.156-5.449-27.189-8.619-32.908c-4.155-0.432-9.047-0.375-12.677,0.061
			c-3.998,3.878-12.611,15.249-12.611,34.938c0,22.363,0.131,34.378,6.45,42.654c1.997,0.244,5.121,0.414,7.411,0.486
			c1.883,0.061,3.725,0.089,5.528,0.085C565.832,410.906,565.604,396.799,565.604,377.463z"/>
		<path fill="none" stroke="#000000" stroke-miterlimit="10" d="M478.091,342.204c-6.181-1.091-11.854-1.183-17.038-0.562
			c-4.304,4.174-14.652,16.414-14.652,37.607c0,24.071,1.218,37.006,8.02,45.914c2.151,0.263,4.438,0.445,6.902,0.522
			c30.912,0.979,52.747-5.276,51-40.975C510.899,355.667,499.642,346.006,478.091,342.204z"/>
		<path fill="none" stroke="#000000" stroke-miterlimit="10" d="M475.153,344.18c-5.796-1.022-11.121-1.119-15.996-0.558
			c-4.867,5.443-12.758,17.121-12.758,35.628c0,22.381,1.056,35.133,6.671,43.973c1.917,0.224,3.939,0.379,6.115,0.449
			c29.435,0.932,50.226-5.025,48.562-39.017C506.394,356.998,495.675,347.799,475.153,344.18z"/>
		<path fill="none" stroke="#000000" stroke-miterlimit="10" d="M562.781,342.204c-6.149-1.157-11.764-1.188-16.859-0.436
			c-4.381,4.296-14.521,16.507-14.521,37.481c0,23.913,1.203,36.834,7.887,45.736c2.38,0.367,4.961,0.604,7.773,0.7
			c28.98,0.979,49.451-5.276,47.813-40.975C593.541,355.667,582.986,346.006,562.781,342.204z"/>
		<path fill="none" stroke="#000000" stroke-miterlimit="10" d="M589.999,384.643c-1.254-27.328-11.185-36.418-30.194-39.994
			c-5.784-1.089-11.065-1.117-15.86-0.41c-0.677,0.662-1.506,1.547-2.406,2.612c-4.647,6.282-10.138,16.965-10.138,32.399
			c0,21.491,0.975,34.102,6.021,42.898c0.093,0.128,0.185,0.258,0.278,0.385c2.237,0.347,4.667,0.57,7.312,0.66
			C572.28,424.115,591.54,418.229,589.999,384.643z"/>
		<path fill="none" stroke="#000000" stroke-miterlimit="10" d="M455.949,487.834c-0.119,0.658,0.175,1.119,0.31,1.733
			c0.34,1.554,0.499,3.057,0.987,4.611c0.905,2.89,1.981,5.437,3.262,8.159c1.474,3.135,3.022,6.161,5.487,8.609
			c4.45,4.42,10.084,9.447,16.313,11.398c2.729,0.855,5.607,1.418,8.332,1.068c2.952-0.38,6.095-2.09,8.593-3.746
			c2.544-1.688,4.884-3.987,7.684-5.277c1.514-0.697,6.248-1.987,7.748-0.823c2.179,1.689-0.785,5.884-2.082,7.173
			c-1.797,1.787-5.529,4.359-5.35,7.259l-0.084,0.5c0.571,1.373,1.006,1.164,2.75,2.134c1.698,0.944,3.626,1.771,5.439,2.671
			c2.019,0.999,3.801,1.802,5.931,2.343c1.651,0.42,4.551-1.181,6.13-0.521c4.595,1.912,1.5,6.875-3.568,8.965
			c-3.564,1.469-7.669,1.41-11.314,1.41c-0.242,0,0.483,0,0.483,0"/>
		<path fill="none" stroke="#000000" stroke-miterlimit="10" d="M434.566,423.666c-1.807,2.924-4.629,5.845-6.85,8.459
			c-2.067,2.436-4.116,5.075-5.826,7.801c-3.405,5.432-7.174,11.507-8.657,17.814c-0.72,3.047-1.48,5.758-2,8.813
			c-0.585,3.438-1.195,6.833-1.602,10.316c-0.585,5.029-0.739,10.34-0.732,15.402c0.013,10.904,1.838,20.954,6.064,31.034
			c1.511,3.603,3.702,7.052,6.259,9.951c2.257,2.56,5.352,4.396,7.992,6.705c6.603,5.773,14.353,10.361,22.675,13.109
			c4.915,1.623,9.446,4.533,14.595,5.518c3.936,0.754,7.854,1.668,11.804,2.391c7.009,1.281,14.053,2.734,20.943,4.353
			c2.462,0.577,5.031,2.023,7.334,3.25c2.699,1.439,4.594,1.908,7.407,1.156c2.265-0.606,7.906-3.068,5.343-6.156
			c-1.114-1.342-3.175-0.805-4.749-0.592c-1.971,0.266-2.938,0.214-4-1.658c-0.146-0.606-0.02-1.34,0.384-2.017
			c0.479-0.807,2.196-1.153,2.967-1.561c1.769-0.934,3.42-1.35,5.315-2.018c3.405-1.198,6.618-2.792,6.667-7.074"/>
		<path fill="none" stroke="#000000" stroke-miterlimit="10" d="M510.899,551.334c0.638,0.345,2.158,0.011,2.92-0.074
			c1.306-0.146,2.773-0.303,4.079-0.584c1.757-0.378,3.579-0.878,5.261-1.416c5.489-1.76,6.161-5.537,4.739-8.51"/>
		<path fill="none" stroke="#000000" stroke-miterlimit="10" d="M458.899,499.667c0.133,0.239-0.164,0.786,0.253,0.293
			c1.935-10.669,11.854-20.929,20.574-26.886c9.521-6.502,21.518-7.733,31.953-3.293c12.116,5.153,19.452,16.449,22.635,28.733
			c3.355,12.962,5.586,26.021,6.325,39.292c0.764,13.682,0.798,27.53,0.259,41.208c-0.17,4.302-0.862,8.336,2.609,11.171
			c1.771,1.446,8.603,5.389,8.391,7.147"/>
		<path fill="none" stroke="#000000" stroke-miterlimit="10" d="M483.233,562c1.743,3.977,1.288,9.588,1.657,13.884
			c0.381,4.405,1.037,8.716,1.693,12.899c0.741,4.731-0.057,5.791,4.373,8.199c3.955,2.149,8.303,3.938,12.697,5.024
			c10.53,2.605,21.965,3.459,32.845,2.25c3.289-0.365,15.976-2.243,15.399-6.924"/>
		<path fill="none" stroke="#000000" stroke-miterlimit="10" d="M419.233,530c0.836,1.473,0.186,4.562,0.333,6.323
			c0.188,2.236,0.386,4.388,0.667,6.604c0.57,4.515,1.698,9.195,3.231,13.479c2.822,7.887,7.644,15.542,13.769,21.261
			c6.516,6.083,15.506,12.322,24.34,14.091c5.658,1.134,11.379,0.974,17-0.434c2.688-0.673,5-2.115,7.66-2.99"/>
		<path fill="none" stroke="#000000" stroke-miterlimit="10" d="M584.566,499.334c-1.542,8.981-13.499-0.23-15.951,4.407
			c-2.686,5.079,8.159,9.665,11.618,9.259"/>
		<path fill="none" stroke="#000000" stroke-miterlimit="10" d="M580.566,513.334c-0.431,4.446-3.621,9.979-7.333,12.357
			c-2.09,1.34-7.887,1.859-7.676,4.976c0.491,7.237,13.653,1.237,15.676-2"/>
		<path fill="none" stroke="#000000" stroke-miterlimit="10" d="M568.233,534.334c-2.066,0.778-3.742,2.922-2.083,5.09
			c1.31,1.71,4.811,1.466,6.757,1.251c4.683-0.517,9.715-2.792,12.659-6.675"/>
		<path fill="none" stroke="#000000" stroke-miterlimit="10" d="M569.899,541c-0.371,3.734,5.479,3.662,7.982,3.351
			c3.76-0.466,7.562-2.577,10.018-5.351"/>
		<path fill="none" stroke="#000000" stroke-miterlimit="10" d="M585.566,418c2.181,3.46,5.388,6.311,7.405,9.926
			c2.398,4.294,4.183,9.068,5.845,13.742c3.988,11.214,6.407,23.209,8.092,34.909c1.72,11.952,0.973,23.683-1.018,35.423
			c-1.006,5.935-1.69,12.492-3.99,18c-3.316,7.94-9.236,14.67-17.002,18.582c-1.642,0.826-11.981,4.277-7.758-1.015
			c0.853-1.065,3.332-1.426,4.499-2.144c1.594-0.979,3.223-2.345,3.927-4.091"/>
		<path fill="none" stroke="#000000" stroke-miterlimit="10" d="M522.899,478.334c-0.053-0.011,1.128-1.098,1.992-1.749
			c2.005-1.509,4.348-2.077,6.686-2.836c4.643-1.507,9.294-3.263,14.239-3.083c5.312,0.193,11.684,2.008,16.417,4.576
			c9.06,4.916,18.757,18.297,19,28.758"/>
		<path fill="none" stroke="#000000" stroke-miterlimit="10" d="M586.899,548c1.026,2.369,0.334,6.074,0.334,8.678
			c0,3.611,0.319,7.111,0.667,10.682c0.434,4.464,1.701,10.24,0.999,14.642"/>
	</g>
	<g id="titre_1_" display="inline">
		
			<polyline fill="none" stroke="#000000" stroke-width="2.5" stroke-linecap="round" stroke-linejoin="round" stroke-miterlimit="10" points="
			458.604,198.5 429.312,198.5 429.312,239.207 		"/>
		
			<path fill="none" stroke="#000000" stroke-width="2.5" stroke-linecap="round" stroke-linejoin="round" stroke-miterlimit="10" d="
			M458.604,236.712l-26.521,4.745l-0.383,0.031c-1.319,0-2.388-1.07-2.388-2.389"/>
		
			<line fill="none" stroke="#000000" stroke-width="2.5" stroke-linecap="round" stroke-linejoin="round" stroke-miterlimit="10" x1="467.198" y1="198.5" x2="467.198" y2="239.207"/>
		
			<path fill="none" stroke="#000000" stroke-width="2.5" stroke-linecap="round" stroke-linejoin="round" stroke-miterlimit="10" d="
			M490.747,236.712l-20.778,4.745l-0.383,0.031c-1.319,0-2.388-1.07-2.388-2.389"/>
		
			<line fill="none" stroke="#000000" stroke-width="2.5" stroke-linecap="round" stroke-linejoin="round" stroke-miterlimit="10" x1="429.312" y1="212.829" x2="453.195" y2="212.829"/>
		
			<line fill="none" stroke="#000000" stroke-width="1.5" stroke-linecap="round" stroke-linejoin="round" stroke-miterlimit="10" x1="463.272" y1="260.48" x2="472.825" y2="260.48"/>
		
			<polyline fill="none" stroke="#000000" stroke-width="2.5" stroke-linecap="round" stroke-linejoin="round" stroke-miterlimit="10" points="
			462.37,285.166 449.558,285.166 449.558,317.684 		"/>
		
			<path fill="none" stroke="#000000" stroke-width="2.5" stroke-linecap="round" stroke-linejoin="round" stroke-miterlimit="10" d="
			M462.37,315.689l-11.601,3.791l-0.168,0.025c-0.576,0-1.045-0.854-1.045-1.908"/>
		
			<line fill="none" stroke="#000000" stroke-width="2.5" stroke-linecap="round" stroke-linejoin="round" stroke-miterlimit="10" x1="449.558" y1="296.613" x2="460.004" y2="296.613"/>
		
			<polyline fill="none" stroke="#000000" stroke-width="2.5" stroke-linecap="round" stroke-linejoin="round" stroke-miterlimit="10" points="
			593.396,285.166 580.587,285.166 580.587,317.684 		"/>
		
			<path fill="none" stroke="#000000" stroke-width="2.5" stroke-linecap="round" stroke-linejoin="round" stroke-miterlimit="10" d="
			M593.396,315.689l-11.6,3.791l-0.168,0.025c-0.576,0-1.043-0.854-1.043-1.908"/>
		
			<line fill="none" stroke="#000000" stroke-width="2.5" stroke-linecap="round" stroke-linejoin="round" stroke-miterlimit="10" x1="580.587" y1="296.613" x2="591.032" y2="296.613"/>
		
			<line fill="none" stroke="#000000" stroke-width="1.5" stroke-linecap="round" stroke-linejoin="round" stroke-miterlimit="10" x1="582.769" y1="260.48" x2="592.321" y2="260.48"/>
		
			<line fill="none" stroke="#000000" stroke-width="2.5" stroke-linecap="round" stroke-linejoin="round" stroke-miterlimit="10" x1="502.837" y1="198.5" x2="502.837" y2="240.787"/>
		
			<path fill="none" stroke="#000000" stroke-width="2.5" stroke-linecap="round" stroke-linejoin="round" stroke-miterlimit="10" d="
			M549.343,201.674c0,0-6.106-3.174-13.563-3.174c-7.455,0-14.07,4.269-14.07,8.565s3.793,7.751,14.744,12.048
			c10.953,4.297,15.84,8.047,15.84,14.07s-7.752,8.305-16.514,8.305s-17.945-4.776-17.945-4.776"/>
		
			<path fill="none" stroke="#000000" stroke-width="1.5" stroke-linecap="round" stroke-linejoin="round" stroke-miterlimit="10" d="
			M527.653,255.957c0,0-2.154-1.277-4.783-1.277s-4.959,1.718-4.959,3.446s1.336,3.118,5.197,4.847
			c3.86,1.729,5.584,3.238,5.584,5.662c0,2.423-2.732,3.34-5.822,3.34c-3.088,0-6.326-1.922-6.326-1.922"/>
		
			<path fill="none" stroke="#000000" stroke-width="2.5" stroke-linecap="round" stroke-linejoin="round" stroke-miterlimit="10" d="
			M550.042,287.725c0,0-2.318-2.559-5.146-2.559s-5.336,3.441-5.336,6.905c0,3.463,1.438,6.247,5.591,9.711
			c4.155,3.464,6.01,6.485,6.01,11.341s-2.939,6.695-6.264,6.695c-3.325,0-6.808-3.851-6.808-3.851"/>
		
			<path fill="none" stroke="#000000" stroke-width="2.5" stroke-linecap="round" stroke-linejoin="round" stroke-miterlimit="10" d="
			M478.064,287.725c0,0-2.317-2.559-5.146-2.559s-5.335,3.441-5.335,6.905c0,3.463,1.438,6.247,5.59,9.711
			c4.155,3.464,6.008,6.485,6.008,11.341s-2.938,6.695-6.263,6.695s-6.806-3.851-6.806-3.851"/>
		
			<polyline fill="none" stroke="#000000" stroke-width="2.5" stroke-linecap="round" stroke-linejoin="round" stroke-miterlimit="10" points="
			594.036,198.5 564.745,198.5 564.745,239.207 		"/>
		
			<path fill="none" stroke="#000000" stroke-width="2.5" stroke-linecap="round" stroke-linejoin="round" stroke-miterlimit="10" d="
			M594.036,236.712l-26.521,4.745l-0.383,0.031c-1.317,0-2.389-1.07-2.389-2.389"/>
		
			<line fill="none" stroke="#000000" stroke-width="2.5" stroke-linecap="round" stroke-linejoin="round" stroke-miterlimit="10" x1="564.745" y1="212.829" x2="588.628" y2="212.829"/>
		
			<path fill="none" stroke="#000000" stroke-width="1.5" stroke-linecap="round" stroke-linejoin="round" stroke-miterlimit="10" d="
			M474.989,254.748h-11.717v15.316c0,1.055,0.854,1.91,1.909,1.91l0.406-0.043l9.4-1.898"/>
		
			<path fill="none" stroke="#000000" stroke-width="1.5" stroke-linecap="round" stroke-linejoin="round" stroke-miterlimit="10" d="
			M594.485,254.748h-11.718v15.316c0,1.055,0.855,1.91,1.91,1.91l0.406-0.043l9.4-1.898"/>
		
			<path fill="none" stroke="#000000" stroke-width="1.5" stroke-linecap="round" stroke-linejoin="round" stroke-miterlimit="10" d="
			M429.312,254.779v15.285c0,1.055,0.855,1.91,1.91,1.91l0.406-0.043l9.146-1.867"/>
		
			<line fill="none" stroke="#000000" stroke-width="1.5" stroke-linecap="round" stroke-linejoin="round" stroke-miterlimit="10" x1="440.776" y1="254.779" x2="440.776" y2="271.975"/>
		
			<polyline fill="none" stroke="#000000" stroke-width="2.5" stroke-linecap="round" stroke-linejoin="round" stroke-miterlimit="10" points="
			519.329,319.818 519.329,285.166 533.757,319.818 533.757,285.166 		"/>
		
			<polyline fill="none" stroke="#000000" stroke-width="1.5" stroke-linecap="round" stroke-linejoin="round" stroke-miterlimit="10" points="
			446.766,272 446.766,254.748 457.972,272 457.972,254.748 		"/>
		
			<line fill="none" stroke="#000000" stroke-width="1.5" stroke-linecap="round" stroke-linejoin="round" stroke-miterlimit="10" x1="512.319" y1="254.779" x2="512.319" y2="271.975"/>
		
			<line fill="none" stroke="#000000" stroke-width="2.5" stroke-linecap="round" stroke-linejoin="round" stroke-miterlimit="10" x1="556.882" y1="285.172" x2="556.882" y2="319.48"/>
		
			<line fill="none" stroke="#000000" stroke-width="1.5" stroke-linecap="round" stroke-linejoin="round" stroke-miterlimit="10" x1="559.454" y1="254.779" x2="559.454" y2="271.975"/>
		
			<line fill="none" stroke="#000000" stroke-width="1.5" stroke-linecap="round" stroke-linejoin="round" stroke-miterlimit="10" x1="494.974" y1="254.779" x2="494.974" y2="271.975"/>
		
			<polyline fill="none" stroke="#000000" stroke-width="1.5" stroke-linecap="round" stroke-linejoin="round" stroke-miterlimit="10" points="
			505.589,254.779 505.589,260.512 505.589,271.932 		"/>
		
			<line fill="none" stroke="#000000" stroke-width="1.5" stroke-linecap="round" stroke-linejoin="round" stroke-miterlimit="10" x1="505.589" y1="260.512" x2="494.974" y2="260.512"/>
		
			<line fill="none" stroke="#000000" stroke-width="1.5" stroke-linecap="round" stroke-linejoin="round" stroke-miterlimit="10" x1="531.146" y1="254.779" x2="541.087" y2="254.779"/>
		
			<line fill="none" stroke="#000000" stroke-width="1.5" stroke-linecap="round" stroke-linejoin="round" stroke-miterlimit="10" x1="535.778" y1="271.975" x2="535.778" y2="254.779"/>
		
			<path fill="none" stroke="#000000" stroke-width="1.5" stroke-linecap="round" stroke-linejoin="round" stroke-miterlimit="10" d="
			M548.88,254.779c-4.34,0-4.549,3.807-4.549,8.945C544.331,258.586,544.54,254.779,548.88,254.779c4.338,0,4.549,3.807,4.549,8.945
			v-0.678c0,5.139-0.211,8.945-4.549,8.945c-4.34,0-4.549-3.807-4.549-8.945"/>
		
			<path fill="none" stroke="#000000" stroke-width="2.5" stroke-linecap="round" stroke-linejoin="round" stroke-miterlimit="10" d="
			M508.106,285.078c-6.589,0-6.908,7.609-6.908,17.885C501.198,292.688,501.519,285.078,508.106,285.078
			c6.59,0,6.909,7.609,6.909,17.885v-1.355c0,10.276-0.319,17.885-6.909,17.885c-6.589,0-6.908-7.608-6.908-17.885"/>
		
			<path fill="none" stroke="#000000" stroke-width="1.5" stroke-linecap="round" stroke-linejoin="round" stroke-miterlimit="10" d="
			M565.815,271.992v-17.213c0,0,3.284,0,7.454,0c4.171,0,3.398,5.898-2.358,5.732h-4.986"/>
		
			<path fill="none" stroke="#000000" stroke-width="1.5" stroke-linecap="round" stroke-linejoin="round" stroke-miterlimit="10" d="
			M566.067,260.512c3.896,0,6.088,1.486,6.866,3.255c0.779,1.77,1.767,7.439,1.767,7.439"/>
		
			<path fill="none" stroke="#000000" stroke-width="1.5" stroke-linecap="round" stroke-linejoin="round" stroke-miterlimit="10" d="
			M577.862,270.064c0,0-1.256,1.756-2.047,1.895c-0.474,0.107-1.021-0.242-1.117-0.76"/>
		
			<path fill="none" stroke="#000000" stroke-width="2.5" stroke-linecap="round" stroke-linejoin="round" stroke-miterlimit="10" d="
			M429.312,319.413v-34.247c0,0,4.623,0,10.493,0c5.869,0,4.782,11.735-3.319,11.405h-7.02"/>
		
			<path fill="none" stroke="#000000" stroke-width="2.5" stroke-linecap="round" stroke-linejoin="round" stroke-miterlimit="10" d="
			M484.309,319.413v-34.247c0,0,4.624,0,10.494,0c5.869,0,4.782,11.735-3.319,11.405h-7.02"/>
		
			<path fill="none" stroke="#000000" stroke-width="2.5" stroke-linecap="round" stroke-linejoin="round" stroke-miterlimit="10" d="
			M446.269,315.578c0,0-1.018,3.479-2.882,3.797c-0.713,0.117-1.449-0.654-1.597-1.693l-0.021-0.174c0,0-1.39-11.281-2.485-14.803
			c-1.097-3.52-4.331-6.134-9.815-6.134"/>
		
			<polyline fill="none" stroke="#000000" stroke-width="2.5" stroke-linecap="round" stroke-linejoin="round" stroke-miterlimit="10" points="
			560.409,285.172 569.507,319.557 576.929,285.078 		"/>
	</g>
</g>
</svg>
