<?xml version="1.0" encoding="utf-8"?>
<!-- Generator: Adobe Illustrator 16.0.0, SVG Export Plug-In . SVG Version: 6.00 Build 0)  -->
<!DOCTYPE svg PUBLIC "-//W3C//DTD SVG 1.1//EN" "http://www.w3.org/Graphics/SVG/1.1/DTD/svg11.dtd">
<svg version="1.1" id="Calque_1" xmlns="http://www.w3.org/2000/svg" xmlns:xlink="http://www.w3.org/1999/xlink" x="0px" y="0px"
	 width="60.168px" height="28.925px" viewBox="0 0 60.168 28.925" enable-background="new 0 0 60.168 28.925" xml:space="preserve">
<g id="chapter_1_mobile">
</g>
<g id="ui">
	<g>
		<path opacity="0.5" d="M12.775,3.274c0.394,0,0.78,0.125,1.094,0.387c0.895,0.666,1.117,1.93,0.451,2.727
			c-0.951,1.291-1.902,2.386-2.857,3.385c-1.125,1.272-0.744,2.324,0.848,2.324c0.026,0,0.055,0,0.082-0.001
			c1.229,0.068,2.666,0.107,4.303,0.143c5.59,0.004,11.832,0.126,20.438,0.425c1.49,0.037,2.853,0.064,4.101,0.086
			c1.134,0.009,2.24,0.013,3.329,0.013c1.073,0,2.129-0.004,3.178-0.012c1.028-0.271,1.172-1.167,0.194-2.179
			c-0.701-0.767-1.399-1.533-2.104-2.397c-0.705-0.863-0.535-2.039,0.328-2.742c0.346-0.361,0.775-0.524,1.217-0.524
			c0.535,0,1.086,0.24,1.523,0.66c2.209,2.687,4.408,4.982,6.502,6.892l1.496,1.433c0.9,0.957,1.117,1.928,0.65,2.917
			c-0.189,0.296-0.478,0.595-0.957,0.899c-0.096,0.1-0.096,0.1-0.291,0.203c-0.188,0.197-0.574,0.401-1.25,0.808l-0.676,0.405
			c-1.729,1.308-3.545,3.205-5.349,5.687c-0.401,0.543-1.026,0.838-1.633,0.838c-0.394,0-0.779-0.125-1.093-0.387
			c-0.895-0.666-1.116-1.931-0.45-2.728c0.95-1.291,1.901-2.386,2.854-3.385c1.127-1.271,0.746-2.324-0.848-2.324
			c-0.025,0-0.055,0-0.082,0.002c-1.227-0.068-2.664-0.107-4.301-0.144c-5.59-0.004-11.832-0.126-20.439-0.425
			c-1.49-0.037-2.85-0.064-4.1-0.086c-1.133-0.01-2.238-0.014-3.327-0.014c-1.073,0-2.13,0.004-3.179,0.012
			c-1.029,0.271-1.17,1.168-0.193,2.18c0.701,0.768,1.4,1.533,2.104,2.396c0.705,0.863,0.533,2.039-0.33,2.742
			c-0.345,0.361-0.774,0.524-1.215,0.524c-0.534,0-1.086-0.24-1.525-0.66c-2.207-2.687-4.408-4.981-6.5-6.892l-1.498-1.434
			c-0.898-0.957-1.115-1.928-0.648-2.917c0.189-0.296,0.475-0.595,0.955-0.9c0.098-0.099,0.098-0.099,0.291-0.202
			c0.189-0.198,0.576-0.402,1.252-0.808l0.674-0.406c1.73-1.307,3.545-3.204,5.348-5.686C11.545,3.569,12.169,3.274,12.775,3.274
			 M12.775,1.274L12.775,1.274c-1.263,0-2.474,0.616-3.239,1.646C7.908,5.161,6.275,6.912,4.67,8.141l-0.581,0.35L3.693,8.726
			C3.296,8.961,2.979,9.148,2.704,9.372C2.572,9.45,2.459,9.529,2.334,9.639c-0.597,0.405-1.055,0.864-1.396,1.398L0.87,11.145
			L0.814,11.26c-0.479,1.013-0.984,3.027,0.999,5.14l0.036,0.04l0.039,0.037l1.498,1.433c2.188,1.998,4.309,4.246,6.338,6.717
			L9.8,24.718l0.087,0.084c0.819,0.783,1.852,1.214,2.907,1.214c0.969,0,1.877-0.372,2.57-1.052c0.797-0.687,1.29-1.615,1.393-2.629
			c0.104-1.024-0.204-2.037-0.869-2.851c-0.38-0.467-0.756-0.903-1.127-1.321c0.281,0,0.563,0,0.847,0
			c1.083,0,2.185,0.004,3.312,0.012c1.227,0.021,2.581,0.05,4.066,0.086c8.358,0.289,14.685,0.422,20.487,0.426
			c0.941,0.021,1.933,0.044,2.867,0.08c-0.745,0.835-1.43,1.675-2.071,2.544c-0.623,0.776-0.899,1.759-0.778,2.778
			c0.127,1.08,0.698,2.078,1.571,2.748c0.649,0.525,1.476,0.814,2.33,0.814c1.264,0,2.474-0.615,3.239-1.646
			c1.625-2.236,3.258-3.986,4.865-5.219l0.582-0.351l0.394-0.233c0.397-0.236,0.716-0.422,0.989-0.646
			c0.129-0.076,0.246-0.157,0.375-0.271c0.598-0.406,1.055-0.863,1.396-1.396l0.067-0.108l0.056-0.115
			c0.479-1.014,0.983-3.03-1.002-5.142l-0.036-0.038L58.28,12.45l-1.496-1.433c-2.181-1.989-4.302-4.238-6.341-6.717l-0.075-0.092
			l-0.086-0.082C49.463,3.341,48.43,2.91,47.374,2.91c-0.967,0-1.875,0.372-2.569,1.05c-0.798,0.686-1.29,1.615-1.394,2.629
			c-0.104,1.025,0.205,2.038,0.87,2.852c0.38,0.467,0.757,0.903,1.128,1.322c-0.281,0-0.563,0-0.848,0
			c-1.084,0-2.186-0.004-3.312-0.013c-1.226-0.021-2.582-0.049-4.066-0.085c-8.357-0.29-14.681-0.422-20.485-0.426
			c-0.941-0.021-1.932-0.044-2.867-0.08c0.743-0.833,1.427-1.673,2.071-2.544c0.623-0.776,0.899-1.759,0.779-2.778
			c-0.127-1.082-0.7-2.08-1.573-2.748C14.456,1.563,13.631,1.274,12.775,1.274L12.775,1.274L12.775,1.274z"/>
		<path fill="#FFFFFF" d="M54.374,19.126l0.676-0.405c0.676-0.406,1.062-0.61,1.25-0.808c0.195-0.104,0.195-0.104,0.291-0.203
			c0.479-0.305,0.768-0.604,0.957-0.899c0.467-0.989,0.25-1.96-0.65-2.917l-1.496-1.433c-2.094-1.91-4.293-4.205-6.502-6.892
			c-0.438-0.42-0.988-0.66-1.523-0.66c-0.441,0-0.871,0.163-1.217,0.524c-0.863,0.703-1.033,1.879-0.328,2.742
			c0.705,0.864,1.403,1.63,2.104,2.397c0.978,1.012,0.834,1.908-0.194,2.179c-1.049,0.008-2.104,0.012-3.178,0.012
			c-1.089,0-2.195-0.004-3.329-0.013c-1.248-0.022-2.61-0.049-4.101-0.086c-8.605-0.299-14.847-0.421-20.438-0.425
			c-1.637-0.036-3.074-0.075-4.303-0.143c-0.027,0.001-0.056,0.001-0.082,0.001c-1.592,0-1.973-1.052-0.848-2.324
			c0.955-0.999,1.906-2.094,2.857-3.385c0.666-0.797,0.444-2.061-0.451-2.727c-0.314-0.262-0.7-0.387-1.094-0.387
			c-0.606,0-1.23,0.295-1.632,0.838C9.34,6.594,7.525,8.491,5.795,9.798l-0.674,0.406c-0.676,0.406-1.063,0.61-1.252,0.808
			c-0.193,0.103-0.193,0.103-0.291,0.202c-0.48,0.305-0.766,0.604-0.955,0.9c-0.467,0.989-0.25,1.96,0.648,2.917l1.498,1.434
			c2.092,1.91,4.293,4.205,6.5,6.892c0.439,0.42,0.991,0.66,1.525,0.66c0.441,0,0.87-0.163,1.215-0.524
			c0.863-0.703,1.035-1.879,0.33-2.742c-0.704-0.863-1.403-1.629-2.104-2.396c-0.977-1.012-0.836-1.908,0.193-2.18
			c1.049-0.008,2.106-0.012,3.179-0.012c1.089,0,2.194,0.004,3.327,0.014c1.25,0.021,2.61,0.049,4.1,0.086
			c8.607,0.299,14.849,0.421,20.439,0.425c1.637,0.036,3.074,0.075,4.301,0.144c0.027-0.002,0.057-0.002,0.082-0.002
			c1.594,0,1.975,1.053,0.848,2.324c-0.953,0.999-1.904,2.094-2.854,3.385c-0.666,0.797-0.444,2.062,0.45,2.728
			c0.313,0.262,0.699,0.387,1.093,0.387c0.606,0,1.231-0.295,1.633-0.838C50.829,22.332,52.644,20.434,54.374,19.126z"/>
	</g>
</g>
<g id="Calque_2">
</g>
<g id="home-tablette">
</g>
<g id="home-desktop">
</g>
<g id="ui-pannel">
</g>
<g id="rtfm-desktop">
</g>
<g id="rtfm-tablette">
</g>
</svg>
