<?xml version="1.0" encoding="utf-8"?>
<!-- Generator: Adobe Illustrator 16.0.0, SVG Export Plug-In . SVG Version: 6.00 Build 0)  -->
<!DOCTYPE svg PUBLIC "-//W3C//DTD SVG 1.1//EN" "http://www.w3.org/Graphics/SVG/1.1/DTD/svg11.dtd">
<svg version="1.1" id="Calque_1" xmlns="http://www.w3.org/2000/svg" xmlns:xlink="http://www.w3.org/1999/xlink" x="0px" y="0px"
	 width="172px" height="168.875px" viewBox="-31.625 0 172 168.875" enable-background="new -31.625 0 172 168.875"
	 xml:space="preserve">
<g id="chapter_1_mobile">
</g>
<g id="ui">
	<circle opacity="0.5" fill="#16A1A8" cx="12.375" cy="126.875" r="38.5"/>
	<circle opacity="0.5" fill="#16A1A8" cx="95.875" cy="126.875" r="38.5"/>
	<circle opacity="0.5" fill="#16A1A8" cx="13.375" cy="44.625" r="38.5"/>
	<g>
		<g>
			<g>
				
					<path fill="none" stroke="#D0ECEF" stroke-width="3" stroke-linecap="round" stroke-linejoin="round" stroke-miterlimit="10" d="
					M30.943,18.748C7.256,19.209-9.355,28.284-9.355,28.284"/>
				<g>
					<polygon fill="#D0ECEE" points="26.561,13.548 25.698,14.512 30.448,18.757 25.867,23.184 26.766,24.114 32.344,18.72 					"/>
				</g>
			</g>
		</g>
		<g>
			<path fill="none" d="M26.637,15.672"/>
		</g>
		<path fill="#D0ECEE" d="M19.002,35.112c-0.688-1.589-1.886-3.407-2.578-3.704c-0.856-0.368-2.488-1.317-3.121-1.69
			c0.011-0.352,0.025-0.667,0.045-0.925c0.154-1.999-1.077-6.152-1.23-7.844c-0.153-1.692-0.154-5.691-1.538-5.999
			c-1.384-0.308-2.923,1.23-3.692,3.384S6.734,31.87,6.734,34.023c0,1.127-0.549,3.9-1.071,6.286l-0.16,0.02
			c-2-0.461-3.23-0.461-4.46,0.154c-3.691,2.461-1.846,7.383-3.076,11.075c-0.615,1.846-0.615,3.076,0.615,4.922
			c3.691,6.152,8.613,10.459,11.689,16.611c3.691,6.153,12.92,4.922,17.227,0c-1.846-4.307-4.307-9.229-1.846-14.15
			c0.615-1.23,1.23-2.461,1.846-4.307c1.23-5.538,3.076-14.151-3.559-16.591l-0.282,0.035c-1.322-1.371-2.683-2.425-4.604-3.146"/>
		<g>
			<path fill="none" stroke="#16A1A8" stroke-miterlimit="10" d="M4.334,47.818c0,0,1.077-7.998,2.307-13.689
				c0.456-2.104-0.615-13.535,0.154-15.688s2.307-3.691,3.691-3.384c1.385,0.308,1.385,4.307,1.538,5.999
				c0.154,1.692,1.385,5.845,1.231,7.844c-0.154,2,0,7.383,0,7.383"/>
			<path fill="none" stroke="#16A1A8" stroke-miterlimit="10" d="M12.948,29.668c0,0,2.307,1.384,3.384,1.846
				c0.691,0.296,1.89,2.114,2.578,3.704c0.383,0.886,0.608,1.701,0.499,2.141"/>
			<path fill="none" stroke="#16A1A8" stroke-miterlimit="10" d="M18.961,35.039c2.439,0.915,3.976,2.359,5.676,4.32"/>
			<path fill="none" stroke="#16A1A8" stroke-miterlimit="10" d="M23.847,38.149c6.635,2.44,4.789,11.053,3.559,16.59
				c-0.615,1.846-1.23,3.077-1.846,4.307c-2.461,4.922,0,9.844,1.846,14.15c-4.307,4.922-13.535,6.152-17.227,0
				C7.103,67.044,2.181,62.737-1.51,56.585c-1.23-1.846-1.23-3.077-0.615-4.922c1.23-3.691-0.615-8.613,3.076-11.074
				c1.23-0.615,2.461-0.615,4.46-0.154"/>
		</g>
	</g>
	<g>
		<circle opacity="0.5" fill="#16A1A8" cx="98.375" cy="45.375" r="38.5"/>
		<g>
			<g>
				
					<path fill="none" stroke="#D0ECEF" stroke-width="3" stroke-linecap="round" stroke-linejoin="round" stroke-miterlimit="10" d="
					M77.93,22.458c23.383-3.816,41.357,2.116,41.357,2.116"/>
				<g>
					<polygon fill="#D0ECEE" points="83.006,26.983 83.725,25.908 78.419,22.379 82.327,17.347 81.305,16.555 76.547,22.685 					
						"/>
				</g>
			</g>
		</g>
		<path fill="#D0ECEE" d="M106.816,35.112c-0.688-1.589-1.887-3.407-2.578-3.704c-0.856-0.368-2.488-1.317-3.121-1.69
			c0.011-0.352,0.025-0.667,0.044-0.925c0.153-1.999-1.077-6.152-1.229-7.844c-0.154-1.692-0.154-5.691-1.539-5.999
			c-1.384-0.308-2.922,1.23-3.69,3.384s-0.154,13.536-0.154,15.689c0,1.127-0.548,3.9-1.071,6.286l-0.16,0.02
			c-2-0.461-3.229-0.461-4.459,0.154c-3.691,2.461-1.847,7.383-3.076,11.075c-0.615,1.846-0.615,3.076,0.615,4.922
			c3.69,6.152,8.612,10.459,11.688,16.611c3.69,6.153,12.92,4.922,17.228,0c-1.847-4.307-4.308-9.229-1.847-14.15
			c0.615-1.23,1.229-2.461,1.847-4.307c1.229-5.538,3.076-14.151-3.559-16.591l-0.281,0.035c-1.322-1.371-2.684-2.425-4.604-3.146"
			/>
		<g>
			<path fill="none" stroke="#16A1A8" stroke-miterlimit="10" d="M92.148,47.818c0,0,1.076-7.998,2.307-13.689
				c0.455-2.104-0.615-13.535,0.154-15.688c0.769-2.153,2.307-3.691,3.69-3.384s1.384,4.307,1.538,5.999s1.385,5.845,1.23,7.844
				c-0.154,2,0,7.383,0,7.383"/>
			<path fill="none" stroke="#16A1A8" stroke-miterlimit="10" d="M100.762,29.668c0,0,2.307,1.384,3.385,1.846
				c0.69,0.296,1.89,2.114,2.578,3.704c0.383,0.886,0.607,1.701,0.498,2.141"/>
			<path fill="none" stroke="#16A1A8" stroke-miterlimit="10" d="M106.775,35.039c2.438,0.915,3.976,2.359,5.676,4.32"/>
			<path fill="none" stroke="#16A1A8" stroke-miterlimit="10" d="M111.661,38.149c6.635,2.44,4.789,11.053,3.56,16.59
				c-0.615,1.846-1.23,3.077-1.847,4.307c-2.461,4.922,0,9.844,1.847,14.15c-4.308,4.922-13.535,6.152-17.228,0
				c-3.076-6.152-7.999-10.459-11.69-16.611c-1.229-1.846-1.229-3.077-0.615-4.922c1.23-3.691-0.614-8.613,3.076-11.074
				c1.23-0.615,2.461-0.615,4.461-0.154"/>
		</g>
	</g>
	<path fill="#16A1A8" d="M64.083,38.129"/>
	<g>
		<circle fill="none" stroke="#D0ECEE" stroke-width="3" stroke-miterlimit="10" cx="91.759" cy="99.5" r="7.075"/>
		<g>
			<path fill="#D0ECEE" d="M101.659,117.249c-0.688-1.59-1.888-3.408-2.578-3.704c-0.856-0.367-2.488-1.316-3.121-1.689
				c0.011-0.353,0.024-0.668,0.045-0.926c0.153-2-1.077-6.152-1.231-7.845c-0.152-1.692-0.152-5.69-1.537-5.999
				s-2.922,1.23-3.691,3.384c-0.77,2.154-0.154,13.536-0.154,15.689c0,1.128-0.549,3.899-1.07,6.286l-0.16,0.021
				c-2-0.461-3.23-0.461-4.46,0.154c-3.692,2.461-1.847,7.383-3.077,11.073c-0.615,1.847-0.615,3.076,0.615,4.923
				c3.691,6.153,8.613,10.46,11.689,16.612c3.692,6.151,12.92,4.922,17.227,0c-1.846-4.308-4.307-9.229-1.846-14.151
				c0.615-1.229,1.23-2.461,1.846-4.308c1.23-5.537,3.076-14.149-3.559-16.59l-0.281,0.035c-1.321-1.371-2.683-2.425-4.604-3.146"/>
			<g>
				<path fill="none" stroke="#16A1A8" stroke-miterlimit="10" d="M86.991,129.955c0,0,1.077-7.998,2.307-13.689
					c0.456-2.104-0.614-13.535,0.154-15.688s2.307-3.691,3.692-3.384c1.383,0.308,1.383,4.307,1.537,5.998
					c0.153,1.692,1.385,5.846,1.23,7.846s0,7.383,0,7.383"/>
				<path fill="none" stroke="#16A1A8" stroke-miterlimit="10" d="M95.604,111.805c0,0,2.308,1.385,3.385,1.846
					c0.691,0.295,1.89,2.115,2.576,3.703c0.385,0.887,0.608,1.703,0.5,2.143"/>
				<path fill="none" stroke="#16A1A8" stroke-miterlimit="10" d="M101.618,117.175c2.438,0.915,3.976,2.359,5.676,4.32"/>
				<path fill="none" stroke="#16A1A8" stroke-miterlimit="10" d="M106.504,120.286c6.635,2.44,4.789,11.053,3.559,16.59
					c-0.614,1.847-1.229,3.076-1.846,4.308c-2.461,4.922,0,9.844,1.846,14.15c-4.307,4.922-13.535,6.152-17.227,0
					c-3.076-6.152-7.998-10.459-11.689-16.611c-1.229-1.847-1.229-3.076-0.614-4.923c1.229-3.69-0.615-8.612,3.075-11.073
					c1.23-0.615,2.461-0.615,4.461-0.154"/>
			</g>
		</g>
	</g>
	<g>
		<g>
			<path fill="#D0ECEE" stroke="#16A1A8" stroke-linecap="round" stroke-miterlimit="10" d="M-10.67,122.67
				c0,0-5.078,6.305,0.817,11.79c5.895,5.487,9.105,7.354,10.623,9.864s10.74,15.117,16.577,14.708
				c5.836-0.407,16.051-5.312,16.11-12.082c0.058-6.771-0.409-14.533-7.18-21.187c-6.771-6.654-21.596-11.324-26.674-9.34
				C-5.476,118.41-8.452,118.994-10.67,122.67z"/>
			<path fill="#D0ECEE" stroke="#16A1A8" stroke-linecap="round" stroke-miterlimit="10" d="M19.038,158.8
				c-4.494-0.116-7.471-3.503-10.272-6.362c-2.802-2.857-7.646-9.396-8.405-10.446c-0.759-1.05-3.911-3.502-6.83-5.836
				c-2.918-2.335-4.144-3.853-5.662-6.537c-0.333-0.589-0.491-1.247-0.536-1.917c-0.191,2.053,0.358,4.477,2.813,6.761
				c5.895,5.486,9.105,7.354,10.623,9.863c1.518,2.51,10.74,15.116,16.577,14.709c0.532-0.037,1.101-0.112,1.694-0.222L19.038,158.8
				z"/>
			<path fill="none" stroke="#16A1A8" stroke-linecap="round" stroke-miterlimit="10" d="M-5.709,118.585
				c0,0,7.879-2.042,14.709,6.946"/>
			<path fill="none" stroke="#16A1A8" stroke-linecap="round" stroke-miterlimit="10" d="M16.47,122.262
				c0,0-10.681,1.051-18.445,17.51"/>
			<path fill="#D0ECEE" stroke="#16A1A8" stroke-linecap="round" stroke-miterlimit="10" d="M-3.126,118.41
				c1.007,1.312,3.604,0.408,6.64,2.802c3.035,2.394,4.225,5.125,5.253,4.611c1.517-0.759-1.459-4.261-3.561-5.954
				S-0.5,117.052-3.126,118.41z"/>
			<path fill="#D0ECEE" d="M25.167,117.477c-1.985-1.518-8.171-8.463-9.339-9.865c-1.167-1.4-5.603,1.752-9.572,3.503
				c-3.969,1.751-8.055,1.167-6.07,4.786c1.984,3.619,10.973,0.232,11.673,0c0.7-0.233,2.451,3.152,2.918,4.203
				c0.467,1.049,2.685,3.385,3.385,4.436c0.7,1.051,0.35,2.684-0.583,7.236c-0.934,4.554-6.187,5.953-7.822,6.42
				c-1.634,0.468-4.786-3.852-6.653-4.551c-1.868-0.701-5.954,0.7-5.486,2.102c0.467,1.4,6.07,7.179,8.988,11.557
				c1.054,1.581,6.654,0.817,8.405,0.817c1.75,0,5.72,0.935,8.988,1.167c3.269,0.232,5.137-0.467,9.572-0.817
				c4.436-0.35,13.658-0.817,13.658-0.817s7.472-7.938,2.686-16.342c0,0-12.258,0.467-14.359-0.466
				c-2.101-0.935-1.401-5.02-2.334-7.588c-0.934-2.567-0.954-4.946-2.802-5.952c-2.306-1.257-2.626-1.867-3.794-1.576
				c0,0-3.619-2.043-5.312-2.16"/>
			<path fill="none" stroke="#16A1A8" stroke-linecap="round" stroke-miterlimit="10" d="M25.167,117.477
				c-1.985-1.518-8.171-8.463-9.339-9.865c-1.167-1.4-5.603,1.752-9.572,3.503c-3.969,1.751-8.055,1.167-6.07,4.786
				c1.984,3.619,10.973,0.232,11.673,0c0.7-0.233,2.451,3.152,2.918,4.203c0.467,1.049,2.685,3.385,3.385,4.436
				c0.7,1.051,0.35,2.684-0.583,7.236c-0.934,4.554-6.187,5.953-7.822,6.42c-1.634,0.468-4.786-3.852-6.653-4.551
				c-1.868-0.701-5.954,0.7-5.486,2.102c0.467,1.4,4.669,5.253,8.988,11.557c1.074,1.567,6.654,0.817,8.405,0.817
				c1.75,0,5.72,0.935,8.988,1.167c3.269,0.232,5.137-0.467,9.572-0.817c4.436-0.35,13.658-0.817,13.658-0.817
				s7.472-7.938,2.686-16.342c0,0-12.258,0.467-14.359-0.466c-2.101-0.935-1.401-5.02-2.334-7.588
				c-0.934-2.567-0.954-4.946-2.802-5.952c-2.306-1.257-2.626-1.867-3.794-1.576c0,0-3.619-2.043-5.312-2.16"/>
			<g>
				<g>
					<g>
						<defs>
							<path id="SVGID_1_" d="M-3.126,118.41c1.007,1.312,3.604,0.408,6.64,2.802c3.035,2.394,4.225,5.125,5.253,4.611
								c1.517-0.759-1.459-4.261-3.561-5.954S-0.5,117.052-3.126,118.41z"/>
						</defs>
						<clipPath id="SVGID_2_">
							<use xlink:href="#SVGID_1_"  overflow="visible"/>
						</clipPath>
						<path clip-path="url(#SVGID_2_)" fill="none" stroke="#16A1A8" stroke-linecap="round" stroke-miterlimit="10" d="
							M7.38,126.202c0-1.04,1.351-1.882,3.021-1.882"/>
					</g>
				</g>
				<g>
					<g>
						<defs>
							<path id="SVGID_3_" d="M-3.126,118.41c1.007,1.312,3.604,0.408,6.64,2.802c3.035,2.394,4.225,5.125,5.253,4.611
								c1.517-0.759-1.459-4.261-3.561-5.954S-0.5,117.052-3.126,118.41z"/>
						</defs>
						<clipPath id="SVGID_4_">
							<use xlink:href="#SVGID_3_"  overflow="visible"/>
						</clipPath>
						<path clip-path="url(#SVGID_4_)" fill="none" stroke="#16A1A8" stroke-linecap="round" stroke-miterlimit="10" d="
							M6.592,125.062c0-1.015,1.292-1.838,2.889-1.838"/>
					</g>
				</g>
				<g>
					<g>
						<defs>
							<path id="SVGID_5_" d="M-3.126,118.41c1.007,1.312,3.604,0.408,6.64,2.802c3.035,2.394,4.225,5.125,5.253,4.611
								c1.517-0.759-1.459-4.261-3.561-5.954S-0.5,117.052-3.126,118.41z"/>
						</defs>
						<clipPath id="SVGID_6_">
							<use xlink:href="#SVGID_5_"  overflow="visible"/>
						</clipPath>
						<path clip-path="url(#SVGID_6_)" fill="none" stroke="#16A1A8" stroke-linecap="round" stroke-miterlimit="10" d="
							M5.804,124.188c0-1.088,1.233-1.97,2.757-1.97"/>
					</g>
				</g>
				<g>
					<g>
						<defs>
							<path id="SVGID_7_" d="M-3.126,118.41c1.007,1.312,3.604,0.408,6.64,2.802c3.035,2.394,4.225,5.125,5.253,4.611
								c1.517-0.759-1.459-4.261-3.561-5.954S-0.5,117.052-3.126,118.41z"/>
						</defs>
						<clipPath id="SVGID_8_">
							<use xlink:href="#SVGID_7_"  overflow="visible"/>
						</clipPath>
						<path clip-path="url(#SVGID_8_)" fill="none" stroke="#16A1A8" stroke-linecap="round" stroke-miterlimit="10" d="
							M4.709,123.182c0-1.064,1.233-1.928,2.758-1.928"/>
					</g>
				</g>
				<g>
					<g>
						<defs>
							<path id="SVGID_9_" d="M-3.126,118.41c1.007,1.312,3.604,0.408,6.64,2.802c3.035,2.394,4.225,5.125,5.253,4.611
								c1.517-0.759-1.459-4.261-3.561-5.954S-0.5,117.052-3.126,118.41z"/>
						</defs>
						<clipPath id="SVGID_10_">
							<use xlink:href="#SVGID_9_"  overflow="visible"/>
						</clipPath>
						<path clip-path="url(#SVGID_10_)" fill="none" stroke="#16A1A8" stroke-linecap="round" stroke-miterlimit="10" d="
							M3.483,122.175c0-1.114,1.332-2.014,2.977-2.014"/>
					</g>
				</g>
				<g>
					<g>
						<defs>
							<path id="SVGID_11_" d="M-3.126,118.41c1.007,1.312,3.604,0.408,6.64,2.802c3.035,2.394,4.225,5.125,5.253,4.611
								c1.517-0.759-1.459-4.261-3.561-5.954S-0.5,117.052-3.126,118.41z"/>
						</defs>
						<clipPath id="SVGID_12_">
							<use xlink:href="#SVGID_11_"  overflow="visible"/>
						</clipPath>
						<path clip-path="url(#SVGID_12_)" fill="none" stroke="#16A1A8" stroke-linecap="round" stroke-miterlimit="10" d="
							M2.784,121.475c0-1.308,1.155-2.363,2.583-2.363"/>
					</g>
				</g>
				<g>
					<g>
						<defs>
							<path id="SVGID_13_" d="M-3.126,118.41c1.007,1.312,3.604,0.408,6.64,2.802c3.035,2.394,4.225,5.125,5.253,4.611
								c1.517-0.759-1.459-4.261-3.561-5.954S-0.5,117.052-3.126,118.41z"/>
						</defs>
						<clipPath id="SVGID_14_">
							<use xlink:href="#SVGID_13_"  overflow="visible"/>
						</clipPath>
						<path clip-path="url(#SVGID_14_)" fill="none" stroke="#16A1A8" stroke-linecap="round" stroke-miterlimit="10" d="
							M1.995,120.905c0-1.308,1.097-2.363,2.451-2.363"/>
					</g>
				</g>
				<g>
					<g>
						<defs>
							<path id="SVGID_15_" d="M-3.126,118.41c1.007,1.312,3.604,0.408,6.64,2.802c3.035,2.394,4.225,5.125,5.253,4.611
								c1.517-0.759-1.459-4.261-3.561-5.954S-0.5,117.052-3.126,118.41z"/>
						</defs>
						<clipPath id="SVGID_16_">
							<use xlink:href="#SVGID_15_"  overflow="visible"/>
						</clipPath>
						<path clip-path="url(#SVGID_16_)" fill="none" stroke="#16A1A8" stroke-linecap="round" stroke-miterlimit="10" d="
							M0.989,120.073c0-1.259,0.959-2.276,2.145-2.276"/>
					</g>
				</g>
				<g>
					<g>
						<defs>
							<path id="SVGID_17_" d="M-3.126,118.41c1.007,1.312,3.604,0.408,6.64,2.802c3.035,2.394,4.225,5.125,5.253,4.611
								c1.517-0.759-1.459-4.261-3.561-5.954S-0.5,117.052-3.126,118.41z"/>
						</defs>
						<clipPath id="SVGID_18_">
							<use xlink:href="#SVGID_17_"  overflow="visible"/>
						</clipPath>
						<path clip-path="url(#SVGID_18_)" fill="none" stroke="#16A1A8" stroke-linecap="round" stroke-miterlimit="10" d="
							M-0.281,120.029c0-1.573,0.842-2.846,1.883-2.846"/>
					</g>
				</g>
				<g>
					<g>
						<defs>
							<path id="SVGID_19_" d="M-3.126,118.41c1.007,1.312,3.604,0.408,6.64,2.802c3.035,2.394,4.225,5.125,5.253,4.611
								c1.517-0.759-1.459-4.261-3.561-5.954S-0.5,117.052-3.126,118.41z"/>
						</defs>
						<clipPath id="SVGID_20_">
							<use xlink:href="#SVGID_19_"  overflow="visible"/>
						</clipPath>
						<path clip-path="url(#SVGID_20_)" fill="none" stroke="#16A1A8" stroke-linecap="round" stroke-miterlimit="10" d="
							M-1.288,119.898c0-1.477,0.626-2.67,1.4-2.67"/>
					</g>
				</g>
				<g>
					<g>
						<defs>
							<path id="SVGID_21_" d="M-3.126,118.41c1.007,1.312,3.604,0.408,6.64,2.802c3.035,2.394,4.225,5.125,5.253,4.611
								c1.517-0.759-1.459-4.261-3.561-5.954S-0.5,117.052-3.126,118.41z"/>
						</defs>
						<clipPath id="SVGID_22_">
							<use xlink:href="#SVGID_21_"  overflow="visible"/>
						</clipPath>
						<path clip-path="url(#SVGID_22_)" fill="none" stroke="#16A1A8" stroke-linecap="round" stroke-miterlimit="10" d="
							M-2.25,119.548c0-1.307,0.469-2.364,1.051-2.364"/>
					</g>
				</g>
			</g>
		</g>
		<g>
			<g>
				<path fill="none" stroke="#D0ECEE" stroke-width="3" stroke-miterlimit="10" d="M-14.235,115.645
					c2.708-10.422,10.861-17.039,23.806-11.55"/>
				<g>
					<polygon fill="#D0ECEE" points="-8.044,112.83 -8.738,111.739 -14.109,115.165 -17.133,109.557 -18.271,110.172 -14.586,117 
											"/>
				</g>
				<g>
					<polygon fill="#D0ECEE" points="3.568,107.289 3.125,106.074 9.115,103.902 6.512,98.087 7.692,97.561 10.861,104.643 					"/>
				</g>
			</g>
		</g>
	</g>
</g>
<g id="Calque_2">
</g>
<g id="home-tablette">
</g>
<g id="home-desktop">
</g>
<g id="ui-pannel">
</g>
<g id="rtfm-desktop">
</g>
<g id="rtfm-tablette" opacity="0.8">
</g>
</svg>
