<?xml version="1.0" encoding="utf-8"?>
<!-- Generator: Adobe Illustrator 16.0.0, SVG Export Plug-In . SVG Version: 6.00 Build 0)  -->
<!DOCTYPE svg PUBLIC "-//W3C//DTD SVG 1.1//EN" "http://www.w3.org/Graphics/SVG/1.1/DTD/svg11.dtd">
<svg version="1.1" id="Calque_1" xmlns="http://www.w3.org/2000/svg" xmlns:xlink="http://www.w3.org/1999/xlink" x="0px" y="0px"
	 width="320px" height="839.358px" viewBox="0 0 320 839.358" enable-background="new 0 0 320 839.358" xml:space="preserve">
<g id="chapter_1_mobile">
</g>
<g id="ui">
</g>
<g>
	<g>
		<g>
			<defs>
				<rect id="SVGID_1_" x="0.5" y="0.5" width="319" height="838.858"/>
			</defs>
			<clipPath id="SVGID_2_">
				<use xlink:href="#SVGID_1_"  overflow="visible"/>
			</clipPath>
			<g clip-path="url(#SVGID_2_)">
				<g id="elise">
					<path fill="#FFFFFF" d="M280.935,77.925l0.001-0.474c-0.214-0.165-0.431-0.328-0.63-0.497c-1.78-0.811-3.682-1.401-5.577-2.008
						c-0.31-0.099-0.562-0.315-0.69-0.593c-0.542-0.246-0.783-0.874-0.485-1.452c1.048-2.032-0.652-7.444-1.018-9.486
						c-0.334-1.872-0.686-3.74-1.033-5.609c-0.04-0.081-0.084-0.16-0.099-0.264l-0.101-0.71c-0.004-0.028,0.007-0.051,0.006-0.078
						c-0.039-0.208-0.077-0.416-0.115-0.624h-0.008C266.672,34.218,250.667,0.5,194.879,0.5c-69.263,0-91.538,34.323-91.538,34.323
						S66.174,9.371,39.399,36.857c-25.248,25.919,1.974,69.15,1.974,69.15S8.5,118.14,21.193,167.632
						c2.66,10.374,8.737,18.944,15.685,25.79C47.7,209.4,68.88,214.144,68.88,214.144c0.012,0.8,0.048,1.568,0.098,2.321
						c0.014,0.222,0.033,0.437,0.05,0.655c0.044,0.55,0.098,1.086,0.16,1.611c0.023,0.202,0.046,0.407,0.074,0.605
						c0.094,0.689,0.198,1.362,0.324,2.007c0.004,0.023,0.01,0.045,0.015,0.069c0.122,0.622,0.261,1.218,0.411,1.8
						c0.046,0.178,0.094,0.35,0.142,0.524c0.123,0.442,0.253,0.874,0.39,1.293c0.051,0.157,0.101,0.315,0.154,0.468
						c0.19,0.547,0.39,1.08,0.605,1.587c0.015,0.034,0.031,0.065,0.045,0.1c0.204,0.475,0.419,0.929,0.642,1.369
						c0.069,0.136,0.139,0.268,0.21,0.401c0.186,0.35,0.378,0.689,0.575,1.017c0.068,0.116,0.136,0.233,0.207,0.345
						c0.265,0.423,0.537,0.833,0.819,1.221c0.023,0.032,0.049,0.062,0.073,0.095c0.26,0.354,0.529,0.691,0.802,1.016
						c0.085,0.102,0.171,0.201,0.258,0.299c0.231,0.265,0.468,0.521,0.707,0.768c0.079,0.082,0.156,0.166,0.238,0.245
						c0.314,0.313,0.634,0.613,0.959,0.896c0.037,0.033,0.074,0.062,0.111,0.093c0.291,0.249,0.585,0.486,0.882,0.713
						c0.096,0.074,0.193,0.144,0.289,0.215c0.258,0.189,0.519,0.372,0.781,0.545c0.085,0.056,0.168,0.114,0.253,0.169
						c0.339,0.218,0.682,0.426,1.025,0.62c0.05,0.029,0.101,0.055,0.152,0.082c0.294,0.163,0.59,0.318,0.885,0.463
						c0.103,0.051,0.206,0.1,0.309,0.148c0.264,0.126,0.526,0.243,0.788,0.355c0.087,0.037,0.174,0.076,0.259,0.112
						c0.34,0.14,0.678,0.271,1.013,0.391c0.064,0.023,0.126,0.042,0.19,0.064c0.275,0.095,0.549,0.186,0.82,0.27
						c0.105,0.034,0.21,0.064,0.315,0.095c0.245,0.072,0.487,0.139,0.726,0.201c0.088,0.023,0.177,0.048,0.264,0.07
						c0.313,0.078,0.62,0.149,0.922,0.213c0.079,0.017,0.154,0.03,0.232,0.045c0.229,0.045,0.455,0.088,0.676,0.128
						c0.106,0.019,0.21,0.036,0.314,0.053c0.201,0.032,0.396,0.062,0.589,0.088c0.089,0.012,0.18,0.026,0.268,0.037
						c0.246,0.032,0.486,0.061,0.718,0.083c-1.247,1.054-2.007,2.67-1.584,5.148c1.36,7.992,7.339,7.507,12.557,6.919
						c0,0,0.545,0.324,1.541,0.839c-1.328,2.081-3.4,4.161-5.032,6.023c-1.52,1.735-3.025,3.616-4.283,5.558
						c-2.504,3.87-5.273,8.197-6.364,12.692c-0.528,2.171-1.088,4.103-1.47,6.281c-0.431,2.449-0.879,4.868-1.177,7.349
						c-0.429,3.583-0.543,7.368-0.539,10.974c0.01,7.769,1.351,14.93,4.458,22.111c0.867,2.003,2.042,3.937,3.408,5.674
						c0.148,1.128-0.108,2.639-0.025,3.599c0.138,1.595,0.284,3.126,0.491,4.706c0.419,3.215,1.249,6.551,2.375,9.602
						c2.075,5.619,5.619,11.073,10.12,15.147c4.789,4.334,11.397,8.779,17.891,10.04c4.159,0.808,8.364,0.692,12.495-0.308
						c1.975-0.479,3.675-1.508,5.63-2.13l-0.635-5.708c0.26,2.043,0.574,4.057,0.893,6.028c0.545,3.372-0.041,4.126,3.214,5.842
						c2.907,1.532,6.103,2.807,9.333,3.58c7.741,1.856,16.144,2.464,24.142,1.603c2.418-0.259,11.743-1.599,11.319-4.933
						c0.042-0.346-0.313-0.809-0.868-1.319c3.901,1.404,9.766,1.116,13.174,0.931c3.739-0.204,7.409-0.597,11.074-1.151
						c2.508-0.38,8.785-0.512,9.456-3.449c0.601-2.619-1.677-4.157-3.618-4.869l-2.022-1.068c0.517-3.563-0.417-6.539-0.734-9.72
						c-0.256-2.543-0.492-5.571-0.492-8.144c0-1.855,0.512-4.584-0.244-6.272l-0.069-0.377c5.02-2.854,8.86-7.331,11.095-12.514
						c1.691-3.924,2.194-8.608,2.934-12.836c1.461-8.365,2.011-16.728,0.748-25.243c-1.238-8.335-3.017-16.885-5.949-24.874
						c-1.222-3.33-2.533-6.733-4.295-9.792c-1.425-2.472-3.646-4.447-5.241-6.781c0.046-0.073,0.097-0.142,0.14-0.216
						c0,0,9.866,4.625,11.417-3.544c0.736-3.876,0.161-6.226-0.991-7.623c0.021-0.004,0.042-0.009,0.064-0.013
						c7.84-1.365,12.636-5.393,15.562-9.906c0-0.001,0.002-0.002,0.002-0.004c0.239-0.368,0.465-0.738,0.68-1.111
						c0.008-0.013,0.017-0.027,0.023-0.042c0.207-0.364,0.404-0.729,0.59-1.095c0.014-0.023,0.024-0.046,0.036-0.069
						c0.182-0.359,0.354-0.718,0.515-1.078c0.013-0.03,0.026-0.06,0.041-0.091c0.157-0.353,0.306-0.704,0.445-1.055
						c0.014-0.038,0.03-0.074,0.045-0.111c0.135-0.346,0.261-0.689,0.383-1.031c0.012-0.042,0.026-0.082,0.041-0.123
						c0.116-0.338,0.227-0.671,0.329-1.003c0.014-0.044,0.026-0.086,0.039-0.13c0.1-0.327,0.191-0.65,0.277-0.97
						c0.013-0.046,0.024-0.093,0.037-0.142c0.083-0.314,0.159-0.624,0.231-0.929c0.012-0.049,0.023-0.097,0.034-0.145
						c0.066-0.302,0.132-0.597,0.19-0.888c0.009-0.047,0.019-0.093,0.026-0.139c0.055-0.287,0.108-0.568,0.155-0.842
						c0.007-0.046,0.015-0.092,0.022-0.139c0.044-0.269,0.086-0.532,0.121-0.785c0.007-0.048,0.014-0.093,0.02-0.14
						c0.033-0.249,0.065-0.49,0.092-0.723c0.007-0.044,0.011-0.087,0.016-0.131c0.024-0.229,0.05-0.45,0.068-0.659
						c0.004-0.042,0.006-0.08,0.012-0.122c0.018-0.205,0.034-0.401,0.047-0.587c0.003-0.042,0.005-0.078,0.008-0.119
						c0.013-0.177,0.023-0.348,0.029-0.505c0.003-0.036,0.004-0.065,0.006-0.101c0.006-0.151,0.013-0.297,0.017-0.426
						c0.001-0.034,0.002-0.06,0.002-0.092c0.003-0.12,0.008-0.234,0.008-0.331c0.002-0.033,0-0.056,0.002-0.086v-0.325
						c-0.002-0.095-0.005-0.16-0.005-0.16s0-0.056,1.777-0.056c0.325,0,0.652-0.011,0.984-0.03
						c17.328-0.556,29.99-16.157,33.05-20.298c13.644-14.084,24.999-32.993,25.088-48.379
						C305.247,100.111,290.532,83.936,280.935,77.925z"/>
					<path fill="none" stroke="#000000" stroke-miterlimit="10" d="M183.635,367.422c3.178,2.689,10.555,2.279,14.465,2.059
						c3.491-0.197,6.918-0.66,10.34-1.195c2.343-0.366,8.203-1.007,8.83-3.837c0.561-2.522-3.226-4.331-5.037-5.033"/>
					<path fill="none" stroke="#000000" stroke-miterlimit="10" d="M98.016,238.399c0,0-22.592,2.282-22.989-25.095
						c0,0-36.975-14.425-44.527-44.805c-11.852-47.677,18.843-59.364,18.843-59.364S23.925,67.492,47.5,42.523
						c25-26.478,59.704-1.959,59.704-1.959S128.002,7.5,192.677,7.5c77.159,0,72.823,71.276,72.823,71.276s30.341,4.87,30,65.78
						c-0.152,27.323-36.048,66.185-55.197,66.185c-1.658,0-1.658,0.054-1.658,0.054s0.812,23.588-21.166,25.698L98.016,238.399z"/>
					<path fill="#FFFFFF" stroke="#000000" stroke-miterlimit="10" d="M101.833,236.494c0,0-10.188-0.914-8.918,6.784
						c1.27,7.698,6.853,7.232,11.725,6.665c0,0,8.513,5.24,20.076,7.026c11.563,1.786,26.201,5.675,35.417,5.675
						c9.217,0,22.65-4.158,32.038-5.777c9.28-1.601,14.756-4.601,17.866-9.935c0,0,9.212,4.455,10.66-3.414
						c1.449-7.868-2.506-9.254-5.6-9.134c-3.095,0.121-54.966-6.513-54.966-6.513L101.833,236.494z"/>
					<path fill="#FFFFFF" stroke="#000000" stroke-miterlimit="10" d="M169.723,199.436c-6.011,3.955-9.66,11.962-9.729,23.755
						c-0.104,17.47,3.404,28.271,23.293,28.943c19.891,0.672,33.939-3.622,32.816-28.122c-0.916-19.935-8.16-26.566-22.026-29.175
						C183.84,192.912,175.734,195.481,169.723,199.436z"/>
					<path fill="#FFFFFF" stroke="#000000" stroke-miterlimit="10" d="M159.237,233.678c0,0,9.557,6.514,10.8,13.279
						c0,0-1.749,1.738-5.4,3.222c0,0,0.364,1.038,2.184,1.204c1.818,0.166,2.391,1.15,0.873,2.717
						c-1.52,1.567-9.224,4.655-16.315-0.721"/>
					<path fill="#FFFFFF" stroke="#000000" stroke-miterlimit="10" d="M109.975,199.436c-6.412,3.955-10.304,11.962-10.378,23.755
						c-0.111,17.47,3.631,28.271,24.846,28.943c21.216,0.672,36.202-3.622,35.002-28.122c-0.976-19.935-8.703-26.566-23.493-29.175
						C125.032,192.912,116.387,195.481,109.975,199.436z"/>
					<path fill="#16A1A8" d="M137.879,218.964c0-10.584-3.807-18.986-6.021-22.979c-2.9-0.302-6.304-0.262-8.838,0.042
						c-2.792,2.708-8.819,10.647-8.819,24.397c0,15.615,0.103,24.006,4.516,29.785c1.395,0.171,3.565,0.289,5.164,0.34
						c1.313,0.042,2.6,0.062,3.86,0.059C138.039,242.317,137.879,232.466,137.879,218.964z"/>
					<path fill="#16A1A8" d="M196.014,219.037c0-10.402-3.74-18.661-5.916-22.585c-2.853-0.296-6.209-0.257-8.699,0.042
						c-2.744,2.662-8.656,10.466-8.656,23.979c0,15.348,0.09,23.595,4.428,29.274c1.371,0.167,3.516,0.284,5.087,0.334
						c1.291,0.042,2.556,0.061,3.794,0.058C196.171,241.99,196.014,232.308,196.014,219.037z"/>
					<path fill="none" stroke="#000000" stroke-miterlimit="10" d="M135.952,194.838c-4.242-0.749-8.136-0.812-11.694-0.386
						c-2.954,2.865-10.057,11.266-10.057,25.811c0,16.521,0.835,25.398,5.504,31.512c1.477,0.18,3.045,0.305,4.737,0.359
						c21.216,0.672,36.201-3.622,35.002-28.122C158.469,204.078,150.742,197.447,135.952,194.838z"/>
					<path fill="none" stroke="#000000" stroke-miterlimit="10" d="M133.936,196.194c-3.978-0.702-7.633-0.768-10.979-0.383
						c-3.34,3.736-8.756,11.75-8.756,24.452c0,15.36,0.724,24.112,4.578,30.18c1.316,0.153,2.705,0.26,4.198,0.308
						c20.201,0.64,34.47-3.449,33.328-26.778C155.376,204.991,148.02,198.678,133.936,196.194z"/>
					<path fill="none" stroke="#000000" stroke-miterlimit="10" d="M194.076,194.838c-4.221-0.794-8.072-0.815-11.57-0.299
						c-3.007,2.948-9.968,11.329-9.968,25.724c0,16.412,0.826,25.28,5.413,31.39c1.634,0.252,3.404,0.416,5.335,0.481
						c19.892,0.672,33.94-3.622,32.815-28.122C215.188,204.078,207.943,197.447,194.076,194.838z"/>
					<path fill="none" stroke="#000000" stroke-miterlimit="10" d="M212.757,223.964c-0.86-18.756-7.676-24.995-20.723-27.449
						c-3.972-0.747-7.597-0.767-10.888-0.281c-0.463,0.455-1.033,1.062-1.65,1.793c-3.189,4.312-6.958,11.643-6.958,22.236
						c0,14.75,0.669,23.405,4.134,29.442c0.062,0.088,0.126,0.177,0.191,0.264c1.535,0.238,3.203,0.391,5.019,0.453
						C200.596,251.055,213.814,247.015,212.757,223.964z"/>
					<path fill="none" stroke="#000000" stroke-miterlimit="10" d="M120.55,295.104c-0.081,0.452,0.223,0.609,0.315,1.031
						c0.233,1.066,0.394,2.02,0.729,3.086c0.621,1.982,1.386,3.691,2.264,5.56c1.011,2.151,2.087,4.208,3.779,5.889
						c3.054,3.033,6.927,6.475,11.203,7.814c1.873,0.587,3.852,0.968,5.722,0.728c2.026-0.261,4.184-1.436,5.898-2.573
						c1.746-1.158,3.353-2.738,5.274-3.624c1.039-0.479,4.288-1.365,5.317-0.566c1.496,1.16-0.537,4.038-1.428,4.922
						c-1.233,1.227-3.795,2.993-3.672,4.982l-0.058,0.343c0.393,0.942,0.69,0.799,1.888,1.464c1.166,0.648,2.488,1.215,3.734,1.833
						c1.385,0.686,2.607,1.236,4.069,1.607c1.133,0.288,3.122-0.81,4.206-0.358c3.152,1.312,1.029,5.036-2.449,6.471
						c-2.445,1.008-5.263,1.285-7.765,1.285c-0.167,0-0.079,0-0.079,0"/>
					<path fill="none" stroke="#000000" stroke-miterlimit="10" d="M106.08,250.747c-1.239,2.007-3.177,4.011-4.7,5.806
						c-1.419,1.671-2.825,3.483-3.999,5.354c-2.338,3.728-4.924,7.897-5.942,12.227c-0.493,2.091-1.016,3.952-1.373,6.05
						c-0.402,2.359-0.821,4.689-1.099,7.08c-0.401,3.452-0.507,7.097-0.503,10.571c0.009,7.484,1.261,14.382,4.163,21.3
						c1.037,2.472,2.541,4.839,4.296,6.83c1.548,1.756,3.672,3.017,5.485,4.602c4.531,3.963,9.85,7.111,15.562,8.998
						c3.374,1.114,6.483,3.111,10.016,3.787c2.701,0.518,5.391,1.145,8.101,1.64c4.811,0.88,9.645,1.877,14.374,2.987
						c1.689,0.396,3.454,1.389,5.033,2.23c1.854,0.988,3.153,1.31,5.084,0.793c1.554-0.416,5.426-2.105,3.667-4.225
						c-0.765-0.921-2.179-0.552-3.259-0.406c-1.353,0.182-2.016,0.146-2.746-1.138c-0.1-0.417-0.013-0.919,0.264-1.384
						c0.328-0.553,1.507-0.792,2.036-1.07c1.214-0.641,2.347-0.926,3.647-1.385c2.338-0.822,4.543-1.916,4.576-4.855"/>
					<path fill="none" stroke="#000000" stroke-miterlimit="10" d="M158.469,338.369c0.438,0.236,1.482,0.007,2.004-0.051
						c0.896-0.101,1.904-0.208,2.8-0.4c1.205-0.26,2.457-0.603,3.609-0.972c3.77-1.208,4.229-3.8,3.254-5.84"/>
					<path fill="none" stroke="#000000" stroke-miterlimit="10" d="M122.78,302.908c0.091,0.164-0.113,0.54,0.173,0.201
						c1.328-7.322,8.135-14.364,14.121-18.452c6.534-4.463,14.768-5.308,21.93-2.26c8.314,3.538,13.352,11.29,15.534,19.721
						c2.304,8.896,3.834,17.858,4.342,26.967c0.522,9.39,0.548,18.895,0.179,28.282c-0.117,2.952-0.594,5.721,1.791,7.667
						c1.215,0.992,5.902,3.697,5.758,4.905"/>
					<path fill="none" stroke="#000000" stroke-miterlimit="10" d="M139.481,345.689c1.197,2.729,0.884,6.581,1.138,9.529
						c0.261,3.023,0.712,5.982,1.162,8.853c0.509,3.248-0.039,3.975,3.001,5.627c2.714,1.476,5.698,2.704,8.714,3.449
						c7.229,1.788,15.074,2.374,22.542,1.544c2.258-0.25,10.965-1.54,10.569-4.752"/>
					<path fill="none" stroke="#000000" stroke-miterlimit="10" d="M95.556,323.727c0.574,1.011,0.127,3.131,0.229,4.34
						c0.129,1.536,0.265,3.011,0.458,4.533c0.392,3.098,1.166,6.311,2.218,9.25c1.937,5.413,5.246,10.667,9.449,14.592
						c4.472,4.175,10.642,8.457,16.705,9.671c3.883,0.778,7.81,0.667,11.667-0.297c1.844-0.462,3.432-1.452,5.257-2.052"/>
					<path fill="none" stroke="#000000" stroke-miterlimit="10" d="M209.027,302.68c-1.059,6.164-9.264-0.158-10.946,3.025
						c-1.843,3.486,5.601,6.633,7.974,6.354"/>
					<path fill="none" stroke="#000000" stroke-miterlimit="10" d="M206.283,312.288c-0.295,3.052-2.485,6.848-5.033,8.481
						c-1.434,0.919-5.412,1.277-5.268,3.415c0.338,4.967,9.371,0.849,10.759-1.373"/>
					<path fill="none" stroke="#000000" stroke-miterlimit="10" d="M197.818,326.701c-1.418,0.534-2.568,2.005-1.43,3.493
						c0.898,1.174,3.301,1.006,4.637,0.858c3.215-0.354,6.668-1.916,8.688-4.581"/>
					<path fill="none" stroke="#000000" stroke-miterlimit="10" d="M198.962,331.276c-0.255,2.562,3.761,2.513,5.479,2.299
						c2.58-0.32,5.189-1.77,6.873-3.672"/>
					<path fill="none" stroke="#000000" stroke-miterlimit="10" d="M209.715,246.858c1.496,2.375,3.697,4.331,5.083,6.812
						c1.646,2.947,2.87,6.224,4.011,9.432c2.737,7.696,4.397,15.929,5.555,23.959c1.18,8.203,0.666,16.254-0.698,24.312
						c-0.69,4.073-1.16,8.574-2.739,12.354c-2.275,5.45-6.339,10.068-11.668,12.753c-1.127,0.567-8.224,2.936-5.324-0.697
						c0.584-0.731,2.287-0.978,3.088-1.47c1.094-0.672,2.211-1.609,2.694-2.808"/>
					<path fill="none" stroke="#000000" stroke-miterlimit="10" d="M166.705,288.267c-0.036-0.007,0.773-0.753,1.367-1.201
						c1.376-1.035,2.982-1.425,4.588-1.946c3.188-1.034,6.379-2.239,9.773-2.116c3.646,0.132,8.019,1.378,11.267,3.141
						c6.218,3.374,12.874,12.558,13.041,19.737"/>
					<path fill="none" stroke="#000000" stroke-miterlimit="10" d="M210.63,336.081c0.705,1.626,0.229,4.168,0.229,5.956
						c0,2.479,0.22,4.881,0.457,7.331c0.299,3.063,1.168,7.029,0.687,10.049"/>
				</g>
				<g id="carte">
					<path fill="#FFFFFF" stroke="#000000" stroke-miterlimit="10" d="M-4.501,743.422c2.336,1.295,6.76-0.666,10,0.5
						c3.052,1.098,5.861,3.664,9.025,4.375c4.485,1.005,9.514-1.842,12.512-5.638c-4.348-4.124-10.463-6.424-8.184-13.552
						c1.346,0.548,2.656,0.746,4.097,0.712c-4.442-7.721,1.222-20.39,2.438-28.01c0.775-4.858-0.461-9.823-1.5-14.477
						c-1.438-6.435-2.562-6.919-6.777-10.536c-2.581-2.215-3.001-5.92-5.234-9.361c-2.222-3.423-5.35-7.695-4.889-12.026
						c0.535-5.032,6.254-9.917,9.768-13.395c4.684-4.636,9.61-10.317,16.244-12.108c9.332-2.52,20.727-0.997,30.527-0.984
						c6.52,0.008,13.014-0.628,19.51-1.025c5.201-0.319,10.502,0.562,15.586-0.489c6.564-1.357,10.229-1.93,16.986,0.112
						c5.188,1.567,7.551,4.92,11.891,7.805c7.139,4.745,20.827,1.242,15.375-8.902c-0.871-1.62-2.744-5.117-4.377-6.01
						c-3.221-1.759-2.986,0.625-6.109,1.896c-5.514,2.244-5.804-2.29-9.891-4.411c-8.154-4.231-17.24-4.224-25.889-2.102
						c-4.424,1.087-9.33,0.52-13.721-0.5c-2.435-0.563-4.664-1.274-5.986-2.938c-1.209-1.521-2.961-7.997-2.372-9.891
						c1.104-3.555,7.812-7.505,10.556-10.119c2.865-2.732,5.529-4.55,8.988-6.402c2.141-1.146,4.732-3.345,6.827-1.048
						c1.604,1.76-0.458,5.271,1.212,6.909c0.529,0.52,1.223,0.884,1.885,1.052c1.473-1.665,1.706-5.214,4.525-4.463
						c2.603,0.693,1.541,4.445,3.891,4.959c0.519-1.759,0.117-4.572,1.477-5.984c2.352-2.441,9.076-1.999,12.597-2.926
						c7.272-1.914,14.104-3.266,21.536-4.036c8.491-0.88,16.529,0.692,24.913,1.484c2.431,0.229,5.492,1.151,8.063,0.526
						c2.213-0.538,2.862-1.49,4.899-2.425c4.057,4.815,7.771,0.332,12.074-1.711c3.575-1.696,8.385-2.692,10.538-6.339
						c3.437-5.812-1.013-15.354,8.4-14.874c0.514,12.435,6.233,21.124,17.075,26.36c4.41,2.131,8.892,4.521,13.402,6.612
						c2.159,1,5.684,1.818,5.155,5.312c-0.31,2.044-3.61,2.972-4.483,5.062c1.724,1.552,2.767,2.779,4.825,3.508
						c3.046,1.077,2.692-0.779,4.748,2.505c0.534,0.853,1.941,4.049,1.763,5c-0.449,2.378-3.439,2.118-4.271,4.086
						c-2.22,5.259,6.254,8.95,10.185,9.289c4.824,0.416,10.181,2.161,14.483,4.604c-1.653,7.2-4.633,12.807-2.312,20.508
						c1.763,5.847,6.109,14.994-0.933,19.14c1.656,2.245,2.886,5.116,3.908,7.735c-5.767,6.385-11.759,13.764-16.086,21.125
						c-1.753,2.982-2.628,5.761-5.841,5.984c-3.622,0.253-7.731-1.863-11.448-1.92c-1.199,7.786-6.259,12.42-5.587,20.945
						c0.421,5.339,3.34,10.17,6.613,13.852c1.176,1.322,1.683,0.532,2.397,2.227c0.479,1.139,0,3.551,0.101,4.85
						c0.209,2.734,0.535,8.147,2,10.601c1.518,2.54,4.194,2.709,6.389,4.353c3.382,2.531,2.66,5.533,1.915,10.021
						c-2.163,0.88-4.876,2.186-7.3,1.698c-1.717-0.344-2.756-1.732-4.518-3.108c-0.164,2.461-1.703,4.274-2.097,6.491
						c-0.453,2.549,0.151,5.416-0.002,8.008c-0.354,5.945-3.159,9.765-6.874,14.388c-7.299,9.084-15.023,17.582-21.626,27.25
						c-7.263,10.638-10.558,21.189-13.976,33.362c-1.426,5.08-7.02,7.488-7.037,12.915c-0.013,3.977,1.824,7.339,1.486,11.61
						c-0.248,3.141-0.729,2.796-2.982,5.823c-1.073,1.44-3.152,4.997-3.639,6.689c-1.438,5.015,1.86,10.357,5.172,13.861
						c3.353,3.549,6.361,5.469,11.476,5.6c2.543,0.065,4.726-0.379,7-1.391c3.649-1.623,3.342-2.074,7.012-0.611
						c5.812,2.318,12.315,3.229,18.638,2.515c6.438-0.729,11.475-7.271,17.431-7.646c7.602-0.479,15.672,2.142,23.532,1.646
						c5.83-0.368,10.621-2.799,15.5-5.527c5.699-3.189,12.701-7.377,15.25-13.598c1.075-2.628,0.918-5.104,1.127-7.888
						c0.139-1.832-0.398-7.271,0.552-8.877c1.381-2.336,8.46-6.421,10.849-8.014c3.07-2.046,6.289-3.319,9.611-4.719
						c5.786-2.438,12.76-8.446,11.5-7.392l30.5,127.5l-432-16L-4.501,743.422z"/>
					<path fill="#FFFFFF" stroke="#000000" stroke-miterlimit="10" d="M120.499,535.922c-1.768,3.276-5.547,6.71-5.423,10.414
						c2.776,1.051,5.679,1.088,8.411,1.598c2.823,0.526,5.305,1.847,7.998,2.503c5.139,1.252,13.15-1.28,17.539-4.651
						c2.439-1.873,3.426-5.194,0.113-7.899c-2.385-1.948-5.784-0.558-8.637-0.466c-5.377,0.175-14.685-2.916-18.502,0.502
						L120.499,535.922z"/>
					<path fill="#FFFFFF" stroke="#000000" stroke-miterlimit="10" d="M187.999,523.922c-0.028,0.021-1.751,1.767-2.423,2.636
						c4.277,4.647,5.229,8.938,7.508,14.278c6.611,1.185,11.13,7.38,16.439,11.475c4.062,3.132,6.014,2.867,10.599,0.102
						c4.202-2.535,7.254-3.449,5.889-8.521c-2.02-7.499-8.286-12.64-15.135-16.355c-4.112-2.231-6.386,1.007-10.377,0.409
						c-3.552-0.532-6.782-5.843-10-5.021L187.999,523.922z"/>
					<path fill="#FFFFFF" stroke="#000000" stroke-miterlimit="10" d="M26.499,590.922c-1.941,4.926-2.841,10.643-6.338,14.899
						c1.723,0.944,4.793,2.995,6.715,3.209c2.646,0.294,5.506-2.712,8.732-3.959c6.518-2.52,12.029-3.052,18.914-1.689
						c1.721-2.514,1.391-6.449,1.91-9.273c-6.98,1.324-8.68,1.133-14.434-2.81c-1.781-1.222-4.674-3.05-7.012-2.277
						c-2.621,0.865-2.805,4.346-5.988,3.9L26.499,590.922z"/>
					<path fill="#FFFFFF" stroke="#000000" stroke-miterlimit="10" d="M55.999,543.922c1.166,0.826,1.421,2.315,1.576,3.936
						c3.289-1.134,5.662,1.571,7.049-2.822c0.873-2.77-0.667-3.502-3.625-2.612L55.999,543.922z"/>
					<path fill="#FFFFFF" stroke="#000000" stroke-miterlimit="10" d="M-14.501,704.422c-3.688,5.202-5.354,10.389-1.5,16.508
						c3.111,4.94,6.873,1.521,10.086-1.346c1.756-1.567,3.115-2.987,5.389-3.688c1.469-0.454,3.943,0.137,5.16-0.839
						c3.195-2.562,1.696-8.958,0.789-12.088c-3.012,1.038-7.355,2.268-9.801,0.853c-2.758-1.597-3.256-5.399-6.623-1.399
						L-14.501,704.422z"/>
				</g>
				<g id="titre">
					
						<polyline fill="none" stroke="#000000" stroke-width="2.5" stroke-linecap="round" stroke-linejoin="round" stroke-miterlimit="10" points="
						108.346,62.314 79.055,62.314 79.055,103.021 					"/>
					
						<path fill="none" stroke="#000000" stroke-width="2.5" stroke-linecap="round" stroke-linejoin="round" stroke-miterlimit="10" d="
						M108.346,100.526l-26.521,4.745l-0.383,0.031c-1.319,0-2.388-1.07-2.388-2.389"/>
					
						<line fill="none" stroke="#000000" stroke-width="2.5" stroke-linecap="round" stroke-linejoin="round" stroke-miterlimit="10" x1="116.939" y1="62.314" x2="116.939" y2="103.021"/>
					
						<path fill="none" stroke="#000000" stroke-width="2.5" stroke-linecap="round" stroke-linejoin="round" stroke-miterlimit="10" d="
						M140.488,100.526l-20.778,4.745l-0.383,0.031c-1.319,0-2.388-1.07-2.388-2.389"/>
					
						<line fill="none" stroke="#000000" stroke-width="2.5" stroke-linecap="round" stroke-linejoin="round" stroke-miterlimit="10" x1="79.055" y1="76.643" x2="102.937" y2="76.643"/>
					
						<line fill="none" stroke="#000000" stroke-width="1.5" stroke-linecap="round" stroke-linejoin="round" stroke-miterlimit="10" x1="113.014" y1="124.294" x2="122.566" y2="124.294"/>
					
						<polyline fill="none" stroke="#000000" stroke-width="2.5" stroke-linecap="round" stroke-linejoin="round" stroke-miterlimit="10" points="
						112.111,148.98 99.299,148.98 99.299,181.498 					"/>
					
						<path fill="none" stroke="#000000" stroke-width="2.5" stroke-linecap="round" stroke-linejoin="round" stroke-miterlimit="10" d="
						M112.111,179.503l-11.6,3.791l-0.168,0.025c-0.577,0-1.045-0.854-1.045-1.908"/>
					
						<line fill="none" stroke="#000000" stroke-width="2.5" stroke-linecap="round" stroke-linejoin="round" stroke-miterlimit="10" x1="99.299" y1="160.427" x2="109.745" y2="160.427"/>
					
						<polyline fill="none" stroke="#000000" stroke-width="2.5" stroke-linecap="round" stroke-linejoin="round" stroke-miterlimit="10" points="
						243.139,148.98 230.328,148.98 230.328,181.498 					"/>
					
						<path fill="none" stroke="#000000" stroke-width="2.5" stroke-linecap="round" stroke-linejoin="round" stroke-miterlimit="10" d="
						M243.139,179.503l-11.6,3.791l-0.168,0.025c-0.576,0-1.043-0.854-1.043-1.908"/>
					
						<line fill="none" stroke="#000000" stroke-width="2.5" stroke-linecap="round" stroke-linejoin="round" stroke-miterlimit="10" x1="230.328" y1="160.427" x2="240.773" y2="160.427"/>
					
						<line fill="none" stroke="#000000" stroke-width="1.5" stroke-linecap="round" stroke-linejoin="round" stroke-miterlimit="10" x1="232.51" y1="124.294" x2="242.062" y2="124.294"/>
					
						<line fill="none" stroke="#000000" stroke-width="2.5" stroke-linecap="round" stroke-linejoin="round" stroke-miterlimit="10" x1="152.578" y1="62.314" x2="152.578" y2="104.601"/>
					
						<path fill="none" stroke="#000000" stroke-width="2.5" stroke-linecap="round" stroke-linejoin="round" stroke-miterlimit="10" d="
						M199.084,65.488c0,0-6.107-3.174-13.564-3.174c-7.455,0-14.069,4.269-14.069,8.565s3.793,7.751,14.743,12.048
						c10.953,4.297,15.841,8.047,15.841,14.07s-7.752,8.305-16.515,8.305c-8.762,0-17.944-4.776-17.944-4.776"/>
					
						<path fill="none" stroke="#000000" stroke-width="1.5" stroke-linecap="round" stroke-linejoin="round" stroke-miterlimit="10" d="
						M177.395,119.771c0,0-2.153-1.277-4.783-1.277c-2.629,0-4.959,1.718-4.959,3.446s1.336,3.118,5.197,4.847
						s5.584,3.238,5.584,5.662c0,2.423-2.731,3.34-5.822,3.34c-3.088,0-6.325-1.922-6.325-1.922"/>
					
						<path fill="none" stroke="#000000" stroke-width="2.5" stroke-linecap="round" stroke-linejoin="round" stroke-miterlimit="10" d="
						M199.783,151.539c0,0-2.318-2.559-5.145-2.559c-2.828,0-5.337,3.441-5.337,6.905c0,3.463,1.438,6.247,5.591,9.711
						c4.155,3.464,6.01,6.485,6.01,11.341s-2.939,6.695-6.264,6.695c-3.326,0-6.808-3.851-6.808-3.851"/>
					
						<path fill="none" stroke="#000000" stroke-width="2.5" stroke-linecap="round" stroke-linejoin="round" stroke-miterlimit="10" d="
						M127.806,151.539c0,0-2.317-2.559-5.145-2.559c-2.828,0-5.335,3.441-5.335,6.905c0,3.463,1.437,6.247,5.59,9.711
						c4.155,3.464,6.008,6.485,6.008,11.341s-2.939,6.695-6.263,6.695c-3.324,0-6.806-3.851-6.806-3.851"/>
					
						<polyline fill="none" stroke="#000000" stroke-width="2.5" stroke-linecap="round" stroke-linejoin="round" stroke-miterlimit="10" points="
						243.777,62.314 214.486,62.314 214.486,103.021 					"/>
					
						<path fill="none" stroke="#000000" stroke-width="2.5" stroke-linecap="round" stroke-linejoin="round" stroke-miterlimit="10" d="
						M243.777,100.526l-26.521,4.745l-0.383,0.031c-1.317,0-2.39-1.07-2.39-2.389"/>
					
						<line fill="none" stroke="#000000" stroke-width="2.5" stroke-linecap="round" stroke-linejoin="round" stroke-miterlimit="10" x1="214.486" y1="76.643" x2="238.369" y2="76.643"/>
					
						<path fill="none" stroke="#000000" stroke-width="1.5" stroke-linecap="round" stroke-linejoin="round" stroke-miterlimit="10" d="
						M124.73,118.562h-11.717v15.316c0,1.055,0.855,1.91,1.91,1.91l0.406-0.043l9.4-1.898"/>
					
						<path fill="none" stroke="#000000" stroke-width="1.5" stroke-linecap="round" stroke-linejoin="round" stroke-miterlimit="10" d="
						M244.227,118.562H232.51v15.316c0,1.055,0.855,1.91,1.91,1.91l0.406-0.043l9.4-1.898"/>
					
						<path fill="none" stroke="#000000" stroke-width="1.5" stroke-linecap="round" stroke-linejoin="round" stroke-miterlimit="10" d="
						M79.055,118.593v15.285c0,1.055,0.855,1.91,1.91,1.91l0.406-0.043l9.146-1.867"/>
					
						<line fill="none" stroke="#000000" stroke-width="1.5" stroke-linecap="round" stroke-linejoin="round" stroke-miterlimit="10" x1="90.518" y1="118.593" x2="90.518" y2="135.789"/>
					
						<polyline fill="none" stroke="#000000" stroke-width="2.5" stroke-linecap="round" stroke-linejoin="round" stroke-miterlimit="10" points="
						169.07,183.632 169.07,148.98 183.498,183.632 183.498,148.98 					"/>
					
						<polyline fill="none" stroke="#000000" stroke-width="1.5" stroke-linecap="round" stroke-linejoin="round" stroke-miterlimit="10" points="
						96.507,135.814 96.507,118.562 107.713,135.814 107.713,118.562 					"/>
					
						<line fill="none" stroke="#000000" stroke-width="1.5" stroke-linecap="round" stroke-linejoin="round" stroke-miterlimit="10" x1="162.061" y1="118.593" x2="162.061" y2="135.789"/>
					
						<line fill="none" stroke="#000000" stroke-width="2.5" stroke-linecap="round" stroke-linejoin="round" stroke-miterlimit="10" x1="206.623" y1="148.986" x2="206.623" y2="183.294"/>
					
						<line fill="none" stroke="#000000" stroke-width="1.5" stroke-linecap="round" stroke-linejoin="round" stroke-miterlimit="10" x1="209.195" y1="118.593" x2="209.195" y2="135.789"/>
					
						<line fill="none" stroke="#000000" stroke-width="1.5" stroke-linecap="round" stroke-linejoin="round" stroke-miterlimit="10" x1="144.715" y1="118.593" x2="144.715" y2="135.789"/>
					
						<polyline fill="none" stroke="#000000" stroke-width="1.5" stroke-linecap="round" stroke-linejoin="round" stroke-miterlimit="10" points="
						155.33,118.593 155.33,124.326 155.33,135.746 					"/>
					
						<line fill="none" stroke="#000000" stroke-width="1.5" stroke-linecap="round" stroke-linejoin="round" stroke-miterlimit="10" x1="155.33" y1="124.326" x2="144.715" y2="124.326"/>
					
						<line fill="none" stroke="#000000" stroke-width="1.5" stroke-linecap="round" stroke-linejoin="round" stroke-miterlimit="10" x1="180.887" y1="118.593" x2="190.828" y2="118.593"/>
					
						<line fill="none" stroke="#000000" stroke-width="1.5" stroke-linecap="round" stroke-linejoin="round" stroke-miterlimit="10" x1="185.52" y1="135.789" x2="185.52" y2="118.593"/>
					
						<path fill="none" stroke="#000000" stroke-width="1.5" stroke-linecap="round" stroke-linejoin="round" stroke-miterlimit="10" d="
						M198.621,118.593c-4.34,0-4.549,3.807-4.549,8.945C194.072,122.4,194.281,118.593,198.621,118.593
						c4.338,0,4.549,3.807,4.549,8.945v-0.678c0,5.139-0.211,8.945-4.549,8.945c-4.34,0-4.549-3.807-4.549-8.945"/>
					
						<path fill="none" stroke="#000000" stroke-width="2.5" stroke-linecap="round" stroke-linejoin="round" stroke-miterlimit="10" d="
						M157.848,148.892c-6.588,0-6.908,7.609-6.908,17.885C150.939,156.501,151.26,148.892,157.848,148.892
						c6.589,0,6.91,7.609,6.91,17.885v-1.355c0,10.276-0.32,17.885-6.91,17.885c-6.588,0-6.908-7.608-6.908-17.885"/>
					
						<path fill="none" stroke="#000000" stroke-width="1.5" stroke-linecap="round" stroke-linejoin="round" stroke-miterlimit="10" d="
						M215.557,135.806v-17.213c0,0,3.285,0,7.455,0s3.398,5.898-2.359,5.732h-4.985"/>
					
						<path fill="none" stroke="#000000" stroke-width="1.5" stroke-linecap="round" stroke-linejoin="round" stroke-miterlimit="10" d="
						M215.809,124.326c3.896,0,6.088,1.486,6.867,3.255c0.779,1.77,1.766,7.439,1.766,7.439"/>
					
						<path fill="none" stroke="#000000" stroke-width="1.5" stroke-linecap="round" stroke-linejoin="round" stroke-miterlimit="10" d="
						M227.604,133.878c0,0-1.256,1.756-2.047,1.895c-0.473,0.107-1.02-0.242-1.117-0.76"/>
					
						<path fill="none" stroke="#000000" stroke-width="2.5" stroke-linecap="round" stroke-linejoin="round" stroke-miterlimit="10" d="
						M79.055,183.227V148.98c0,0,4.623,0,10.493,0c5.869,0,4.782,11.735-3.32,11.405h-7.019"/>
					
						<path fill="none" stroke="#000000" stroke-width="2.5" stroke-linecap="round" stroke-linejoin="round" stroke-miterlimit="10" d="
						M134.05,183.227V148.98c0,0,4.624,0,10.494,0c5.869,0,4.782,11.735-3.32,11.405h-7.019"/>
					
						<path fill="none" stroke="#000000" stroke-width="2.5" stroke-linecap="round" stroke-linejoin="round" stroke-miterlimit="10" d="
						M96.01,179.392c0,0-1.018,3.479-2.882,3.797c-0.713,0.117-1.45-0.654-1.597-1.693l-0.021-0.174c0,0-1.389-11.281-2.485-14.803
						c-1.097-3.52-4.331-6.134-9.815-6.134"/>
					
						<polyline fill="none" stroke="#000000" stroke-width="2.5" stroke-linecap="round" stroke-linejoin="round" stroke-miterlimit="10" points="
						210.15,148.986 219.248,183.371 226.67,148.892 					"/>
				</g>
			</g>
		</g>
	</g>
</g>
</svg>
