<?xml version="1.0" encoding="utf-8"?>
<!-- Generator: Adobe Illustrator 16.0.0, SVG Export Plug-In . SVG Version: 6.00 Build 0)  -->
<!DOCTYPE svg PUBLIC "-//W3C//DTD SVG 1.1//EN" "http://www.w3.org/Graphics/SVG/1.1/DTD/svg11.dtd">
<svg version="1.1" id="Calque_1" xmlns="http://www.w3.org/2000/svg" xmlns:xlink="http://www.w3.org/1999/xlink" x="0px" y="0px"
	 width="447.999px" height="659.997px" viewBox="-4.833 3.503 447.999 659.997"
	 enable-background="new -4.833 3.503 447.999 659.997" xml:space="preserve">
<g>
	<path fill="#FFFFFF" d="M169.399,570.626c3.106,4.687,7.288,23.203,9.604,28.22c5.006,10.838,7.607,27.804,16.409,25.368
		l0.189,0.249c-0.217,9.926,3.57,19.104,9.687,27.524c1.767,2.435,4.192,4.464,7.334,4.521c5.062,0.089,6.999-5.394,8.064-9.508
		c2.859-11.052,3.977-11.492,9.809-21.5c8.699-14.929,30.462-34,44.983-37.5s84.979,2.581,92.021,0
		c17.317-6.348,38.494-24.357,32.747-50.679S382.923,504.569,359,487.5c-8.254-5.891-22.108-16.776-30.119-23
		c-8.642-6.716-30.535-23.973-27.998-36.116L301.02,428c6.979-32.201,8.909-36.076,3.854-69.785
		c5.877-3.978,0.078-21.142,0.746-24.802h0.141c0,0,16.636,2.226,32.741-16.127c11.079-10.273,8.877-36.132,10-35.757
		c1.124,0.375,50.104-2.39,65.333-58.028c12.835-46.89-13.587-62-13.587-62s31.698-58.831-45.08-124
		c-76.779-65.168-137.094-1.333-137.094-1.333S165.795-15.136,102.5,32.429C39.205,79.994,73.167,166.834,73.167,166.834
		S47.097,182.186,38.5,217.501c-4,58,42.667,82.667,42.667,82.667c-0.667,38.914,41.911,45.021,41.911,45.021v0.751
		c-1.22,4.867,2.486,11.872,10.351,14.312h0.096c-3.929,2.44-7.498,5.288-8.741,10.023c-1.551,5.906,0.252,11.764,1.562,17.528
		c2.906,12.798,0.271,0.537,3.269,13.316l0.034,0.24c0,0,0.562,20.183-2.247,22.43c-2.81,2.247-17.416,3.911-17.977,7.844
		c-0.562,3.933-0.753,7.596-0.753,7.596l-10.674,3.927l-1.124,6.738c0,0-31.043,3.779-74.874,34.105
		c-10.156,7.026-11.51,34.475-9,47.605c10.167,27.599,99.402,31.037,121.157,27.599S166.5,566.255,169.399,570.626z"/>
	<path fill="none" stroke="#000000" stroke-miterlimit="10" d="M278.232,433.947c-2.08,9.954,6.664,19.548,13.746,25.053
		c6.566,5.102,13.531,9.712,20.298,14.54c19.608,13.992,39.826,28.495,55.827,46.668c5.679,6.448,12.061,14.378,13.142,23.222
		c0.55,4.493-0.515,10.187-2.23,14.389c-5.545,13.575-26.209,13.626-38.224,14.058c-23.87,0.854-47.629-1.674-71.396-3.406"/>
	<path fill="none" stroke="#000000" stroke-miterlimit="10" d="M148.677,408.618c0,0,0.46,16.578-1.842,18.421
		c-2.303,1.842-14.276,3.224-14.736,6.446c-0.46,3.224,1.842,11.974,1.842,11.974l-8.75,3.224l-0.921,5.525
		c0,0-44.354,4.921-80.281,29.78c-8.325,5.76-18.328,14.411-16.271,25.175c7.981,41.752,39.297,29.933,115.126,27.477"/>
	<path fill="#16A1A8" d="M279.999,433.713l0.116-0.322c5.397-24.911,12.999-50.396,10.878-76.385
		c-0.044-0.213-0.087-0.426-0.131-0.639c-0.66-1.711-1.388-3.403-2.189-5.079l-156.935-18.905c-0.009,0.213-0.039,0.435-0.095,0.665
		c-0.733,2.984,5.21,4.285,7.107,4.202c1.674-0.073,3.127,1.609,3.039,3.227c0.099,0.046,0.184,0.104,0.275,0.155
		c-0.272-0.902-0.474-1.85-0.564-2.882c-0.34-3.855,5.663-3.823,6,0c0.016,1.109,0.407,2.049,1.142,2.831
		c0.664-2.76,4.103-2.455,5.422-0.494c0.882-1.243,2.571-1.955,3.95-0.928c0.03,0.022,0.059,0.047,0.088,0.069
		c0.941-0.907,2.424-1.312,3.662-0.569c5.479,3.288,9.966,8.248,16.283,9.948c3.732,1.004,2.146,6.792-1.595,5.785
		c-1.686-0.454-3.244-1.101-4.726-1.869c-0.453,1.755-2.238,3.067-4.241,1.817c-0.007-0.005-0.014-0.009-0.021-0.014
		c-0.834,1.181-2.449,1.863-3.979,1.014c-1.044-0.58-2.058-1.199-3.054-1.841c-0.564,0.254-1.238,0.326-1.979,0.143
		c-0.796-0.197-1.521-0.486-2.2-0.832c-3.353,1.87-7.403,1.174-10.572-1.068c-3.127,2.012-5.917,4.708-6.915,8.513
		c-1.304,4.969,0.212,10.077,1.313,14.926c2.444,10.764,4.434,21.571,6.955,32.32l0.029,0.25c0,0,0.473,16.997-1.89,18.888
		c-2.363,1.889-14.648,3.301-15.121,6.608c-0.473,3.308,1.89,12.281,1.89,12.281l-8.978,3.307l-0.785,4.709
		c6.727,4.767,23.259,15.463,45.106,22.668l-17.596-63.696c0,0,21.183,3.766,33.497,0c0,0,0.628,5.222,1.727,10.751
		c1.032,5.192,5.689,39.421,9.163,59.099c6.934,0.884,14.136,1.247,21.526,0.868c8.747-0.448,16.611-1.737,23.655-3.571
		c1.299-9.802,5.897-45.274,7.21-65.63c0,0,9.352,8.282,36.067,0c0,0-3.453,17.821-7.517,29.805
		c-2.505,7.388-5.637,17.252-7.672,23.736c9.123-5.806,15.188-11.939,18.619-15.982
		C281.709,446.412,278.658,440.136,279.999,433.713z"/>
	<path fill="none" stroke="#000000" stroke-miterlimit="10" d="M261.486,510.31c10.389,5.175,20.44,10.983,30.561,16.658"/>
	<path fill="none" stroke="#000000" stroke-miterlimit="10" d="M196.641,494.62c13.415-1.064,26.832,1.021,39.595,5.142"/>
	<path fill="none" stroke="#000000" stroke-miterlimit="10" d="M152.668,504.25c6.43-2.332,13.07-4.157,19.725-5.715"/>
	<path fill="#FFFFFF" stroke="#000000" stroke-linecap="round" stroke-miterlimit="10" d="M156.66,352.591
		c7.131,6.373,10.272,12.738,19.83,17.486c12.731,6.325,27.296,10.433,41.355,12.403c13.639,1.912,19.973-2.109,31.836-7.502
		c6.754-3.07,24.561-12.979,26.402-19.979h0.614c2.327,1,7.209-0.324,9.293-1.733c4.819-3.261,2.132-7.088,2.68-11.586"/>
	<path fill="#FFFFFF" stroke="#000000" stroke-linecap="round" stroke-miterlimit="10" d="M141.002,342.152
		c0,0-50.656-1.229-43.595-44.515c0,0-47.279-15.35-38.375-65.084c8.903-49.734,34.999-55.875,34.999-55.875
		S57.19,92.559,109.073,53.57c51.883-38.989,108.985,5.833,108.985,5.833s61.4-57.717,124.336-4.298
		c62.936,53.418,38.683,112.978,38.683,112.978s33.771,34.691,11.667,67.848c-22.104,33.157-62.937,36.533-63.856,36.227
		c-0.921-0.308,7.677,26.709-5.525,41.752c-13.201,15.043-34.386,16.885-34.386,16.885"/>
	<path fill="none" stroke="#000000" stroke-linecap="round" stroke-miterlimit="10" d="M146.835,339.082
		c-6.352,0.445-6.19,9.538-2.064,12.512c3.372,2.43,8.414,3.174,12.195,0.69"/>
	<path fill="#FFFFFF" stroke="#000000" stroke-linecap="round" stroke-miterlimit="10" d="M237.895,285.453
		c-7.4,4.869-11.892,14.724-11.978,29.237c-0.128,21.503,4.188,34.796,28.67,35.625s41.774-4.457,40.392-34.612
		c-1.127-24.536-10.043-32.697-27.109-35.909C255.268,277.422,245.293,280.585,237.895,285.453z"/>
	<path fill="#16A1A8" d="M270.252,309.578c0-12.804-4.604-22.968-7.281-27.799c-3.511-0.365-7.643-0.316-10.707,0.051
		c-3.379,3.276-10.654,12.881-10.654,29.513c0,18.892,0.109,29.042,5.449,36.032c1.688,0.206,4.325,0.35,6.26,0.411
		c1.59,0.051,3.146,0.075,4.672,0.071C270.445,337.828,270.252,325.911,270.252,309.578z"/>
	<path fill="none" stroke="#000000" stroke-linecap="round" stroke-miterlimit="10" d="M267.868,279.792
		c-5.195-0.977-9.937-1.003-14.242-0.368c-3.7,3.629-12.269,13.943-12.269,31.662c0,20.2,1.018,31.114,6.662,38.637
		c2.012,0.311,4.19,0.51,6.566,0.592c24.48,0.826,41.773-4.459,40.391-34.613C293.852,291.165,284.936,283.004,267.868,279.792z"/>
	<path fill="none" stroke="#000000" stroke-linecap="round" stroke-miterlimit="10" d="M290.859,315.642
		c-1.06-23.084-9.447-30.764-25.506-33.784c-4.889-0.919-9.35-0.944-13.398-0.346c-0.571,0.559-1.271,1.307-2.033,2.207
		c-3.926,5.307-8.562,14.331-8.562,27.369c0,18.154,0.822,28.807,5.086,36.237c0.08,0.108,0.156,0.218,0.236,0.325
		c1.892,0.293,3.942,0.481,6.178,0.559C275.893,348.986,292.161,344.014,290.859,315.642z"/>
	<path fill="none" stroke="#000000" stroke-linecap="round" stroke-miterlimit="10" d="M290.818,309.918
		c2.806,0.374,8.91,1.225,10.439-2.15"/>
	<path fill="none" stroke="#000000" stroke-linecap="round" stroke-miterlimit="10" d="M291.434,318.514
		c2.758,0.894,8.362,0.941,10.438-1.228"/>
	<path fill="none" stroke="#000000" stroke-linecap="round" stroke-miterlimit="10" d="M290.818,325.267
		c2.82,1.676,7.222,2.306,10.133,0.615"/>
	<path fill="#FFFFFF" stroke="#000000" stroke-linecap="round" stroke-miterlimit="10" d="M225.428,328.951
		c0,0,15.35,17.191,13.815,21.184c0,0-5.525,2.764-9.823,3.684c0,0,1.227,1.229,3.376,2.457c2.149,1.229,7.369,3.377,2.149,5.832
		c-5.219,2.457-15.965,7.062-43.901-2.455"/>
	<path fill="none" stroke="#000000" stroke-miterlimit="10" d="M229.111,370.396c0,0,4.604-3.377,0.615-6.447"/>
	<path fill="#FFFFFF" stroke="#000000" stroke-linecap="round" stroke-miterlimit="10" d="M164.354,285.453
		c-7.893,4.869-12.683,14.724-12.774,29.237c-0.137,21.503,4.47,34.796,30.581,35.625c26.113,0.828,44.557-4.457,43.083-34.612
		c-1.202-24.536-10.712-32.697-28.917-35.909C182.887,277.422,172.247,280.585,164.354,285.453z"/>
	<path fill="#16A1A8" d="M198.699,309.488c0-13.027-4.685-23.368-7.41-28.283c-3.571-0.371-7.759-0.322-10.878,0.052
		c-3.436,3.333-10.855,13.104-10.855,30.028c0,19.219,0.126,29.547,5.558,36.66c1.717,0.21,4.388,0.354,6.356,0.418
		c1.616,0.051,3.199,0.076,4.751,0.072C198.895,338.23,198.699,326.105,198.699,309.488z"/>
	<path fill="none" stroke="#000000" stroke-linecap="round" stroke-miterlimit="10" d="M196.326,279.792
		c-5.22-0.921-10.014-0.999-14.393-0.474c-3.635,3.526-12.377,13.866-12.377,31.769c0,20.334,1.029,31.261,6.774,38.785
		c1.816,0.222,3.748,0.376,5.83,0.442c26.113,0.826,44.557-4.459,43.083-34.613C224.041,291.165,214.531,283.004,196.326,279.792z"
		/>
	<path fill="none" stroke="#000000" stroke-linecap="round" stroke-miterlimit="10" d="M193.846,281.462
		c-4.896-0.863-9.396-0.946-13.513-0.472c-4.112,4.598-10.777,14.463-10.777,30.097c0,18.906,0.891,29.679,5.635,37.146
		c1.62,0.188,3.329,0.32,5.166,0.38c24.865,0.786,42.427-4.245,41.022-32.959C220.234,292.289,211.18,284.519,193.846,281.462z"/>
	<path fill="none" stroke="#000000" stroke-linecap="round" stroke-miterlimit="10" d="M170.167,314.215
		c-2.388,0.717-8.625-1.297-10.131-3.684"/>
	<path fill="none" stroke="#000000" stroke-linecap="round" stroke-miterlimit="10" d="M169.554,320.97
		c-3.103,1.375-8.541,0.372-11.667-0.614"/>
	<path fill="none" stroke="#000000" stroke-linecap="round" stroke-miterlimit="10" d="M169.861,327.417
		c-2.98,0.952-6.271,1.944-9.517,1.842"/>
	<path fill="none" stroke="#000000" stroke-linecap="round" stroke-miterlimit="10" d="M170.09,531.343
		c-2.569,3.476-5.183,8.313-5.98,12.646c-0.307,1.671-1.343,6.125,0.219,7.39c1.23,0.996,2.763-0.12,3.626-1.195
		c1.252-1.562,1.75-3.989,2.641-5.71c1.13-2.184,2.632-4.708,4.168-6.654c4.082-5.173,8.829-9.712,13.977-13.845l0.23-0.229
		c0.481,3.056-2.538,6.815-3.172,9.851c-0.444,2.121-0.694,8.862,3.172,8.109l0.46-1.382c2.812-5.98,7.345-11.307,11.115-16.809
		c2.417-3.527,3.614-6.821,2.25-11.036c-1.559-4.817-3.548-8.463-5.019-12.735c-2.022-5.881-2.862-12.268-3.679-18.387
		c-1.2-8.984-2.669-17.937-4.034-26.866c-1.471-9.633-2.723-19.472-4.715-29.019c-1.953-9.355-2.775-18.888-4.438-28.365"/>
	<path fill="none" stroke="#000000" stroke-linecap="round" stroke-miterlimit="10" d="M147.756,353.357
		c-3.415,2.379-5.447,3.133-6.906,7.826c-1.446,4.655-0.493,8.784,0.597,13.527c2.974,12.938,5.124,26.116,8.611,39.217
		c4.436,16.669,9.28,33.15,13.79,49.821c3.574,13.213,7.836,26.824,9.235,40.193l-0.544,0.053
		c-9.883,2.396-21.302,1.274-28.054,10.735c-3.31,4.638-0.264,8.948,3.833,4.112c4.042-4.771,7.608-6.075,13.098-5.269
		c-1.688,1.419-5.619,3.511-7.266,5.386c-1.795,2.042-3.81,3.724-5.692,5.755c-3.495,3.771-8.187,11.461-3.236,14.455"/>
	<path fill="none" stroke="#000000" stroke-linecap="round" stroke-miterlimit="10" d="M165.6,525.702
		c-0.229,1.253-3.029,2.449-3.914,3.224c-1.456,1.273-3.31,3.11-4.72,4.489c-2.12,2.072-3.182,4.289-4.547,6.901
		c-1.119,2.14-4.445,10.314,1.336,8.312c2.16-0.748,2.808-3.85,3.959-5.504c1.056-1.517,2.344-3.077,3.563-4.47
		c1.566-1.79,5.508-6.967,8.122-6.852"/>
	<path fill="none" stroke="#000000" stroke-linecap="round" stroke-miterlimit="10" d="M163.183,520.252
		C156.851,523.936,137.897,543,146.604,546h0.46c1.218,0,5.84-7.856,6.792-8.327"/>
	<path fill="none" stroke="#000000" stroke-miterlimit="10" d="M247.225,400.329c-1.842,44.669-10.131,88.878-14.563,132.878"/>
	<path fill="none" stroke="#000000" stroke-miterlimit="10" d="M288.21,351.977c3.801,10.09,1.161,21.779-0.358,32.121
		c-2.078,14.146-4.828,28.068-7.854,41.941c-3.139,14.385-8.704,27.926-13.1,41.984c-3.205,10.254-3.869,21.043-4.914,31.728
		c-0.883,9.032-2.373,18.163,0.426,26.733c2.564,7.853,10.91,14.123,11.523,22.128"/>
	<path fill="none" stroke="#000000" stroke-miterlimit="10" d="M256.896,539.862c2.916,4.65,5.916,8.556,6.906,13.814
		c0.602,3.194,3.071,13.816-2.07,14.276"/>
	<path fill="none" stroke="#000000" stroke-miterlimit="10" d="M269.493,568.393c-0.017,0.043-0.034,0.084-0.054,0.123
		c-1.418,3.042-5.021,2.745-6.098-0.562"/>
	<path fill="none" stroke="#000000" stroke-miterlimit="10" d="M261.961,540.322c0.419,3.599,4.143,6.68,5.411,10.134
		c1.121,3.052,1.095,6.077,1.498,9.208c0.291,2.258,1.385,6.802,0.623,8.729"/>
	<path fill="none" stroke="#000000" stroke-miterlimit="10" d="M265.645,540.783c2.867,4.475,5.934,8.579,6.908,13.826
		c0.633,3.407,1.141,11.104-3.224,12.423"/>
	<path fill="none" stroke="#000000" stroke-miterlimit="10" d="M273.475,546.77c1.146,3.825,1.402,8.736-0.461,12.435"/>
	<path fill="none" stroke="#000000" stroke-miterlimit="10" d="M161.725,538.635c1.688-0.153,1.935,0.543,3.53,0.308"/>
	<path fill="none" stroke="#000000" stroke-miterlimit="10" d="M172.393,541.396c3.53,1.843,6.604,3.286,8.98,6.869
		c2.546,3.842,5.584,9.358,7.483,13.471c4.103,8.884,6.485,35.843,13.7,33.847"/>
	<path fill="none" stroke="#000000" stroke-miterlimit="10" d="M200.023,504.864c8.059-1.382,11.819,4.398,12.511,9.21
		c1.177,8.169,0,10.745-2.84,20.262"/>
	<path fill="none" stroke="#000000" stroke-miterlimit="10" d="M58.726,499.032c10.927-0.25,22.526-2.889,33.568-2.918
		c12.6-0.034,23.795,3.229,35.767,5.987c12.253,2.823,25.49,2.915,38.116,2.915"/>
	<path fill="none" stroke="#000000" stroke-miterlimit="10" d="M241.238,536.178c7.248,1.548,10.001,9.873,12.535,17.017
		c2.033,5.727,1.223,13.84,7.898,14.76"/>
	<path fill="none" stroke="#000000" stroke-miterlimit="10" d="M263.652,568.114c-8.139-0.622-16.428-0.622-21.954,5.825
		c-11.052,11.052-19.341,25.787-21.183,42.365c0,1.844-0.922,5.526-3.686,7.368c-5.526,2.765-9.21-3.684-11.052-8.289
		c-1.842-4.604-2.684-10.04-2.763-14.735c-0.115-6.792,0.346-12.203,1.267-16.809c1.842-17.5,0.576-32.006,4.26-48.584
		c9.209-8.289,22.104,0,32.696,0.921"/>
	<path fill="none" stroke="#000000" stroke-miterlimit="10" d="M266.566,533.723c0,0,58.791-18.573,80.588-5.373"/>
</g>
<g id="Calque_2">
</g>
<g id="home-tablette">
	<g id="titre_4_">
		
			<polyline fill="none" stroke="#000000" stroke-width="2.5" stroke-linecap="round" stroke-linejoin="round" stroke-miterlimit="10" points="
			153.76,98.851 115.705,98.851 115.705,151.737 		"/>
		
			<path fill="none" stroke="#000000" stroke-width="2.5" stroke-linecap="round" stroke-linejoin="round" stroke-miterlimit="10" d="
			M153.76,148.496l-34.455,6.165l-0.498,0.041c-1.714,0-3.102-1.391-3.102-3.103"/>
		
			<line fill="none" stroke="#000000" stroke-width="2.5" stroke-linecap="round" stroke-linejoin="round" stroke-miterlimit="10" x1="164.925" y1="98.851" x2="164.925" y2="151.737"/>
		
			<path fill="none" stroke="#000000" stroke-width="2.5" stroke-linecap="round" stroke-linejoin="round" stroke-miterlimit="10" d="
			M195.52,148.496l-26.995,6.165l-0.497,0.041c-1.715,0-3.103-1.391-3.103-3.103"/>
		
			<line fill="none" stroke="#000000" stroke-width="2.5" stroke-linecap="round" stroke-linejoin="round" stroke-miterlimit="10" x1="115.705" y1="117.468" x2="146.733" y2="117.468"/>
		
			<line fill="none" stroke="#000000" stroke-width="1.5" stroke-linecap="round" stroke-linejoin="round" stroke-miterlimit="10" x1="159.825" y1="179.376" x2="172.236" y2="179.376"/>
		
			<polyline fill="none" stroke="#000000" stroke-width="2.5" stroke-linecap="round" stroke-linejoin="round" stroke-miterlimit="10" points="
			158.653,211.447 142.006,211.447 142.006,253.693 		"/>
		
			<path fill="none" stroke="#000000" stroke-width="2.5" stroke-linecap="round" stroke-linejoin="round" stroke-miterlimit="10" d="
			M158.653,251.103l-15.07,4.925l-0.219,0.033c-0.75,0-1.357-1.11-1.357-2.479"/>
		
			<line fill="none" stroke="#000000" stroke-width="2.5" stroke-linecap="round" stroke-linejoin="round" stroke-miterlimit="10" x1="142.006" y1="226.319" x2="155.578" y2="226.319"/>
		
			<polyline fill="none" stroke="#000000" stroke-width="2.5" stroke-linecap="round" stroke-linejoin="round" stroke-miterlimit="10" points="
			328.881,211.447 312.238,211.447 312.238,253.693 		"/>
		
			<path fill="none" stroke="#000000" stroke-width="2.5" stroke-linecap="round" stroke-linejoin="round" stroke-miterlimit="10" d="
			M328.881,251.103l-15.068,4.925l-0.22,0.033c-0.748,0-1.354-1.11-1.354-2.479"/>
		
			<line fill="none" stroke="#000000" stroke-width="2.5" stroke-linecap="round" stroke-linejoin="round" stroke-miterlimit="10" x1="312.238" y1="226.319" x2="325.809" y2="226.319"/>
		
			<line fill="none" stroke="#000000" stroke-width="1.5" stroke-linecap="round" stroke-linejoin="round" stroke-miterlimit="10" x1="315.072" y1="179.376" x2="327.483" y2="179.376"/>
		
			<line fill="none" stroke="#000000" stroke-width="2.5" stroke-linecap="round" stroke-linejoin="round" stroke-miterlimit="10" x1="211.227" y1="98.851" x2="211.227" y2="153.791"/>
		
			<path fill="none" stroke="#000000" stroke-width="2.5" stroke-linecap="round" stroke-linejoin="round" stroke-miterlimit="10" d="
			M271.646,102.975c0,0-7.937-4.124-17.623-4.124s-18.279,5.546-18.279,11.128s4.928,10.07,19.154,15.652
			c14.229,5.583,20.578,10.455,20.578,18.28c0,7.825-10.07,10.789-21.453,10.789s-23.313-6.205-23.313-6.205"/>
		
			<path fill="none" stroke="#000000" stroke-width="1.5" stroke-linecap="round" stroke-linejoin="round" stroke-miterlimit="10" d="
			M243.467,173.499c0,0-2.799-1.66-6.214-1.66s-6.442,2.232-6.442,4.478s1.735,4.051,6.752,6.297
			c5.019,2.247,7.256,4.207,7.256,7.354c0,3.148-3.551,4.339-7.563,4.339c-4.012,0-8.219-2.497-8.219-2.497"/>
		
			<path fill="none" stroke="#000000" stroke-width="2.5" stroke-linecap="round" stroke-linejoin="round" stroke-miterlimit="10" d="
			M272.555,214.771c0,0-3.012-3.324-6.684-3.324c-3.676,0-6.934,4.471-6.934,8.971c0,4.499,1.867,8.116,7.262,12.616
			c5.4,4.5,7.809,8.426,7.809,14.734c0,6.31-3.818,8.699-8.137,8.699c-4.319,0-8.844-5.003-8.844-5.003"/>
		
			<path fill="none" stroke="#000000" stroke-width="2.5" stroke-linecap="round" stroke-linejoin="round" stroke-miterlimit="10" d="
			M179.042,214.771c0,0-3.011-3.324-6.684-3.324c-3.674,0-6.933,4.471-6.933,8.971c0,4.499,1.866,8.116,7.263,12.616
			c5.398,4.5,7.806,8.426,7.806,14.734c0,6.31-3.818,8.699-8.136,8.699s-8.843-5.003-8.843-5.003"/>
		
			<polyline fill="none" stroke="#000000" stroke-width="2.5" stroke-linecap="round" stroke-linejoin="round" stroke-miterlimit="10" points="
			329.711,98.851 291.656,98.851 291.656,151.737 		"/>
		
			<path fill="none" stroke="#000000" stroke-width="2.5" stroke-linecap="round" stroke-linejoin="round" stroke-miterlimit="10" d="
			M329.711,148.496l-34.453,6.165l-0.498,0.041c-1.713,0-3.104-1.391-3.104-3.103"/>
		
			<line fill="none" stroke="#000000" stroke-width="2.5" stroke-linecap="round" stroke-linejoin="round" stroke-miterlimit="10" x1="291.656" y1="117.468" x2="322.685" y2="117.468"/>
		
			<path fill="none" stroke="#000000" stroke-width="1.5" stroke-linecap="round" stroke-linejoin="round" stroke-miterlimit="10" d="
			M175.047,171.928h-15.223v19.899c0,1.37,1.11,2.482,2.48,2.482l0.528-0.056l12.213-2.466"/>
		
			<path fill="none" stroke="#000000" stroke-width="1.5" stroke-linecap="round" stroke-linejoin="round" stroke-miterlimit="10" d="
			M330.295,171.928h-15.224v19.899c0,1.37,1.11,2.482,2.481,2.482l0.527-0.056l12.213-2.466"/>
		
			<path fill="none" stroke="#000000" stroke-width="1.5" stroke-linecap="round" stroke-linejoin="round" stroke-miterlimit="10" d="
			M115.705,171.969v19.858c0,1.37,1.111,2.482,2.48,2.482l0.528-0.056l11.883-2.426"/>
		
			<line fill="none" stroke="#000000" stroke-width="1.5" stroke-linecap="round" stroke-linejoin="round" stroke-miterlimit="10" x1="130.598" y1="171.969" x2="130.598" y2="194.309"/>
		
			<polyline fill="none" stroke="#000000" stroke-width="2.5" stroke-linecap="round" stroke-linejoin="round" stroke-miterlimit="10" points="
			232.652,256.467 232.652,211.447 251.396,256.467 251.396,211.447 		"/>
		
			<polyline fill="none" stroke="#000000" stroke-width="1.5" stroke-linecap="round" stroke-linejoin="round" stroke-miterlimit="10" points="
			138.379,194.342 138.379,171.928 152.938,194.342 152.938,171.928 		"/>
		
			<line fill="none" stroke="#000000" stroke-width="1.5" stroke-linecap="round" stroke-linejoin="round" stroke-miterlimit="10" x1="223.545" y1="171.969" x2="223.545" y2="194.309"/>
		
			<line fill="none" stroke="#000000" stroke-width="2.5" stroke-linecap="round" stroke-linejoin="round" stroke-miterlimit="10" x1="281.441" y1="211.455" x2="281.441" y2="256.028"/>
		
			<line fill="none" stroke="#000000" stroke-width="1.5" stroke-linecap="round" stroke-linejoin="round" stroke-miterlimit="10" x1="284.783" y1="171.969" x2="284.783" y2="194.309"/>
		
			<line fill="none" stroke="#000000" stroke-width="1.5" stroke-linecap="round" stroke-linejoin="round" stroke-miterlimit="10" x1="201.01" y1="171.969" x2="201.01" y2="194.309"/>
		
			<polyline fill="none" stroke="#000000" stroke-width="1.5" stroke-linecap="round" stroke-linejoin="round" stroke-miterlimit="10" points="
			214.801,171.969 214.801,179.417 214.801,194.253 		"/>
		
			<line fill="none" stroke="#000000" stroke-width="1.5" stroke-linecap="round" stroke-linejoin="round" stroke-miterlimit="10" x1="214.801" y1="179.417" x2="201.01" y2="179.417"/>
		
			<line fill="none" stroke="#000000" stroke-width="1.5" stroke-linecap="round" stroke-linejoin="round" stroke-miterlimit="10" x1="248.004" y1="171.969" x2="260.92" y2="171.969"/>
		
			<line fill="none" stroke="#000000" stroke-width="1.5" stroke-linecap="round" stroke-linejoin="round" stroke-miterlimit="10" x1="254.023" y1="194.309" x2="254.023" y2="171.969"/>
		
			<path fill="none" stroke="#000000" stroke-width="1.5" stroke-linecap="round" stroke-linejoin="round" stroke-miterlimit="10" d="
			M271.045,171.969c-5.639,0-5.91,4.946-5.91,11.622C265.135,176.915,265.406,171.969,271.045,171.969
			c5.637,0,5.908,4.946,5.908,11.622v-0.88c0,6.676-0.271,11.622-5.908,11.622c-5.639,0-5.91-4.945-5.91-11.622"/>
		
			<path fill="none" stroke="#000000" stroke-width="2.5" stroke-linecap="round" stroke-linejoin="round" stroke-miterlimit="10" d="
			M218.072,211.333c-8.559,0-8.976,9.886-8.976,23.235C209.097,221.219,209.514,211.333,218.072,211.333
			c8.562,0,8.979,9.886,8.979,23.235v-1.761c0,13.351-0.416,23.236-8.979,23.236c-8.559,0-8.976-9.885-8.976-23.236"/>
		
			<path fill="none" stroke="#000000" stroke-width="1.5" stroke-linecap="round" stroke-linejoin="round" stroke-miterlimit="10" d="
			M293.047,194.332v-22.363c0,0,4.27,0,9.686,0c5.419,0,4.417,7.663-3.062,7.448h-6.479"/>
		
			<path fill="none" stroke="#000000" stroke-width="1.5" stroke-linecap="round" stroke-linejoin="round" stroke-miterlimit="10" d="
			M293.375,179.417c5.062,0,7.907,1.931,8.921,4.229c1.013,2.299,2.294,9.666,2.294,9.666"/>
		
			<path fill="none" stroke="#000000" stroke-width="1.5" stroke-linecap="round" stroke-linejoin="round" stroke-miterlimit="10" d="
			M308.698,191.827c0,0-1.632,2.281-2.658,2.461c-0.614,0.14-1.324-0.314-1.451-0.987"/>
		
			<path fill="none" stroke="#000000" stroke-width="2.5" stroke-linecap="round" stroke-linejoin="round" stroke-miterlimit="10" d="
			M115.705,255.94v-44.493c0,0,6.006,0,13.633,0c7.625,0,6.213,15.246-4.313,14.817h-9.118"/>
		
			<path fill="none" stroke="#000000" stroke-width="2.5" stroke-linecap="round" stroke-linejoin="round" stroke-miterlimit="10" d="
			M187.155,255.94v-44.493c0,0,6.008,0,13.634,0c7.625,0,6.213,15.246-4.313,14.817h-9.118"/>
		
			<path fill="none" stroke="#000000" stroke-width="2.5" stroke-linecap="round" stroke-linejoin="round" stroke-miterlimit="10" d="
			M137.733,250.958c0,0-1.321,4.521-3.744,4.933c-0.927,0.152-1.885-0.85-2.074-2.2l-0.027-0.226c0,0-1.805-14.657-3.229-19.232
			c-1.425-4.572-5.626-7.969-12.752-7.969"/>
		
			<polyline fill="none" stroke="#000000" stroke-width="2.5" stroke-linecap="round" stroke-linejoin="round" stroke-miterlimit="10" points="
			286.023,211.455 297.843,256.127 307.485,211.333 		"/>
	</g>
</g>
</svg>
