<?xml version="1.0" encoding="utf-8"?>
<!-- Generator: Adobe Illustrator 16.0.0, SVG Export Plug-In . SVG Version: 6.00 Build 0)  -->
<!DOCTYPE svg PUBLIC "-//W3C//DTD SVG 1.1//EN" "http://www.w3.org/Graphics/SVG/1.1/DTD/svg11.dtd">
<svg version="1.1" id="Calque_1" xmlns="http://www.w3.org/2000/svg" xmlns:xlink="http://www.w3.org/1999/xlink" x="0px" y="0px"
	 width="642.489px" height="661.059px" viewBox="-28.511 0 642.489 661.059" enable-background="new -28.511 0 642.489 661.059"
	 xml:space="preserve">
<path fill="#FFFFFF" d="M497.441,511.354c-0.568-3.48-2.096-6.543-4.249-9.123c2.197-5.748,2.316-11.213-0.192-16.23
	c-18-36-50.44-40-50.44-40s-7.711-33.376-31.56-46.167c-12.018-6.445-6.613,12.732-22.812,0c-34.772-27.333-40.059-6.898-49.188,0
	c0,0-29.628-70.833-46.623-81.833c0,0,35.209,15.713,54.456-21.131C360.238,271.208,364,260,375,256s43-15.338,42-47.169
	c0,0,28,3.169,33-28.831s-7.44-39-7.44-39s34.56-56,0-80s-94.227-3.969-94.227-3.969S307.824,34,283.912,45S222,120,222,120
	s-53,20-51.5,59s30.5,66.889,30.5,66.889s-6,21.445,0,31.778s14,19.202,14,19.202S188.764,305,185.382,324
	C182,343,116,420.735,125,457.868S162,493,162,493l-2.32,16.969c-2.572,0.588-5.175,1.051-7.77,1.486
	c-8.229,1.387-16.544,2.207-24.69,4.066c-4.691,1.072-9.311,2.559-13.901,4.129c0.485-21.334,0.791-67.277-5.318-74.15
	c-8-9-19.984-22-19.984-22s1.24-42,3.862-55.5s16.378-15,0-53l-19.373,17L53.5,327.549l-9.63,10.393L17,327.549L11,345.5L-2.5,361
	L11,422.75c0,0-6.5-0.25-6.5,9.75S-5,440.239-6,453.87S-17,564-8,575.5c8.704,11.121,49.842,11.398,85.251,9.186
	c6.904,4.643,13.395,9.969,20.059,14.902c11.896,8.809,25.311,15.498,38.888,21.301c30.321,12.959,62.8,20.314,95.375,24.936
	c33.892,4.807,68.566,6.574,102.428,0.324c7.216-1.332,14.325-3.217,21.445-4.969c3.589-0.883,7.188-1.715,10.803-2.484
	c1.822-0.389,3.655-0.725,5.489-1.057c1.183-0.209,2.366-0.398,3.552-0.576c16.695-2.205,32.093-4.979,47.13-13.248
	c2.99-1.645,5.766-3.656,8.752-5.32c0.26-0.145,0.66-0.33,1.093-0.518c1.668-0.445,4.122-0.893,1.431-0.594
	c0.149-0.061,0.283-0.113,0.398-0.158c7.69-1.451,14.382-4.889,18.426-11.264c6.708-1.916,13.19-4.811,19.296-8.93
	c13.786-9.301,23.407-23.506,26.553-39.902C501.337,541.651,499.962,526.788,497.441,511.354z"/>
<path fill="#FFFFFF" stroke="#000000" stroke-linecap="round" stroke-miterlimit="10" d="M484.006,551.549
	c-0.842-0.346-2.253,0.219-3.748,1.156c3.077-2.178,5.735-5.465,5.192-7.955c-0.542-2.486-2.246-2.291-3.869-1.188
	c-2.235,1.52-4.775,3.264-6.953,5.154c-0.127-0.564-0.251-1.129-0.368-1.693c0.627-0.352,1.542-0.379,2.229-0.699
	c1.568-0.732,2.646-2.055,3.955-3.143c1.466-1.219,4.811-3.049,4.319-5.432c-0.792-3.842-6.434-0.568-11.013,2.826
	c1.148-2.619,5.979-3.592,8.263-5.258c3.389-2.473,4.237-10.525-0.263-12.33c-2.554-1.025-6.271,0.617-8.75,1.268
	c-2.93,0.771-6.083,1.42-8.437,3.555c-1.853,1.68-2.999,3.807-5.314,4.689c-2.724,1.037-6.121,0.939-8.981,1.682
	c-6.946,1.799-12.591,6.229-17.25,11.551c-3.011,3.441-5.871,8.152-9.792,10.566c-3.836,2.363-8.286,3.762-12.622,4.951
	c-8.02,2.199-16.293,2.227-24.055,5.445c-3.818,1.582-8.012,4.006-11.062,6.742c-2.398,2.152-3.819,3.578-4.742,6.312l0.006,4
	c-0.211,3.127,5.083,4.387,7.25,5.193c4.955,1.846,11.973,2.5,17.212,2.312c10.941-0.395,21.663-1.307,32.501-2.498
	c6.184-0.68,12.278-1.014,18.367-2.318c4.422-0.947,8.64-1.992,12.838-3.982c4.514-2.141,9.963-4.314,13.658-7.709
	c1.1-1.01,1.909-2.264,2.51-3.656c3.266-0.949,6.241-3.457,7.414-6.58c0.716-1.906,1.082-4.771-1.738-4.086
	c-1.433,0.35-2.941,1.85-4.229,3.35c0.021-0.58,0.031-1.16,0.023-1.734c2.838-1.484,5.776-3.727,7.387-6.219
	C484.691,554.667,485.872,552.315,484.006,551.549z M479.388,553.286c-1.184,0.836-2.354,1.84-3.295,2.766
	c-0.013-0.096-0.024-0.195-0.037-0.289c-0.041-0.303-0.097-0.607-0.146-0.912C476.992,554.588,478.201,554.024,479.388,553.286z"/>
<ellipse fill="#11797E" cx="50.5" cy="437.063" rx="39.5" ry="4.562"/>
<ellipse fill="#16A1A8" cx="50.5" cy="437.438" rx="37.516" ry="3.688"/>
<rect x="53.238" y="357.979" transform="matrix(0.9976 0.0692 -0.0692 0.9976 30.511 -2.8738)" fill="#11797E" width="7" height="162"/>
<polygon fill="#16A1A8" points="58.954,357.938 63.387,343.46 65.939,358.424 "/>
<g>
	<path fill="#11797E" d="M62.738,346.757c0.29,0.89,0.216,2.089,0.212,3.026c0.042-0.958,0.005-1.941,0.128-2.885
		c0.358,0.903,0.663,1.84,1.123,2.698c-0.069-1.063-0.73-2.187-0.5-3.257c0.095,0.146,0.175,0.305,0.256,0.463l-0.57-3.343
		l-0.832,2.717c0.063,0.364,0.049,0.749-0.004,1.143C62.606,347.127,62.668,346.937,62.738,346.757z"/>
	<path fill="#11797E" d="M62.551,347.32c-0.198,0.679-0.306,1.421-0.33,2.116C62.246,348.772,62.453,348.036,62.551,347.32z"/>
</g>
<g>
	<path fill="#11797E" d="M87.891,337.942c0,0,0.009,0.59,0.026,1.697c-0.003,1.104,0.035,2.729,0.001,4.788
		c-0.023,2.061-0.03,4.564-0.122,7.428c-0.071,2.865-0.148,6.099-0.32,9.617c-0.144,3.521-0.3,7.335-0.565,11.359
		c-0.243,4.026-0.471,8.275-0.811,12.66c-0.32,4.388-0.681,8.917-1.096,13.516c-0.396,4.6-0.865,9.266-1.327,13.933
		c-0.5,4.663-0.986,9.328-1.538,13.912c-0.524,4.587-1.104,9.094-1.679,13.454c-0.563,4.362-1.2,8.569-1.789,12.56
		c-0.563,3.994-1.183,7.761-1.765,11.236c-0.551,3.479-1.132,6.661-1.651,9.48c-0.495,2.821-0.999,5.274-1.398,7.296
		c-0.388,2.022-0.757,3.605-0.98,4.687c-0.243,1.08-0.373,1.656-0.373,1.656s-0.01-0.59-0.027-1.697
		c0.001-1.104-0.037-2.729-0.004-4.788c0.021-2.061,0.028-4.564,0.119-7.429c0.067-2.865,0.148-6.099,0.317-9.617
		c0.14-3.521,0.302-7.335,0.564-11.359c0.238-4.027,0.473-8.275,0.811-12.66c0.326-4.387,0.678-8.918,1.101-13.515
		c0.395-4.601,0.87-9.266,1.332-13.933c0.5-4.663,0.992-9.327,1.543-13.911c0.531-4.586,1.102-9.095,1.683-13.454
		c0.562-4.362,1.205-8.568,1.789-12.56c0.562-3.994,1.187-7.761,1.764-11.236c0.55-3.479,1.133-6.661,1.649-9.48
		c0.493-2.822,0.998-5.274,1.395-7.296c0.387-2.023,0.755-3.605,0.979-4.688C87.761,338.518,87.891,337.942,87.891,337.942z"/>
</g>
<path fill="#11797E" d="M90.07,327.549c0,0-6.962,4.884-8.83,15.385c-1.868,10.502,3.354,15.412,3.354,15.412l2.952,0.525
	c0,0,2.67-3.588,4.049-9.438C92.975,343.586,88.798,332.793,90.07,327.549z"/>
<path fill="#FFFFFF" stroke="#000000" stroke-linecap="round" stroke-miterlimit="10" d="M23.214,440.019L6.668,362.333
	c0,0,0.332-3.667,4.666-4.333c4.334-0.667,5,2,5,2l17.978,81.047"/>
<path fill="#16A1A8" d="M36.668,441.047c0,0-17.021-88.715-16.178-108.047c0,0,9.916,15.869,23.38,108.434"/>
<path fill="#11797E" d="M101.489,519v-62.133c0-6.133-11-8.867-11-8.867v-11.5c0,0-9.666,4-39.834,4c-29.165,0-39.166-4-39.166-4
	V448c0,0-11,2.734-11,8.867V519c0,36-3.738,50.27,8.171,52.5c11.909,2.229,21.66,4,41.561,4s37.168-4,37.168-4
	C103.39,571.5,101.489,555,101.489,519z"/>
<path fill="#FFFFFF" stroke="#000000" stroke-linecap="round" stroke-miterlimit="10" d="M61.668,555.667
	c10.779,1.582,30.321-8.99,40.752-11.99c16.328-4.699,32.97-7.676,49.325-12.158c32.387-8.873,69.147-2.814,101.732,0.895
	c33.827,3.852,64.158,10.646,95.853,23.17c32.016,12.652,56.103,35.379,88.292,47.492c-31.362,6.4-61.569,20.078-93.397,26.797
	c-40.457,8.539-79.725,17.59-120.997,7.986C169.893,625.446,96.845,600.678,61.668,555.667z"/>
<path fill="#FFFFFF" stroke="#000000" stroke-linecap="round" stroke-miterlimit="10" d="M179.333,534.667c0,0,8,49.334,40,56.668
	c32,7.332,31.666,22.666,78.333,6c46.667-16.668,92-40,107.667-43.668c15.667-3.666,48.333-25.332,60-46
	C477,487,473.354,476.708,451.333,471c-50.667-13.133-125.605,40.777-148.903,40.432"/>
<polygon fill="#FFFFFF" stroke="#000000" stroke-linecap="round" stroke-linejoin="round" stroke-miterlimit="10" points="
	386.851,435.929 390,421 398.875,426.625 "/>
<path fill="#FFFFFF" stroke="#000000" stroke-miterlimit="10" d="M377,464.667c0,0,12.332-10.332,13.666-14
	C392,447,383.667,437.667,388,434c4.333-3.667,22-23,25.333-24s5.667,0.332,7,3c1.333,2.666-4.666,6.666-4.333,8.666
	s4.666,4.667,6.333,10.667s5.666,8.999,1.333,15.667c-4.333,6.666-14.667,15-22,25.666c-7.333,10.667-18.667,30.334-29,32.334
	S377,464.667,377,464.667z"/>
<path fill="#11797E" d="M203.666,324c0,0-17.333,29.667-33.333,48c-16,18.333-34,70.334-37,80.666c0,0,14.334,20.668,27.667,23
	l24.333-31l-8.667-7.333l22-23L203.666,324z"/>
<path fill="#16A1A8" d="M203.5,315c-10,21.5-13.5,50.5-12,82s-29,104.5-25.5,140c0,0,33.5,33.5,72,25.5s65.5-48.5,65.5-48.5
	S284,468,286,458s13-25.667,13-25.667S317.5,360.5,289.5,330C261.5,299.5,203.5,315,203.5,315z"/>
<path fill="#FFFFFF" stroke="#000000" stroke-linecap="round" stroke-miterlimit="10" d="M423.5,67c-34.5-29-79,14.5-79,14.5
	S320.013,48.02,280,62c-41.5,14.5-40.5,64-40.5,64s-41.5,14-53,40.5s12,61,19,68.5s15.5,18.5,15.5,18.5s-12-0.5-14,10.5
	s11.5,24,20.5,20.5c0,0,2.5,7.5-1,12.5s-19.5,13-22,19c0,0,46,26,86,15c0,0-7-9-16.5-13s-9-14.5-9-14.5s8.701,2.152,20.666,5.833
	c8.667,2.667,21.609,3.163,27.334,2.333c23-3.333,20.785-14.079,28-28.333c4.271-8.437,6.36-16.418,7.215-23.405
	c1.523-0.809,2.492-1.623,2.785-2.429c4-11,27.064-11.397,36.667-20.833C407,217.667,403,194.5,403,194.5s20.826,2.721,30.5-12.5
	c12.5-19.667-4-40-4-40S458,96,423.5,67z"/>
<path fill="#FFFFFF" stroke="#000000" stroke-linecap="round" stroke-miterlimit="10" d="M350.363,246.856
	c-0.868-25.466-7.737-33.936-20.89-37.27c-9.707-2.46-17.393,0.822-23.094,5.875c-5.702,5.053-9.163,15.281-9.228,30.345
	c-0.068,15.294,1.49,26.332,8.537,32.215c0.294-1.024,1.106-1.868,2.205-2.104c-0.317-1.137-0.522-2.291-0.562-3.417
	c-0.066-1.91,1.359-2.867,2.838-2.888c-0.011-1.61,1.412-2.945,2.995-2.945c1.669,0,2.956,1.366,3,3
	c0.023,0.884,0.211,1.744,0.342,2.826c0.023,0.188,0.033,0.371,0.043,0.553c1.719,2.31,3.146,4.854,4.373,7.44
	c0.312,0.657,0.378,1.297,0.272,1.882c0.054,0.18,0.091,0.363,0.109,0.545C342.338,284.036,351.396,277.179,350.363,246.856z"/>
<path fill="#16A1A8" d="M328.909,240.407c0-13.521-1.469-24.764-2.501-29.865c-1.289-0.239-2.016,0-3.196,0.287
	c-2.763,7.121-6.131,14.53-6.131,32.094c0,19.947,0.839,30.015,2.896,37.397c0.65,0.218,1.661,0.369,2.408,0.435
	c0.611,0.052,1.211,0.078,1.799,0.075C328.983,270.24,328.909,257.654,328.909,240.407z"/>
<path fill="none" stroke="#000000" stroke-linecap="round" stroke-miterlimit="10" d="M332.182,210.209
	c-3.212-1.137-5.917-1.297-9.078-1.378c-2.277,3.66-7.643,14.654-7.643,33.236c0,21.104,0.801,32.874,4.4,40.684
	c1.14,0.23,3.479,0.013,4.783,0.082c16.359,0.858,26.627-4.679,25.704-35.976C349.596,221.39,342.719,213.938,332.182,210.209z"/>
<path fill="none" stroke="#000000" stroke-linecap="round" stroke-miterlimit="10" d="M331.135,211.318
	c-2.871-0.896-5.509-0.98-7.923-0.489c-2.41,4.773-6.317,15.011-6.317,31.237c0,19.622,0.523,30.802,3.305,38.552
	c0.948,0.195,1.951,0.332,3.027,0.394c14.577,0.817,24.874-4.406,24.049-34.208C346.605,222.557,341.297,214.492,331.135,211.318z"
	/>
<path fill="#FFFFFF" stroke="#000000" stroke-linecap="round" stroke-miterlimit="10" d="M259.195,215.771
	c-7.441,5.286-11.957,15.986-12.043,31.745c-0.129,23.347,4.214,37.781,28.828,38.68c24.617,0.898,42.006-4.84,40.615-37.582
	c-1.133-26.641-10.098-35.501-27.261-38.989C276.666,207.051,266.636,210.485,259.195,215.771z"/>
<path fill="#16A1A8" d="M283.996,241.868c0-14.145-1.985-25.906-3.381-31.243c-1.031-0.042-1.84,0-3.437,0.301
	C272.001,219.5,268,226.125,268,244.5c0,20.868,1.137,31.399,3.918,39.122c0.879,0.228,2.247,0.386,3.256,0.454
	c0.827,0.055,1.639,0.082,2.433,0.079C284.097,273.076,283.996,259.91,283.996,241.868z"/>
<path fill="none" stroke="#000000" stroke-linecap="round" stroke-miterlimit="10" d="M290.363,209.625
	c-4.691-1-8.999-1.084-12.934-0.515c-3.268,3.828-11.124,15.055-11.124,34.493c0,22.078,0.925,33.941,6.088,42.112
	c1.633,0.241,3.368,0.408,5.239,0.48c23.467,0.898,40.042-4.84,38.717-37.582C315.27,221.973,306.724,213.112,290.363,209.625z"/>
<path fill="none" stroke="#000000" stroke-linecap="round" stroke-miterlimit="10" d="M288.932,211.437
	c-4.258-0.938-8.171-1.026-11.753-0.511c-3.576,4.993-9.373,15.703-9.373,32.678c0,20.527,0.776,32.223,4.901,40.331
	c1.408,0.204,2.896,0.348,4.493,0.412c21.626,0.854,36.901-4.609,35.679-35.786C311.884,223.194,304.009,214.757,288.932,211.437z"
	/>
<path fill="#FFFFFF" stroke="#000000" stroke-linecap="round" stroke-linejoin="round" stroke-miterlimit="10" d="M314.333,268.167
	c0,0,8.333,10.833,9.5,16c0,0-4.667,3.833-10,4.667c0,0,3.333,2.833,7.5,2c0,0-4.5,5.667-7,6s-7.621-1.779-10.458-1.708
	c-5,0.125-13.125,0.625-22.5-2.375c10.126,1.417,18.834-1.458,24-1.125s5.291,1.709,9.458,1.042s6.5-1.833,6.5-1.833"/>
<path fill="#FFFFFF" stroke="#000000" stroke-linecap="round" stroke-miterlimit="10" d="M308.501,300.833
	c0,0,5.833,2.333,9.833-1.5"/>
<path fill="#16A1A8" d="M274,412.333c0,0,27.667,29.333,35,45.333s41,50,63,52.334c0,0,27.332-13.334,8.666-48.667c0,0-3,3-6.333,0
	s-38.334-39-49.667-64s-12-45.667-33-65.333C264.832,346.667,274,412.333,274,412.333z"/>
<path fill="none" stroke="#000000" stroke-linecap="round" stroke-miterlimit="10" d="M266.833,263.167c0,0-4.667,3.5-12.167,0.333"
	/>
<path fill="none" stroke="#000000" stroke-linecap="round" stroke-miterlimit="10" d="M267.333,269.5c0,0-4,5-13,3.5"/>
<path fill="none" stroke="#000000" stroke-linecap="round" stroke-miterlimit="10" d="M268.166,275.833c0,0-1.832,2.833-5.166,3.333
	"/>
<path fill="none" stroke="#000000" stroke-linecap="round" stroke-miterlimit="10" d="M269.833,280.667c0,0-0.667,1.167-2.167,1.667
	"/>
<path fill="none" stroke="#000000" stroke-linecap="round" stroke-miterlimit="10" d="M346.333,261.167c0,0,4.667,3.5,12.167,0.333"
	/>
<path fill="none" stroke="#000000" stroke-linecap="round" stroke-miterlimit="10" d="M344.833,267.5c0,0,4,5,13,3.5"/>
<path fill="none" stroke="#000000" stroke-linecap="round" stroke-miterlimit="10" d="M343,272.833c0,0,1.832,2.833,5.166,3.333"/>
<path fill="none" stroke="#000000" stroke-linecap="round" stroke-miterlimit="10" d="M339.333,277.667c0,0,0.667,1.167,2.167,1.667
	"/>
<path d="M398.875,423.902c-15.943-13.38-43.75-36.444-41.24-32.437c2.461,3.928,25.279,23.653,38.627,35.033
	C397.088,425.588,397.955,424.721,398.875,423.902z"/>
<path fill="#16A1A8" d="M40.001,458.667c-11.165-0.02-22.044-0.562-32.604-4.523c-4.84-1.815-6.911,5.92-2.127,7.714
	c11.179,4.193,22.907,4.788,34.73,4.81C45.16,466.676,45.159,458.676,40.001,458.667z"/>
<g id="Calque_2">
	<path fill="none" stroke="#000000" stroke-miterlimit="10" d="M638,677"/>
</g>
<g id="home-tablette">
</g>
<g id="home-tablette_1_">
	<g id="titre_4_">
		
			<polyline fill="none" stroke="#000000" stroke-width="2.5" stroke-linecap="round" stroke-linejoin="round" stroke-miterlimit="10" points="
			283.413,92.951 259.675,92.951 259.675,125.94 		"/>
		
			<path fill="none" stroke="#000000" stroke-width="2.5" stroke-linecap="round" stroke-linejoin="round" stroke-miterlimit="10" d="
			M283.413,123.918l-21.492,3.845l-0.311,0.026c-1.069,0-1.935-0.868-1.935-1.936"/>
		
			<line fill="none" stroke="#000000" stroke-width="2.5" stroke-linecap="round" stroke-linejoin="round" stroke-miterlimit="10" x1="290.377" y1="92.951" x2="290.377" y2="125.94"/>
		
			<path fill="none" stroke="#000000" stroke-width="2.5" stroke-linecap="round" stroke-linejoin="round" stroke-miterlimit="10" d="
			M309.462,123.918l-16.839,3.845l-0.31,0.026c-1.069,0-1.936-0.868-1.936-1.936"/>
		
			<line fill="none" stroke="#000000" stroke-width="2.5" stroke-linecap="round" stroke-linejoin="round" stroke-miterlimit="10" x1="259.675" y1="104.563" x2="279.029" y2="104.563"/>
		
			<line fill="none" stroke="#000000" stroke-width="1.5" stroke-linecap="round" stroke-linejoin="round" stroke-miterlimit="10" x1="287.196" y1="143.181" x2="294.938" y2="143.181"/>
		
			<polyline fill="none" stroke="#000000" stroke-width="2.5" stroke-linecap="round" stroke-linejoin="round" stroke-miterlimit="10" points="
			286.465,163.186 276.081,163.186 276.081,189.539 		"/>
		
			<path fill="none" stroke="#000000" stroke-width="2.5" stroke-linecap="round" stroke-linejoin="round" stroke-miterlimit="10" d="
			M286.465,187.922l-9.4,3.072l-0.137,0.021c-0.468,0-0.847-0.692-0.847-1.546"/>
		
			<line fill="none" stroke="#000000" stroke-width="2.5" stroke-linecap="round" stroke-linejoin="round" stroke-miterlimit="10" x1="276.081" y1="172.462" x2="284.547" y2="172.462"/>
		
			<polyline fill="none" stroke="#000000" stroke-width="2.5" stroke-linecap="round" stroke-linejoin="round" stroke-miterlimit="10" points="
			392.649,163.186 382.269,163.186 382.269,189.539 		"/>
		
			<path fill="none" stroke="#000000" stroke-width="2.5" stroke-linecap="round" stroke-linejoin="round" stroke-miterlimit="10" d="
			M392.649,187.922l-9.399,3.072l-0.137,0.021c-0.466,0-0.845-0.692-0.845-1.546"/>
		
			<line fill="none" stroke="#000000" stroke-width="2.5" stroke-linecap="round" stroke-linejoin="round" stroke-miterlimit="10" x1="382.269" y1="172.462" x2="390.733" y2="172.462"/>
		
			<line fill="none" stroke="#000000" stroke-width="1.5" stroke-linecap="round" stroke-linejoin="round" stroke-miterlimit="10" x1="384.036" y1="143.181" x2="391.778" y2="143.181"/>
		
			<line fill="none" stroke="#000000" stroke-width="2.5" stroke-linecap="round" stroke-linejoin="round" stroke-miterlimit="10" x1="319.26" y1="92.951" x2="319.26" y2="127.221"/>
		
			<path fill="none" stroke="#000000" stroke-width="2.5" stroke-linecap="round" stroke-linejoin="round" stroke-miterlimit="10" d="
			M356.948,95.523c0,0-4.95-2.573-10.993-2.573c-6.042,0-11.402,3.459-11.402,6.941s3.074,6.282,11.948,9.763
			c8.876,3.483,12.836,6.522,12.836,11.403c0,4.881-6.281,6.73-13.382,6.73c-7.102,0-14.542-3.871-14.542-3.871"/>
		
			<path fill="none" stroke="#000000" stroke-width="1.5" stroke-linecap="round" stroke-linejoin="round" stroke-miterlimit="10" d="
			M339.37,139.515c0,0-1.746-1.036-3.876-1.036s-4.02,1.393-4.02,2.793s1.083,2.527,4.211,3.928
			c3.132,1.402,4.527,2.624,4.527,4.587s-2.216,2.707-4.719,2.707c-2.502,0-5.126-1.558-5.126-1.558"/>
		
			<path fill="none" stroke="#000000" stroke-width="2.5" stroke-linecap="round" stroke-linejoin="round" stroke-miterlimit="10" d="
			M357.515,165.259c0,0-1.879-2.074-4.169-2.074c-2.293,0-4.324,2.79-4.324,5.597c0,2.806,1.163,5.062,4.528,7.869
			c3.369,2.807,4.871,5.256,4.871,9.191c0,3.936-2.382,5.426-5.075,5.426s-5.517-3.121-5.517-3.121"/>
		
			<path fill="none" stroke="#000000" stroke-width="2.5" stroke-linecap="round" stroke-linejoin="round" stroke-miterlimit="10" d="
			M299.183,165.259c0,0-1.878-2.074-4.169-2.074s-4.324,2.79-4.324,5.597c0,2.806,1.164,5.062,4.531,7.869
			c3.367,2.807,4.869,5.256,4.869,9.191c0,3.936-2.382,5.426-5.076,5.426c-2.693,0-5.516-3.121-5.516-3.121"/>
		
			<polyline fill="none" stroke="#000000" stroke-width="2.5" stroke-linecap="round" stroke-linejoin="round" stroke-miterlimit="10" points="
			393.168,92.951 369.43,92.951 369.43,125.94 		"/>
		
			<path fill="none" stroke="#000000" stroke-width="2.5" stroke-linecap="round" stroke-linejoin="round" stroke-miterlimit="10" d="
			M393.168,123.918l-21.491,3.845l-0.311,0.026c-1.069,0-1.938-0.868-1.938-1.936"/>
		
			<line fill="none" stroke="#000000" stroke-width="2.5" stroke-linecap="round" stroke-linejoin="round" stroke-miterlimit="10" x1="369.43" y1="104.563" x2="388.785" y2="104.563"/>
		
			<path fill="none" stroke="#000000" stroke-width="1.5" stroke-linecap="round" stroke-linejoin="round" stroke-miterlimit="10" d="
			M296.691,138.535h-9.496v12.413c0,0.854,0.692,1.547,1.547,1.547l0.329-0.034l7.619-1.539"/>
		
			<path fill="none" stroke="#000000" stroke-width="1.5" stroke-linecap="round" stroke-linejoin="round" stroke-miterlimit="10" d="
			M393.532,138.535h-9.496v12.413c0,0.854,0.691,1.547,1.547,1.547l0.329-0.034l7.619-1.539"/>
		
			<path fill="none" stroke="#000000" stroke-width="1.5" stroke-linecap="round" stroke-linejoin="round" stroke-miterlimit="10" d="
			M259.675,138.56v12.388c0,0.854,0.693,1.547,1.546,1.547l0.33-0.034l7.413-1.513"/>
		
			<line fill="none" stroke="#000000" stroke-width="1.5" stroke-linecap="round" stroke-linejoin="round" stroke-miterlimit="10" x1="268.965" y1="138.56" x2="268.965" y2="152.495"/>
		
			<polyline fill="none" stroke="#000000" stroke-width="2.5" stroke-linecap="round" stroke-linejoin="round" stroke-miterlimit="10" points="
			332.625,191.268 332.625,163.186 344.317,191.268 344.317,163.186 		"/>
		
			<polyline fill="none" stroke="#000000" stroke-width="1.5" stroke-linecap="round" stroke-linejoin="round" stroke-miterlimit="10" points="
			273.819,152.516 273.819,138.535 282.9,152.516 282.9,138.535 		"/>
		
			<line fill="none" stroke="#000000" stroke-width="1.5" stroke-linecap="round" stroke-linejoin="round" stroke-miterlimit="10" x1="326.943" y1="138.56" x2="326.943" y2="152.495"/>
		
			<line fill="none" stroke="#000000" stroke-width="2.5" stroke-linecap="round" stroke-linejoin="round" stroke-miterlimit="10" x1="363.058" y1="163.19" x2="363.058" y2="190.994"/>
		
			<line fill="none" stroke="#000000" stroke-width="1.5" stroke-linecap="round" stroke-linejoin="round" stroke-miterlimit="10" x1="365.143" y1="138.56" x2="365.143" y2="152.495"/>
		
			<line fill="none" stroke="#000000" stroke-width="1.5" stroke-linecap="round" stroke-linejoin="round" stroke-miterlimit="10" x1="312.887" y1="138.56" x2="312.887" y2="152.495"/>
		
			<polyline fill="none" stroke="#000000" stroke-width="1.5" stroke-linecap="round" stroke-linejoin="round" stroke-miterlimit="10" points="
			321.489,138.56 321.489,143.206 321.489,152.461 		"/>
		
			<line fill="none" stroke="#000000" stroke-width="1.5" stroke-linecap="round" stroke-linejoin="round" stroke-miterlimit="10" x1="321.489" y1="143.206" x2="312.887" y2="143.206"/>
		
			<line fill="none" stroke="#000000" stroke-width="1.5" stroke-linecap="round" stroke-linejoin="round" stroke-miterlimit="10" x1="342.2" y1="138.56" x2="350.257" y2="138.56"/>
		
			<line fill="none" stroke="#000000" stroke-width="1.5" stroke-linecap="round" stroke-linejoin="round" stroke-miterlimit="10" x1="345.955" y1="152.495" x2="345.955" y2="138.56"/>
		
			<path fill="none" stroke="#000000" stroke-width="1.5" stroke-linecap="round" stroke-linejoin="round" stroke-miterlimit="10" d="
			M356.573,138.56c-3.519,0-3.688,3.086-3.688,7.25C352.886,141.646,353.056,138.56,356.573,138.56c3.516,0,3.685,3.086,3.685,7.25
			v-0.549c0,4.165-0.169,7.25-3.685,7.25c-3.519,0-3.688-3.084-3.688-7.25"/>
		
			<path fill="none" stroke="#000000" stroke-width="2.5" stroke-linecap="round" stroke-linejoin="round" stroke-miterlimit="10" d="
			M323.53,163.115c-5.339,0-5.6,6.166-5.6,14.494C317.931,169.281,318.191,163.115,323.53,163.115c5.341,0,5.6,6.166,5.6,14.494
			v-1.099c0,8.329-0.259,14.494-5.6,14.494c-5.339,0-5.6-6.166-5.6-14.494"/>
		
			<path fill="none" stroke="#000000" stroke-width="1.5" stroke-linecap="round" stroke-linejoin="round" stroke-miterlimit="10" d="
			M370.297,152.51v-13.95c0,0,2.663,0,6.042,0c3.381,0,2.756,4.78-1.91,4.646h-4.041"/>
		
			<path fill="none" stroke="#000000" stroke-width="1.5" stroke-linecap="round" stroke-linejoin="round" stroke-miterlimit="10" d="
			M370.502,143.206c3.158,0,4.933,1.205,5.564,2.638c0.632,1.434,1.432,6.03,1.432,6.03"/>
		
			<path fill="none" stroke="#000000" stroke-width="1.5" stroke-linecap="round" stroke-linejoin="round" stroke-miterlimit="10" d="
			M380.061,150.948c0,0-1.018,1.422-1.657,1.535c-0.384,0.086-0.826-0.196-0.905-0.616"/>
		
			<path fill="none" stroke="#000000" stroke-width="2.5" stroke-linecap="round" stroke-linejoin="round" stroke-miterlimit="10" d="
			M259.675,190.939v-27.753c0,0,3.746,0,8.504,0c4.756,0,3.875,9.511-2.69,9.243h-5.688"/>
		
			<path fill="none" stroke="#000000" stroke-width="2.5" stroke-linecap="round" stroke-linejoin="round" stroke-miterlimit="10" d="
			M304.244,190.939v-27.753c0,0,3.748,0,8.504,0s3.875,9.511-2.69,9.243h-5.688"/>
		
			<path fill="none" stroke="#000000" stroke-width="2.5" stroke-linecap="round" stroke-linejoin="round" stroke-miterlimit="10" d="
			M273.416,187.832c0,0-0.824,2.82-2.335,3.077c-0.578,0.095-1.176-0.53-1.293-1.372l-0.017-0.142c0,0-1.125-9.142-2.014-11.997
			c-0.89-2.852-3.51-4.971-7.955-4.971"/>
		
			<polyline fill="none" stroke="#000000" stroke-width="2.5" stroke-linecap="round" stroke-linejoin="round" stroke-miterlimit="10" points="
			365.916,163.19 373.289,191.056 379.304,163.115 		"/>
	</g>
</g>
</svg>
