<?xml version="1.0" encoding="utf-8"?>
<!-- Generator: Adobe Illustrator 16.0.0, SVG Export Plug-In . SVG Version: 6.00 Build 0)  -->
<!DOCTYPE svg PUBLIC "-//W3C//DTD SVG 1.1//EN" "http://www.w3.org/Graphics/SVG/1.1/DTD/svg11.dtd">
<svg version="1.1" id="Calque_2" xmlns="http://www.w3.org/2000/svg" xmlns:xlink="http://www.w3.org/1999/xlink" x="0px" y="0px"
	 width="320px" height="363.597px" viewBox="0 0 320 363.597" enable-background="new 0 0 320 363.597" xml:space="preserve">
<g id="lignes_1_">
	<path fill="none" stroke="#00A99D" stroke-miterlimit="10" d="M362.5,25.903c-14.137-5.696-46.2-1.993-62.457-3.109
		c-42.516-2.921-88.799,3.144-132.014,2.133C74.641,22.742-19.994,23.903-113.5,23.903"/>
	<path fill="none" stroke="#00A99D" stroke-miterlimit="10" d="M431.5,14.903c-14.137-5.696-46.2-1.993-62.457-3.109
		c-42.516-2.921-88.799,3.144-132.014,2.133C143.641,11.742,49.006,12.903-44.5,12.903"/>
	<path fill="none" stroke="#00A99D" stroke-miterlimit="10" d="M-51.5,5.903C-37.363,0.207-5.3,3.91,10.957,2.793
		c42.516-2.921,88.799,3.144,132.014,2.133C236.359,2.742,330.994,3.903,424.5,3.903"/>
	<path fill="none" stroke="#00A99D" stroke-miterlimit="10" d="M367.5,65.903c-14.137-5.696-46.2-1.993-62.457-3.109
		c-42.516-2.921-88.799,3.144-132.014,2.133C79.641,62.742-14.994,63.903-108.5,63.903"/>
	<path fill="none" stroke="#00A99D" stroke-miterlimit="10" d="M436.5,55.903c-14.137-5.696-46.2-1.993-62.457-3.109
		c-42.516-2.921-88.799,3.144-132.014,2.133C148.641,52.742,54.006,53.903-39.5,53.903"/>
	<path fill="none" stroke="#00A99D" stroke-miterlimit="10" d="M-46.5,45.903c14.137-5.696,46.2-1.993,62.457-3.109
		c42.516-2.921,88.799,3.144,132.014,2.133c93.389-2.184,188.023-1.023,281.529-1.023"/>
	<path fill="none" stroke="#00A99D" stroke-miterlimit="10" d="M-115.5,35.903c14.137-5.696,46.2-1.993,62.457-3.109
		c42.516-2.921,88.799,3.144,132.014,2.133c93.389-2.184,188.023-1.023,281.529-1.023"/>
	<path fill="none" stroke="#00A99D" stroke-miterlimit="10" d="M-58.5,95.902c14.137-5.695,46.2-1.992,62.457-3.109
		c42.516-2.922,88.799,3.145,132.014,2.133c93.389-2.184,188.023-1.023,281.529-1.023"/>
	<path fill="none" stroke="#00A99D" stroke-miterlimit="10" d="M438.5,85.902c-14.137-5.695-46.2-1.992-62.457-3.109
		c-42.516-2.922-88.799,3.145-132.014,2.133C150.641,82.742,56.006,83.902-37.5,83.902"/>
	<path fill="none" stroke="#00A99D" stroke-miterlimit="10" d="M369.5,75.902c-14.137-5.695-46.2-1.992-62.457-3.109
		c-42.516-2.921-88.799,3.145-132.014,2.133C81.641,72.742-12.994,73.902-106.5,73.902"/>
	<path fill="none" stroke="#00A99D" stroke-miterlimit="10" d="M-127.5,116.738c14.137-5.695,46.2-1.994,62.457-3.109
		c42.516-2.922,88.799,3.145,132.014,2.133c93.389-2.184,188.023-1.023,281.529-1.023"/>
	<path fill="none" stroke="#00A99D" stroke-miterlimit="10" d="M362.5,106.32c-14.137-5.695-46.2-1.994-62.457-3.109
		c-42.516-2.922-88.799,3.145-132.014,2.133C74.641,103.16-19.994,104.32-113.5,104.32"/>
	<path fill="none" stroke="#00A99D" stroke-miterlimit="10" d="M-122.5,200.084c14.137-5.695,46.2-1.994,62.457-3.109
		c42.516-2.922,88.799,3.145,132.014,2.133c93.389-2.184,188.023-1.023,281.529-1.023"/>
	<path fill="none" stroke="#00A99D" stroke-miterlimit="10" d="M367.5,189.664c-14.137-5.695-46.2-1.992-62.457-3.109
		c-42.516-2.922-88.799,3.145-132.014,2.133c-93.389-2.184-188.023-1.023-281.529-1.023"/>
	<path fill="none" stroke="#00A99D" stroke-miterlimit="10" d="M-53.5,179.246c14.137-5.695,46.2-1.992,62.457-3.109
		c42.516-2.922,88.799,3.145,132.014,2.133c93.389-2.184,188.023-1.023,281.529-1.023"/>
	<path fill="none" stroke="#00A99D" stroke-miterlimit="10" d="M436.5,168.828c-14.137-5.695-46.2-1.992-62.457-3.109
		c-42.516-2.922-88.799,3.145-132.014,2.133c-93.389-2.184-188.023-1.023-281.529-1.023"/>
	<path fill="none" stroke="#00A99D" stroke-miterlimit="10" d="M443.5,158.41c-14.137-5.695-46.2-1.992-62.457-3.109
		c-42.516-2.922-88.799,3.145-132.014,2.133C155.641,155.25,61.006,156.41-32.5,156.41"/>
	<path fill="none" stroke="#00A99D" stroke-miterlimit="10" d="M-46.5,147.992c14.137-5.695,46.2-1.994,62.457-3.109
		c42.516-2.922,88.799,3.145,132.014,2.133c93.389-2.184,188.023-1.023,281.529-1.023"/>
	<path fill="none" stroke="#00A99D" stroke-miterlimit="10" d="M374.5,137.574c-14.137-5.695-46.2-1.994-62.457-3.109
		c-42.516-2.922-88.799,3.145-132.014,2.133c-93.389-2.184-188.023-1.023-281.529-1.023"/>
	<path fill="none" stroke="#00A99D" stroke-miterlimit="10" d="M-115.5,127.156c14.137-5.695,46.2-1.994,62.457-3.109
		c42.516-2.922,88.799,3.145,132.014,2.133c93.389-2.184,188.023-1.023,281.529-1.023"/>
	<path fill="none" stroke="#00A99D" stroke-miterlimit="10" d="M-127.5,283.43c14.137-5.695,46.2-1.994,62.457-3.109
		c42.516-2.922,88.799,3.145,132.014,2.133c93.389-2.184,188.023-1.023,281.529-1.023"/>
	<path fill="none" stroke="#00A99D" stroke-miterlimit="10" d="M362.5,273.01c-14.137-5.695-46.2-1.992-62.457-3.109
		c-42.516-2.922-88.799,3.145-132.014,2.133C74.641,269.85-19.994,271.01-113.5,271.01"/>
	<path fill="none" stroke="#00A99D" stroke-miterlimit="10" d="M-58.5,262.592c14.137-5.695,46.2-1.992,62.457-3.109
		c42.516-2.922,88.799,3.145,132.014,2.133c93.389-2.184,188.023-1.023,281.529-1.023"/>
	<path fill="none" stroke="#00A99D" stroke-miterlimit="10" d="M431.5,252.174c-14.137-5.695-46.2-1.992-62.457-3.109
		c-42.516-2.922-88.799,3.145-132.014,2.133c-93.389-2.184-188.023-1.023-281.529-1.023"/>
	<path fill="none" stroke="#00A99D" stroke-miterlimit="10" d="M438.5,241.756c-14.137-5.695-46.2-1.992-62.457-3.109
		c-42.516-2.922-88.799,3.145-132.014,2.133c-93.389-2.184-188.023-1.023-281.529-1.023"/>
	<path fill="none" stroke="#00A99D" stroke-miterlimit="10" d="M-51.5,231.338c14.137-5.695,46.2-1.994,62.457-3.109
		c42.516-2.922,88.799,3.145,132.014,2.133c93.389-2.184,188.023-1.023,281.529-1.023"/>
	<path fill="none" stroke="#00A99D" stroke-miterlimit="10" d="M369.5,220.92c-14.137-5.695-46.2-1.994-62.457-3.109
		c-42.516-2.922-88.799,3.145-132.014,2.133C81.641,217.76-12.994,218.92-106.5,218.92"/>
	<path fill="none" stroke="#00A99D" stroke-miterlimit="10" d="M-120.5,210.502c14.137-5.695,46.2-1.994,62.457-3.109
		c42.516-2.922,88.799,3.145,132.014,2.133c93.389-2.184,188.023-1.023,281.529-1.023"/>
	<path fill="none" stroke="#00A99D" stroke-miterlimit="10" d="M-122.5,366.775c14.137-5.695,46.2-1.994,62.457-3.109
		c42.516-2.922,88.799,3.145,132.014,2.133c93.389-2.184,188.023-1.023,281.529-1.023"/>
	<path fill="none" stroke="#00A99D" stroke-miterlimit="10" d="M367.5,356.355c-14.137-5.695-46.2-1.992-62.457-3.109
		c-42.516-2.922-88.799,3.145-132.014,2.133c-93.389-2.184-188.023-1.023-281.529-1.023"/>
	<path fill="none" stroke="#00A99D" stroke-miterlimit="10" d="M-53.5,345.938c14.137-5.695,46.2-1.992,62.457-3.109
		c42.516-2.922,88.799,3.145,132.014,2.133c93.389-2.184,188.023-1.023,281.529-1.023"/>
	<path fill="none" stroke="#00A99D" stroke-miterlimit="10" d="M436.5,335.52c-14.137-5.695-46.2-1.992-62.457-3.109
		c-42.516-2.922-88.799,3.145-132.014,2.133c-93.389-2.184-188.023-1.023-281.529-1.023"/>
	<path fill="none" stroke="#00A99D" stroke-miterlimit="10" d="M443.5,325.102c-14.137-5.695-46.2-1.992-62.457-3.109
		c-42.516-2.922-88.799,3.145-132.014,2.133c-93.389-2.184-188.023-1.023-281.529-1.023"/>
	<path fill="none" stroke="#00A99D" stroke-miterlimit="10" d="M-46.5,314.684c14.137-5.695,46.2-1.994,62.457-3.109
		c42.516-2.922,88.799,3.145,132.014,2.133c93.389-2.184,188.023-1.023,281.529-1.023"/>
	<path fill="none" stroke="#00A99D" stroke-miterlimit="10" d="M374.5,304.266c-14.137-5.695-46.2-1.994-62.457-3.109
		c-42.516-2.922-88.799,3.145-132.014,2.133c-93.389-2.184-188.023-1.023-281.529-1.023"/>
	<path fill="none" stroke="#00A99D" stroke-miterlimit="10" d="M-115.5,293.848c14.137-5.695,46.2-1.994,62.457-3.109
		c42.516-2.922,88.799,3.145,132.014,2.133c93.389-2.184,188.023-1.023,281.529-1.023"/>
</g>
</svg>
