<?xml version="1.0" encoding="utf-8"?>
<!-- Generator: Adobe Illustrator 16.0.0, SVG Export Plug-In . SVG Version: 6.00 Build 0)  -->
<!DOCTYPE svg PUBLIC "-//W3C//DTD SVG 1.1//EN" "http://www.w3.org/Graphics/SVG/1.1/DTD/svg11.dtd">
<svg version="1.1" id="Calque_1" xmlns="http://www.w3.org/2000/svg" xmlns:xlink="http://www.w3.org/1999/xlink" x="0px" y="0px"
	 width="424.5px" height="879.5px" viewBox="-20.5 0 424.5 879.5" enable-background="new -20.5 0 424.5 879.5"
	 xml:space="preserve">
<path fill="#FFFFFF" d="M152.505,12.5c-35.121,9.398-61.337,28-49.171,76c0,0-61.834,27.227-55.834,68.113c0,0,2,61.887,33,72.887
	c0,0-11.471,44.149,18.265,44.075c0,0-28.265,12.338-47.265,50.632s-34,94.704-30,142.499l15,18.795c0,0-3.734,48-4.867,110
	S9.5,676.5,0,736.5s-21.5,109.125,0,117.312S90.5,875.5,120.5,866.5s9.666-27,9.666-27l35.501-25.981L104.999,758.5L105,360.706
	h244.5c0,0-33-25.626-61-55.416s-52.953-49.38-37.477-61.085s53.102-19.633,49.289-56.669c0,0,43.188-10.036,39.188-45.036
	l-15.185-27c0,0,36.185-47,5.185-72s-66.488-28-87.244-11C242.256,32.5,199.217,0,152.505,12.5z"/>
<polygon fill="#FFFFFF" points="46.67,518.808 104.998,581.204 104.999,481 47.5,497.5 "/>
<g>
	<path fill="#FFFFFF" stroke="#000000" stroke-linecap="round" stroke-miterlimit="10" d="M105.676,803.537
		c1.699,2.879,5.739,4.697,8.575,6.121c3.494,1.756,7.098,3.566,10.737,5.012c2.93,1.164,5.933,1.553,8.99,2.164
		c2.075,0.414,4.295,2.029,6.406,2.162c3.402,0.211,7.618,0.586,11,1c1.879,0.229,2.446,1.23,2.421,3.375
		c-0.032,2.717-4.804,3.951-6.959,4.324c-2.151,0.373-7.988,0.291-9.949-0.449c-6.532,0.441-12.687,1.617-19.055,0.346
		c-17.815-3.555-29.045-0.484-43-2.721c-1.303-0.209-4.162-1.229-4.879-2.527c-0.572-1.039-0.267-5.377-0.227-6.598
		c0.114-3.518,0.448-6.6,0.438-9.77c-0.008-2.328,0.758-4.852,0.5-7.105"/>
	<path fill="#FFFFFF" stroke="#000000" stroke-linecap="round" stroke-miterlimit="10" d="M104.999,684.52
		c-13.765,33.588-39.021,97.216-35.489,117.352c0,0,16.875,8,36.5,2"/>
</g>
<g>
	<path fill="#FFFFFF" stroke="#000000" stroke-linecap="round" stroke-linejoin="round" stroke-miterlimit="10" d="M107.428,851.9
		c1.497,0.129,3.17-0.119,4.443-2.199c1.562-6.453-6.61-4.084-13.613-5.805c-6.518-1.6-12.344-3.4-18.488-6.092
		c-6.264-2.742-12.172-9.805-17.179-14.605c-3.48-3.34-15.479-19.16-15.081-24.328l-31.039,9.971
		c-1.498,5.068-2.736,10.633-3.757,15.732c-0.535,2.68-2.302,7.389-0.864,9.865c3.084,5.301,15.953,6.23,21.283,6.957
		c20.746,2.826,29.953,18.479,55.94,15.871"/>
	<path fill="#FFFFFF" stroke="#000000" stroke-linecap="round" stroke-miterlimit="10" d="M104.998,581.204"/>
	<path fill="#FFFFFF" stroke="#000000" stroke-linecap="round" stroke-miterlimit="10" d="M104.998,581.204
		c-4.361,25.839-8.655,53.781-9.988,70.667c-3,38-22,60-30.333,90.666c-8.333,30.668-12.667,66.334-12.667,66.334
		c-9,13.25-38.701,7-38.701,7c-2.799-106,22.701-125,28.701-164s4.542-147.1,4.542-147.1"/>
	<path fill="#FFFFFF" stroke="#000000" stroke-linecap="round" stroke-linejoin="round" stroke-miterlimit="10" d="M97.861,848.49
		c2.918,1.09,8.907,0.016,9.748,2.342c0.084,2.209-2.041,3.348-6.733,3.439"/>
	<path fill="#FFFFFF" stroke="#000000" stroke-linecap="round" stroke-linejoin="round" stroke-miterlimit="10" d="M94.34,850.529
		c3.05,0.088,3.824,0.373,5.318,0.4c1.932,0.035,3.924,0.326,3.465,2.406c-0.519,2.352-5.881,1.615-7.148,1.516"/>
	<path fill="#FFFFFF" stroke="#000000" stroke-linecap="round" stroke-linejoin="round" stroke-miterlimit="10" d="M90.787,852.396
		c4.821,0.324,7.486,0.277,8.194,2.184c0.293,0.789-0.729,3.049-5.049,2.605"/>
	<path fill="#FFFFFF" stroke="#000000" stroke-linecap="round" stroke-linejoin="round" stroke-miterlimit="10" d="M87.03,853.818
		c7.68-0.08,7.97,0.688,6.902,3.367c-1.017,0.6-3.648,0.246-4.859,0.082"/>
</g>
<g id="Calque_2">
</g>
<g id="home-tablette">
</g>
<g id="home-desktop">
</g>
<g id="rtfm-desktop">
</g>
<g id="rtfm-tablette">
	<path fill="none" stroke="#000000" stroke-miterlimit="10" d="M516.756,650.706"/>
	<path fill="#16A1A8" d="M105,360.706h81.734c-0.759-6.032-0.812-11.104,1.626-12.5c2.277-1.305,7.582,0.246,14.774,2.914
		c7.855-10.904,17.438-20.356,25.563-30.958c-12.044-6.392-27.826-15.91-39.276-27.01c-21.09-20.446-56.854,43.757-124.639,31.321
		c0,0-6.117,3.231-13.784,24.232c-7.667,21-5.5,31.955-8.5,49.955s-18.5,51.545-6.167,76.377c0,0,5.214,1,11.94,0l-6.773,31.168
		c0,0,26.16,15.334,63.5,12.172L105,360.706L105,360.706z"/>
	<path fill="#FFFFFF" stroke="#000000" stroke-linecap="round" stroke-miterlimit="10" d="M100,392.581l91.25,51.125
		c0,0,30.926-12.242,43.838-16.621s40.855-11.213,40.855-11.213s-1.892,1.541,0,2.271c1.89,0.73,10.224-0.938,18.224-2.271
		s15-2.5,16-3.666c1-1.168-0.834-3.334-0.834-3.334s22-3.666,32.167-4.332s43.333-5.168,48.5-6.668c0,0,1.333-0.832,0-1.5
		c-1.333-0.666-94.332-49.332-94.332-49.332l-70.412,20.045L100,390.809C100,390.809,98.332,391.646,100,392.581z"/>
	<path fill="none" stroke="#000000" stroke-linecap="round" stroke-miterlimit="10" d="M194.39,438.706c0,0,30.329-10.668,45.639-15
		c15.308-4.334,35.641-10,37.308-9.334c1.667,0.668-1.999,2.668,2.667,2"/>
	<path fill="none" stroke="#000000" stroke-linecap="round" stroke-miterlimit="10" d="M303.334,412.04c4.667-1,6.167-1.668,5-2.668
		s-0.499-1.666,1.667-2"/>
	<path fill="#FFFFFF" stroke="#000000" stroke-linecap="round" stroke-miterlimit="10" d="M282.834,415.706
		c0,0-5.501-7.775-24.167-1.387c-18.666,6.387-60.392,23.321-67.417,24.387l-87.916-47.5c0,0,14-5,21.167-8.168
		c7.167-3.166,53.081-24,75.624-18.332C222.668,370.372,277.334,406.538,282.834,415.706z"/>
	<g>
		<path fill="#FFFFFF" stroke="#000000" stroke-miterlimit="10" d="M191.25,387.706c3.611,1.252,9.584-1.521,13.5-1.756
			c4.443-0.271,7.398,0.967,11.306,2.811c5.414,2.558,10.936,5.816,16.694,6.945"/>
		<path fill="#FFFFFF" stroke="#000000" stroke-linecap="round" stroke-miterlimit="10" d="M223.711,393.771
			c1.152,0.229,10.422,2.344,11.377,2.436c10.412,1,2.239,9.518-5.088,8.287c-9.172-1.539-16.439-0.688-16.439-0.688
			s18.136,6.582,17.939,7.65c-0.5,2.75-7,1.25-20-1.5c-16.634-3.521-20.159-2.432-40.693-2.432c-2.4,0-34.307,27.182-59.307,39.682
			s-37.5,19.5-37.5,19.5s-6.5-12,8-42.5c0,0,37.176-10.5,56.088-22c20.334-12.365,36.91-15.914,57.863-14.422"/>
		<path fill="none" stroke="#000000" stroke-linecap="round" stroke-miterlimit="10" d="M208.75,396.956
			c13.375-0.625,15.086,1.125,18.5,1.646c4.436,0.679,4.436,0.679,8.294,1.109c1.399,0.156,2.939,0.06,4.163,0.787"/>
		<path fill="none" stroke="#000000" stroke-linecap="round" stroke-miterlimit="10" d="M208.75,402.331
			c3.667,1.221,9.592,2.697,12.712,4.326"/>
		<path fill="none" stroke="#000000" stroke-linecap="round" stroke-miterlimit="10" d="M208.875,391.206
			c3.403,0.865,6.983,0.561,10.381,1.492c1.844,0.506,3.771,0.744,5.619,1.258"/>
	</g>
	<path fill="#FFFFFF" stroke="#000000" stroke-linecap="round" stroke-miterlimit="10" d="M111,277.14
		c-8,13.232-42,30.565-47.333,50.565c0,0,62.878,18,125.756-34.554c0,0-10.256-10.909-19.756-14.909s-20.911,1.963-20.911,1.963"/>
	<path fill="#FFFFFF" stroke="#000000" stroke-linecap="round" stroke-miterlimit="10" d="M192.256,277.539
		c0,0,5.834,2.333,9.834-1.5"/>
	<path fill="#16A1A8" d="M246.333,328.705c0,0-9.231-4.095-19.372-9.475c-8.126,10.603-17.371,20.471-25.227,31.375
		c9.354,3.467,23.311,9.336,36.599,12.766c20.667,5.332,36.167,5.666,43.167,6.332s18.812-2.619,18.812-2.619
		S267.333,357.372,246.333,328.705z"/>
	<path fill="#FFFFFF" stroke="#000000" stroke-miterlimit="10" d="M205.861,340.278c-2.986,4.428-4.801,3.016-6.002,0.303
		c-1.022-2.307-1.336-4.137-1.984-6.625c-1.172-4.5-2.695-8.154-3.155-11.993c-0.652-5.456-0.345-6.673,1.007-16.673l6.94,3.417
		L205.861,340.278z"/>
	<path fill="#FFFFFF" stroke="#000000" stroke-linecap="round" stroke-linejoin="round" stroke-miterlimit="10" d="M201.5,308.955
		c-1.07,7.75-1.113,16.015,1.2,22.157c0.726,1.927,3.771,14.634,7.05,12.593l0.625-0.584c1.94-2.195-0.808-7.861-1.5-10.417
		c-1.618-5.979-1.375-15.082-1.375-21.25c0,5.506,1.252,10.08,4,14.75c1.613,2.742,5.045,11.146,9.207,9.208
		c-0.428-7.565-5.982-14.154-5.957-22.108c0.03-9.375,9.711-16.382,9.847-25.658l-0.368-0.69c0,0,15.188,28.5,22.104,41.75
		s42.792,36.01,53.979,38.379c0,0,4.938-1.129,4.188-4.129s-3-17.039-14-28.394c-11-11.356-33.5-33.106-41-42.356
		s-23.664-34.083-31.582-33.167s-22.156,25.917-25.662,31.417s-4.41,15.514-4.833,22.169c-0.423,6.656-0.079,22.32,0.938,23.076
		c1.016,0.756,2.946-0.107,3.759-1.873c1.446-3.147,0.492-4.752,1.446-12.622c0.463-3.818,0.709-10.125,2.16-13.875"/>
	<path id="indice" fill="#FFFFFF" stroke="#000000" stroke-linecap="round" stroke-miterlimit="10" d="M148.756,280.205
		c0,0,8.701,2.152,20.666,5.833c8.666,2.667,21.609,3.163,27.334,2.333c23-3.333,20.785-14.079,28-28.333
		c4.271-8.438,6.359-16.418,7.215-23.405c1.523-0.809,2.492-1.623,2.785-2.429c4-11,27.064-11.397,36.666-20.833
		c19.334-19,9.578-32.333,9.578-32.333s26.582-7.113,36.256-22.333c12.5-19.667-4-40-4-40s28.5-46-6-75s-68.813,6.147-68.813,6.147
		S193.6,13.725,153.588,27.705C112.088,42.205,115,98.372,115,98.372s-33.244,18.333-44.744,44.833s12,61,19,68.5
		s15.5,18.5,15.5,18.5s-12-0.5-14,10.5s11.5,24,20.5,20.5c0,0,2.902,10.712-0.256,15.935"/>
	<path fill="#FFFFFF" stroke="#000000" stroke-linecap="round" stroke-miterlimit="10" d="M234.119,223.561
		c-0.869-25.466-7.738-33.936-20.893-37.27c-9.705-2.46-17.393,0.822-23.094,5.875s-9.162,15.281-9.227,30.345
		c-0.068,15.294,1.49,26.332,8.537,32.215c0.293-1.022,1.104-1.866,2.205-2.104c-0.318-1.137-0.523-2.291-0.562-3.417
		c-0.066-1.91,1.359-2.867,2.838-2.888c-0.01-1.61,1.412-2.945,2.996-2.945c1.668,0,2.955,1.366,3,3
		c0.023,0.884,0.211,1.744,0.342,2.826c0.023,0.188,0.033,0.371,0.043,0.553c1.721,2.31,3.146,4.854,4.373,7.44
		c0.312,0.655,0.377,1.297,0.271,1.882c0.055,0.18,0.092,0.361,0.107,0.545C226.094,260.741,235.152,253.884,234.119,223.561z"/>
	<path fill="none" stroke="#000000" stroke-linecap="round" stroke-miterlimit="10" d="M215.938,186.914
		c-3.213-1.137-5.918-1.297-9.076-1.378c-2.277,3.66-7.645,14.654-7.645,33.236c0,21.104,0.801,32.874,4.4,40.684
		c1.139,0.23,3.479,0.013,4.783,0.082c16.357,0.857,26.627-4.679,25.701-35.977C233.352,198.095,226.475,190.643,215.938,186.914z"
		/>
	<path fill="#16A1A8" d="M227.089,247.727c-4.001-1.814-11.312-2.635-19.329-1.526c-2.08,0.288-4.092,0.604-6.04,0.938
		c0.499,4.022,1.214,7.339,2.235,10.188c0.947,0.193,1.951,0.332,3.027,0.394c1.086,0.062,2.146,0.083,3.181,0.069
		c0.565-0.071,1.119-0.133,1.708-0.215c1.938-0.27,3.781-0.531,5.537-0.79C222.723,255.167,225.256,252.331,227.089,247.727z"/>
	<path fill="none" stroke="#000000" stroke-linecap="round" stroke-miterlimit="10" d="M216.188,189.393
		c-3.25-1.438-8.221-1.856-8.221-1.856c-2.41,4.771-7.314,15.011-7.314,31.237c0,19.62,0.521,30.802,3.305,38.552
		c0.947,0.193,1.951,0.332,3.027,0.394c14.574,0.817,24.872-4.405,24.049-34.208C230.361,199.262,225.992,193.729,216.188,189.393z"
		/>
	<path id="path" fill="#FFFFFF" stroke="#000000" stroke-linecap="round" stroke-miterlimit="10" d="M142.951,192.476
		c-7.441,5.286-11.957,15.986-12.043,31.745c-0.129,23.349,4.213,37.781,28.828,38.682c24.615,0.896,42.006-4.842,40.613-37.582
		c-1.133-26.643-10.098-35.501-27.262-38.989C160.422,183.756,150.391,187.19,142.951,192.476z"/>
	<path fill="none" stroke="#000000" stroke-linecap="round" stroke-miterlimit="10" d="M174.119,186.33
		c-4.691-1-9-1.084-12.936-0.515c-3.268,3.826-11.125,15.055-11.125,34.491c0,22.078,0.926,33.941,6.089,42.112
		c1.633,0.241,3.367,0.408,5.238,0.48c23.468,0.896,40.041-4.842,38.718-37.582C199.025,198.678,190.479,189.817,174.119,186.33z"/>
	<path fill="#16A1A8" d="M193.564,246.847c-8.271-0.698-17.498-1.713-28.607,0.029c-4.178,0.655-8.11,1.455-11.716,2.31
		c0.133,1.312,0.305,2.55,0.51,3.732c0.675,2.882,1.543,5.396,2.667,7.627c0.432,0.087,0.868,0.17,1.316,0.246
		c1.029,0.118,2.09,0.215,3.221,0.261C176.112,261.65,188.141,259.132,193.564,246.847z"/>
	<path fill="none" stroke="#000000" stroke-linecap="round" stroke-miterlimit="10" d="M172.688,188.142
		c-4.258-0.938-7.172-1.024-10.754-0.511c-3.574,4.993-10.373,15.703-10.373,32.678c0,20.527,0.777,32.225,4.902,40.331
		c1.408,0.204,2.896,0.35,4.492,0.412c21.627,0.854,36.902-4.607,35.68-35.786C195.639,199.899,187.764,191.462,172.688,188.142z"/>
	<path fill="#FFFFFF" stroke="#000000" stroke-linecap="round" stroke-linejoin="round" stroke-miterlimit="10" d="M198.088,244.872
		c0,0,8.334,10.833,9.5,16c0,0-4.666,3.833-10,4.667c0,0,3.334,2.833,7.5,2c0,0-4.5,5.667-7,6s-7.621-1.779-10.457-1.708
		c-5,0.125-9.125,0.625-18.5-2.375c10.125,1.417,14.834-1.458,20-1.125s5.291,1.709,9.457,1.042c4.168-0.667,6.5-1.833,6.5-1.833"/>
	<path fill="none" stroke="#000000" stroke-linecap="round" stroke-miterlimit="10" d="M150.588,239.872c0,0-4.666,3.5-12.166,0.333
		"/>
	<path fill="none" stroke="#000000" stroke-linecap="round" stroke-miterlimit="10" d="M151.088,246.205c0,0-4,5-13,3.5"/>
	<path fill="none" stroke="#000000" stroke-linecap="round" stroke-miterlimit="10" d="M151.922,252.539
		c0,0-1.832,2.833-5.166,3.333"/>
	<path fill="none" stroke="#000000" stroke-linecap="round" stroke-miterlimit="10" d="M153.588,257.372
		c0,0-0.666,1.167-2.166,1.667"/>
	<path fill="none" stroke="#000000" stroke-linecap="round" stroke-miterlimit="10" d="M230.088,237.872c0,0,4.668,3.5,12.168,0.333
		"/>
	<path fill="none" stroke="#000000" stroke-linecap="round" stroke-miterlimit="10" d="M228.588,244.205c0,0,4,5,13,3.5"/>
	<path fill="none" stroke="#000000" stroke-linecap="round" stroke-miterlimit="10" d="M226.756,249.539
		c0,0,1.832,2.833,5.166,3.333"/>
	<path fill="none" stroke="#000000" stroke-linecap="round" stroke-miterlimit="10" d="M223.088,254.372
		c0,0,0.668,1.167,2.168,1.667"/>
</g>
<path fill="#FFFFFF" d="M47.5,497.5"/>
</svg>
