<?xml version="1.0" encoding="utf-8"?>
<!-- Generator: Adobe Illustrator 16.0.0, SVG Export Plug-In . SVG Version: 6.00 Build 0)  -->
<!DOCTYPE svg PUBLIC "-//W3C//DTD SVG 1.1//EN" "http://www.w3.org/Graphics/SVG/1.1/DTD/svg11.dtd">
<svg version="1.1" id="Calque_1" xmlns="http://www.w3.org/2000/svg" xmlns:xlink="http://www.w3.org/1999/xlink" x="0px" y="0px"
	 width="508px" height="305.817px" viewBox="104.75 61.801 508 305.817" enable-background="new 104.75 61.801 508 305.817"
	 xml:space="preserve">
<g>
	<path fill="#FFFFFF" d="M146.704,169.36c0,0-41.848,20.902-19.238,64.73c0,0-26.613,37.759-3.688,70.8
		c22.926,33.038,55.292,48.547,75.519,39.107c0,0,4.045,22.251,50.908,22.251c46.862,0,84.173-0.675,132.945,0
		c48.771,0.674,87.88,0,118.223,0s98.444,4.721,99.118-3.371c0,0,11.463-10.788,4.046-22.927
		c-7.416-12.136-43.153-5.536-44.502-15.916c-1.349-10.379,50.57-88.328,26.296-101.947c-24.272-13.62-41.131-4.854-41.131-4.854
		s-15.509-50.792-47.198-22.699c-31.69,28.093-41.131,83.048-57.988,84.564c-16.855,1.517-51.244,0.674-51.244,0.674
		s9.818-50.403,7.606-63.888l11.947-12.137c0,0,5.395-44.858,6.742-62.886c1.349-18.027-0.674-32.187-0.674-32.187
		s-20.881-10.563-59.663-19.779c-38.782-9.215-55.133-11.912-55.133-11.912L285.38,88.896l-21.869,73.047
		c0,0-17.015-7.417-26.455-6.068c-9.44,1.348-16.946,9.66-16.946,9.66S176.709,145.086,146.704,169.36z"/>
	<path fill="#FFFFFF" stroke="#000000" stroke-miterlimit="10" d="M448.78,291.517c0,0,5.483-3.547,15.507-27.083
		c11.679-27.421,30.006-50.571,38.435-58.326c8.429-7.754,15.171-5.057,20.903-3.708c5.731,1.348,12.474,5.731,15.845,31.016
		c3.371,25.286,9.438,96.616,15.509,100.228c6.068,3.611,26.296,4.623,33.376,6.308c7.08,1.686,8.995,10.092,0,10.451
		s-59.674,0-59.674,0l-6.756-54.204l-23.923,19.817L448.78,291.517z"/>
	<path fill="#FFFFFF" stroke="#000000" stroke-miterlimit="10" d="M460.606,294.103c17.823-16.96,16.622-26.569,45.317-48.548
		c15.847-12.139,30.678-19.392,51.751-19.401c30.006-0.013,14.744,30.045,6.743,48.593c-4.526,10.493-9.086,21.461-14.497,34.862
		c-6.957,17.228-14.038,26.924-1.9,30.799c7.76,2.481,15.75,4.098,23.709,5.961c7.277,1.703,13.777,8.634,1.093,9.595
		c-19.862,1.506-63.868,1.041-65.83-0.596c-2.517-2.097,2.985-12.289,8.203-28.732c9.229-29.083,4.384-48.969,25.286-70.831"/>
	<path fill="#FFFFFF" stroke="#000000" stroke-miterlimit="10" d="M521.925,296.198c-6.574,22.924-8.292,31.302-18.528,46.114
		c-4.866,7.039-13.318,11.631-22.334,13.387c-7.516,1.465-15.595,0.772-21.831,0.772l-7.924-65.035"/>
	<path fill="#16A1A8" d="M330.107,355.798c0,0,115.638,2.829,130.135,2.258c0,0,9.777-42.04-10.115-70.36
		c0,0-75.181,4.383-87.992,8.093C349.324,299.496,330.107,355.798,330.107,355.798z"/>
	<path fill="#FFFFFF" stroke="#000000" stroke-miterlimit="10" d="M385.106,197.448c0,0,5.01,2.252,6.809,1.58
		c1.8-0.672,7.868-78.216,7.868-78.216l-57.934,66.08L385.106,197.448"/>
	<path fill="#FFFFFF" stroke="#000000" stroke-miterlimit="10" d="M290.549,96.313c0,0-19.781,78.438-19.33,80.014
		c0.451,1.575,83.509,17.183,83.509,17.183"/>
	<path fill="#FFFFFF" stroke="#000000" stroke-miterlimit="10" d="M296.17,93.393c-6.743,11.688-10.79,75.069-10.79,75.069
		l63.428,15.91l47.604,10.162l4.045-73.723L296.17,93.393z"/>
	<path fill="#FFFFFF" stroke="#000000" stroke-miterlimit="10" d="M301.957,354.111c0,0-36.58,1.574-50.964,2.472
		c-14.384,0.899-47.649-2.697-37.76-26.521c0,0-26.297,13.711-48.324-0.225c-22.025-13.936-53.268-50.065-28.094-91.704
		c0,0-22.926-39.331,14.384-63.155c37.311-23.824,68.328,4.945,68.328,4.945s13.486-16.183,35.961-6.743
		c22.476,9.439,30.118,34.612,30.118,34.612s17.98-3.146,24.723,18.43c6.743,21.576-2.697,34.898-2.697,34.898"/>
	<path fill="#FFFFFF" stroke="#000000" stroke-linecap="round" stroke-miterlimit="10" d="M265.754,260.434
		c-0.564,1.059-2.393,10.943-2.232,16.163c0.159,5.218,2.074,10.942,3.987,12.625c1.914,1.685,16.747,8.176,31.579,6.78
		c14.833-1.393,19.916-7.454,20.484-11.493c0.568-4.04,0.089-20.538-1.346-23.231c-1.436-2.695-9.889-6.566-23.605-7.24
		C280.906,253.363,267.19,257.74,265.754,260.434z"/>
	<path fill="none" stroke="#000000" stroke-linecap="round" stroke-miterlimit="10" d="M267.03,260.771
		c0,0,3.828,6.943,21.531,6.902c18.193-0.043,29.555-4.644,27.911-6.902c-1.646-2.258-15.709-5.004-24.322-4.967
		C284.881,255.838,269.741,258.414,267.03,260.771z"/>
	<path fill="#16A1A8" d="M270.619,260.688c-0.007,1.684,6.732,1.715,21.04,1.936c15.005,0.232,22.491-0.891,22.67-1.996
		c0.179-1.107-10.696-3.443-21.062-3.391C283.458,257.285,270.623,259.727,270.619,260.688z"/>
	<path fill="#FFFFFF" stroke="#000000" stroke-miterlimit="10" d="M292.122,95.639c0,0-1.348-0.225-1.348-1.349
		c0-1.123,6.968-4.495,7.868-3.82c0.898,0.674-1.349,2.541-1.349,2.541s-5.17,56.347-6.519,61.965s-3.236,10.207-2.472,11.463
		c0.765,1.255,68.094,17.931,68.094,17.931s42.037,9.487,43.611,8.365c1.575-1.122,2.698-72.598,3.596-73.047
		c0.899-0.449,1.574-2.473,0-3.371c-1.572-0.899-104.288-27.421-104.288-27.421s-7.642,1.798-8.991,3.371
		c-1.348,1.574,0.225,4.046,0.225,4.046"/>
	<path fill="#FFFFFF" stroke="#000000" stroke-miterlimit="10" d="M298.641,95.864c0,0-5.395,61.583-7.867,66.079"/>
	<path fill="#FFFFFF" stroke="#000000" stroke-miterlimit="10" d="M346.514,103.73c0,0,26.748,6.293,36.637,9.89"/>
	<path fill="#FFFFFF" stroke="#000000" stroke-linecap="round" stroke-linejoin="round" stroke-miterlimit="10" d="M333.254,267.354
		c0,0,4.72-42.928,3.597-51.469c-1.125-8.541-2.922-12.586-4.72-13.485c-1.798-0.899-9.967-3.396-12.063-8.89
		c-2.096-5.495-9.314-12.005-7.311-13.361c4.316-2.921,6.926,4.793,12.011,6.518c5.085,1.724,6.353-1.031,11.128,2.968l20.5,3.876
		c0,0-2.238,9.339-2.014,14.284c0.225,4.945,2.014,51.241,2.014,51.241l4.055,56.644l-33.378,2.697L333.254,267.354z"/>
	<path fill="#FFFFFF" stroke="#000000" stroke-miterlimit="10" d="M250.205,282.976c0,0,8.766,17.193,5.731,27.645
		c0,0,36.412,14.16,38.771,32.366l3.934-3.035c0,0-6.631,6.406-2.922,10.789c3.708,4.384,8.285,7.887,13.415,5.965
		c5.128-1.919,8.837-5.291,8.162-8.999l8.092-5.73l8.315-20.005c4.144-10.697,5.802-27.636,6.068-40.343
		c0.149-7.119,2.078-12.476-0.898-15.172c-3.988-3.614-6.181-2.136-9.553-3.484c-1.993-0.796-3.821-3.821-5.394-3.933
		c-1.573-0.113-2.215,1.576-2.215,1.576"/>
	<path fill="#FFFFFF" stroke="#000000" stroke-linecap="round" stroke-linejoin="round" stroke-miterlimit="10" d="M295.719,267.354
		c0,0,8.765-12.53,13.261-13.485c0,0,1.665,0.83,3.776,5.17c0,0,0.944,1.123,2.292-0.225c1.349-1.35,2.249-2.697,4.046-1.574
		c0.816,0.51,1.864,1.762,2.617,3.375c0.776,1.66,0.653,6.402,0.529,6.739"/>
	<path fill="#FFFFFF" stroke="#000000" stroke-miterlimit="10" d="M373.261,144.749c0.713-0.546,0.641-1.706,1.11-2.42
		c0.808-1.23,2.243-0.498,2.88,0.449c1.702,2.534,1.868,5.918,2.044,8.86c0.221,3.656,0.372,7.315,0.372,10.979
		c0,2.346-0.571,5.035,0.019,7.973c0.664-3.137,0.294-6.401,0.562-9.577c0.13-1.535,0.389-3.093,1.031-4.504
		c0.692-1.517,1.302-1.314,2.247-0.077c2.752,3.604,2.221,9.793,2.003,14.03c-0.333,6.492-1.029,12.845-0.773,19.375
		c0.354,9.017,1.118,17.924,0.267,26.944c-0.847,8.964-2.891,17.854-4.344,26.737c-1.461,8.937-3.438,17.712-5.277,26.574
		c-3.563,17.165-6.561,34.47-11.046,51.434c-0.505,1.91-1.046,3.812-1.647,5.694c-0.179,0.562-0.813,3.515-1.349,3.656
		c-0.832,0.221-1.664,0.441-2.497,0.661c-3.874,1.025-7.748,2.051-11.624,3.076c-6.722,1.779-13.444,3.56-20.167,5.338
		c0.764-6.807,3.333-13.212,5.431-19.68c2.379-7.338,4.882-14.633,7.316-21.953c4.672-14.049,10.44-27.746,14.806-41.893
		c2.094-6.779,3.586-13.729,4.651-20.742c1.113-7.329,2.432-14.822,2.857-22.224c0.365-6.366-0.628-12.568-5.015-17.467
		c-3.771-4.212-8.441-7.239-8.469-13.485c1.468,0.383,2.937,0.766,4.405,1.149c2.389,0.624,4.686,1.723,5.034-1.318
		c0.383-3.329-0.141-6.344-0.673-9.608c-0.748-4.586-1.459-10.031-1.02-14.666c0.138-1.446,0.588-15.806,4.422-13.251
		c2.629,1.753,1.915,8.167,1.976,10.869c0.083,3.696,0.735,7.409,1.632,10.988c0.208,0.822,1.092,5.789,2.35,3.451
		c0.765-1.419,1.053-3.062,1.197-4.65c0.489-5.42-0.25-10.936-0.034-16.382c0.083-2.11,0.173-4.8,1.546-6.538
		c0.858-1.085,2.195-1.361,2.96-0.108c1.859,3.039,1.521,7.86,1.558,11.261c0.049,4.777-0.365,9.534-0.404,14.306"/>
	<path fill="#16A1A8" d="M333.816,309.609c0,0,20.228,16.183,33.881,9.777l-6.911,28.994c0,0-15.171,11.659-26.971,8.864
		c-11.8-2.796-15.251-3.808-13.188-11.898C322.689,337.255,333.816,309.609,333.816,309.609z"/>
	<path fill="#FFFFFF" stroke="#000000" stroke-linecap="round" stroke-miterlimit="10" d="M263.185,272.523
		c-0.596,1.06-2.529,10.957-2.36,16.185c0.169,5.226,2.191,10.956,4.214,12.642c2.023,1.685,17.7,8.185,33.377,6.79
		c15.676-1.396,21.05-7.464,21.65-11.51c0.6-4.047,0.095-20.564-1.423-23.263c-1.517-2.696-10.451-6.573-24.948-7.248
		S264.702,269.827,263.185,272.523z"/>
	<path fill="none" stroke="#000000" stroke-linecap="round" stroke-miterlimit="10" d="M264.534,272.861
		c0,0,4.045,6.955,22.757,6.911c19.229-0.044,31.238-4.65,29.5-6.911c-1.738-2.262-16.603-5.01-25.707-4.973
		C283.401,267.92,267.399,270.502,264.534,272.861z"/>
	<path fill="#16A1A8" d="M268.326,272.776c-0.006,1.688,7.115,1.718,22.238,1.939c15.859,0.232,23.772-0.892,23.961-2
		c0.189-1.108-11.305-3.445-22.262-3.395C281.896,269.37,268.331,271.815,268.326,272.776z"/>
	<path fill="none" stroke="#000000" stroke-miterlimit="10" d="M290.662,279.604c-0.024,2.531-0.7,4.837-1.854,7.08"/>
	<path fill="none" stroke="#000000" stroke-miterlimit="10" d="M295.044,279.604c0.735,2.595,0.843,5.072,0.843,7.754"/>
	<path fill="none" stroke="#000000" stroke-miterlimit="10" d="M298.753,279.099c1.238,2.383,1.281,4.676,1.686,7.249"/>
	<path fill="none" stroke="#000000" stroke-miterlimit="10" d="M290.662,253.98c0.111-1.939-0.744-3.641-1.349-5.393"/>
	<path fill="none" stroke="#000000" stroke-miterlimit="10" d="M294.033,253.812c0.808-1.605,0.738-4.33,0.674-6.068"/>
	<path fill="none" stroke="#000000" stroke-miterlimit="10" d="M297.742,254.486c1.027-0.705,1.243-3.576,1.18-4.887"/>
</g>
</svg>
