<?xml version="1.0" encoding="utf-8"?>
<!-- Generator: Adobe Illustrator 16.0.0, SVG Export Plug-In . SVG Version: 6.00 Build 0)  -->
<!DOCTYPE svg PUBLIC "-//W3C//DTD SVG 1.1//EN" "http://www.w3.org/Graphics/SVG/1.1/DTD/svg11.dtd">
<svg version="1.1" id="Calque_1" xmlns="http://www.w3.org/2000/svg" xmlns:xlink="http://www.w3.org/1999/xlink" x="0px" y="0px"
	 width="320px" height="472.875px" viewBox="0 0 320 472.875" enable-background="new 0 0 320 472.875" xml:space="preserve">
<g id="Calque_2">
	<path fill="#FFFFFF" d="M941.991,384.766c0.38,4.402,1.036,8.716,1.692,12.896c0.741,4.732-0.057,5.791,4.373,8.199
		c3.955,2.15,8.303,3.939,12.697,5.025c10.531,2.604,21.965,3.459,32.846,2.25c3.289-0.365,15.978-2.243,15.398-6.927
		c0.059-0.481-0.426-1.135-1.18-1.85c5.307,1.969,13.285,1.566,17.922,1.307c5.088-0.284,10.078-0.837,15.066-1.613
		c3.409-0.533,11.948-0.721,12.863-4.844c0.812-3.676-2.281-5.834-4.925-6.834l-2.75-1.5c0.703-5-0.563-9.178-0.999-13.642
		c-0.35-3.569-0.667-7.819-0.667-11.431c0-2.604,0.69-6.435-0.334-8.803l-0.097-0.529c6.828-4.006,12.059-10.289,15.098-17.564
		c2.3-5.508,2.982-12.081,3.988-18.016c1.99-11.74,2.736-23.479,1.02-35.432c-1.686-11.699-4.104-23.699-8.092-34.912
		c-1.662-4.674-3.445-9.45-5.846-13.745c-1.938-3.469-4.961-6.242-7.129-9.518c0.062-0.104,0.129-0.199,0.189-0.305
		c0,0,13.422,6.491,15.532-4.975c1.002-5.44,0.22-8.737-1.351-10.698c28.586-5.065,27.5-36.979,27.5-36.979
		s-25.482-0.121,2.418-0.078c27.899,0.043,47.271-29.944,47.271-29.944l0.493-188.433l-334.324,8.222l8.333,62.12
		c0,0-15,48.666-14.56,94.273c0.44,45.608,51.98,57.504,51.98,57.504c0.432,29.785,18.893,35.476,28.219,36.446
		c-1.697,1.479-2.729,3.748-2.156,7.227c1.851,11.217,9.984,10.536,17.084,9.711c0,0,0.74,0.455,2.097,1.178
		c-1.808,2.921-4.627,5.84-6.847,8.453c-2.067,2.436-4.115,5.074-5.825,7.801c-3.406,5.431-7.175,11.507-8.658,17.813
		c-0.72,3.047-1.479,5.758-2,8.813c-0.585,3.438-1.194,6.833-1.601,10.315c-0.586,5.028-0.739,10.34-0.733,15.401
		c0.013,10.905,1.838,20.955,6.065,31.035c1.179,2.812,2.775,5.524,4.636,7.963c0.202,1.584-0.147,3.704-0.034,5.054
		c0.188,2.235,0.386,4.387,0.667,6.604c0.571,4.514,1.699,9.195,3.231,13.479c2.822,7.89,7.644,15.542,13.769,21.264
		c6.517,6.083,15.506,12.319,24.34,14.091c5.658,1.134,11.379,0.973,17-0.437c2.688-0.673,5-2.112,7.66-2.987"/>
	<path fill="none" stroke="#000000" stroke-miterlimit="10" d="M879.916,214.557c0,0-32.917,3.325-33.495-36.563
		c0,0-51.54-11.896-51.979-57.504C794,74.882,809,26.216,809,26.216l-8.333-62.12L1135-44.118l-0.493,188.433
		c0,0-19.37,29.944-47.271,29.944c-2.418,0-2.418,0.078-2.418,0.078s1.183,34.369-30.84,37.443L879.916,214.557z"/>
	<path fill="#FFFFFF" stroke="#000000" stroke-miterlimit="10" d="M885.479,211.78c0,0-14.845-1.331-12.994,9.885
		c1.85,11.217,9.983,10.537,17.082,9.711c0,0,12.404,7.635,29.252,10.237c16.848,2.603,38.176,8.269,51.604,8.269
		s33.002-6.059,46.682-8.417c13.521-2.332,21.5-6.703,26.031-14.476c0,0,13.422,6.491,15.532-4.974
		c2.11-11.465-3.651-13.483-8.159-13.309c-4.508,0.176-80.086-9.491-80.086-9.491L885.479,211.78z"/>
	<path fill="#FFFFFF" stroke="#000000" stroke-miterlimit="10" d="M984.396,161.786c-8.76,5.763-14.076,17.43-14.18,34.611
		c-0.15,25.455,4.963,41.191,33.939,42.172c28.979,0.979,49.449-5.277,47.812-40.975c-1.334-29.046-11.889-38.707-32.094-42.509
		C1004.965,152.279,993.156,156.023,984.396,161.786z"/>
	<path fill="#FFFFFF" stroke="#000000" stroke-miterlimit="10" d="M969.118,211.676c0,0,13.925,9.492,15.735,19.349
		c0,0-2.547,2.532-7.867,4.694c0,0,0.529,1.513,3.18,1.754c2.65,0.24,3.482,1.676,1.271,3.959
		c-2.213,2.283-13.438,6.781-23.771-1.051"/>
	<path fill="#FFFFFF" stroke="#000000" stroke-miterlimit="10" d="M897.342,161.786c-9.343,5.763-15.014,17.43-15.121,34.611
		c-0.162,25.455,5.291,41.191,36.2,42.172c30.912,0.979,52.747-5.277,51-40.975c-1.422-29.046-12.68-38.707-34.229-42.509
		C919.279,152.279,906.686,156.023,897.342,161.786z"/>
	<path fill="none" stroke="#000000" stroke-miterlimit="10" d="M935.189,155.086c-6.181-1.091-11.854-1.183-17.037-0.562
		c-4.305,4.174-14.653,16.414-14.653,37.607c0,24.071,1.218,37.006,8.021,45.915c2.15,0.263,4.438,0.444,6.901,0.522
		c30.912,0.979,52.747-5.276,51-40.975C967.999,168.548,956.741,158.887,935.189,155.086z"/>
	<path fill="#16A1A8" d="M962.646,216.625c-9.988-8.225-22.293-8.849-37.979-9.822c-7.848-0.486-14.953,0.52-20.836,1.998
		c0.625,12.537,2.299,20.945,6.338,27.306c1.917,0.223,3.939,0.379,6.116,0.448C939.021,237.273,956.589,233.869,962.646,216.625z"
		/>
	<path fill="none" stroke="#000000" stroke-miterlimit="10" d="M932.253,157.062c-5.796-1.022-11.121-1.119-15.996-0.558
		c-4.866,5.443-12.758,17.121-12.758,35.628c0,22.381,1.056,35.133,6.671,43.973c1.917,0.223,3.939,0.379,6.116,0.449
		c29.435,0.932,50.225-5.025,48.562-39.018C963.493,169.879,952.773,160.681,932.253,157.062z"/>
	<path fill="none" stroke="#000000" stroke-miterlimit="10" d="M1019.881,155.086c-6.148-1.157-11.763-1.188-16.859-0.436
		c-4.381,4.296-14.521,16.507-14.521,37.481c0,23.913,1.203,36.834,7.888,45.736c2.381,0.368,4.961,0.605,7.772,0.701
		c28.979,0.979,49.45-5.276,47.813-40.975C1050.641,168.548,1040.086,158.887,1019.881,155.086z"/>
	<path fill="#16A1A8" d="M1045.418,215.225c-10.062-7.438-22.072-7.569-37.346-7.909c-7.201-0.16-13.713,0.932-19.196,2.441
		c0.624,11.34,2.168,19.213,5.646,25.272c0.096,0.128,0.187,0.258,0.278,0.386c2.238,0.346,4.667,0.569,7.313,0.659
		C1023.645,236.803,1040.172,233.272,1045.418,215.225z"/>
	<path fill="none" stroke="#000000" stroke-miterlimit="10" d="M1047.1,197.524c-1.254-27.328-11.186-36.418-30.195-39.994
		c-5.782-1.089-11.063-1.117-15.858-0.41c-0.676,0.662-1.506,1.547-2.403,2.612c-4.647,6.282-10.141,16.965-10.141,32.399
		c0,21.491,0.977,34.102,6.021,42.898c0.095,0.128,0.186,0.258,0.277,0.386c2.238,0.346,4.667,0.569,7.312,0.659
		C1029.38,236.998,1048.641,231.11,1047.1,197.524z"/>
	<path fill="#FFFFFF" stroke="#000000" stroke-linecap="round" stroke-linejoin="round" stroke-miterlimit="10" d="M971.176,244.803
		c0,0,2.115-15.461,25.115-23.127c22.096-7.365,68.682-28.491,84.376-36.896c15.683-8.398,40.333-19.796,40.333-19.796l-2.5,34.333"
		/>
	<path fill="#FFFFFF" stroke="#000000" stroke-linecap="round" stroke-linejoin="round" stroke-miterlimit="10" d="M975.25,244.753
		c0,0,3.783-13.08,17.412-17.364c13.629-4.284,60.464-19.679,66.35-22.345c5.885-2.666,65.488-27.06,65.488-27.06v23.333"/>
	<path fill="#FFFFFF" stroke="#000000" stroke-linecap="round" stroke-linejoin="round" stroke-miterlimit="10" d="M980.016,244.515
		c0,0-2.349-11.09,29.651-19.967c23.446-6.501,119.333-42.229,119.333-42.229l3.263,15.233"/>
	<path fill="#FFFFFF" stroke="#000000" stroke-linecap="round" stroke-linejoin="round" stroke-miterlimit="10" d="M990.99,243.551
		c0,0-1.364-9.825,13.969-14.825S1125.5,191.242,1136.5,184.78v26.537"/>
	<path fill="#FFFFFF" stroke="#000000" stroke-linecap="round" stroke-linejoin="round" stroke-miterlimit="10" d="M970.371,244.678
		c0,0-2.918-16.188-26.29-23.131c-22.452-6.67-70.968-21.067-87.081-29.149c-16.1-8.075-40.432-14.414-40.432-14.414l4.287,26.038"
		/>
	<path fill="#FFFFFF" stroke="#000000" stroke-linecap="round" stroke-linejoin="round" stroke-miterlimit="10" d="M966.461,244.818
		c0,0-4.541-13.594-18.377-17.437c-13.836-3.84-61.295-17.756-67.312-20.273c-6.017-2.517-66.697-25.286-66.697-25.286l1.217,24.589
		"/>
	<path fill="#FFFFFF" stroke="#000000" stroke-linecap="round" stroke-linejoin="round" stroke-miterlimit="10" d="M960.001,244.515
		c0,0-4.996-14.038-29.13-19.279c-23.873-5.186-121.389-38.608-121.389-38.608l-2.465,16.215"/>
	<path fill="#FFFFFF" stroke="#000000" stroke-linecap="round" stroke-linejoin="round" stroke-miterlimit="10" d="M953.334,245.748
		c0,0-1.725-11.842-17.301-16.354c-15.574-4.512-122.268-33.551-133.59-39.816l1.383,27.965"/>
	<path fill="#FFFFFF" stroke="#000000" stroke-miterlimit="10" d="M1127.5,199.765c0,0-36.938,14.279-64.385,20.91
		c-27.448,6.632-61.698,11.752-61.781,15.355s6.667,3.143,7,4.887c0.333,1.743-67.062,7.812-66.335,3.032
		c0.728-4.778,4.618-1.071,5.478-3.798c0.858-2.727-39.81-18.777-78.143-27.154c-38.334-8.376-70.667-15.704-75-18.846
		c0,0,20.332,87.595,22.666,103.299s12.667,84.454,12.667,84.454s44.099,7.678,56.55,11.865
		c12.449,4.188,50.801,18.557,54.292,21.667c0,0-0.342,3.809,0.825,5.03c1.166,1.223,18.166-1.225,31.666-1.57
		c13.5-0.35,27.668,0.873,28.834-0.35c1.166-1.224,0.833-3.11,0.833-3.11s40.333-18.525,59-25.854
		c18.667-7.328,55.833-19.367,55.833-19.367s16.5-121.619,19.167-131.042c2.667-9.422,6.666-46.766,6.666-46.766L1127.5,199.765z"/>
	<path fill="#FFFFFF" stroke="#000000" stroke-linecap="round" stroke-linejoin="round" stroke-miterlimit="10" d="M941.667,240.803
		c0,0-2.737,2.205-2.035,4.692c0.702,2.487,2.368,77.487,2.035,109.154s-1.054,57-1.054,57"/>
	<path fill="#FFFFFF" stroke="#000000" stroke-linecap="round" stroke-linejoin="round" stroke-miterlimit="10" d="M1009,237.651
		c0,0,2.281,2.282,2.141,4.975c-0.14,2.693-5.141,73.026-6.141,96.692s-2.333,76.119-2.333,76.119"/>
	<path fill="none" stroke="#000000" stroke-miterlimit="10" d="M899,143.317c0-9,7.359-15.329,17-12"/>
	<path fill="none" stroke="#000000" stroke-miterlimit="10" d="M1005,144.317c5.354-0.018,10.553-1.162,16-1"/>
	<path fill="#FFFFFF" stroke="#000000" stroke-miterlimit="10" d="M880.438,392.117c0,0-16.438-29.8-27.438-27.8
		s21.5,59.5,21.5,59.5l41.5-19.089L880.438,392.117z"/>
	<g>
		<g>
			<path fill="none" stroke="#73C7CB" stroke-linecap="round" stroke-linejoin="round" stroke-miterlimit="10" d="M1080.665,247.37
				c3.597-1.997,6.731-3.646,10.597-5.203"/>
			<g>
				<path fill="none" stroke="#73C7CB" stroke-linecap="round" stroke-linejoin="round" stroke-miterlimit="10" d="
					M1029.988,257.755c-0.979,18.623-3.701,42.354-4.598,59.406"/>
				<path fill="none" stroke="#73C7CB" stroke-linecap="round" stroke-linejoin="round" stroke-miterlimit="10" d="
					M1029.988,257.755c10.89-7.244,15.226,1.388,10.798,8.443c-2.761,4.401-6.3,10.508-11.123,12.881
					c8.703,1.514,8.89,12.41,9.093,19.131c0.174,5.648,0.781,23.022,7.098,8.355"/>
				<path fill="none" stroke="#73C7CB" stroke-linecap="round" stroke-linejoin="round" stroke-miterlimit="10" d="
					M1055.277,253.585c4.649-1.043,8.729-4.429,13.541-5.133"/>
				<path fill="none" stroke="#73C7CB" stroke-linecap="round" stroke-linejoin="round" stroke-miterlimit="10" d="
					M1061.741,251.011c1.143,11.172-1.319,23.482-0.714,33.379c0.33,5.375-0.157,16.054-0.437,21.335"/>
				<path fill="none" stroke="#73C7CB" stroke-linecap="round" stroke-linejoin="round" stroke-miterlimit="10" d="M1080.672,247.37
					c1.836,5.024-0.508,11.176-0.861,16.371c-0.412,6.042-0.929,11.893-1.674,17.842c-0.891,7.129-0.764,14.476-1.14,21.635"/>
				<path fill="none" stroke="#73C7CB" stroke-linecap="round" stroke-linejoin="round" stroke-miterlimit="10" d="M1078.646,271.88
					c3-1.07,6.068-2.84,8.35-4.576"/>
				<path fill="none" stroke="#73C7CB" stroke-linecap="round" stroke-linejoin="round" stroke-miterlimit="10" d="M1096.902,296.19
					c0.727-7.061,0.215-11.053,0.502-16.5c0.344-6.544,0.688-13.089,1.031-19.634c0.323-6.134,0.852-15.712,2.217-21.076
					c3.129,7.067,6.343,15.696,8.932,22.896c2.538-9.658,5.414-19.683,8.477-27.936c2.935,9.708-0.377,24.645-0.909,34.803
					c-0.428,8.09-0.521,12.146-1.528,20.818"/>
			</g>
		</g>
		<path fill="none" stroke="#73C7CB" stroke-linecap="round" stroke-linejoin="round" stroke-miterlimit="10" d="M1038.844,326.747
			c-4.506-1.428-12.38,2.694-16.861,4.426c2.459,9.906-0.358,21.373-1.014,31.478c-0.469,7.264-2.156,14.626-2.119,21.891
			c3.582,0.334,7.412-3.296,10.762-4.474c2.084-0.732,4.031-1.509,6.188-1.89"/>
		<path fill="none" stroke="#73C7CB" stroke-linecap="round" stroke-linejoin="round" stroke-miterlimit="10" d="M1021.461,353.276
			c2.975,0.075,5.568-2.598,8.334-3.212"/>
		<path fill="none" stroke="#73C7CB" stroke-linecap="round" stroke-linejoin="round" stroke-miterlimit="10" d="M1116.289,304.533
			c-4.316-1.354-11.85,2.545-16.139,4.185c2.36,9.375-0.33,20.225-0.951,29.787c-0.446,6.877-2.055,13.842-2.016,20.719
			c3.428,0.316,7.092-3.117,10.297-4.232c1.994-0.691,3.858-1.426,5.92-1.787"/>
		<path fill="none" stroke="#73C7CB" stroke-linecap="round" stroke-linejoin="round" stroke-miterlimit="10" d="M1099.755,327.956
			c2.845,0.072,5.336-2.602,7.981-3.219"/>
		<path fill="none" stroke="#73C7CB" stroke-linecap="round" stroke-linejoin="round" stroke-miterlimit="10" d="M1049.961,323.308
			c-1.107,5.234-1.432,9.797-1.62,14.951c-0.184,5.048-0.282,12.334-0.356,17.4c-0.088,5.68-0.619,15.376-2.903,20.736
			c6.528-1.938,14.054-5.124,16.063-7.052"/>
		<path fill="none" stroke="#73C7CB" stroke-linecap="round" stroke-linejoin="round" stroke-miterlimit="10" d="M1071.066,316.653
			c-0.039-0.602-0.446,6.434-0.232,6.77c2.218,11.203-0.895,18.457-0.491,29.965c0.214,6.029,0.521,7.992,0.202,14.048"/>
		<path fill="none" stroke="#73C7CB" stroke-linecap="round" stroke-linejoin="round" stroke-miterlimit="10" d="M1091.684,315.702
			c0.362,0.252,0.721,0.309,1.077,0.164c-3.665-5.132-8.888-5.746-9.405,1.596c-0.535,7.561,4.006,15.594,5.338,22.989
			c1.035,5.728,1.806,11.368,1.5,17.185c-0.053,0.986,0.277,3.928-0.652,4.719c-2.184,1.853-6.891-2.898-7.555-4.807"/>
	</g>
	<path fill="#FFFFFF" stroke="#000000" stroke-miterlimit="10" d="M1034.426,401.147l37.615,16.17c0,0,24.881-50.611,16.73-56.617
		c-8.15-6.005-26.776,28.312-26.776,28.312L1034.426,401.147z"/>
</g>
<g id="home-tablette">
</g>
<g id="home-desktop">
</g>
<g>
	<path d="M515.229-38.875c0.088,1.971,0.132,5.126,0.176,9.419c0,4.294,0.044,7.58,0.176,9.859c0.219,3.724,0.48,5.608,2.016,5.915
		c1.096,0.219,1.709-0.175,2.104-1.226c0.307-0.746,0.48-1.929,0.568-3.637c0.482-8.851,0.482-15.466,0.045-19.848
		c-0.045-0.481,0.307-0.92,0.789-0.964c0.481-0.043,0.92,0.307,0.963,0.789c0.482,4.601,0.439,11.304-0.043,20.111
		c-0.131,1.884-0.352,3.287-0.701,4.163c-0.657,1.752-2.016,2.76-4.075,2.366c-2.979-0.657-3.198-3.593-3.417-7.58
		c-0.131-2.278-0.175-5.564-0.175-9.902c-0.044-4.294-0.088-7.405-0.177-9.376c0-0.482,0.352-0.92,0.834-0.92
		C514.79-39.708,515.229-39.357,515.229-38.875z"/>
	<path d="M534.066-19.86c0-1.095-0.043-3.067-0.131-5.915c-0.176-5.652-0.133-9.551,0.394-13.407
		c0.044-0.482,0.481-0.789,1.009-0.746c0.481,0.044,0.788,0.482,0.744,1.008c-0.525,3.725-0.57,7.493-0.395,13.057
		c0.088,2.76,0.132,4.776,0.132,6.002v3.461c-0.043,0.789-0.043,1.402-0.089,1.884c-0.043,0.263-0.086,0.438-0.131,0.613
		c-0.086,0.394-0.219,0.657-0.612,0.832c-0.351,0.176-0.745,0.044-1.009-0.131c-0.043-0.044-0.086-0.131-0.131-0.176
		c-0.043-0.043-0.131-0.175-0.176-0.35c-0.043-0.132-0.087-0.308-0.175-0.526l-0.524-1.577l-1.097-3.505
		c-0.657-1.885-1.313-4.338-2.016-7.361c-0.351-1.534-0.657-2.848-0.921-3.899c-0.174-0.745-0.832-2.498-0.832-2.498
		c-0.045,1.271-0.088,2.234-0.088,2.892c0,1.183-0.043,3.067-0.131,5.652c-0.131,2.628-0.176,4.6-0.176,5.871
		c0,1.315,0.088,3.112,0.307,5.39c0.043,0.526-0.262,0.964-0.745,1.008c-0.525,0.044-0.964-0.263-1.007-0.745
		c-0.219-1.489-0.308-3.242-0.308-5.257c0-2.016,0.044-4.25,0.175-6.704c0.088-2.41,0.133-4.162,0.133-5.214
		c0-0.657,0.043-1.665,0.131-3.023c0.043-1.271,0.087-2.234,0.087-2.892v-2.015c0-0.044,0-0.044,0-0.087
		c0,0-0.044-0.132-0.087-0.307c-0.045-0.482-0.045-0.92,0.48-1.227c0.219-0.132,0.482-0.132,0.745-0.044
		c0.481,0.131,0.745,0.482,0.876,1.051c0.045,0.088,0.045,0.219,0.045,0.351c0,0.044,0.043,0.044,0.043,0.087
		c0,0.044,0.043,0.219,0.174,0.57c0.088,0.307,0.264,0.745,0.438,1.314c0.308,0.789,0.481,1.446,0.612,1.928
		c0.132,0.526,2.498,10.954,3.725,14.634l-0.395-1.271c0.264,0.832,0.92,2.191,0.92,1.972v-0.7H534.066z"/>
	<path d="M543.047-38.875c-0.482,0-0.744,0-0.744,0.043c-0.088,0.175-0.131,0.438-0.176,0.789c-0.131,1.358-0.043,3.067,0.176,5.389
		c0.088,1.096,0.131,1.796,0.131,2.016c0,0.263,0,0.745,0,1.49c-0.043,0.613,0.263,0.919,0.832,0.919c0.438,0,0.789,0,1.14-0.044
		c0.481,0,0.92,0.351,0.92,0.833c0,0.481-0.351,0.92-0.833,0.92c-0.352,0.044-0.833,0.044-1.314,0.044
		c-0.569,0-0.875,0.307-0.92,0.876c-0.131,4.03-0.219,7.404-0.043,9.814c0.043,0.745,0.088,1.314,0.219,1.708
		c0,0.043,0.043,0.132,0.043,0.175c0,0.087,0.22,0.219,0.701,0.307c0.92,0.131,2.016,0,3.287-0.088
		c0.657-0.043,1.139-0.087,1.445-0.087c0.48,0,0.876,0.394,0.876,0.876c0,0.481-0.396,0.876-0.876,0.876
		c-0.264,0-0.701,0.043-1.314,0.087c-0.789,0.043-1.357,0.087-1.666,0.087c-1.444,0.087-2.541-0.044-3.285-0.394
		c-0.57-0.219-0.789-0.789-0.92-1.446c-0.131-0.481-0.219-1.139-0.264-1.972c-0.175-2.672-0.087-6.484,0.045-9.376
		c0.043-1.445,0.086-2.628,0.131-3.636c0.043-0.964,0.043-1.621,0.043-1.972c0-0.175-0.043-0.789-0.131-1.84
		c-0.219-2.41-0.307-4.337-0.175-5.739c0.132-0.92,0.308-1.797,0.964-2.191c0.176-0.132,0.438-0.175,0.789-0.219h2.848
		c2.104,0.087,3.242,0.131,3.418,0.087c0.525-0.043,0.92,0.307,0.963,0.789c0.045,0.263-0.043,0.481-0.174,0.657
		c-0.176,0.175-0.395,0.263-0.613,0.307c-0.219,0.043-1.446,0-3.637-0.087h-1.84h-0.045V-38.875z"/>
	<path d="M572.047-26.607c-0.568,0-0.875,0.306-0.832,0.876c0.043,0.92,0.043,2.016,0.088,3.33c0.131,3.636,0.219,6.528,0.219,9.157
		c0,0.482-0.395,0.876-0.877,0.876c-0.481,0-0.875-0.394-0.875-0.876c0-1.884-0.043-4.513-0.176-7.975
		c-0.219-6.878-0.307-7.054-0.131-11.961c0.088-2.366,0.088-4.119,0.045-5.258c0-0.526,0.351-0.92,0.875-0.92
		c0.481,0,0.877,0.351,0.877,0.833c0.043,1.271,0.043,3.067-0.045,5.389c-0.043,1.665-0.086,2.979-0.086,3.899
		c0,0.57,0.307,0.876,0.875,0.876h4.119c0.569,0,0.876-0.307,0.92-0.876c0-1.358,0.045-2.322,0.045-3.023
		c0-0.394,0-0.919,0.043-1.577c0.043-0.658,0.043-1.228,0.043-1.622c0-0.789-0.086-1.972-0.395-2.716
		c-0.176-0.482,0.131-0.964,0.57-1.139c0.438-0.175,0.92,0.132,1.095,0.526c0.351,1.008,0.481,2.453,0.481,3.33
		c0,0.482,0,1.052-0.043,1.753c-0.045,0.701-0.045,1.183-0.045,1.445c0,0.833-0.043,2.41-0.088,4.645
		c-0.087,2.235-0.131,3.944-0.175,5.039c-0.044,4.294,0.131,7.273,0.524,8.982c0.133,0.482-0.131,0.92-0.612,1.052
		c-0.481,0.131-0.92-0.131-1.052-0.614c-0.481-1.84-0.657-4.995-0.613-9.464c0.044-0.833,0.087-1.884,0.087-3.067
		c0.044-0.613-0.263-0.919-0.832-0.919L572.047-26.607L572.047-26.607z"/>
	<path d="M585.934-39.094c0.133,3.549,0.088,8.456-0.176,14.678c-0.043,1.446-0.043,3.33,0.088,5.739
		c0.131,3.023,0.221,4.995,0.221,5.916c0,0.481-0.396,0.875-0.877,0.875c-0.481,0-0.875-0.394-0.875-0.875
		c0-0.833-0.088-2.761-0.219-5.828c-0.131-2.454-0.131-4.425-0.088-5.916c0.219-6.353,0.307-11.172,0.174-14.502
		c0-0.482,0.352-0.92,0.834-0.92C585.495-39.927,585.934-39.577,585.934-39.094z"/>
	<path d="M598.111-33.267c0.746-3.33-0.568-4.907-2.496-4.907c-2.059-0.043-4.074,1.578-4.426,4.206
		c-0.35,2.498,0.789,3.987,3.725,6.66c1.621,1.534,2.061,1.928,3.375,3.505c1.312,1.577,1.928,3.243,2.146,5.214
		c0.48,4.337-1.928,7.054-5.084,6.747c-3.109-0.307-5.564-3.33-5.564-8.018c0-0.482,0.396-0.876,0.877-0.876
		c0.482,0,0.877,0.394,0.877,0.876c0,3.899,1.928,6.09,3.986,6.266c1.928,0.175,3.506-1.49,3.154-4.819
		c-0.174-1.622-0.701-2.979-1.797-4.338c-1.096-1.358-1.576-1.84-3.154-3.286c-1.576-1.402-2.104-1.928-3.111-3.374
		c-1.051-1.446-1.4-3.023-1.182-4.82c0.48-3.461,3.33-5.74,6.178-5.696c3.154,0.044,5.17,2.761,4.25,7.01
		c-0.131,0.482-0.568,0.746-1.053,0.657C598.33-32.347,598.068-32.785,598.111-33.267z"/>
	<path d="M614.715-38.744c0,0.482-0.352,0.92-0.832,0.92c-0.832,0.044-2.061,0.044-3.637,0c-0.613-0.044-0.877,0.307-0.832,0.876
		c0.086,0.964,0.131,1.972,0.086,3.286c-0.043,0.92-0.043,1.49-0.043,1.753c0,1.183-0.043,3.023-0.133,5.608
		c-0.219,5.127-0.219,9.026,0.266,12.181c0.043,0.482-0.266,0.964-0.746,1.008c-0.48,0.043-0.963-0.263-1.008-0.745
		c-0.482-3.287-0.482-7.317-0.264-12.575c0.088-2.585,0.133-4.425,0.133-5.477c0-0.395,0-1.008,0.043-1.928
		c0-0.789,0.043-1.358,0.043-1.885c0,1.184-0.262-0.875-0.262-1.313c0-0.57-0.307-0.876-0.877-0.876c-0.875,0-1.666,0-2.322,0.087
		c-0.523,0.044-0.92-0.307-0.963-0.833c-0.045-0.482,0.307-0.876,0.787-0.92c1.186-0.087,2.805-0.087,4.908-0.043
		c2.234,0.087,3.811,0.087,4.732,0.043C614.277-39.577,614.715-39.226,614.715-38.744z"/>
	<path d="M627.816-31.295c0.305,7.711,0.086,11.786-0.746,14.634c-0.482,1.971-1.271,3.242-2.277,3.9
		c-1.402,0.875-2.719,0.569-3.725-0.614c-0.701-0.832-1.314-2.19-1.842-4.03c-1.096-3.987-2.979-14.459-0.043-20.243
		c0.658-1.271,2.059-2.497,3.461-2.804c2.279-0.481,3.768,0.964,4.514,3.067C627.639-36.028,627.857-34.319,627.816-31.295z
		 M626.062-33.398c-0.043-1.358-0.264-2.498-0.57-3.417c-0.523-1.446-1.27-2.191-2.496-1.884c-0.834,0.131-1.842,1.008-2.234,1.84
		c-2.629,5.083-0.92,15.16,0.133,18.972c0.479,1.621,0.963,2.717,1.488,3.374c0.523,0.525,0.877,0.613,1.445,0.263
		c1.271-0.833,2.059-3.812,2.277-8.149C626.238-24.548,626.105-33.004,626.062-33.398z"/>
	<path d="M634.691-39.094c0.131,3.549,0.088,8.456-0.176,14.678c-0.043,1.446-0.043,3.33,0.088,5.739
		c0.133,3.023,0.219,4.995,0.219,5.916c0,0.481-0.395,0.875-0.877,0.875c-0.48,0-0.875-0.394-0.875-0.875
		c0-0.833-0.088-2.761-0.219-5.828c-0.131-2.454-0.131-4.425-0.088-5.916c0.219-6.353,0.307-11.172,0.176-14.502
		c0-0.482,0.35-0.92,0.832-0.92S634.691-39.577,634.691-39.094z"/>
	<path d="M639.422-20.429c0.045-1.095,0.088-1.797,0.088-2.147c0.262-6.178,0.219-11.567-0.176-16.08
		c-0.043-0.088-0.088-0.175-0.131-0.307c-0.133-0.482,0.131-0.92,0.611-1.052c3.506-0.876,6.311,0.044,7.889,2.278
		c1.576,2.06,1.445,5.258-0.525,7.755c-1.008,1.271-2.191,2.278-3.551,3.023c-0.48,0.263-0.613,0.657-0.35,1.183
		c0.568,1.051,1.227,2.41,1.928,4.031c0.219,0.394,0.701,1.665,1.533,3.812c0.568,1.533,1.096,2.716,1.578,3.592
		c0.305,0.482,0.131,0.92-0.309,1.183c-0.438,0.263-0.963,0.087-1.182-0.307c-0.57-0.964-1.141-2.234-1.754-3.812
		c-1.139-3.067-1.885-4.863-2.717-6.484c-0.395-0.789-1.051-2.279-1.051,0.262c0,0.351-0.045,0.702-0.045,1.008
		c-0.043,0.394-0.043,1.095-0.086,2.146c-0.045,1.052-0.09,1.84-0.135,2.366c-0.041,1.051-0.041,2.892,0.09,4.25
		c0.045,0.481-0.309,0.919-0.789,0.964c-0.48,0.043-0.92-0.308-0.965-0.789c-0.131-1.402-0.131-3.417-0.086-4.513L639.422-20.429z
		 M641.568-28.097l-0.043-0.044c0.438,0,0.701-0.043,1.096-0.262c2.541-1.271,4.293-3.725,4.426-5.74
		c0.043-1.052-0.176-1.928-0.744-2.585c-0.877-1.227-2.41-1.972-4.338-1.884c-0.57,0-0.832,0.395-0.832,0.92
		c0.174,2.454,0.262,5.302,0.262,8.632C641.395-28.447,641.48-28.097,641.568-28.097z"/>
	<path d="M655.719-38.875c-0.482,0-0.744,0-0.744,0.043c-0.088,0.175-0.131,0.438-0.176,0.789c-0.131,1.358-0.043,3.067,0.176,5.389
		c0.088,1.096,0.131,1.796,0.131,2.016c0,0.263,0,0.745,0,1.49c-0.043,0.613,0.264,0.919,0.834,0.919c0.438,0,0.787,0,1.139-0.044
		c0.48,0,0.92,0.351,0.92,0.833c0,0.481-0.352,0.92-0.834,0.92c-0.35,0.044-0.832,0.044-1.312,0.044
		c-0.568,0-0.877,0.307-0.92,0.876c-0.131,4.03-0.219,7.404-0.043,9.814c0.043,0.745,0.086,1.314,0.219,1.708
		c0,0.043,0.043,0.132,0.043,0.175c0,0.087,0.221,0.219,0.701,0.307c0.92,0.131,2.016,0,3.287-0.088
		c0.656-0.043,1.139-0.087,1.443-0.087c0.482,0,0.877,0.394,0.877,0.876c0,0.481-0.395,0.876-0.877,0.876
		c-0.262,0-0.699,0.043-1.312,0.087c-0.789,0.043-1.357,0.087-1.666,0.087c-1.445,0.087-2.541-0.044-3.285-0.394
		c-0.57-0.219-0.789-0.789-0.92-1.446c-0.133-0.481-0.219-1.139-0.264-1.972c-0.176-2.672-0.088-6.484,0.045-9.376
		c0.043-1.445,0.086-2.628,0.131-3.636c0.045-0.964,0.045-1.621,0.045-1.972c0-0.175-0.045-0.789-0.133-1.84
		c-0.219-2.41-0.307-4.337-0.176-5.739c0.133-0.92,0.309-1.797,0.965-2.191c0.176-0.132,0.438-0.175,0.789-0.219h2.848
		c2.104,0.087,3.242,0.131,3.418,0.087c0.525-0.043,0.92,0.307,0.963,0.789c0.045,0.263-0.043,0.481-0.174,0.657
		c-0.176,0.175-0.396,0.263-0.615,0.307c-0.219,0.043-1.443,0-3.637-0.087h-1.84h-0.045V-38.875z"/>
	<path d="M516.12,24.016c0.048-1.195,0.097-1.96,0.097-2.342c0.285-6.738,0.237-12.615-0.191-17.537
		c-0.049-0.096-0.096-0.191-0.143-0.334c-0.145-0.525,0.143-1.003,0.668-1.146c3.822-0.956,6.881,0.047,8.602,2.484
		c1.72,2.246,1.576,5.734-0.573,8.458c-1.101,1.386-2.39,2.485-3.871,3.297c-0.526,0.287-0.669,0.717-0.382,1.29
		c0.621,1.146,1.338,2.628,2.102,4.396c0.239,0.43,0.766,1.816,1.672,4.158c0.623,1.672,1.195,2.962,1.722,3.918
		c0.334,0.525,0.144,1.003-0.334,1.29c-0.478,0.288-1.052,0.096-1.29-0.334c-0.622-1.052-1.243-2.437-1.912-4.157
		c-1.243-3.345-2.055-5.304-2.962-7.073c-0.431-0.86-1.147-2.484-1.147,0.288c0,0.381-0.047,0.764-0.047,1.099
		c-0.048,0.43-0.048,1.194-0.096,2.341s-0.096,2.007-0.143,2.581c-0.049,1.146-0.049,3.154,0.095,4.635
		c0.048,0.525-0.334,1.003-0.86,1.051c-0.525,0.047-1.003-0.334-1.051-0.86c-0.143-1.529-0.143-3.727-0.096-4.922L516.12,24.016z
		 M518.463,15.653l-0.049-0.048c0.479,0,0.764-0.047,1.195-0.287c2.771-1.386,4.683-4.062,4.826-6.26
		c0.048-1.146-0.19-2.104-0.812-2.819c-0.956-1.339-2.628-2.151-4.73-2.055c-0.621,0-0.907,0.43-0.907,1.004
		c0.19,2.676,0.286,5.782,0.286,9.413C518.271,15.271,518.366,15.653,518.463,15.653z"/>
	<path d="M535.236,3.898c-0.526,0-0.812,0-0.812,0.048c-0.095,0.191-0.143,0.478-0.19,0.86c-0.144,1.481-0.048,3.345,0.19,5.877
		c0.096,1.195,0.145,1.959,0.145,2.198c0,0.287,0,0.812,0,1.625c-0.049,0.669,0.287,1.003,0.908,1.003c0.478,0,0.859,0,1.242-0.048
		c0.525,0,1.004,0.382,1.004,0.908c0,0.526-0.383,1.003-0.908,1.003c-0.383,0.048-0.908,0.048-1.434,0.048
		c-0.621,0-0.957,0.334-1.004,0.955c-0.143,4.396-0.238,8.076-0.047,10.704c0.047,0.812,0.096,1.434,0.239,1.864
		c0,0.048,0.048,0.143,0.048,0.191c0,0.095,0.238,0.239,0.764,0.334c1.004,0.144,2.198,0,3.584-0.095
		c0.717-0.048,1.243-0.096,1.577-0.096c0.526,0,0.956,0.431,0.956,0.957c0,0.525-0.43,0.955-0.956,0.955
		c-0.286,0-0.765,0.048-1.434,0.096c-0.86,0.048-1.481,0.096-1.816,0.096c-1.577,0.095-2.771-0.048-3.584-0.43
		c-0.62-0.239-0.86-0.86-1.003-1.577c-0.143-0.526-0.238-1.243-0.287-2.151c-0.191-2.915-0.096-7.072,0.047-10.226
		c0.049-1.576,0.096-2.867,0.145-3.966c0.047-1.051,0.047-1.768,0.047-2.15c0-0.191-0.047-0.86-0.143-2.007
		c-0.24-2.627-0.334-4.73-0.191-6.259c0.143-1.003,0.334-1.959,1.051-2.39c0.191-0.143,0.479-0.191,0.86-0.238h3.106
		c2.293,0.095,3.535,0.143,3.728,0.095c0.573-0.048,1.003,0.334,1.051,0.86c0.047,0.286-0.048,0.525-0.19,0.717
		c-0.191,0.191-0.431,0.287-0.67,0.334c-0.238,0.047-1.576,0-3.966-0.096h-2.007L535.236,3.898L535.236,3.898z"/>
	<path d="M556.598,10.015c0.812-3.631-0.623-5.353-2.725-5.353c-2.246-0.048-4.443,1.72-4.826,4.587
		c-0.383,2.724,0.86,4.348,4.062,7.263c1.768,1.672,2.246,2.103,3.679,3.823c1.435,1.72,2.103,3.536,2.343,5.687
		c0.525,4.73-2.104,7.693-5.543,7.359c-3.394-0.334-6.068-3.632-6.068-8.745c0-0.525,0.43-0.956,0.955-0.956s0.957,0.43,0.957,0.956
		c0,4.253,2.102,6.642,4.348,6.833c2.104,0.191,3.822-1.625,3.439-5.256c-0.19-1.768-0.765-3.25-1.959-4.73
		c-1.193-1.481-1.72-2.007-3.439-3.584c-1.721-1.529-2.294-2.103-3.393-3.679c-1.147-1.577-1.529-3.297-1.291-5.256
		c0.524-3.775,3.631-6.26,6.737-6.212c3.44,0.048,5.638,3.01,4.636,7.646c-0.144,0.526-0.621,0.812-1.146,0.717
		C556.836,11.018,556.549,10.541,556.598,10.015z"/>
	<path d="M567.256,17.756c-0.097,0.095-0.191,0.143-0.334,0.143c-0.191,0.048-0.334,0.287-0.287,0.86
		c0.047,0.908,0.143,2.007,0.237,3.296c0.239,3.632,0.431,6.499,0.431,9.127c0,0.526-0.431,0.956-0.955,0.956
		c-0.526,0-0.957-0.43-0.957-0.956c0-1.863-0.094-4.54-0.334-7.933c-0.238-3.393-0.381-5.591-0.43-6.642
		c-0.048-0.717,0-1.72,0.047-3.011c0.191-3.631,0.383-6.212-0.19-8.314c-0.144-0.43-0.431-0.669-0.525-1.099
		c-0.048-0.239-0.048-0.479,0.095-0.717c0.144-0.239,0.334-0.382,0.574-0.43c2.342-0.621,4.778,0.096,6.309,1.72
		c1.529,1.625,2.58,3.727,2.389,6.069c-0.096,1.194-0.479,2.245-1.193,3.249c-0.574,0.908-1.722,1.816-2.246,2.151
		c-0.24,0.191-0.766,0.478-1.481,0.907L567.256,17.756z M568.784,14.65c0.622-0.382,0.908-0.621,1.291-1.051
		c0.19-0.191,0.382-0.382,0.526-0.573c0.524-0.812,0.812-1.72,0.812-2.724c0-1.959-0.956-3.584-2.532-4.73
		c-0.478-0.287-0.955-0.526-1.434-0.67c-0.669-0.19-1.003,0.288-0.908,1.004c0.432,2.15,0.191,4.396,0.049,7.789
		c0,0.43-0.049,0.812-0.049,1.147c0,0.669,0.145,1.051,0.383,0.908c0.096-0.048,0.239-0.144,0.383-0.239
		c0.381-0.191,0.668-0.334,0.812-0.43L568.784,14.65z"/>
	<path d="M588.949,12.166c0.336,8.41,0.098,12.854-0.811,15.96c-0.526,2.15-1.387,3.536-2.484,4.253
		c-1.529,0.956-2.963,0.621-4.062-0.669c-0.764-0.908-1.433-2.389-2.007-4.396c-1.194-4.349-3.25-15.77-0.048-22.078
		c0.717-1.385,2.246-2.723,3.775-3.058c2.484-0.525,4.109,1.051,4.922,3.345C588.76,7.005,588.998,8.868,588.949,12.166z
		 M587.039,9.872c-0.048-1.481-0.287-2.724-0.621-3.728c-0.572-1.577-1.386-2.389-2.724-2.055c-0.908,0.143-2.007,1.1-2.437,2.007
		c-2.867,5.543-1.004,16.534,0.143,20.691c0.525,1.768,1.051,2.962,1.625,3.679c0.572,0.574,0.955,0.669,1.576,0.287
		c1.387-0.908,2.248-4.157,2.486-8.888C587.23,19.524,587.088,10.302,587.039,9.872z"/>
	<path d="M603.096,24.637c0-1.194-0.047-3.345-0.145-6.451c-0.189-6.164-0.143-10.417,0.432-14.623
		c0.049-0.525,0.525-0.86,1.098-0.812c0.527,0.048,0.861,0.526,0.814,1.1c-0.574,4.062-0.621,8.171-0.432,14.24
		c0.096,3.01,0.145,5.208,0.145,6.546v3.775c-0.049,0.86-0.049,1.529-0.098,2.055c-0.047,0.287-0.096,0.478-0.143,0.669
		c-0.096,0.43-0.24,0.717-0.668,0.908c-0.383,0.191-0.812,0.047-1.102-0.143c-0.047-0.048-0.096-0.144-0.143-0.191
		c-0.049-0.048-0.143-0.191-0.191-0.382c-0.047-0.144-0.096-0.334-0.191-0.574l-0.572-1.72l-1.193-3.823
		c-0.717-2.055-1.434-4.73-2.199-8.028c-0.383-1.672-0.717-3.106-1.002-4.253c-0.191-0.812-0.908-2.724-0.908-2.724
		c-0.049,1.386-0.098,2.438-0.098,3.154c0,1.29-0.047,3.345-0.143,6.164c-0.143,2.867-0.191,5.018-0.191,6.403
		c0,1.434,0.098,3.393,0.334,5.877c0.049,0.574-0.285,1.051-0.811,1.1c-0.574,0.047-1.053-0.288-1.098-0.813
		c-0.24-1.625-0.336-3.536-0.336-5.734c0-2.198,0.047-4.636,0.189-7.312c0.096-2.627,0.146-4.539,0.146-5.686
		c0-0.717,0.045-1.816,0.143-3.297c0.047-1.386,0.096-2.437,0.096-3.153V4.711c0-0.048,0-0.048,0-0.096c0,0-0.049-0.144-0.096-0.334
		c-0.049-0.526-0.049-1.003,0.525-1.338c0.238-0.144,0.523-0.144,0.812-0.048c0.525,0.144,0.812,0.526,0.955,1.147
		c0.047,0.096,0.047,0.239,0.047,0.382c0,0.048,0.049,0.048,0.049,0.096c0,0.047,0.049,0.238,0.191,0.621
		c0.096,0.334,0.287,0.812,0.477,1.434c0.336,0.86,0.527,1.576,0.67,2.102c0.145,0.574,2.725,11.946,4.062,15.96l-0.43-1.386
		c0.287,0.908,1.004,2.389,1.004,2.151v-0.765H603.096z"/>
	<path d="M619.775,10.015c0.812-3.631-0.621-5.353-2.725-5.353c-2.244-0.048-4.443,1.72-4.824,4.587
		c-0.383,2.724,0.857,4.348,4.061,7.263c1.77,1.672,2.246,2.103,3.682,3.823c1.432,1.72,2.102,3.536,2.34,5.687
		c0.525,4.73-2.104,7.693-5.543,7.359c-3.395-0.334-6.068-3.632-6.068-8.745c0-0.525,0.432-0.956,0.955-0.956
		c0.527,0,0.955,0.43,0.955,0.956c0,4.253,2.105,6.642,4.35,6.833c2.104,0.191,3.822-1.625,3.439-5.256
		c-0.189-1.768-0.764-3.25-1.959-4.73c-1.193-1.481-1.719-2.007-3.439-3.584c-1.721-1.529-2.293-2.103-3.393-3.679
		c-1.146-1.577-1.529-3.297-1.291-5.256c0.527-3.775,3.631-6.26,6.738-6.212c3.439,0.048,5.639,3.01,4.635,7.646
		c-0.145,0.526-0.621,0.812-1.146,0.717C620.016,11.018,619.727,10.541,619.775,10.015z"/>
	<path d="M631.104,3.66c0.143,3.87,0.096,9.222-0.191,16.008c-0.047,1.577-0.047,3.631,0.096,6.26
		c0.145,3.297,0.238,5.448,0.238,6.451c0,0.526-0.43,0.956-0.955,0.956s-0.957-0.43-0.957-0.956c0-0.908-0.094-3.011-0.236-6.355
		c-0.145-2.676-0.145-4.826-0.098-6.451c0.24-6.929,0.334-12.185,0.191-15.817c0-0.526,0.383-1.003,0.908-1.003
		C630.625,2.752,631.104,3.134,631.104,3.66z"/>
	<path d="M642.381,24.542c0.096-0.669,0.238-1.959,0.479-3.918c0.383-3.87,0.572-5.065,1.051-8.267s1.053-5.782,1.814-8.267
		c0.145-0.526,0.67-0.812,1.195-0.669c0.525,0.191,0.812,0.717,0.621,1.243c-0.717,2.437-1.242,4.922-1.721,7.98
		c-0.479,3.106-0.668,4.301-1.1,8.171s-0.812,7.263-0.955,8.075c-0.145,0.812-0.238,1.482-0.383,1.959
		c-0.143,0.621-0.334,0.908-0.525,1.146c-0.285,0.239-0.621,0.334-0.955,0.287c-0.24-0.047-0.525-0.287-0.574-0.335l-0.143-0.286
		c-0.047-0.048-0.047-0.144-0.096-0.239c-0.049-0.144-0.098-0.334-0.191-0.573c-0.143-0.43-0.287-1.051-0.43-1.768
		c-0.432-1.672-0.719-2.915-0.861-3.823c-1.385-7.885-2.102-12.138-2.244-12.807c-0.096-0.669-0.191-1.577-0.336-2.771
		c-0.285-2.341-0.572-3.871-1.002-5.782c-0.145-0.525,0.143-1.003,0.668-1.146s1.004,0.143,1.146,0.669
		c0.525,1.769,0.812,3.632,1.1,6.068c0.145,1.195,0.24,2.103,0.336,2.677c0.096,0.669,0.859,4.922,2.246,12.71
		c0.047,0.334,0.094,0.764,0.238,1.29c0.287,1.051,0.523-0.526,0.523-0.526L642.381,24.542z"/>
	<path d="M656.529,3.898c-0.525,0-0.812,0-0.812,0.048c-0.098,0.191-0.145,0.478-0.191,0.86c-0.143,1.481-0.047,3.345,0.191,5.877
		c0.096,1.195,0.145,1.959,0.145,2.198c0,0.287,0,0.812,0,1.625c-0.049,0.669,0.285,1.003,0.906,1.003c0.477,0,0.859,0,1.242-0.048
		c0.525,0,1.004,0.382,1.004,0.908c0,0.526-0.383,1.003-0.908,1.003c-0.383,0.048-0.906,0.048-1.434,0.048
		c-0.621,0-0.955,0.334-1.004,0.955c-0.143,4.396-0.238,8.076-0.049,10.704c0.049,0.812,0.098,1.434,0.24,1.864
		c0,0.048,0.047,0.143,0.047,0.191c0,0.095,0.24,0.239,0.766,0.334c1.004,0.144,2.197,0,3.584-0.095
		c0.717-0.048,1.242-0.096,1.576-0.096c0.525,0,0.955,0.431,0.955,0.957c0,0.525-0.43,0.955-0.955,0.955
		c-0.285,0-0.766,0.048-1.434,0.096c-0.859,0.048-1.48,0.096-1.814,0.096c-1.578,0.095-2.771-0.048-3.586-0.43
		c-0.619-0.239-0.857-0.86-1.002-1.577c-0.145-0.526-0.238-1.243-0.287-2.151c-0.191-2.915-0.096-7.072,0.049-10.226
		c0.049-1.576,0.094-2.867,0.143-3.966c0.049-1.051,0.049-1.768,0.049-2.15c0-0.191-0.049-0.86-0.143-2.007
		c-0.24-2.627-0.336-4.73-0.193-6.259c0.145-1.003,0.336-1.959,1.053-2.39c0.191-0.143,0.479-0.191,0.859-0.238h3.105
		c2.295,0.095,3.535,0.143,3.727,0.095c0.574-0.048,1.004,0.334,1.053,0.86c0.047,0.286-0.049,0.525-0.189,0.717
		c-0.193,0.191-0.432,0.287-0.67,0.334c-0.238,0.047-1.576,0-3.967-0.096h-2.008L656.529,3.898L656.529,3.898z"/>
	<path fill="#16A1A8" d="M499.785,58.63c1.794-0.242,3.555-0.276,6.04-0.172c1.243,0.034,2.104,0.068,2.624,0.068
		c0.38,0,0.689,0.311,0.689,0.69s-0.311,0.69-0.689,0.69c-0.587,0-1.484-0.034-2.691-0.069c-2.451-0.104-4.143-0.069-5.765,0.172
		c-0.38,0.035-0.759-0.207-0.794-0.587C499.163,59.044,499.405,58.664,499.785,58.63z"/>
	<path fill="#16A1A8" d="M524.221,48.309c0-0.138,0.035-0.242,0.07-0.345c0.034-0.173,0.172-0.312,0.346-0.415
		c0.414-0.172,0.793-0.103,1.139,0.276c0.033,0.035,0.033,0.069,0.104,0.139c0,0,0.034-0.07,0-0.139
		c0.139,0.276,0.241,0.449,0.414,0.726c0.655,0.863,1.277,1.933,2.002,3.417l0.828,1.623c0.104,0.173,0.208,0.38,0.276,0.622
		c0.138,0.311,0.483,0,0.655-0.587l0.139-0.414c0.794-2.555,1.381-4.246,1.828-5.04l0.035-0.069c0-0.034,0.035-0.103,0.035-0.137
		c0-0.07,0.139-0.415,0.207-0.484c0.034-0.034,0.034-0.034,0.034-0.034c0.449-0.518,1.104-0.276,1.347,0.172
		c0.035,0.104,0.069,0.207,0.104,0.311c0.034,0.172,0.068,0.38,0.104,0.622c0.104,0.863,0.172,2.796,0.172,4.625v5.212
		c0,1,0.035,3.693,0.07,5.074c0.034,1.381,0.172,3.417,0.311,5.04c0.035,0.38-0.241,0.725-0.621,0.76
		c-0.381,0.034-0.725-0.242-0.76-0.622c-0.137-1.657-0.276-3.694-0.311-5.074c-0.035-1.346-0.068-4.211-0.068-5.177v-5.212
		c0-0.449-0.035-0.932-0.035-1.415c0-1.691-0.588,0.104-0.795,0.759c-0.104,0.346-0.207,0.726-0.344,1.105l-0.76,2.417
		c-0.104,0.345-0.173,0.586-0.242,0.76c0,0.034-0.033,0.068-0.033,0.137s-0.069,0.139-0.104,0.242
		c-0.034,0.034-0.034,0.034-0.034,0.069c0,0-0.068,0.172-0.346,0.276c-0.207,0.068-0.448,0.034-0.689-0.138
		c-0.035-0.035-0.068-0.069-0.104-0.138l-0.069-0.069l-0.068-0.138c-0.035-0.034-0.068-0.138-0.104-0.241l-0.275-0.794
		c-0.312-0.828-0.588-1.415-0.795-1.795c-0.068-0.104-0.38-0.725-0.932-1.829c-0.242-0.449-0.448-0.863-0.655-1.208
		c-0.139-0.276-0.622-1.036-0.622-1c0,0.379,0.035,0.966,0.069,1.691c0.035,0.725,0.069,1.208,0.069,1.45
		c0.068,1.623,0.068,4.142,0,7.525c-0.069,3.279-0.069,5.764,0.033,7.421c0,0.38-0.275,0.725-0.654,0.725
		c-0.381,0-0.725-0.276-0.725-0.656c-0.104-1.691-0.104-4.211-0.035-7.525c0.068-3.348,0.068-5.833,0-7.42
		c0-0.242-0.035-0.725-0.068-1.45c-0.104-1.484-0.139-2.451-0.139-3.141v-0.49H524.221z"/>
	<path fill="#16A1A8" d="M544.758,53.9c0.242,6.075,0.069,9.286-0.586,11.529c-0.379,1.553-1,2.554-1.795,3.072
		c-1.104,0.69-2.14,0.449-2.934-0.483c-0.553-0.656-1.036-1.727-1.45-3.176c-0.862-3.141-2.349-11.391-0.035-15.947
		c0.519-1.001,1.622-1.967,2.728-2.209c1.795-0.379,2.968,0.76,3.556,2.417C544.62,50.173,544.793,51.519,544.758,53.9z
		 M543.377,52.243c-0.035-1.07-0.207-1.967-0.449-2.692c-0.414-1.139-1-1.727-1.967-1.484c-0.656,0.104-1.449,0.794-1.761,1.45
		c-2.071,4.004-0.726,11.943,0.104,14.946c0.379,1.277,0.758,2.14,1.174,2.658c0.414,0.414,0.688,0.483,1.139,0.208
		c1.001-0.656,1.623-3.003,1.795-6.42C543.516,59.216,543.412,52.554,543.377,52.243z"/>
	<path fill="#16A1A8" d="M549.004,47.273c1.553,0.104,2.52,0.829,3.625,2.175c2.139,2.555,2.795,5.833,2.002,9.803
		c-0.656,3.313-2.348,6.593-4.418,9.043c-0.104,0.104-0.209,0.207-0.346,0.241c-0.275,0.069-0.794,0.069-0.794,0.069
		c-0.312-0.034-0.517-0.207-0.621-0.483c0-0.069-0.035-0.104-0.035-0.139c-0.241-2.727-0.345-6.075-0.312-10.044
		c0.035-1.415,0.173-7.421,0.173-9.941v-0.069c0-0.38,0.312-0.656,0.69-0.656L549.004,47.273L549.004,47.273z M550.557,65.498
		c3.106-4.729,4.418-11.08,1.035-15.152c-0.414-0.483-0.76-0.863-1.14-1.104c-0.414-0.346-0.793-0.069-0.793,0.483
		c-0.035,2.52-0.138,6.8-0.172,8.25c-0.035,2.762,0,5.212,0.103,7.283C549.624,65.913,550.213,66.085,550.557,65.498z"/>
	<path fill="#16A1A8" d="M560.428,47.929c-0.379,0-0.586,0-0.586,0.035c-0.068,0.137-0.103,0.345-0.138,0.621
		c-0.104,1.07-0.035,2.417,0.138,4.246c0.069,0.863,0.104,1.415,0.104,1.587c0,0.208,0,0.586,0,1.174
		c-0.034,0.483,0.207,0.725,0.655,0.725c0.346,0,0.621,0,0.897-0.034c0.38,0,0.726,0.276,0.726,0.655
		c0,0.38-0.276,0.725-0.656,0.725c-0.276,0.035-0.656,0.035-1.036,0.035c-0.448,0-0.69,0.242-0.726,0.69
		c-0.104,3.175-0.172,5.833-0.033,7.731c0.033,0.587,0.068,1.035,0.172,1.347c0,0.034,0.033,0.104,0.033,0.138
		c0,0.069,0.174,0.172,0.553,0.242c0.725,0.103,1.588,0,2.589-0.07c0.519-0.034,0.897-0.069,1.14-0.069
		c0.379,0,0.689,0.312,0.689,0.691s-0.311,0.689-0.689,0.689c-0.207,0-0.553,0.035-1.035,0.069c-0.623,0.034-1.07,0.069-1.312,0.069
		c-1.139,0.069-2.001-0.035-2.589-0.311c-0.449-0.172-0.621-0.621-0.726-1.139c-0.104-0.379-0.172-0.897-0.207-1.553
		c-0.137-2.106-0.068-5.108,0.035-7.387c0.034-1.139,0.068-2.071,0.104-2.864c0.034-0.76,0.034-1.278,0.034-1.554
		c0-0.138-0.034-0.621-0.104-1.45c-0.172-1.898-0.241-3.417-0.138-4.521c0.104-0.725,0.242-1.415,0.76-1.727
		c0.139-0.103,0.346-0.137,0.621-0.172h2.244c1.656,0.069,2.554,0.104,2.691,0.069c0.414-0.034,0.726,0.242,0.76,0.621
		c0.035,0.208-0.035,0.38-0.139,0.518c-0.139,0.138-0.311,0.208-0.482,0.242c-0.172,0.034-1.139,0-2.865-0.069h-1.449
		L560.428,47.929L560.428,47.929z"/>
	<path fill="#16A1A8" d="M581.655,47.273c1.553,0.104,2.521,0.829,3.624,2.175c2.141,2.555,2.795,5.833,2.002,9.803
		c-0.656,3.313-2.348,6.593-4.418,9.043c-0.104,0.104-0.208,0.207-0.346,0.241c-0.275,0.069-0.793,0.069-0.793,0.069
		c-0.312-0.034-0.518-0.207-0.621-0.483c0-0.069-0.035-0.104-0.035-0.139c-0.242-2.727-0.346-6.075-0.311-10.044
		c0.034-1.415,0.172-7.421,0.172-9.941v-0.069c0-0.38,0.312-0.656,0.69-0.656L581.655,47.273L581.655,47.273z M583.207,65.498
		c3.107-4.729,4.419-11.08,1.036-15.152c-0.414-0.483-0.76-0.863-1.14-1.104c-0.414-0.346-0.793-0.069-0.793,0.483
		c-0.034,2.52-0.139,6.8-0.174,8.25c-0.035,2.762,0,5.212,0.104,7.283C582.276,65.913,582.863,66.085,583.207,65.498z"/>
	<path fill="#16A1A8" d="M591.596,46.617c1.207,1.208,1.623,3.003,1.277,5.419c-0.035,0.379-0.416,0.621-0.795,0.586
		c-0.381-0.035-0.621-0.414-0.588-0.793c0.312-1.968,0-3.383-0.861-4.246c-0.139-0.138-0.207-0.312-0.207-0.484
		c0-0.38,0.311-0.69,0.689-0.69C591.283,46.41,591.457,46.479,591.596,46.617z"/>
	<path fill="#16A1A8" d="M598.463,47.929c-0.381,0-0.586,0-0.586,0.035c-0.07,0.137-0.104,0.345-0.139,0.621
		c-0.104,1.07-0.035,2.417,0.139,4.246c0.068,0.863,0.104,1.415,0.104,1.587c0,0.208,0,0.586,0,1.174
		c-0.035,0.483,0.207,0.725,0.654,0.725c0.348,0,0.623,0,0.898-0.034c0.379,0,0.727,0.276,0.727,0.655
		c0,0.38-0.277,0.725-0.656,0.725c-0.277,0.035-0.656,0.035-1.037,0.035c-0.447,0-0.688,0.242-0.725,0.69
		c-0.104,3.175-0.174,5.833-0.035,7.731c0.035,0.587,0.07,1.035,0.174,1.347c0,0.034,0.035,0.104,0.035,0.138
		c0,0.069,0.172,0.172,0.551,0.242c0.725,0.103,1.588,0,2.59-0.07c0.518-0.034,0.896-0.069,1.141-0.069
		c0.379,0,0.688,0.312,0.688,0.691s-0.311,0.689-0.688,0.689c-0.207,0-0.553,0.035-1.037,0.069
		c-0.619,0.034-1.068,0.069-1.312,0.069c-1.139,0.069-2.002-0.035-2.588-0.311c-0.449-0.172-0.621-0.621-0.725-1.139
		c-0.105-0.379-0.174-0.897-0.209-1.553c-0.137-2.106-0.068-5.108,0.035-7.387c0.035-1.139,0.068-2.071,0.104-2.864
		c0.035-0.76,0.035-1.278,0.035-1.554c0-0.138-0.035-0.621-0.104-1.45c-0.174-1.898-0.242-3.417-0.139-4.521
		c0.104-0.725,0.24-1.415,0.76-1.727c0.139-0.103,0.346-0.137,0.621-0.172h2.244c1.656,0.069,2.553,0.104,2.691,0.069
		c0.414-0.034,0.725,0.242,0.76,0.621c0.035,0.208-0.035,0.38-0.139,0.518c-0.139,0.138-0.312,0.208-0.482,0.242
		c-0.174,0.034-1.141,0-2.865-0.069h-1.449L598.463,47.929L598.463,47.929z"/>
	<path fill="#16A1A8" d="M606.436,48.309c0-0.138,0.035-0.242,0.07-0.345c0.033-0.173,0.172-0.312,0.346-0.415
		c0.412-0.172,0.793-0.103,1.139,0.276c0.033,0.035,0.033,0.069,0.104,0.139c0,0,0.035-0.07,0-0.139
		c0.139,0.276,0.242,0.449,0.416,0.726c0.654,0.863,1.275,1.933,2,3.417l0.83,1.623c0.104,0.173,0.207,0.38,0.273,0.622
		c0.139,0.311,0.484,0,0.656-0.587l0.139-0.414c0.795-2.555,1.381-4.246,1.83-5.04l0.033-0.069c0-0.034,0.035-0.103,0.035-0.137
		c0-0.07,0.137-0.415,0.207-0.484c0.035-0.034,0.035-0.034,0.035-0.034c0.447-0.518,1.104-0.276,1.346,0.172
		c0.033,0.104,0.068,0.207,0.104,0.311c0.035,0.172,0.068,0.38,0.104,0.622c0.104,0.863,0.174,2.796,0.174,4.625v5.212
		c0,1,0.033,3.693,0.068,5.074s0.174,3.417,0.311,5.04c0.035,0.38-0.24,0.725-0.621,0.76c-0.379,0.034-0.725-0.242-0.76-0.622
		c-0.137-1.657-0.275-3.694-0.311-5.074c-0.033-1.346-0.068-4.211-0.068-5.177v-5.212c0-0.449-0.035-0.932-0.035-1.415
		c0-1.691-0.586,0.104-0.795,0.759c-0.104,0.346-0.205,0.726-0.344,1.105l-0.76,2.417c-0.105,0.345-0.174,0.586-0.242,0.76
		c0,0.034-0.033,0.068-0.033,0.137s-0.07,0.139-0.104,0.242c-0.035,0.034-0.035,0.034-0.035,0.069c0,0-0.068,0.172-0.346,0.276
		c-0.207,0.068-0.449,0.034-0.689-0.138c-0.033-0.035-0.068-0.069-0.105-0.138l-0.066-0.069l-0.07-0.138
		c-0.035-0.034-0.068-0.138-0.104-0.241l-0.275-0.794c-0.312-0.828-0.588-1.415-0.795-1.795c-0.068-0.104-0.379-0.725-0.932-1.829
		c-0.242-0.449-0.447-0.863-0.654-1.208c-0.141-0.276-0.623-1.036-0.623-1c0,0.379,0.035,0.966,0.068,1.691
		c0.035,0.725,0.068,1.208,0.068,1.45c0.07,1.623,0.07,4.142,0,7.525c-0.068,3.279-0.068,5.764,0.035,7.421
		c0,0.38-0.275,0.725-0.654,0.725c-0.381,0-0.727-0.276-0.727-0.656c-0.104-1.691-0.104-4.211-0.033-7.525
		c0.068-3.348,0.068-5.833,0-7.42c0-0.242-0.035-0.725-0.07-1.45c-0.104-1.484-0.139-2.451-0.139-3.141V48.309L606.436,48.309z"/>
	<path fill="#16A1A8" d="M621.52,57.939c-0.068,0.069-0.139,0.103-0.24,0.103c-0.139,0.035-0.242,0.208-0.207,0.622
		c0.035,0.656,0.104,1.45,0.172,2.382c0.172,2.623,0.312,4.694,0.312,6.593c0,0.38-0.312,0.69-0.691,0.69s-0.689-0.311-0.689-0.69
		c0-1.347-0.07-3.279-0.242-5.73c-0.172-2.45-0.275-4.038-0.311-4.797c-0.033-0.518,0-1.243,0.033-2.174
		c0.141-2.624,0.277-4.487-0.137-6.006c-0.105-0.312-0.312-0.483-0.381-0.793c-0.033-0.172-0.033-0.346,0.068-0.518
		c0.104-0.172,0.242-0.276,0.416-0.311c1.689-0.449,3.449,0.069,4.555,1.243c1.105,1.173,1.863,2.692,1.727,4.384
		c-0.068,0.863-0.346,1.622-0.861,2.347c-0.414,0.656-1.244,1.312-1.623,1.554c-0.174,0.138-0.553,0.345-1.07,0.655L621.52,57.939z
		 M622.623,55.695c0.449-0.276,0.656-0.449,0.934-0.759c0.137-0.138,0.275-0.276,0.381-0.415c0.379-0.586,0.586-1.243,0.586-1.967
		c0-1.416-0.691-2.589-1.83-3.417c-0.346-0.207-0.689-0.379-1.035-0.483c-0.482-0.137-0.725,0.208-0.654,0.726
		c0.311,1.553,0.137,3.175,0.033,5.625c0,0.311-0.033,0.587-0.033,0.829c0,0.483,0.104,0.76,0.275,0.656
		c0.068-0.034,0.172-0.104,0.275-0.172c0.275-0.138,0.482-0.242,0.586-0.311L622.623,55.695z"/>
	<path fill="#16A1A8" d="M630.285,47.825c-0.137,3.073-0.137,6.421-0.068,10.77c0.035,2.175,0.035,3.832,0.035,4.936
		c0,1.415,0,2.244,0.033,2.485c0.035,0.518,0.068,0.966,0.141,1.278c0,0.068,0.031,0.103,0.031,0.172
		c0.035,0.104,0.209,0.207,0.555,0.241c0.346,0.035,0.76,0.069,1.277,0.035c1.207-0.069,2.035-0.035,2.449,0.069
		c0.381,0.104,0.586,0.449,0.484,0.829c-0.105,0.379-0.451,0.587-0.828,0.483c-0.312-0.069-0.969-0.069-2.037,0
		c-1.141,0.034-1.969-0.069-2.521-0.311c-0.725-0.379-0.896-1.484-0.932-2.727c-0.035-0.242-0.035-1.104-0.035-2.555
		c0-1.104,0-2.761-0.033-4.97c-0.068-4.384-0.068-7.663,0.068-10.804c0-0.38,0.344-0.656,0.725-0.656S630.285,47.446,630.285,47.825
		z"/>
	<path fill="#16A1A8" d="M645.543,53.9c0.24,6.075,0.068,9.286-0.588,11.529c-0.379,1.553-1,2.554-1.793,3.072
		c-1.104,0.69-2.141,0.449-2.934-0.483c-0.553-0.656-1.037-1.727-1.451-3.176c-0.863-3.141-2.348-11.391-0.033-15.947
		c0.518-1.001,1.621-1.967,2.727-2.209c1.795-0.379,2.969,0.76,3.555,2.417C645.404,50.173,645.576,51.519,645.543,53.9z
		 M644.162,52.243c-0.033-1.07-0.207-1.967-0.447-2.692c-0.414-1.139-1.002-1.727-1.969-1.484c-0.656,0.104-1.449,0.794-1.762,1.45
		c-2.07,4.004-0.725,11.943,0.105,14.946c0.379,1.277,0.76,2.14,1.172,2.658c0.416,0.414,0.691,0.483,1.141,0.208
		c1-0.656,1.621-3.003,1.793-6.42C644.301,59.216,644.197,52.554,644.162,52.243z"/>
	<path fill="#16A1A8" d="M650.961,47.756c0.104,2.795,0.068,6.662-0.139,11.563c-0.033,1.139-0.033,2.623,0.07,4.521
		c0.102,2.382,0.172,3.935,0.172,4.66c0,0.38-0.311,0.69-0.691,0.69c-0.379,0-0.688-0.31-0.688-0.69c0-0.655-0.07-2.175-0.174-4.591
		c-0.104-1.933-0.104-3.486-0.07-4.66c0.174-5.005,0.244-8.802,0.139-11.426c0-0.379,0.277-0.725,0.656-0.725
		C650.615,47.1,650.961,47.377,650.961,47.756z"/>
	<path fill="#16A1A8" d="M666.561,58.63c1.795-0.242,3.555-0.276,6.041-0.172c1.242,0.034,2.104,0.068,2.623,0.068
		c0.381,0,0.689,0.311,0.689,0.69s-0.311,0.69-0.689,0.69c-0.586,0-1.484-0.034-2.691-0.069c-2.451-0.104-4.143-0.069-5.764,0.172
		c-0.381,0.035-0.76-0.207-0.795-0.587C665.939,59.044,666.182,58.664,666.561,58.63z"/>
</g>
<g>
	<path fill="#FFFFFF" d="M281.749,87.494c-2.843-0.8-5.608-1.814-8.582-2.119c-0.573-0.059-0.958-0.412-1-1
		c-0.481-6.758-0.873-13.518-1.798-20.234c-0.021-0.156-0.003-0.296,0.033-0.427c-0.725-2.581-1.43-5.169-2.199-7.739
		c-0.062-0.205-0.045-0.381,0.001-0.541c-7.445-19.213-25.846-41.115-71.076-41.115c-67.523,0-89.237,32.237-89.237,32.237
		s-36.232-23.906-62.335,1.91c-24.612,24.345,1.925,64.947,1.925,64.947s-32.047,11.395-19.674,57.878
		c2.595,9.743,8.519,17.793,15.292,24.224c10.549,15.006,31.198,19.46,31.198,19.46c0.011,0.753,0.046,1.475,0.094,2.181
		c0.014,0.208,0.032,0.411,0.049,0.615c0.044,0.517,0.095,1.021,0.156,1.514c0.024,0.189,0.046,0.382,0.072,0.567
		c0.092,0.648,0.193,1.279,0.315,1.884c0.004,0.023,0.01,0.044,0.015,0.066c0.119,0.584,0.255,1.144,0.401,1.691
		c0.045,0.165,0.093,0.327,0.139,0.491c0.119,0.416,0.246,0.82,0.38,1.215c0.05,0.146,0.1,0.297,0.149,0.439
		c0.187,0.515,0.383,1.016,0.592,1.491c0.015,0.033,0.029,0.061,0.044,0.094c0.198,0.445,0.408,0.871,0.625,1.286
		c0.068,0.128,0.137,0.251,0.206,0.377c0.181,0.328,0.367,0.646,0.559,0.955c0.068,0.109,0.134,0.218,0.202,0.324
		c0.259,0.397,0.522,0.781,0.798,1.146c0.023,0.03,0.049,0.059,0.072,0.09c0.254,0.33,0.515,0.648,0.781,0.953
		c0.084,0.096,0.167,0.189,0.252,0.281c0.226,0.249,0.457,0.49,0.689,0.721c0.076,0.077,0.153,0.156,0.231,0.23
		c0.307,0.295,0.618,0.576,0.935,0.843c0.036,0.029,0.073,0.058,0.108,0.086c0.283,0.233,0.569,0.458,0.86,0.67
		c0.093,0.069,0.188,0.134,0.282,0.201c0.252,0.179,0.505,0.35,0.761,0.513c0.082,0.053,0.164,0.107,0.246,0.159
		c0.331,0.205,0.665,0.399,1,0.581c0.05,0.028,0.099,0.051,0.147,0.077c0.286,0.154,0.576,0.299,0.864,0.436
		c0.101,0.048,0.2,0.093,0.3,0.14c0.257,0.116,0.515,0.228,0.77,0.333c0.084,0.035,0.169,0.07,0.252,0.104
		c0.331,0.133,0.661,0.256,0.988,0.368c0.062,0.021,0.123,0.041,0.186,0.062c0.268,0.089,0.535,0.175,0.799,0.253
		c0.103,0.03,0.205,0.06,0.308,0.088c0.238,0.068,0.475,0.132,0.708,0.19c0.085,0.021,0.173,0.043,0.256,0.064
		c0.307,0.074,0.606,0.14,0.899,0.2c0.076,0.015,0.149,0.028,0.227,0.043c0.224,0.043,0.444,0.082,0.659,0.119
		c0.103,0.018,0.205,0.033,0.307,0.048c0.195,0.032,0.386,0.06,0.573,0.085c0.087,0.011,0.176,0.024,0.261,0.034
		c0.241,0.031,0.476,0.057,0.701,0.077c-1.215,0.991-1.957,2.509-1.545,4.835c1.326,7.508,7.154,7.053,12.24,6.5
		c0,0,0.532,0.305,1.504,0.788c-1.296,1.954-3.316,3.908-4.906,5.656c-1.481,1.631-2.949,3.396-4.175,5.22
		c-2.44,3.635-5.141,7.7-6.203,11.92c-0.516,2.04-1.062,3.853-1.433,5.898c-0.421,2.3-0.857,4.573-1.148,6.903
		c-0.417,3.366-0.529,6.92-0.524,10.307c0.01,7.297,1.315,14.023,4.346,20.769c0.844,1.881,1.988,3.697,3.322,5.328
		c0.145,1.06-0.106,2.479-0.024,3.38c0.135,1.497,0.276,2.936,0.477,4.421c0.41,3.02,1.217,6.151,2.316,9.017
		c2.023,5.279,5.478,10.401,9.865,14.229c4.669,4.069,11.112,8.244,17.441,9.429c4.054,0.759,8.154,0.65,12.182-0.291
		c1.925-0.449,3.583-1.415,5.488-2l-0.619-5.362c0.254,1.92,0.561,3.812,0.871,5.662c0.531,3.167-0.041,3.875,3.134,5.487
		c2.834,1.438,5.948,2.636,9.098,3.362c7.547,1.743,15.739,2.314,23.534,1.507c2.358-0.245,11.449-1.501,11.035-4.635
		c0.041-0.323-0.305-0.759-0.845-1.236c3.803,1.316,9.521,1.047,12.842,0.874c3.646-0.192,7.223-0.56,10.797-1.083
		c2.444-0.355,8.562-0.479,9.218-3.238c0.585-2.46-1.636-3.904-3.527-4.572l-1.972-1.004c0.504-3.346-0.404-6.142-0.715-9.129
		c-0.25-2.387-0.479-5.232-0.479-7.649c0-1.741,0.499-4.305-0.238-5.89l-0.066-0.354c4.892-2.681,8.638-6.885,10.815-11.754
		c1.648-3.685,2.139-8.083,2.86-12.056c1.424-7.854,1.96-15.71,0.729-23.708c-1.208-7.829-2.94-15.858-5.799-23.36
		c-1.19-3.13-2.47-6.325-4.188-9.198c-1.389-2.321-3.554-4.178-5.107-6.37c0.043-0.067,0.093-0.133,0.136-0.202
		c0,0,9.617,4.343,11.13-3.328c0.718-3.641,0.158-5.848-0.967-7.159c0.022-0.004,0.042-0.01,0.063-0.014
		c7.644-1.28,12.317-5.064,15.17-9.304c0.001-0.002,0.002-0.002,0.002-0.003c0.233-0.347,0.454-0.693,0.661-1.044
		c0.01-0.014,0.018-0.025,0.024-0.037c0.203-0.344,0.395-0.687,0.577-1.03c0.012-0.021,0.023-0.042,0.034-0.065
		c0.178-0.337,0.344-0.674,0.501-1.011c0.014-0.029,0.027-0.058,0.041-0.086c0.153-0.332,0.298-0.662,0.434-0.992
		c0.015-0.035,0.029-0.069,0.044-0.104c0.131-0.325,0.256-0.646,0.372-0.969c0.014-0.038,0.028-0.076,0.042-0.115
		c0.113-0.317,0.221-0.632,0.32-0.942c0.013-0.042,0.025-0.081,0.038-0.124c0.098-0.306,0.187-0.609,0.271-0.909
		c0.012-0.044,0.024-0.088,0.037-0.133c0.08-0.294,0.155-0.585,0.225-0.871c0.011-0.047,0.021-0.091,0.032-0.137
		c0.066-0.284,0.129-0.562,0.187-0.835c0.009-0.043,0.017-0.086,0.025-0.13c0.054-0.27,0.105-0.534,0.151-0.791
		c0.007-0.044,0.015-0.087,0.022-0.131c0.043-0.252,0.084-0.499,0.118-0.737c0.008-0.044,0.013-0.086,0.019-0.131
		c0.034-0.233,0.064-0.46,0.091-0.678c0.006-0.043,0.009-0.082,0.015-0.125c0.024-0.213,0.048-0.421,0.067-0.618
		c0.002-0.04,0.006-0.075,0.01-0.114c0.018-0.191,0.033-0.377,0.046-0.551c0.004-0.041,0.005-0.074,0.008-0.112
		c0.012-0.166,0.021-0.328,0.03-0.475c0.001-0.034,0.002-0.062,0.005-0.094c0.005-0.143,0.012-0.279,0.016-0.399
		c0.001-0.032,0.002-0.058,0.002-0.087c0.003-0.112,0.006-0.222,0.007-0.312c0.001-0.032,0-0.053,0.001-0.081
		c0-0.076,0.001-0.152,0.001-0.21c0-0.04-0.001-0.064-0.001-0.095c-0.002-0.088-0.003-0.15-0.003-0.15s0-0.052,1.731-0.052
		c0.317,0,0.637-0.01,0.96-0.028c16.885-0.521,29.229-15.172,32.213-19.064c13.301-13.227,24.37-30.985,24.456-45.438
		C304.715,108.898,291.103,93.479,281.749,87.494z"/>
	<path fill="none" stroke="#000000" stroke-miterlimit="10" d="M97.178,242.547c0,0-23.448,2.238-23.859-24.617
		c0,0-38.377-14.151-46.215-43.953c-12.301-46.77,19.558-58.234,19.558-58.234S20.28,74.89,44.748,50.396
		c25.947-25.975,61.967-1.922,61.967-1.922s21.587-32.436,88.713-32.436c80.084,0,75.585,69.921,75.585,69.921
		s31.49,4.777,31.137,64.529c-0.159,26.803-37.415,64.927-57.289,64.927c-1.724,0-1.724,0.051-1.724,0.051
		s0.844,23.141-21.968,25.211L97.178,242.547z"/>
	<path fill="#FFFFFF" stroke="#000000" stroke-miterlimit="10" d="M100.003,242.953c0,0-10.737-0.963-9.399,7.149
		c1.338,8.114,7.222,7.622,12.358,7.025c0,0,8.971,5.521,21.157,7.405c12.187,1.882,27.614,5.98,37.327,5.98
		s23.871-4.383,33.767-6.09c9.781-1.687,15.552-4.849,18.829-10.471c0,0,9.71,4.695,11.236-3.598
		c1.525-8.293-2.642-9.753-5.902-9.626c-3.261,0.126-57.93-6.865-57.93-6.865L100.003,242.953z"/>
	<path fill="#FFFFFF" stroke="#000000" stroke-miterlimit="10" d="M171.556,206.789c-6.336,4.169-10.182,12.608-10.256,25.036
		c-0.109,18.413,3.59,29.797,24.551,30.506c20.964,0.708,35.771-3.818,34.587-29.64c-0.964-21.01-8.6-27.998-23.214-30.748
		C186.434,199.913,177.892,202.622,171.556,206.789z"/>
	<path fill="#FFFFFF" stroke="#000000" stroke-miterlimit="10" d="M160.504,242.878c0,0,10.073,6.866,11.383,13.996
		c0,0-1.843,1.831-5.69,3.396c0,0,0.383,1.094,2.3,1.269c1.915,0.175,2.52,1.212,0.92,2.863c-1.601,1.652-9.722,4.906-17.195-0.76"
		/>
	<path fill="#FFFFFF" stroke="#000000" stroke-miterlimit="10" d="M108.585,206.789c-6.759,4.169-10.859,12.608-10.939,25.036
		c-0.117,18.413,3.827,29.797,26.187,30.506c22.36,0.708,38.154-3.818,36.891-29.64c-1.028-21.01-9.172-27.998-24.76-30.748
		C124.454,199.913,115.343,202.622,108.585,206.789z"/>
	<path fill="none" stroke="#000000" stroke-miterlimit="10" d="M135.963,201.943c-4.471-0.789-8.574-0.855-12.324-0.406
		c-3.114,3.019-10.601,11.873-10.601,27.203c0,17.412,0.882,26.768,5.802,33.212c1.557,0.189,3.209,0.321,4.992,0.379
		c22.36,0.708,38.154-3.818,36.891-29.64C159.694,211.682,151.551,204.693,135.963,201.943z"/>
	<path fill="#16A1A8" d="M155.821,246.456c-7.225-5.949-16.123-6.4-27.47-7.104c-5.676-0.353-10.816,0.375-15.071,1.445
		c0.452,9.068,1.662,15.15,4.585,19.75c1.386,0.161,2.849,0.275,4.423,0.325C138.734,261.393,151.441,258.931,155.821,246.456z"/>
	<path fill="none" stroke="#000000" stroke-miterlimit="10" d="M133.838,203.372c-4.191-0.739-8.045-0.809-11.571-0.403
		c-3.521,3.938-9.229,12.385-9.229,25.771c0,16.189,0.765,25.413,4.827,31.807c1.386,0.161,2.849,0.275,4.423,0.325
		c21.291,0.675,36.33-3.635,35.126-28.223C156.435,212.645,148.682,205.99,133.838,203.372z"/>
	<path fill="none" stroke="#000000" stroke-miterlimit="10" d="M197.224,201.943c-4.449-0.837-8.51-0.859-12.195-0.315
		c-3.169,3.107-10.506,11.94-10.506,27.112c0,17.297,0.871,26.644,5.705,33.084c1.723,0.266,3.589,0.438,5.623,0.507
		c20.964,0.708,35.771-3.818,34.587-29.64C219.474,211.682,211.838,204.693,197.224,201.943z"/>
	<path fill="#16A1A8" d="M215.695,245.444c-7.278-5.38-15.967-5.476-27.014-5.722c-5.209-0.115-9.919,0.675-13.886,1.767
		c0.451,8.202,1.567,13.897,4.084,18.281c0.066,0.093,0.133,0.187,0.201,0.278c1.618,0.251,3.376,0.413,5.29,0.477
		C199.944,261.054,211.9,258.499,215.695,245.444z"/>
	<path fill="none" stroke="#000000" stroke-miterlimit="10" d="M216.91,232.642c-0.907-19.769-8.089-26.344-21.84-28.931
		c-4.185-0.787-8.005-0.808-11.473-0.297c-0.489,0.479-1.09,1.119-1.741,1.89c-3.362,4.545-7.334,12.272-7.334,23.437
		c0,15.546,0.705,24.667,4.357,31.03c0.066,0.093,0.133,0.187,0.201,0.278c1.618,0.251,3.376,0.413,5.29,0.477
		C204.094,261.193,218.025,256.936,216.91,232.642z"/>
	<path fill="#FFFFFF" stroke="#000000" stroke-linecap="round" stroke-linejoin="round" stroke-miterlimit="10" d="M161.993,266.84
		c0,0,1.529-11.184,18.167-16.729c15.981-5.328,49.679-20.608,61.031-26.689c11.345-6.073,29.177-14.318,29.177-14.318
		l-1.809,24.835"/>
	<path fill="#FFFFFF" stroke="#000000" stroke-linecap="round" stroke-linejoin="round" stroke-miterlimit="10" d="M164.99,266.549
		c0,0,2.711-9.336,12.57-12.435s43.772-14.169,48.029-16.098s47.41-19.51,47.41-19.51v16.368"/>
	<path fill="#FFFFFF" stroke="#000000" stroke-linecap="round" stroke-linejoin="round" stroke-miterlimit="10" d="M168.387,266.631
		c0,0-1.699-8.021,21.447-14.442c16.961-4.703,86.32-30.547,86.32-30.547l2.359,11.02"/>
	<path fill="#FFFFFF" stroke="#000000" stroke-linecap="round" stroke-linejoin="round" stroke-miterlimit="10" d="M176.035,266.062
		c0,0-1.133-7.171,9.959-10.788C197.086,251.658,273,228.097,281,223.422v19.453"/>
	<path fill="#FFFFFF" stroke="#000000" stroke-linecap="round" stroke-linejoin="round" stroke-miterlimit="10" d="M161.411,266.75
		c0,0-2.111-11.71-19.019-16.731c-16.239-4.825-51.333-15.239-62.988-21.085c-11.645-5.842-29.246-10.427-29.246-10.427
		l3.102,18.834"/>
	<path fill="#FFFFFF" stroke="#000000" stroke-linecap="round" stroke-linejoin="round" stroke-miterlimit="10" d="M158.583,266.851
		c0,0-3.285-9.833-13.293-12.611c-10.008-2.779-44.338-12.844-48.69-14.665c-4.352-1.822-48.245-18.292-48.245-18.292l0.88,17.786"
		/>
	<path fill="#FFFFFF" stroke="#000000" stroke-linecap="round" stroke-linejoin="round" stroke-miterlimit="10" d="M153.909,266.631
		c0,0-3.614-10.154-21.07-13.945c-17.269-3.75-87.806-27.928-87.806-27.928l-1.783,11.73"/>
	<path fill="#FFFFFF" stroke="#000000" stroke-linecap="round" stroke-linejoin="round" stroke-miterlimit="10" d="M149.087,267.522
		c0,0-1.247-8.565-12.514-11.829c-11.266-3.264-88.442-24.269-96.633-28.801l1.001,20.228"/>
	<path fill="#FFFFFF" stroke="#000000" stroke-miterlimit="10" d="M275.069,234.261c0,0-26.719,10.329-46.572,15.126
		c-19.855,4.797-44.63,8.501-44.689,11.107c-0.061,2.606,4.821,2.272,5.063,3.534c0.24,1.262-48.509,5.651-47.983,2.194
		c0.526-3.457,3.341-0.775,3.961-2.747c0.622-1.971-28.795-13.583-56.522-19.642c-27.729-6.06-51.118-11.36-54.251-13.632
		c0,0,14.707,63.36,16.396,74.72c1.688,11.36,9.161,61.09,9.161,61.09s31.9,5.554,40.906,8.583
		c9.005,3.03,36.747,13.422,39.271,15.673c0,0-0.247,2.754,0.597,3.639c0.845,0.884,13.141-0.885,22.906-1.137
		s20.014,0.632,20.857-0.252c0.843-0.884,0.602-2.25,0.602-2.25s29.175-13.4,42.677-18.702c13.504-5.301,40.388-14.01,40.388-14.01
		s11.936-87.974,13.863-94.79c1.93-6.814,4.822-33.826,4.822-33.826L275.069,234.261z"/>
	<path fill="#FFFFFF" stroke="#000000" stroke-linecap="round" stroke-linejoin="round" stroke-miterlimit="10" d="M140.646,263.946
		c0,0-1.979,1.596-1.472,3.396c0.509,1.799,1.714,56.05,1.472,78.956c-0.24,22.907-0.761,41.23-0.761,41.23"/>
	<path fill="#FFFFFF" stroke="#000000" stroke-linecap="round" stroke-linejoin="round" stroke-miterlimit="10" d="M189.354,261.666
		c0,0,1.649,1.651,1.548,3.599c-0.102,1.948-3.719,52.823-4.442,69.942c-0.723,17.118-1.688,55.061-1.688,55.061"/>
	<path fill="none" stroke="#000000" stroke-miterlimit="10" d="M109.785,193.431c0-6.511,5.323-11.089,12.297-8.681"/>
	<path fill="none" stroke="#000000" stroke-miterlimit="10" d="M186.459,194.154c3.872-0.013,7.634-0.841,11.574-0.724"/>
	<path fill="#FFFFFF" stroke="#000000" stroke-miterlimit="10" d="M96.357,373.398c0,0-11.89-21.555-19.846-20.108
		c-7.958,1.446,15.552,43.039,15.552,43.039l30.019-13.809L96.357,373.398z"/>
	<path fill="#FFFFFF" stroke="#000000" stroke-miterlimit="10" d="M207.744,379.931l27.209,11.696c0,0,17.998-36.609,12.103-40.954
		c-5.896-4.343-19.37,20.477-19.37,20.477L207.744,379.931z"/>
	<g>
		<g>
			<path fill="none" stroke="#73C7CB" stroke-linecap="round" stroke-linejoin="round" stroke-miterlimit="10" d="M239.762,269.642
				c2.164-1.201,4.051-2.194,6.376-3.131"/>
			<g>
				<path fill="none" stroke="#73C7CB" stroke-linecap="round" stroke-linejoin="round" stroke-miterlimit="10" d="M209.267,275.891
					c-0.589,11.206-2.227,25.486-2.767,35.747"/>
				<path fill="none" stroke="#73C7CB" stroke-linecap="round" stroke-linejoin="round" stroke-miterlimit="10" d="M209.267,275.891
					c6.553-4.359,9.162,0.835,6.498,5.081c-1.661,2.648-3.791,6.322-6.693,7.751c5.237,0.91,5.35,7.468,5.472,11.512
					c0.104,3.398,0.47,13.854,4.271,5.027"/>
				<path fill="none" stroke="#73C7CB" stroke-linecap="round" stroke-linejoin="round" stroke-miterlimit="10" d="M224.484,273.381
					c2.798-0.627,5.253-2.665,8.148-3.088"/>
				<path fill="none" stroke="#73C7CB" stroke-linecap="round" stroke-linejoin="round" stroke-miterlimit="10" d="M228.374,271.832
					c0.688,6.723-0.794,14.131-0.43,20.086c0.199,3.234-0.095,9.66-0.263,12.838"/>
				<path fill="none" stroke="#73C7CB" stroke-linecap="round" stroke-linejoin="round" stroke-miterlimit="10" d="M239.766,269.642
					c1.104,3.023-0.306,6.725-0.519,9.852c-0.248,3.636-0.559,7.156-1.007,10.735c-0.536,4.29-0.46,8.711-0.686,13.02"/>
				<path fill="none" stroke="#73C7CB" stroke-linecap="round" stroke-linejoin="round" stroke-miterlimit="10" d="M238.547,284.391
					c1.806-0.645,3.651-1.709,5.024-2.754"/>
				<path fill="none" stroke="#73C7CB" stroke-linecap="round" stroke-linejoin="round" stroke-miterlimit="10" d="M249.532,299.019
					c0.438-4.248,0.13-6.65,0.302-9.929c0.207-3.938,0.414-7.876,0.621-11.814c0.194-3.69,0.513-9.455,1.334-12.683
					c1.883,4.253,3.816,9.445,5.374,13.777c1.527-5.812,3.259-11.844,5.102-16.81c1.766,5.842-0.228,14.829-0.548,20.942
					c-0.257,4.868-0.312,7.309-0.919,12.527"/>
			</g>
		</g>
		<path fill="none" stroke="#73C7CB" stroke-linecap="round" stroke-linejoin="round" stroke-miterlimit="10" d="M214.596,317.406
			c-2.711-0.859-7.449,1.621-10.146,2.663c1.479,5.961-0.216,12.861-0.609,18.941c-0.282,4.371-1.298,8.802-1.275,13.173
			c2.155,0.201,4.46-1.983,6.476-2.691c1.254-0.441,2.426-0.908,3.724-1.138"/>
		<path fill="none" stroke="#73C7CB" stroke-linecap="round" stroke-linejoin="round" stroke-miterlimit="10" d="M204.136,333.37
			c1.79,0.046,3.351-1.562,5.015-1.933"/>
		<path fill="none" stroke="#73C7CB" stroke-linecap="round" stroke-linejoin="round" stroke-miterlimit="10" d="M261.198,304.039
			c-2.598-0.814-7.131,1.531-9.712,2.519c1.421,5.641-0.198,12.17-0.572,17.924c-0.269,4.139-1.236,8.329-1.213,12.468
			c2.063,0.19,4.268-1.876,6.196-2.547c1.2-0.416,2.322-0.858,3.562-1.075"/>
		<path fill="none" stroke="#73C7CB" stroke-linecap="round" stroke-linejoin="round" stroke-miterlimit="10" d="M251.249,318.134
			c1.712,0.044,3.211-1.565,4.803-1.937"/>
		<path fill="none" stroke="#73C7CB" stroke-linecap="round" stroke-linejoin="round" stroke-miterlimit="10" d="M221.285,315.337
			c-0.666,3.149-0.861,5.896-0.975,8.997c-0.11,3.037-0.17,7.422-0.215,10.471c-0.053,3.417-0.372,9.252-1.747,12.478
			c3.929-1.166,8.457-3.083,9.667-4.243"/>
		<path fill="none" stroke="#73C7CB" stroke-linecap="round" stroke-linejoin="round" stroke-miterlimit="10" d="M233.985,311.332
			c-0.023-0.361-0.269,3.872-0.14,4.074c1.335,6.741-0.538,11.106-0.296,18.031c0.129,3.628,0.314,4.81,0.122,8.453"/>
		<path fill="none" stroke="#73C7CB" stroke-linecap="round" stroke-linejoin="round" stroke-miterlimit="10" d="M246.392,310.76
			c0.219,0.152,0.435,0.187,0.648,0.099c-2.205-3.088-5.348-3.457-5.659,0.961c-0.322,4.55,2.41,9.383,3.212,13.833
			c0.623,3.447,1.086,6.841,0.902,10.342c-0.031,0.593,0.167,2.363-0.393,2.839c-1.313,1.115-4.146-1.744-4.546-2.893"/>
	</g>
</g>
</svg>
