<?xml version="1.0" encoding="utf-8"?>
<!-- Generator: Adobe Illustrator 16.0.0, SVG Export Plug-In . SVG Version: 6.00 Build 0)  -->
<!DOCTYPE svg PUBLIC "-//W3C//DTD SVG 1.1//EN" "http://www.w3.org/Graphics/SVG/1.1/DTD/svg11.dtd">
<svg version="1.1" id="Calque_1" xmlns="http://www.w3.org/2000/svg" xmlns:xlink="http://www.w3.org/1999/xlink" x="0px" y="0px"
	 width="123.75px" height="58.125px" viewBox="0 0 123.75 58.125" enable-background="new 0 0 123.75 58.125" xml:space="preserve">
<g id="chapter_1_mobile">
</g>
<g id="ui">
	<path fill="#FFFFFF" d="M2.636,51.513l24.25-5.75c0,0-14.5-3.5-16-6.75h12.5c0,0-14.259-9.25-15.504-13l12.754,3.75
		c0,0-9.75-10.25-10.25-16.5c0,0,26.801,11.5,26.15,11.75c-0.651,0.25-4.844-13.395,5.753-15.323
		c10.597-1.928,11.847,6.322,11.847,6.322l11.055-5.25l-8.305,8.5l10.75-2.25l-9.5,6c0,0,4.643,14.274-9.053,24.387
		C35.386,57.512,2.636,51.513,2.636,51.513z"/>
	<path fill="#FFFFFF" d="M121.189,4.57c0,0-8.344-3.722-12.445,2.159c-4.102,5.882-4.039,14.322-4.039,14.322l-12.799,1.324
		l1.947,6.565l10.098-0.539c0,0-2.336,24.907-2.114,25.882c0.221,0.973,8.606,0,8.606,0l-0.883-25.509
		c0,0,10.028,1.546,10.585,0.884c0.558-0.665,0-7.946,0-7.946l-9.041,0.221c0,0-2.231-3.64,1.392-6.584
		c3.625-2.945,10.254-2.725,10.254-2.725L121.189,4.57z"/>
</g>
<g id="Calque_2">
</g>
<g id="home-tablette">
</g>
<g id="home-desktop">
</g>
<g id="ui-pannel">
</g>
<g id="rtfm-desktop">
</g>
<g id="rtfm-tablette">
</g>
</svg>
