<?xml version="1.0" encoding="utf-8"?>
<!-- Generator: Adobe Illustrator 16.0.0, SVG Export Plug-In . SVG Version: 6.00 Build 0)  -->
<!DOCTYPE svg PUBLIC "-//W3C//DTD SVG 1.1//EN" "http://www.w3.org/Graphics/SVG/1.1/DTD/svg11.dtd">
<svg version="1.1" id="Calque_1" xmlns="http://www.w3.org/2000/svg" xmlns:xlink="http://www.w3.org/1999/xlink" x="0px" y="0px"
	 width="135.5px" height="135.5px" viewBox="0 0 135.5 135.5" enable-background="new 0 0 135.5 135.5" xml:space="preserve">
<g id="chapter_1_mobile">
</g>
<g id="ui">
</g>
<g id="Calque_2">
</g>
<g id="home-tablette">
</g>
<g id="home-desktop">
</g>
<g id="ui-pannel">
	<g>
		<g>
			<circle fill="#FFFFFF" cx="67.75" cy="67.75" r="63.75"/>
			<g opacity="0.8">
				<path fill="#479369" d="M67.732,4c0.296,0,0.586,0.002,0.883,0.006c35.205,0.478,63.355,29.404,62.879,64.609
					c-0.475,34.908-28.926,62.885-63.727,62.885c-0.296,0-0.586-0.002-0.883-0.006C31.681,131.018,3.528,102.09,4.006,66.885
					C4.48,31.977,32.931,4.003,67.732,4 M67.738,0h-0.006c-17.9,0.001-34.785,6.928-47.544,19.504
					C7.418,32.093,0.25,48.9,0.006,66.831c-0.245,18.095,6.57,35.202,19.192,48.171c12.621,12.969,29.538,20.246,47.632,20.492
					c0.315,0.004,0.623,0.006,0.938,0.006c17.9,0,34.785-6.926,47.544-19.503c12.771-12.589,19.938-29.397,20.183-47.328
					c0.245-18.095-6.57-35.202-19.19-48.171C103.682,7.529,86.766,0.252,68.67,0.006C68.355,0.002,68.051,0,67.738,0L67.738,0z"/>
			</g>
		</g>
		<g id="indice">
			<path fill="#16A1A8" d="M62.208,36.7c0,0-7.884-6.634,0-11.485h3.552c0,0,6.552-0.402,2.841,10.623
				C64.895,46.866,64.195,38.931,62.208,36.7z"/>
			<path fill="#12868C" d="M67.384,21.536c-0.187-1.17-1.637-1.646-3.475-1.555l-1.755-6.862l0.021,7.1
				c-2.015,0.444-3.459,1.395-3.259,2.662c0.162,1.013,1.35,1.43,2.878,1.447c0.06,0.371,0.029,0.814-0.238,1.319
				c-0.797,1.515,4.595,0,4.595,0s-0.456-1.01-0.528-1.981C66.821,23.192,67.533,22.488,67.384,21.536z"/>
			<path fill="#12868C" d="M66.335,40.911c-0.26-1.138,1.69-3.798,0-4.506c-4.386-1.836-3.251-9.034-2.331-11.19h-1.796
				c-7.884,4.849,0,11.485,0,11.485C63.702,38.377,64.469,43.276,66.335,40.911z"/>
			<path fill="#16A1A8" d="M72.393,105.713l2.485,25.633c1.388-0.154,2.758-0.359,4.117-0.601l-2.466-25.434L72.393,105.713z"/>
			<g>
				<path fill="#12868C" d="M55.682,110.794c0,0,4.448,0.503,7.045-2.095c2.599-2.598-1.384,5.889-1.384,5.889L55.682,110.794z"/>
				<path fill="#45B4B9" d="M57.878,114.241c0,0,9.354,0.815,13.857,3.294c0,0,11.776-6.727,20.784-8.881
					c0,0-0.694-47.112,3.463-53.732L68.271,65.326c0,0-20.785-4.705-29.79-5.323L57.878,114.241z"/>
				<path fill="#D0ECEE" d="M68.271,65.328c0,0-0.311-0.07-0.867-0.192l4.703,52.19c2.004-1.115,12.314-6.733,20.413-8.671
					c0,0-0.694-47.111,3.463-53.731L68.271,65.328z"/>
				<path fill="#12868C" d="M34.668,53.673c0,0,24.077-10.564,27.54-16.975h2.942l3.467-0.867c0,0,12.471,10.737,29.791,15.588
					L67.403,62.679L34.668,53.673z"/>
				<path fill="#37AEB4" d="M34.668,53.673l3.812,8.595c0,0,4.587-5.184,9.612,1.885c0,0,3.897-5.196,10.565,1.559
					c0,0,4.329-4.937,9.91,3.244c0,0,5.696-8.766,10.526-3.627c0,0,6.41-8.019,9.828-2.647c0,0,4.98-6.214,6.714-2.674l2.771-8.585
					l-30.311,8.964L34.668,53.673z"/>
				<path fill="#16A1A8" d="M68.646,35.858l-0.042-0.021l-3.45,0.863h-0.154L68.1,60.386l22.514-6.133l7.797-2.831
					C81.304,46.632,68.946,36.119,68.646,35.858z"/>
				<path fill="#16A1A8" d="M34.668,53.673l3.812,8.595c0,0,4.587-5.184,9.612,1.885c0,0,3.897-5.196,10.565,1.559
					c0,0,4.329-4.937,9.91,3.244l-0.471-8.569L34.668,53.673z"/>
				<path fill="#16A1A8" d="M72.187,112.975c-0.841,2.406-4.52-1.203-4.52-1.203c-1.782,3.714-6.521-0.945-6.521-0.945
					c-1.78,2.419-4.262,0.997-5.752-0.258l1.656,4.719l15.683,2.666L72.187,112.975z"/>
				<path fill="#37AEB4" d="M72.733,117.955l-0.55-4.98c0,0,3.802,2.569,6.57-2.362c0,0,3.312,2.664,7.276-2.288
					c0,0,4.191,1.895,7.236-3.781v5.825L72.733,117.955z"/>
			</g>
		</g>
	</g>
</g>
<g id="rtfm-desktop">
</g>
<g id="rtfm-tablette">
</g>
</svg>
