<?xml version="1.0" encoding="utf-8"?>
<!-- Generator: Adobe Illustrator 16.0.0, SVG Export Plug-In . SVG Version: 6.00 Build 0)  -->
<!DOCTYPE svg PUBLIC "-//W3C//DTD SVG 1.1//EN" "http://www.w3.org/Graphics/SVG/1.1/DTD/svg11.dtd">
<svg version="1.1" id="Calque_1" xmlns="http://www.w3.org/2000/svg" xmlns:xlink="http://www.w3.org/1999/xlink" x="0px" y="0px"
	 width="135.5px" height="135.5px" viewBox="0 0 135.5 135.5" enable-background="new 0 0 135.5 135.5" xml:space="preserve">
<g id="chapter_1_mobile">
</g>
<g id="ui">
</g>
<g id="Calque_2">
</g>
<g id="home-tablette">
</g>
<g id="home-desktop">
</g>
<g id="ui-pannel">
	<g>
		<g>
			<circle fill="#FFFFFF" cx="67.75" cy="67.75" r="63.75"/>
			<g opacity="0.8">
				<path fill="#A06964" d="M67.732,4c0.296,0,0.586,0.002,0.883,0.006c35.205,0.478,63.355,29.404,62.879,64.609
					c-0.475,34.908-28.926,62.885-63.727,62.885c-0.296,0-0.586-0.002-0.883-0.006C31.681,131.018,3.528,102.09,4.006,66.885
					C4.48,31.977,32.931,4.003,67.732,4 M67.738,0h-0.006c-17.9,0.001-34.785,6.928-47.544,19.504
					C7.418,32.093,0.25,48.9,0.006,66.831c-0.245,18.095,6.57,35.202,19.192,48.171c12.621,12.969,29.538,20.246,47.632,20.492
					c0.315,0.004,0.623,0.006,0.938,0.006c17.9,0,34.785-6.926,47.544-19.503c12.771-12.589,19.938-29.397,20.183-47.328
					c0.245-18.095-6.57-35.202-19.19-48.171C103.682,7.529,86.766,0.252,68.67,0.006C68.355,0.002,68.051,0,67.738,0L67.738,0z"/>
			</g>
			<circle fill="#FFFFFF" cx="67.75" cy="67.75" r="63.75"/>
		</g>
		<g>
			<g>
				<g>
					<defs>
						<circle id="SVGID_1_" cx="67.75" cy="67.75" r="63.75"/>
					</defs>
					<clipPath id="SVGID_2_">
						<use xlink:href="#SVGID_1_"  overflow="visible"/>
					</clipPath>
					<g clip-path="url(#SVGID_2_)">
						<g>
							<path fill="#16A1A8" d="M82.457,7.219c0.073-1.077-0.994-1.764-2.481-2.015l-0.095-6.45L78.537,5.1
								c-1.698,0.033-3.039,0.621-3.118,1.789c-0.068,0.934,0.806,1.523,2.024,1.813C77.418,9.045,77.308,9.436,77,9.837
								c-0.933,1.21,3.678,0.833,3.678,0.833s-0.169-0.987-0.043-1.863C81.69,8.596,82.395,8.096,82.457,7.219z"/>
							<polygon fill="#7FC9CE" points="41.537,51.552 49.88,99.991 70.24,101.837 85.165,107.34 101.599,51.807 70.466,62.998 
															"/>
							<path fill="#12868C" d="M75.888,62.677c1.636-0.625,0.815,4.902,3.082,4.056c2.266-0.842,2.712-6.184,4.378-6.396
								c1.665-0.212,1.655,4.494,3.428,3.715c1.771-0.781,2.661-5.323,3.941-5.488c1.282-0.163,0.83,4.81,2.437,3.774
								c1.609-1.037,2.422-6.333,3.319-6.448c0.896-0.114,1.013,5.179,2.137,4.621c1.122-0.559,4.353-9.728,4.353-9.728
								l-23.339,5.966l-9.957,4.781l-0.846,7.376C70.701,68.112,74.252,63.301,75.888,62.677z"/>
							<path fill="#0A474B" d="M62.34,61.304c-1.368-0.773-2.625,3.268-4.529,2.21c-1.904-1.059-0.35-4.895-1.899-5.384
								c-1.55-0.494-3.296,2.807-4.74,1.896c-1.444-0.913-0.62-4.279-1.812-4.659c-1.193-0.379-2.606,3.2-3.791,2.141
								c-1.187-1.057-0.009-4.937-0.845-5.201c-0.834-0.265-2.921,3.419-3.811,2.797c-0.893-0.624-0.634-7.714-0.634-7.714
								l20.615,8.991l8.772,5.149l-0.846,7.376C67.274,67.963,63.708,62.08,62.34,61.304z"/>
							<path fill="#16A1A8" d="M75.399,19.83c0,0-5.039-7.354,2.205-10.261l2.844,0.643c0,0,5.326,0.824,0.238,10.004
								C75.603,29.396,76.563,22.182,75.399,19.83z"/>
							<path fill="#12868C" d="M77.899,24.339c0.011-1.065,2.084-3.087,0.864-4.026c-3.159-2.433-0.87-8.659,0.28-10.418
								l-1.439-0.325c-7.244,2.907-2.205,10.261-2.205,10.261C76.275,21.6,75.95,26.115,77.899,24.339z"/>
							<path fill="#12868C" d="M75.399,19.83c0,0-5.039-7.354,2.205-10.261l2.844,0.643c0,0,5.326,0.824,0.238,10.004
								C75.603,29.396,76.563,22.182,75.399,19.83z"/>
							<path fill="#0B5154" d="M77.899,24.339c0.011-1.065,2.084-3.087,0.864-4.026c-3.159-2.433-0.87-8.659,0.28-10.418
								l-1.439-0.325c-7.244,2.907-2.205,10.261-2.205,10.261C76.275,21.6,75.95,26.115,77.899,24.339z"/>
							<path fill="#0B5154" d="M75.312,20.044c0,0-10.923,15.191-18.083,19.288c-7.16,4.096-16.974,8.106-16.974,8.106
								s9.403,9.768,29.411,14.092c0,0,21.6-0.939,33.188-10.719c0,0-18.476-18.412-22.844-29.458L75.312,20.044z"/>
							<path fill="#0F6B70" d="M102.854,50.811c0,0-18.476-18.412-22.844-29.458l-2.791-0.777
								c-0.315,4.891-0.133,22.524-7.554,40.955C69.666,61.53,91.266,60.591,102.854,50.811z"/>
							<path fill="#0B5154" d="M82.457,7.219c0.073-1.077-0.994-1.764-2.481-2.015l-0.095-6.45L78.537,5.1
								c-1.698,0.033-3.039,0.621-3.118,1.789c-0.068,0.934,0.806,1.523,2.024,1.813C77.418,9.045,77.308,9.436,77,9.837
								c-0.933,1.21,3.678,0.833,3.678,0.833s-0.169-0.987-0.043-1.863C81.69,8.596,82.395,8.096,82.457,7.219z"/>
							<g>
								<path fill="#12868C" d="M87.865,107.635c0,0-3.978,10.719-8.826,14.277c-4.848,3.558-8.967,5.642-9.565,7.522
									c-0.599,1.88-0.513,4.491-0.513,4.491s-4.318,2.894-7.567,0.834c0,0,0.844-3.317-0.658-5.975
									c-1.503-2.656-9.444-9.255-10.653-15.975c-1.207-6.72-1.427-12.944-1.427-12.944l22.806,8.168L87.865,107.635z"/>
								<polygon fill="#73C7CB" points="87.762,107.646 69.543,101.326 48.552,99.877 71.359,108.046 								"/>
								<polygon fill="#16A1A8" points="82.966,106.666 69.299,101.923 53.554,100.838 70.662,106.964 								"/>
								<polygon fill="#9BD7DA" points="70.662,106.964 58.743,102.696 69.362,103.429 78.971,106.762 								"/>
								<path fill="none" stroke="#0B5154" stroke-linecap="round" stroke-linejoin="round" stroke-miterlimit="10" d="
									M60.792,108.768l1.111,0.319c-0.856,1.978,3.537,4.045,5.188,1.78"/>
								<path fill="none" stroke="#0B5154" stroke-linecap="round" stroke-linejoin="round" stroke-miterlimit="10" d="
									M67.484,107.68c0,0-3.011,0.395-4.423-0.216c-1.411-0.611-1.664-1.774-2.56-1.763"/>
								<path fill="#11797E" stroke="#0B5154" stroke-linecap="round" stroke-linejoin="round" stroke-miterlimit="10" d="
									M66.637,111.334c0,0,0.884,1.167,1.82,1.734"/>
								<path fill="#11797E" stroke="#0B5154" stroke-linecap="round" stroke-linejoin="round" stroke-miterlimit="10" d="
									M65.563,111.814c0,0,0.456,1.992,1.429,2.759"/>
								<path fill="#11797E" stroke="#0B5154" stroke-linecap="round" stroke-linejoin="round" stroke-miterlimit="10" d="
									M64.2,111.766c0,0-0.139,1.654,0.424,2.196"/>
								<path fill="#11797E" stroke="#0B5154" stroke-linecap="round" stroke-linejoin="round" stroke-miterlimit="10" d="
									M62.742,111.123c0,0-0.696,1.082-0.463,1.976"/>
								<path fill="#0B5154" d="M48.655,99.866l9.524,3.41l0.063,0.035c0,0,1.025,3.805-0.364,5.224
									c-1.389,1.42-2.635,1.086-2.371,2.266c0.265,1.181,2.445,0.85,2.445,0.85s-0.54,0.581-0.793,0.729
									c-0.251,0.148-0.79,0.759-0.093,0.978c0,0-0.432,0.343-0.028,0.971c0.406,0.628,1.467,1.719,1.54,2.383
									c0.074,0.665-1.511,7.439,0.838,10.473l0-0.001c-3.25-3.369-8.318-8.722-9.334-14.372
									C48.875,106.091,48.655,99.866,48.655,99.866z"/>
								<path fill="none" stroke="#0F6B70" stroke-linecap="round" stroke-linejoin="round" stroke-miterlimit="10" d="
									M55.44,107.406l-0.72-0.154c-0.116,1.367-3.206,1.207-3.45-0.562"/>
								<path fill="none" stroke="#0F6B70" stroke-linecap="round" stroke-linejoin="round" stroke-miterlimit="10" d="
									M51.385,107.089c0,0-0.849,0.388-1.545,0.426"/>
								<path fill="none" stroke="#0F6B70" stroke-linecap="round" stroke-linejoin="round" stroke-miterlimit="10" d="
									M51.843,107.683c0,0-0.858,0.98-1.634,1.117"/>
								<path fill="none" stroke="#0F6B70" stroke-linecap="round" stroke-linejoin="round" stroke-miterlimit="10" d="
									M52.624,108.063c0,0-0.419,0.972-0.9,1.105"/>
								<path fill="none" stroke="#0F6B70" stroke-linecap="round" stroke-linejoin="round" stroke-miterlimit="10" d="
									M53.636,108.143c0,0,0.065,0.817-0.336,1.248"/>
								<g>
									<path fill="#12868C" d="M64.599,118.026c0.008,0.012,0.017,0.022,0.025,0.036
										C64.624,118.062,64.615,118.049,64.599,118.026z"/>
									<path fill="#12868C" d="M64.385,117.731c0.102,0.139,0.179,0.245,0.214,0.295C64.535,117.929,64.462,117.83,64.385,117.731
										z"/>
									<path fill="#0B5154" d="M56.729,113.045c-0.011,0.126,0.002,0.278,0.027,0.431c0.51,0.213,1.595,0.633,2.713,0.892
										c1.428,0.329,3.796,1.924,4.916,3.364c-0.57-0.781-2.059-2.739-3.098-3.415c-1.307-0.852-3.603-0.676-4.277-1.576
										L56.729,113.045z"/>
								</g>
								<path opacity="0.7" fill="#12868C" d="M57.003,113.424c0,0-1.098,0.016-2.182,0.075c-1.085,0.062-2.441,0.057-3.614,0.976
									c0,0,1.139-2.478,6.13-1.775L57.003,113.424z"/>
								<path fill="none" stroke="#0F6B70" stroke-linecap="round" stroke-linejoin="round" stroke-miterlimit="10" d="
									M49.948,103.712c0,0,2.705,1.382,4.239,1.279s2.162-1.112,3.003-0.801"/>
							</g>
							<g>
								<g>
									<path fill="#FFFFFF" d="M73.04,95.965c-0.292-0.315,0.542-2.218,0.278-2.658c-0.265-0.439-1.583,0.031-2.984-0.116
										c-1.403-0.148-3.214-1.066-3.214-1.066s-0.696,1.931-0.674,2.496c0.024,0.563,0.73,0.271,0.417,1.072
										c-0.312,0.8-0.552,2.26-0.793,4.064c-0.125,0.938-0.371,1.805-0.579,2.422c-0.19,0.57-0.348,0.927-0.348,0.927
										s0.083,0.072,0.248,0.181c1.663,0.455,3.476,0.848,5.188,1.091c0.349-0.04,0.545-0.089,0.545-0.089
										c0.02-0.09,0.077-0.41,0.159-0.869c0.372-2.067,1.229-6.998,1.229-6.998s0,0,0.344,0.068S73.33,96.281,73.04,95.965z"/>
								</g>
								<path fill="#BCE4E6" d="M67.414,95.213c0.506,0.348,0.908-0.132,0.889-0.36c0.118,0.176,0.012,1.654,0.844,0.913
									c-0.043,0.104-0.014,0.202,0.047,0.311c0.156,0.057,0.27,0.042,0.33-0.035c-0.055,0.083-0.081,0.216-0.234,0.252
									c-0.2,0.047-0.396,0.003-0.388-0.144c-0.206,0.075-0.599,0.209-0.812,0.03c-0.147-0.121,0.002-0.55,0.024-0.676
									c-0.12,0.114-0.434,0.062-0.527-0.084L67.414,95.213z"/>
								<path fill="#BCE4E6" d="M68.31,92.919c0.394,0.521,2.59,1.15,3.161,0.715c-0.941,0.007-2.612-0.335-3.292-0.846
									c0.061,0.108,0.167,0.213,0.31,0.311"/>
							</g>
						</g>
						<g id="indice_2_">
							<path id="_x3C_Tracé_x3E_" opacity="0.6" fill="#7FC9CE" d="M41.708,54.995l-20.244-4.378c0,0,0.531,1.881,1.301,4.717
								l9.379,9.799l7.146-10.382l-0.675,5.445l3.485,3.466l2.811,11.814l-3.76,9.572l1.118,6.834c0,0,1.991,1.632,3.038,2.297
								c0.438,0.185,0.677,0.298,0.538,0.274c-0.104-0.019-0.295-0.121-0.538-0.274c-1.325-0.559-4.471-1.764-4.471-1.764
								l-1.095-5.854l-6.421-3.843l2.272-10.937l-1.379-5.316l-2.461,0.941l-8.982-12.061c1.959,7.223,5.456,20.614,5.67,24.948
								c0.296,6.043,0.059,26.412,0.059,26.412l22.008-6.764L41.708,54.995z"/>
						</g>
					</g>
				</g>
			</g>
		</g>
	</g>
</g>
<g id="rtfm-desktop">
</g>
<g id="rtfm-tablette">
</g>
</svg>
