<?xml version="1.0" encoding="utf-8"?>
<!-- Generator: Adobe Illustrator 16.0.0, SVG Export Plug-In . SVG Version: 6.00 Build 0)  -->
<!DOCTYPE svg PUBLIC "-//W3C//DTD SVG 1.1//EN" "http://www.w3.org/Graphics/SVG/1.1/DTD/svg11.dtd">
<svg version="1.1" id="Calque_1" xmlns="http://www.w3.org/2000/svg" xmlns:xlink="http://www.w3.org/1999/xlink" x="0px" y="0px"
	 width="135.5px" height="135.5px" viewBox="0 0 135.5 135.5" enable-background="new 0 0 135.5 135.5" xml:space="preserve">
<g id="chapter_1_mobile">
</g>
<g id="ui">
</g>
<g id="Calque_2">
</g>
<g id="home-tablette">
</g>
<g id="home-desktop">
</g>
<g id="ui-pannel">
	<g>
		<g>
			<circle fill="#FFFFFF" cx="67.75" cy="67.75" r="63.75"/>
			<g opacity="0.8">
				<path fill="#12868C" d="M67.732,4c0.296,0,0.586,0.002,0.883,0.006c35.205,0.478,63.355,29.404,62.879,64.609
					c-0.475,34.908-28.926,62.885-63.727,62.885c-0.296,0-0.586-0.002-0.883-0.006C31.681,131.018,3.528,102.09,4.006,66.885
					C4.48,31.977,32.931,4.003,67.732,4 M67.738,0h-0.006c-17.9,0.001-34.785,6.928-47.544,19.504
					C7.418,32.093,0.25,48.9,0.006,66.831c-0.245,18.095,6.57,35.202,19.192,48.171c12.621,12.969,29.538,20.246,47.632,20.492
					c0.315,0.004,0.623,0.006,0.938,0.006c17.9,0,34.785-6.926,47.544-19.503c12.771-12.589,19.938-29.397,20.183-47.328
					c0.245-18.095-6.57-35.202-19.19-48.171C103.682,7.529,86.766,0.252,68.67,0.006C68.355,0.002,68.051,0,67.738,0L67.738,0z"/>
			</g>
		</g>
		<g id="panneau_1_">
			<path fill="#12868C" d="M55.923,130.384c2.745,0.515,5.55,0.859,8.408,1.011l4.37-53.812l-8.435-0.686L55.923,130.384z"/>
			<path fill="#0F6B70" d="M59.022,93.417c1.976,0.882,4.253,1.425,6.866,1.46c0.537,0.007,1.001-0.092,1.514-0.128L68.8,77.547
				l-8.435-0.688L59.022,93.417z"/>
			<g id="indice_1_">
				<polygon fill="#0F6B70" points="123.523,44.892 23.35,37.442 16.861,40.661 84.596,75.062 123.523,44.938 				"/>
				<polygon fill="#DEF2F3" points="84.596,75.062 118.771,92.423 121.057,88.475 123.523,44.938 				"/>
				<polygon fill="#12868C" points="118.771,92.423 15.486,82.893 16.861,40.661 120.623,47.666 				"/>
				<g>
					<path fill="#7AC9CD" d="M28.791,49.19l80.408,5.867c0.246,2.191,1.301,4.008,2.828,4.976l-1.477,20.168
						c-1.546,0.689-2.789,2.191-3.41,4.137l-80.965-5.914c-0.165-0.971-0.487-1.888-0.964-2.682
						c-0.574-0.956-1.336-1.689-2.192-2.141l1.521-20.805C26.555,52.366,28.067,51.081,28.791,49.19 M27.132,46.952
						c-0.213,2.878-2.217,3.917-4.233,3.89c-0.111-0.001-0.223-0.007-0.339-0.013l-1.784,24.394
						c0.082-0.003,0.156-0.024,0.234-0.023c0.013,0,0.025,0,0.038,0c1.911,0.137,3.308,2.47,3.11,5.199l84.695,6.184
						c0.192-2.658,1.828-4.709,3.684-4.684c0.004,0,0.008,0,0.012,0l1.699-23.256c-1.852-0.236-3.172-2.501-2.979-5.168
						c0.014-0.131,0.045-0.252,0.059-0.379L27.132,46.952L27.132,46.952z"/>
				</g>
				<g>
					<path fill="#7AC9CD" d="M35.098,63.396c-0.463-0.06-0.908-0.101-1.35-0.136c-0.438-0.031-0.863-0.045-1.279-0.05l0,0
						c-0.302-0.022-0.521-0.266-0.502-0.536c0.021-0.283,0.268-0.504,0.531-0.484c0.426,0.009,0.863,0.024,1.325,0.061
						c-0.226-0.414-0.202-0.895-0.13-1.716c0,0,0.319-3.713,0.349-4.036c0.076-1.085,0.113-2.001,0.12-2.781
						c-0.238-0.096-0.41-0.137-0.567-0.148c-0.112-0.01-0.211,0.001-0.306,0.008h-0.008c-0.323-0.025-0.506-0.209-0.527-0.472
						c-0.025-0.275,0.146-0.502,0.445-0.547c0.459-0.041,0.896-0.035,1.495,0.012l1.386,0.12c0.272,0.021,0.493,0.269,0.469,0.547
						c-0.021,0.275-0.267,0.49-0.547,0.47l-0.624-0.049c-0.203,0.935-0.24,1.858-0.315,2.91c-0.025,0.322-0.303,3.706-0.346,4.077
						c-0.072,0.749-0.091,1.185-0.055,1.658c0.312,0.045,0.589,0.088,0.589,0.088c0.249,0.016,0.442,0.268,0.427,0.56
						c-0.021,0.27-0.271,0.472-0.564,0.448h-0.016V63.396z"/>
					<path fill="#7AC9CD" d="M37.986,63.596c-0.277-0.02-0.48-0.225-0.484-0.487c-0.047-0.578-0.029-1.271,0.031-2.055
						c0.056-0.788,0.135-1.652,0.258-2.604c0.1-0.926,0.167-1.601,0.197-2.007c0.02-0.262,0.066-0.646,0.14-1.177l0.11-1.108
						l0.056-0.782c-0.028-0.308-0.028-0.602,0.292-0.756l0.43-0.002c0.23,0.081,0.372,0.261,0.417,0.559
						c0,0.008,0.073,0.39,0.073,0.39l-0.036,0.561l0.165-0.052c0.096,0.305,0.142,0.563,0.177,0.754l0.073,0.4
						c0.151,0.955,0.547,3.479,0.854,4.905c0.067,0.274,0.219,0.664,0.256,0.72c-0.244-0.613-0.209-1.374-0.157-2.479
						c0.091-2.066,0.203-3.651,0.53-5.208c0.044-0.25,0.27-0.419,0.546-0.397c0.334,0.05,0.503,0.311,0.463,0.616
						c-0.321,1.483-0.438,3.022-0.522,5.023c-0.045,1.078-0.084,1.86-0.119,2.333l-0.102,1.343l-0.088,0.745
						c-0.125,0.414-0.206,0.585-0.446,0.665c-0.087,0.013-0.166,0.008-0.228,0.003c-0.186-0.013-0.264-0.063-0.317-0.097
						c-0.021-0.031-0.161-0.295-0.169-0.324l-0.54-2.212c-0.196-0.744-0.386-1.718-0.575-2.917c0,0-0.248-1.578-0.256-1.603
						c0,0-0.121,1.368-0.226,2.371c-0.126,1.012-0.202,1.778-0.237,2.262c-0.041,0.508-0.054,1.202-0.036,2.083
						c0.007,0.299-0.203,0.538-0.479,0.547l-0.05-0.001L37.986,63.596L37.986,63.596z"/>
					<path fill="#7AC9CD" d="M43.78,64.022c-0.276-0.02-0.479-0.229-0.485-0.492c-0.041-0.581-0.027-1.267,0.037-2.057
						c0.056-0.782,0.133-1.652,0.258-2.597c0.1-0.93,0.162-1.601,0.192-2.011c0.021-0.262,0.062-0.646,0.141-1.177l0.109-1.104
						l0.061-0.787c-0.029-0.31-0.029-0.597,0.29-0.756l0.432-0.005c0.229,0.084,0.367,0.268,0.416,0.566
						c0,0.004,0.07,0.389,0.07,0.389l-0.033,0.561l0.162-0.051c0.096,0.301,0.141,0.559,0.181,0.75l0.068,0.403
						c0.148,0.955,0.548,3.479,0.854,4.9c0.066,0.278,0.227,0.661,0.255,0.718c-0.244-0.606-0.209-1.368-0.161-2.472
						c0.095-2.066,0.211-3.655,0.538-5.208c0.04-0.254,0.274-0.424,0.542-0.402c0.339,0.05,0.508,0.311,0.459,0.616
						c-0.312,1.483-0.434,3.022-0.519,5.023c-0.04,1.078-0.083,1.855-0.118,2.336l-0.101,1.339l-0.094,0.745
						c-0.117,0.414-0.202,0.585-0.442,0.669c-0.087,0.002-0.166,0.001-0.228,0c-0.181-0.015-0.263-0.065-0.316-0.099
						c-0.021-0.027-0.161-0.291-0.165-0.324l-0.54-2.211c-0.205-0.749-0.39-1.724-0.577-2.918c0,0-0.25-1.582-0.253-1.61
						c0,0-0.122,1.372-0.231,2.372c-0.125,1.014-0.201,1.78-0.242,2.264c-0.031,0.504-0.049,1.197-0.032,2.082
						c0.013,0.295-0.196,0.535-0.474,0.543L43.78,64.022z"/>
					<path fill="#7AC9CD" d="M50.835,64.71c-0.438-0.03-0.771-0.111-1.013-0.251c-0.295-0.142-0.365-0.453-0.403-0.716
						c-0.038-0.19-0.052-0.453-0.047-0.796c0.005-1.041,0.149-2.528,0.281-3.642c0,0,0.217-2.024,0.228-2.164
						c0.009-0.064,0.004-0.263-0.001-0.606c-0.018-1.049,0.009-1.813,0.103-2.357c0.088-0.39,0.192-0.78,0.525-0.95
						c0.021-0.014,0.357-0.08,0.381-0.079l1.123,0.081c0.602,0.068,1.205,0.128,1.205,0.128c0.43,0.03,0.619,0.236,0.625,0.498
						c-0.001,0.043-0.101,0.333-0.125,0.362c-0.113,0.096-0.221,0.146-0.354,0.161c-0.091-0.006-2.158-0.184-2.158-0.184
						c-0.302,0.667-0.316,1.322-0.294,2.208c0.002,0.44-0.002,0.714-0.011,0.799l-0.042,0.578c0.234,0.164,0.362,0.203,0.473,0.212
						c0.029,0.007,0.087,0.001,0.087,0.001c0.314,0.027,0.533,0.268,0.514,0.532c-0.021,0.293-0.259,0.509-0.531,0.493
						c-0.12,0.002-0.318-0.009-0.508-0.024c-0.367,1.708-0.492,3.014-0.492,3.949c0.001,0.262-0.002,0.481,0.034,0.622l0.46,0.124
						c0.203,0.016,0.417,0.014,0.649,0.017l0.394,0.167l0.003-0.169c0.197-0.006,0.35-0.003,0.449,0.006
						c0.28,0.023,0.492,0.269,0.472,0.544c-0.02,0.278-0.266,0.492-0.547,0.472l-0.498-0.172l-0.002,0.169l-0.656-0.013
						l-0.309-0.181L50.835,64.71z"/>
					<path fill="#7AC9CD" d="M56.947,65.148c-1.348-0.239-2.195-1.651-2.067-3.446c0.02-0.279,0.271-0.492,0.548-0.47
						c0.28,0.021,0.491,0.265,0.467,0.548c-0.111,1.468,0.564,2.249,1.225,2.361h0.02c0.331,0.025,0.555-0.057,0.73-0.228
						c0.285-0.271,0.436-0.765,0.42-1.383c-0.025-0.618-0.196-1.124-0.549-1.641c-0.381-0.546-0.547-0.747-1.113-1.337
						c-0.596-0.615-0.785-0.829-1.133-1.423c-0.381-0.611-0.487-1.273-0.345-2.025c0.286-1.327,1.444-2.259,2.702-2.166
						c0.631,0.054,1.132,0.328,1.439,0.78c0.389,0.573,0.457,1.377,0.2,2.274c-0.093,0.24-0.294,0.372-0.529,0.357
						c-0.362-0.086-0.521-0.334-0.47-0.62c0.189-0.636,0.18-1.132-0.039-1.438c-0.134-0.202-0.355-0.315-0.636-0.335l0,0
						c-0.685-0.046-1.456,0.408-1.654,1.37c-0.189,0.87,0.153,1.419,1.208,2.535c0.619,0.675,0.791,0.864,1.225,1.471
						c0.458,0.632,0.68,1.329,0.714,2.174c0.037,0.903-0.226,1.674-0.728,2.157c-0.386,0.37-0.892,0.556-1.429,0.514L56.947,65.148z
						"/>
					<path fill="#7AC9CD" d="M69.479,65.683c-0.746-0.054-1.336-0.438-1.628-1.055c-0.057-0.155-0.107-0.357-0.143-0.508
						c-0.062-0.222-0.075-0.514-0.065-0.662c-0.011-0.102-0.002-0.427,0.003-0.512l0.035-0.473c0.02-0.278,0.263-0.492,0.543-0.47
						c0.277,0.021,0.492,0.267,0.472,0.547c-0.079,1.034,0.014,1.455,0.094,1.646c0.125,0.287,0.398,0.454,0.762,0.485
						c0.795-0.082,1.221-0.386,1.35-0.743c0.104-0.337,0.148-0.717,0.125-0.984c-0.043-0.246-0.17-0.574-0.324-0.826
						c-0.072-0.115-0.174-0.238-0.297-0.375l-0.344-0.401l-0.39-0.373c-0.692-0.642-0.84-0.794-1.218-1.291
						c-0.41-0.5-0.57-0.871-0.653-1.455c-0.037-0.327-0.024-0.63,0.046-0.915c0.358-1.479,1.483-2.446,2.737-2.349
						c0.696,0.094,1.164,0.382,1.479,0.842c0.418,0.603,0.521,1.444,0.311,2.39c-0.04,0.235-0.277,0.414-0.555,0.397
						c-0.053-0.005-0.328-0.166-0.356-0.208c-0.089-0.119-0.12-0.264-0.094-0.412c0.149-0.657,0.104-1.199-0.144-1.562
						c-0.15-0.235-0.389-0.383-0.664-0.432h-0.004c-0.67-0.049-1.443,0.424-1.699,1.563c-0.121,0.527-0.049,0.896,0.261,1.315
						c0.353,0.495,0.521,0.67,1.139,1.255l0.548,0.516c0.223,0.239,0.572,0.667,0.768,0.957c0.182,0.308,0.412,0.76,0.467,1.196
						c0.038,0.335,0.035,0.864-0.178,1.483c-0.248,0.74-0.983,1.294-1.873,1.404C69.812,65.691,69.645,65.697,69.479,65.683z"/>
					<path fill="#7AC9CD" d="M75.396,66.004c-0.279-0.021-0.486-0.231-0.492-0.482c-0.088-1.164-0.01-2.588,0.257-4.897
						c0.108-0.993,0.327-3.338,0.331-3.358c-0.104-0.171-0.067-0.526-0.053-0.746c-0.336-0.146-0.582-0.203-0.785-0.217
						c-0.092-0.006-0.266,0.004-0.266,0.004c-0.322-0.025-0.518-0.244-0.521-0.523c0.001-0.041,0.106-0.316,0.137-0.35
						c0.093-0.091,0.222-0.149,0.361-0.152c0.269,0,0.6,0.012,0.976,0.044c0,0,1.864,0.176,2.198,0.197l0.569,0.03
						c0.297,0.025,0.514,0.262,0.496,0.532c-0.024,0.292-0.258,0.513-0.531,0.491l-0.594-0.033l-0.82-0.075
						c-0.152,0.527-0.161,0.925-0.219,1.441c0,0-0.17,1.85-0.277,2.851c-0.254,2.229-0.33,3.588-0.242,4.688
						c0.003,0.051-0.115,0.372-0.15,0.409c-0.092,0.087-0.207,0.146-0.336,0.148L75.396,66.004z"/>
					<path fill="#7AC9CD" d="M80.309,66.499c-0.266-0.022-0.473-0.244-0.48-0.499c-0.006-0.553,0.051-1.344,0.098-1.774l0.219-1.736
						c0.28-2.402,0.408-4.496,0.383-6.223c-0.09-0.369,0.082-0.619,0.359-0.679c0.363-0.067,0.702-0.08,1.028-0.059
						c0.944,0.066,1.698,0.511,2.146,1.244c0.606,0.926,0.428,2.239-0.449,3.191c-0.437,0.478-0.948,0.854-1.51,1.113
						c0.105,0.648,0.321,1.197,0.559,1.853c0.055,0.127,0.182,0.539,0.395,1.228c0.266,0.904,0.434,1.367,0.598,1.712
						c0.017,0.04,0.058,0.327,0.039,0.373c-0.033,0.124-0.131,0.231-0.268,0.297c-0.104,0.015-0.189,0.014-0.26,0.009
						c-0.262-0.02-0.362-0.114-0.418-0.244c-0.197-0.391-0.395-0.901-0.587-1.546c-0.353-1.211-0.585-1.921-0.862-2.567
						c-0.02-0.056-0.043-0.116-0.066-0.174c-0.01,0.054-0.16,1.415-0.16,1.415l-0.119,0.924c-0.047,0.39-0.098,1.1-0.084,1.616
						c-0.001,0.045-0.112,0.335-0.143,0.37c-0.096,0.096-0.226,0.154-0.355,0.161C80.35,66.499,80.312,66.499,80.309,66.499z
						 M81.707,56.524c-0.176,1.127-0.225,2.236-0.316,3.532l-0.119,0.354c0.166-0.171,0.232-0.182,0.34-0.23
						c0.928-0.386,1.675-1.208,1.779-1.969c0.043-0.38-0.022-0.674-0.189-0.895c-0.271-0.46-0.775-0.742-1.383-0.789l0.016-0.169
						L81.707,56.524z"/>
					<path fill="#7AC9CD" d="M87.188,67.364c-0.441-0.031-0.779-0.108-1.018-0.253c-0.296-0.137-0.37-0.45-0.398-0.712
						c-0.039-0.192-0.061-0.449-0.051-0.795c0.004-1.045,0.148-2.533,0.283-3.653c0,0,0.219-2.023,0.229-2.157
						c0.006-0.06,0.004-0.262,0-0.609c-0.02-1.045,0.004-1.807,0.099-2.355c0.087-0.392,0.188-0.78,0.524-0.949
						c0.021-0.012,0.355-0.08,0.381-0.083l1.127,0.083c0.599,0.072,1.199,0.13,1.199,0.13c0.436,0.03,0.617,0.233,0.627,0.5
						c0,0.042-0.101,0.33-0.125,0.362c-0.108,0.096-0.226,0.146-0.357,0.16c-0.082-0.001-2.152-0.186-2.152-0.186
						c-0.304,0.669-0.316,1.32-0.295,2.208c0.002,0.44-0.002,0.719-0.011,0.804l-0.045,0.575c0.239,0.163,0.364,0.208,0.476,0.213
						c0.029,0.004,0.092,0.001,0.092,0.001c0.309,0.02,0.533,0.261,0.514,0.531c-0.025,0.287-0.264,0.509-0.531,0.489
						c-0.125,0.006-0.312-0.01-0.509-0.021c-0.365,1.709-0.495,3.015-0.495,3.949c0.001,0.262-0.002,0.483,0.032,0.622l0.462,0.126
						c0.203,0.015,0.418,0.014,0.648,0.013l0.394,0.167l-0.001-0.165c0.203-0.001,0.355-0.003,0.459,0.006
						c0.275,0.02,0.486,0.265,0.467,0.543c-0.02,0.278-0.268,0.492-0.547,0.47l-0.502-0.172l-0.002,0.169l-0.65-0.015l-0.308-0.178
						L87.188,67.364z"/>
					<path fill="#7AC9CD" d="M92.828,67.78c-0.438-0.031-0.77-0.112-1.014-0.26c-0.291-0.134-0.369-0.449-0.397-0.712
						c-0.04-0.187-0.062-0.449-0.047-0.796c0.001-1.042,0.146-2.531,0.282-3.646l0.226-2.164c0.005-0.066,0.004-0.295,0.001-0.702
						c-0.018-0.951,0.003-1.708,0.098-2.256c0.088-0.394,0.191-0.781,0.523-0.95c0.021-0.012,0.357-0.08,0.357-0.08l1.146,0.083
						c0.598,0.068,1.204,0.126,1.204,0.126c0.431,0.035,0.617,0.237,0.621,0.5c0,0.042-0.091,0.328-0.125,0.362
						c-0.108,0.095-0.226,0.147-0.356,0.16c-0.082-0.001-2.154-0.186-2.154-0.186c-0.303,0.667-0.318,1.319-0.289,2.208
						c-0.002,0.439-0.002,0.719-0.008,0.803l-0.049,0.578c0.241,0.161,0.373,0.206,0.473,0.211c0.029,0.005,0.09,0.001,0.09,0.001
						c0.306,0.021,0.529,0.265,0.51,0.532c-0.023,0.287-0.263,0.509-0.531,0.486c-0.119,0.013-0.312-0.008-0.508-0.02
						c-0.361,1.713-0.494,3.013-0.494,3.949c-0.005,0.266-0.003,0.487,0.031,0.618l0.465,0.135c0.199,0.011,0.414,0.01,0.645,0.009
						l0.398,0.17L93.92,66.77c0.203-0.001,0.355,0.001,0.459,0.006c0.275,0.02,0.488,0.267,0.467,0.547
						c-0.02,0.274-0.266,0.49-0.543,0.47l-0.506-0.176l-0.002,0.169l-0.648-0.009L92.84,67.59L92.828,67.78z"/>
					<path fill="#7AC9CD" d="M98.609,67.697c-0.273-0.021-0.485-0.225-0.494-0.479c-0.082-1.168-0.01-2.592,0.262-4.904
						c0.1-0.992,0.316-3.333,0.325-3.35c-0.104-0.175-0.071-0.53-0.052-0.749c-0.336-0.145-0.584-0.198-0.785-0.213
						c-0.092-0.012-0.26-0.003-0.26-0.003c-0.328-0.023-0.521-0.236-0.523-0.52c0.001-0.043,0.104-0.312,0.129-0.346
						c0.094-0.096,0.229-0.153,0.365-0.155c0.271-0.001,0.6,0.012,0.979,0.042c0,0,1.86,0.174,2.198,0.2l0.565,0.032
						c0.299,0.022,0.519,0.257,0.498,0.527c-0.021,0.293-0.256,0.513-0.527,0.493l-0.6-0.033l-0.816-0.075
						c-0.155,0.522-0.17,0.929-0.223,1.438c0,0-0.164,1.847-0.272,2.853c-0.262,2.221-0.33,3.585-0.241,4.688
						c-0.004,0.253-0.252,0.554-0.486,0.551L98.609,67.697z"/>
					<path fill="#7AC9CD" d="M30.45,76.475c-0.756-0.059-1.341-0.441-1.639-1.056c-0.052-0.158-0.094-0.356-0.142-0.514
						c-0.063-0.216-0.076-0.511-0.062-0.658c-0.011-0.103-0.007-0.427-0.002-0.515l0.036-0.471c0.024-0.277,0.271-0.494,0.543-0.474
						c0.284,0.021,0.497,0.269,0.477,0.548c-0.08,1.04,0.013,1.46,0.102,1.652c0.115,0.279,0.387,0.453,0.754,0.479
						c0.793-0.078,1.224-0.38,1.353-0.738c0.096-0.342,0.146-0.719,0.12-0.989c-0.046-0.24-0.17-0.568-0.327-0.82
						c-0.069-0.114-0.175-0.239-0.288-0.376l-0.346-0.407l-0.392-0.368c-0.694-0.645-0.837-0.795-1.222-1.291
						c-0.406-0.5-0.566-0.871-0.642-1.457c-0.045-0.324-0.028-0.629,0.046-0.917c0.35-1.476,1.475-2.442,2.729-2.349
						c0.697,0.098,1.164,0.383,1.48,0.84c0.412,0.604,0.526,1.451,0.307,2.391c-0.041,0.24-0.274,0.416-0.555,0.398
						c-0.051-0.005-0.324-0.166-0.357-0.205c-0.085-0.119-0.111-0.262-0.085-0.414c0.149-0.66,0.099-1.197-0.144-1.563
						c-0.153-0.229-0.392-0.382-0.672-0.429l0,0c-0.669-0.05-1.439,0.424-1.699,1.563c-0.118,0.523-0.049,0.898,0.255,1.314
						c0.358,0.498,0.521,0.668,1.148,1.256l0.547,0.516c0.22,0.236,0.569,0.665,0.759,0.958c0.188,0.308,0.416,0.758,0.472,1.195
						c0.036,0.335,0.033,0.864-0.173,1.481c-0.25,0.738-0.984,1.29-1.878,1.404C30.785,76.479,30.614,76.484,30.45,76.475z"/>
					<path fill="#7AC9CD" d="M35.262,76.843c-0.26-0.016-0.468-0.231-0.48-0.493c-0.01-0.555,0.051-1.345,0.102-1.775l0.215-1.734
						c0.281-2.467,0.407-4.502,0.385-6.223c-0.071-0.222-0.044-0.356,0.027-0.456c0.025-0.043,0.283-0.217,0.334-0.225
						c0.359-0.063,0.699-0.079,1.024-0.058c0.946,0.072,1.699,0.51,2.144,1.243c0.604,0.925,0.429,2.238-0.447,3.191
						c-0.437,0.479-0.945,0.852-1.511,1.113c0.099,0.648,0.323,1.198,0.55,1.856c0.06,0.125,0.186,0.536,0.4,1.229
						c0.264,0.9,0.432,1.361,0.597,1.712c0.016,0.043,0.057,0.327,0.04,0.367c-0.035,0.129-0.132,0.229-0.27,0.305
						c-0.104,0.006-0.193,0.004-0.264,0.004c-0.251-0.021-0.358-0.11-0.414-0.243c-0.193-0.392-0.389-0.906-0.587-1.548
						c-0.355-1.207-0.585-1.92-0.866-2.566c-0.016-0.057-0.043-0.114-0.071-0.174c-0.001,0.055-0.244,2.137-0.276,2.334
						c-0.046,0.394-0.097,1.104-0.083,1.624c0.001,0.245-0.259,0.524-0.502,0.522h-0.046L35.262,76.843L35.262,76.843z
						 M36.656,66.879c-0.176,1.121-0.225,2.23-0.308,3.532l-0.116,0.337c0.159-0.155,0.233-0.17,0.333-0.221
						c0.927-0.385,1.669-1.213,1.778-1.969c0.043-0.379-0.02-0.672-0.186-0.896c-0.275-0.456-0.782-0.742-1.385-0.788l0.014-0.165
						L36.656,66.879z"/>
					<path fill="#7AC9CD" d="M43.867,77.759c-0.281-0.02-0.492-0.269-0.473-0.543c0.117-1.61,0.168-3.227,0.157-4.841
						c-0.612-0.268-1.028-0.312-1.45-0.359l-0.327,0.989l-0.29,1.896c-0.184,1.274-0.299,2.007-0.352,2.195
						c-0.041,0.237-0.274,0.412-0.555,0.389c-0.285-0.041-0.486-0.375-0.446-0.619c0.026-0.146,0.145-0.855,0.339-2.119
						c0.416-2.735,0.738-4.79,1.146-6.299c0.242-0.834,0.526-1.643,1.046-1.851c0.204-0.088,0.407-0.123,0.593-0.112
						c0.495,0.04,0.886,0.464,1.041,1.168c0.062,0.365,0.101,0.786,0.116,1.25l0.023,0.356c0.182,2.716,0.175,5.412-0.019,8.022
						C44.398,77.572,44.146,77.78,43.867,77.759z M43.146,67.504c-0.049,0.032-0.136,0.116-0.214,0.284
						c-0.098,0.229-0.226,0.535-0.335,0.942c-0.139,0.545-0.293,1.231-0.457,2.08c0.463,0.223,0.794,0.26,1.14,0.301
						c0.203-0.676,0.174-1.221,0.132-1.77c0.005-0.109-0.004-0.642-0.032-0.994c-0.041-0.292-0.1-0.562-0.172-0.729L43.146,67.504z"
						/>
					<path fill="#7AC9CD" d="M47.052,78.048c-0.276-0.021-0.491-0.269-0.471-0.547c0.019-0.285,0.084-2.259,0.084-2.259
						c0.017-0.96,0.072-1.727,0.126-2.303c0.272-2.455,0.438-4.313,0.484-5.604c0.025-0.291,0.26-0.518,0.527-0.495
						c0.294,0.025,0.514,0.259,0.493,0.529c-0.052,1.375-0.21,3.277-0.491,5.689c-0.056,0.551-0.107,1.278-0.124,2.207
						c-0.036,1.183-0.06,1.952-0.085,2.308C47.575,77.855,47.333,78.068,47.052,78.048z"/>
					<path fill="#7AC9CD" d="M49.986,77.97c-0.21-0.042-0.356-0.174-0.428-0.375c-0.035-1.493,0.037-3.163,0.191-5.081
						c0.067-0.701,0.355-3.643,0.446-4.881c0.021-0.313,0.26-0.513,0.544-0.493c0.883,0.124,1.364,0.583,1.85,1.275
						c0.979,1.362,1.202,3.062,0.655,5.035c-0.435,1.558-1.356,3.146-2.542,4.36c-0.429,0.181-0.672,0.166-0.701,0.16
						C50.008,77.971,49.994,77.971,49.986,77.97z M51.207,68.409c0,0-0.047,0.041-0.052,0.138c-0.097,1.044-0.382,4.057-0.382,4.057
						c-0.117,1.349-0.187,2.555-0.209,3.572c1.754-2.031,2.7-5.074,1.212-7.162c-0.186-0.248-0.333-0.433-0.487-0.55L51.207,68.409z
						"/>
					<path fill="#7AC9CD" d="M64.659,79.275c-0.281-0.02-0.493-0.265-0.472-0.543c0.117-1.609,0.167-3.227,0.157-4.842
						c-0.613-0.267-1.025-0.31-1.447-0.357l-0.331,0.988l-0.289,1.897c-0.183,1.274-0.301,2.005-0.353,2.195
						c-0.036,0.237-0.273,0.416-0.555,0.395c-0.284-0.047-0.491-0.38-0.446-0.622c0.027-0.15,0.145-0.859,0.339-2.123
						c0.417-2.734,0.738-4.791,1.151-6.299c0.238-0.835,0.522-1.645,1.042-1.847c0.199-0.086,0.405-0.127,0.587-0.116
						c0.5,0.04,0.887,0.464,1.047,1.169c0.061,0.364,0.1,0.784,0.111,1.251l0.031,0.36c0.178,2.712,0.167,5.407-0.022,8.018
						C65.186,79.09,64.943,79.297,64.659,79.275z M63.939,69.021c-0.055,0.033-0.135,0.117-0.215,0.279
						c-0.099,0.232-0.222,0.538-0.336,0.948c-0.143,0.543-0.289,1.231-0.457,2.081c0.464,0.225,0.797,0.263,1.14,0.298
						c0.204-0.675,0.174-1.221,0.128-1.767c0.009-0.112-0.004-0.641-0.023-0.992c-0.047-0.296-0.109-0.567-0.172-0.729
						L63.939,69.021z"/>
					<path fill="#7AC9CD" d="M68.805,79.489c-0.354-0.025-0.672-0.222-0.927-0.562c-0.256-0.359-0.46-0.904-0.626-1.686
						c-0.363-1.819-0.71-5.84,0.575-7.965c0.337-0.545,0.972-0.985,1.539-1.066c0.013,0,0.354-0.016,0.354-0.016
						c0.727,0.056,1.252,0.566,1.491,1.454c0.162,0.598,0.192,1.3,0.087,2.437c-0.098,2.978-0.297,4.578-0.709,5.694
						c-0.251,0.763-0.611,1.277-1.068,1.539C69.271,79.448,69.029,79.505,68.805,79.489z M69.505,69.234
						c-0.271,0.029-0.64,0.293-0.801,0.57c-1.171,1.914-0.717,5.969-0.467,7.235c0.133,0.61,0.285,1.037,0.453,1.289l0.176,0.302
						l0.158-0.213c0.442-0.248,0.816-1.331,1.024-2.965c0.103-0.807,0.3-4.061,0.292-4.238c0.02-0.482-0.02-0.916-0.122-1.301
						c-0.161-0.596-0.399-0.68-0.553-0.689l0.011-0.168L69.505,69.234z"/>
					<path fill="#7AC9CD" d="M72.973,79.786c-0.281-0.021-0.488-0.222-0.49-0.488c-0.041-0.581-0.026-1.265,0.033-2.055
						c0.062-0.782,0.135-1.657,0.258-2.599c0.101-0.93,0.166-1.602,0.197-2.013c0.021-0.258,0.066-0.641,0.135-1.178l0.113-1.101
						l0.057-0.785c-0.027-0.312-0.031-0.6,0.293-0.76l0.429-0.002c0.229,0.082,0.369,0.267,0.418,0.562
						c0,0.008,0.073,0.39,0.073,0.39l-0.035,0.56l0.165-0.055c0.092,0.307,0.142,0.566,0.18,0.756l0.065,0.401
						c0.152,0.955,0.552,3.481,0.859,4.903c0.065,0.275,0.221,0.658,0.254,0.718c-0.244-0.608-0.209-1.368-0.16-2.474
						c0.09-2.065,0.205-3.657,0.531-5.207c0.049-0.254,0.271-0.424,0.547-0.404c0.334,0.057,0.51,0.311,0.455,0.62
						c-0.312,1.481-0.434,3.019-0.515,5.019c-0.043,1.082-0.083,1.86-0.122,2.34l-0.097,1.338l-0.093,0.742
						c-0.117,0.414-0.203,0.586-0.447,0.672c-0.092,0.008-0.161,0.006-0.229,0c-0.182-0.015-0.26-0.066-0.312-0.101
						c-0.021-0.024-0.165-0.29-0.164-0.321l-0.545-2.211c-0.2-0.746-0.386-1.722-0.572-2.918c0,0-0.255-1.582-0.263-1.611
						c0,0-0.118,1.375-0.229,2.375c-0.119,1.013-0.199,1.777-0.23,2.261c-0.041,0.505-0.055,1.198-0.037,2.083
						c0.009,0.302-0.197,0.535-0.482,0.545h-0.041V79.786z"/>
					<path fill="#7AC9CD" d="M80.396,80.447c-0.875-0.064-1.53-1.122-1.756-2.825c-0.266-1.974-0.146-4.531,0.32-6.224
						c0.273-1.082,0.65-1.742,1.155-2.02c0.323-0.177,0.636-0.254,0.948-0.232c0.404,0.027,0.773,0.23,1.069,0.59
						c0.464,0.584,0.558,1.324,0.237,1.992c-0.102,0.182-0.293,0.289-0.487,0.272c-0.315-0.118-0.409-0.235-0.448-0.36
						c-0.021-0.049,0.021-0.348,0.039-0.387c0.127-0.259,0.072-0.617-0.143-0.882c-0.117-0.136-0.245-0.21-0.373-0.226
						c-0.1-0.004-0.215,0.026-0.339,0.094c-0.446,0.289-0.964,1.852-1.075,4.283c-0.089,2.207,0.163,4.156,0.604,4.636
						c0.143,0.149,0.266,0.241,0.365,0.247c0.159,0.01,0.336-0.217,0.532-0.66c0.349-0.792,0.419-1.771,0.323-1.964
						c-0.018,0.012-0.223-0.003-0.326-0.013l-0.062-0.002c-0.508-0.039-0.707-0.271-0.682-0.545c0.02-0.279,0.264-0.494,0.547-0.471
						c0.178,0.002,0.301,0.008,0.393,0.018c0.095,0.006,0.164,0.02,0.214,0.032c0.999,0.142,1.045,0.966,0.942,1.833
						c-0.143,1.051-0.59,2.311-1.385,2.697C80.797,80.421,80.589,80.461,80.396,80.447z"/>
					<path fill="#7AC9CD" d="M84.809,80.611c-0.271-0.021-0.486-0.27-0.467-0.547c0.057-0.727,0.11-1.741,0.154-3.082l0.053-1.287
						c0.062-1.487,0.075-1.824,0.236-3.367c0.1-0.908,0.148-1.584,0.163-2.023c0.022-0.308,0.261-0.518,0.549-0.498
						c0.284,0.022,0.491,0.258,0.472,0.531c-0.019,0.487-0.07,1.188-0.173,2.092l-0.132,1.5l1.748,0.299l0.27-0.937
						c0,0,0.147-1.485,0.157-1.634c0.024-0.313,0.019-0.735-0.069-0.99c-0.082-0.303,0.111-0.566,0.359-0.645
						c0,0,0.076,0.002,0.1,0.002c0.297,0.026,0.461,0.16,0.529,0.338c0.105,0.412,0.123,0.979,0.098,1.373
						c-0.017,0.189-0.506,4.988-0.506,4.988c-0.135,1.66-0.149,2.789-0.051,3.445c0.049,0.273-0.115,0.527-0.396,0.583
						c-0.021,0.004-0.043,0.003-0.062,0c-0.325-0.024-0.493-0.185-0.53-0.399c-0.137-0.709-0.129-1.895,0.021-3.729
						c0.045-0.324,0.092-0.73,0.119-1.186l-1.701-0.308l-0.188,0.798l-0.037,0.641c-0.049,1.416-0.099,2.537-0.178,3.563
						C85.336,80.425,85.09,80.632,84.809,80.611z"/>
					<path fill="#7AC9CD" d="M93.438,81.381c-0.272-0.021-0.483-0.267-0.463-0.545c0.111-1.609,0.159-3.225,0.146-4.842
						c-0.607-0.264-1.028-0.309-1.448-0.358l-0.327,0.995l-0.285,1.891c-0.18,1.276-0.301,2.006-0.354,2.198
						c-0.036,0.233-0.279,0.412-0.55,0.392c-0.05-0.004-0.329-0.16-0.356-0.202c-0.09-0.117-0.121-0.265-0.095-0.417
						c0.03-0.152,0.147-0.861,0.344-2.123c0.412-2.736,0.737-4.793,1.147-6.301c0.232-0.834,0.521-1.64,1.039-1.848
						c0.207-0.086,0.404-0.125,0.59-0.113c0.503,0.039,0.885,0.463,1.041,1.172c0.062,0.356,0.105,0.781,0.119,1.246l0.025,0.359
						c0.178,2.698,0.17,5.393-0.027,8.02C93.96,81.188,93.714,81.402,93.438,81.381z M92.713,71.12
						c-0.055,0.035-0.134,0.116-0.215,0.28c-0.098,0.232-0.227,0.539-0.33,0.947c-0.145,0.543-0.295,1.231-0.463,2.084
						c0.469,0.221,0.799,0.262,1.145,0.295l0.398-0.136l-0.184-0.221c-0.019-0.465-0.053-0.945-0.088-1.41
						c0.01-0.11-0.004-0.644-0.027-0.99c-0.041-0.298-0.104-0.569-0.172-0.73L92.713,71.12z"/>
					<path fill="#7AC9CD" d="M96.619,81.665c-0.277-0.021-0.488-0.269-0.469-0.547c0.021-0.283,0.08-2.255,0.08-2.255
						c0.018-0.963,0.074-1.725,0.131-2.309c0.27-2.453,0.435-4.312,0.479-5.598c0.021-0.297,0.261-0.518,0.531-0.5
						c0.294,0.023,0.506,0.261,0.487,0.531c-0.051,1.373-0.205,3.279-0.488,5.686c-0.059,0.555-0.104,1.281-0.125,2.21
						c-0.033,1.181-0.057,1.951-0.081,2.306C97.143,81.477,96.898,81.686,96.619,81.665z"/>
					<path fill="#7AC9CD" d="M101.043,82.003c-1.35-0.233-2.197-1.649-2.068-3.444c0.021-0.279,0.268-0.492,0.551-0.473
						c0.272,0.023,0.484,0.27,0.465,0.547c-0.106,1.473,0.564,2.251,1.224,2.361c0.015,0,0.021,0.004,0.021,0.004
						c0.336,0.025,0.555-0.061,0.73-0.232c0.284-0.271,0.432-0.765,0.415-1.375c-0.021-0.621-0.188-1.125-0.543-1.642
						c-0.382-0.55-0.548-0.753-1.118-1.339c-0.591-0.613-0.777-0.831-1.126-1.424c-0.38-0.615-0.489-1.271-0.344-2.022
						c0.278-1.329,1.442-2.261,2.698-2.171c0.628,0.055,1.128,0.333,1.435,0.786c0.394,0.571,0.461,1.375,0.201,2.272
						c-0.086,0.24-0.291,0.375-0.528,0.358c-0.359-0.089-0.518-0.337-0.468-0.62c0.194-0.638,0.181-1.131-0.039-1.439
						c-0.129-0.2-0.354-0.312-0.636-0.334l0,0c-0.686-0.056-1.455,0.406-1.657,1.371c-0.19,0.862,0.153,1.418,1.218,2.531
						c0.614,0.674,0.78,0.861,1.219,1.467c0.459,0.639,0.685,1.332,0.719,2.176c0.033,0.902-0.227,1.673-0.729,2.162
						c-0.381,0.367-0.892,0.549-1.428,0.513C101.244,82.027,101.051,82.003,101.043,82.003z"/>
				</g>
			</g>
		</g>
	</g>
</g>
<g id="rtfm-desktop">
</g>
<g id="rtfm-tablette">
</g>
</svg>
