<?xml version="1.0" encoding="utf-8"?>
<!-- Generator: Adobe Illustrator 16.0.0, SVG Export Plug-In . SVG Version: 6.00 Build 0)  -->
<!DOCTYPE svg PUBLIC "-//W3C//DTD SVG 1.1//EN" "http://www.w3.org/Graphics/SVG/1.1/DTD/svg11.dtd">
<svg version="1.1" id="Calque_1" xmlns="http://www.w3.org/2000/svg" xmlns:xlink="http://www.w3.org/1999/xlink" x="0px" y="0px"
	 width="520px" height="422.791px" viewBox="0 0 520 422.791" enable-background="new 0 0 520 422.791" xml:space="preserve">
<g>
	<defs>
		<rect id="SVGID_1_" y="-0.209" width="520" height="423"/>
	</defs>
	<clipPath id="SVGID_2_">
		<use xlink:href="#SVGID_1_"  overflow="visible"/>
	</clipPath>
	<g id="premier_plan" clip-path="url(#SVGID_2_)">
		
			<path opacity="0.5" fill="none" stroke="#0F6B70" stroke-width="2" stroke-linecap="round" stroke-linejoin="round" stroke-miterlimit="10" d="
			M16.104,524.033c12.301-10.905,28.029-17.713,42.776-24.563c14.805-6.88,29.786-13.587,42.936-23.405
			c29.508-22.028,45.4-55.5,60.146-88.239c7.018-15.582,12.945-32.639,22.59-46.834c8.524-12.546,20.006-22.967,32.283-31.759
			c6.067-4.345,12.409-8.447,19.066-11.841"/>
		
			<path opacity="0.5" fill="none" stroke="#0F6B70" stroke-width="2" stroke-linecap="round" stroke-linejoin="round" stroke-miterlimit="10" d="
			M418.031,343.596c-4.585-13.729,3.203-16.833,3.322-22.731s-2.942-11.709-2.942-11.709s14.754,12.74,11.036,23.766
			C425.73,343.948,418.031,343.596,418.031,343.596z"/>
		
			<path opacity="0.5" fill="none" stroke="#0F6B70" stroke-width="2" stroke-linecap="round" stroke-linejoin="round" stroke-miterlimit="10" d="
			M109.006,470.264c0,0-6.368-5.175-5.008-20.237c1.359-15.062,5.008-26.61,5.008-26.61s9.787,22.956,7.9,32.133
			S107.635,461.882,109.006,470.264z"/>
		
			<path opacity="0.5" fill="none" stroke="#0F6B70" stroke-width="2" stroke-linecap="round" stroke-linejoin="round" stroke-miterlimit="10" d="
			M158.654,395.103c0,0-5.095-6.833-2.083-31.435c3.013-24.603,6.025-43.18,6.025-43.18s6.025,16.066,4.519,32.134
			C165.608,368.688,157.222,387.375,158.654,395.103z"/>
		
			<path opacity="0.5" fill="none" stroke="#0F6B70" stroke-width="2" stroke-linecap="round" stroke-linejoin="round" stroke-miterlimit="10" d="
			M6.19,207.323c0,0-3.694-2.802-1.509-12.888c2.184-10.087,4.368-17.704,4.368-17.704s4.368,6.588,3.276,13.175
			S5.152,204.155,6.19,207.323z"/>
		
			<path opacity="0.5" fill="none" stroke="#0F6B70" stroke-width="2" stroke-linecap="round" stroke-linejoin="round" stroke-miterlimit="10" d="
			M334.532,220.423c0,0-5.581,2.925-16.784-5.575c-11.205-8.5-19.358-15.574-19.358-15.574s10.643-1.57,18.149,3.568
			C324.049,207.98,330.021,219.872,334.532,220.423z"/>
		
			<path opacity="0.5" fill="none" stroke="#0F6B70" stroke-width="2" stroke-linecap="round" stroke-linejoin="round" stroke-miterlimit="10" d="
			M444.989,103.939c0,0-5.58,2.925-16.783-5.574c-11.205-8.501-19.357-15.575-19.357-15.575s10.643-1.57,18.149,3.569
			C434.508,91.497,440.479,103.389,444.989,103.939z"/>
		
			<path opacity="0.5" fill="none" stroke="#0F6B70" stroke-width="2" stroke-linecap="round" stroke-linejoin="round" stroke-miterlimit="10" d="
			M149.44,414.378c0,0,15.666-15.957,28.72-19.275c13.054-3.317,17.573-9.846,17.573-9.846S191.013,409.357,149.44,414.378z"/>
		
			<path opacity="0.5" fill="none" stroke="#0F6B70" stroke-width="2" stroke-linecap="round" stroke-linejoin="round" stroke-miterlimit="10" d="
			M34.626,179.466c0,0,0.669-13.013,5.005-18.96c4.337-5.946,3.801-10.646,3.801-10.646S50.539,163.253,34.626,179.466z"/>
		
			<path opacity="0.5" fill="none" stroke="#0F6B70" stroke-width="2" stroke-linecap="round" stroke-linejoin="round" stroke-miterlimit="10" d="
			M204.404,319.061c0,0,3.379-29.199,17.438-36.73c14.059-7.531,26.108-12.05,26.108-12.05s-8.465,20.171-22.858,27.112
			C216.765,301.409,204.404,319.061,204.404,319.061z"/>
		
			<path opacity="0.5" fill="none" stroke="#0F6B70" stroke-width="2" stroke-linecap="round" stroke-linejoin="round" stroke-miterlimit="10" d="
			M190.601,333.029c0,0,17.183-12.039,30.739-12.541s21.589,6.271,21.589,6.271s-16.179,7.764-26.165,6.271
			C206.779,331.534,190.601,333.029,190.601,333.029z"/>
		
			<path opacity="0.5" fill="none" stroke="#0F6B70" stroke-width="2" stroke-linecap="round" stroke-linejoin="round" stroke-miterlimit="10" d="
			M390.487,326.142c0,0-11.266-17.7-11.166-31.266c0.099-13.564,7.22-21.29,7.22-21.29s7.041,16.507,5.104,26.417
			C389.711,309.911,390.487,326.142,390.487,326.142z"/>
		
			<path opacity="0.5" fill="none" stroke="#0F6B70" stroke-width="2" stroke-linecap="round" stroke-linejoin="round" stroke-miterlimit="10" d="
			M332.3,177.395c-1.7,39.434,5.627,83.771,29.018,116.478c22.309,31.196,56.458,50.272,88.331,70.111
			c15.265,9.501,30.742,19.659,43.079,32.892c12.182,13.064,20.737,29.076,28.484,45.032"/>
		
			<path opacity="0.5" fill="none" stroke="#0F6B70" stroke-width="2" stroke-linecap="round" stroke-linejoin="round" stroke-miterlimit="10" d="
			M358.91,202.499c0,0,3.234,30.191-8.033,36.149c-11.268,5.959-9.561,12.265-9.561,12.265S337.823,230.615,358.91,202.499z"/>
		
			<path opacity="0.5" fill="none" stroke="#0F6B70" stroke-width="2" stroke-linecap="round" stroke-linejoin="round" stroke-miterlimit="10" d="
			M83.167,125.674c0,0,3.306,25.499-8.214,30.531c-11.521,5.032-9.777,10.356-9.777,10.356S61.603,149.42,83.167,125.674z"/>
		
			<path opacity="0.5" fill="none" stroke="#0F6B70" stroke-width="2" stroke-linecap="round" stroke-linejoin="round" stroke-miterlimit="10" d="
			M354.275,283.121c-19.465-12.339-29.005-16.43-32.519-32.208c0,0,13.438,2.296,16.259,9.827
			C340.835,268.271,354.275,283.121,354.275,283.121z"/>
		
			<path opacity="0.5" fill="none" stroke="#0F6B70" stroke-width="2" stroke-linecap="round" stroke-linejoin="round" stroke-miterlimit="10" d="
			M363.41,297.393c0,0,16.588-29.623,12.069-42.677c0,0-2.511,4.519-8.536,12.301c-6.024,7.782-3.533,32.385-3.533,32.385"/>
		
			<path opacity="0.5" fill="none" stroke="#0F6B70" stroke-width="2" stroke-linecap="round" stroke-linejoin="round" stroke-miterlimit="10" d="
			M398.288,330.575c0,0-16.533-7.576-28.708-8.078c-12.176-0.502-19.36-2.035-19.36-2.035s19.756,20.281,35.809,16.596
			C402.08,333.371,398.288,330.575,398.288,330.575z"/>
		
			<path opacity="0.5" fill="none" stroke="#0F6B70" stroke-width="2" stroke-linecap="round" stroke-linejoin="round" stroke-miterlimit="10" d="
			M64.447,191.361c0,0-11.54-5.593-20.038-5.964c-8.499-0.37-13.513-1.502-13.513-1.502s13.789,14.972,24.993,12.25
			C67.094,193.424,64.447,191.361,64.447,191.361z"/>
		
			<path opacity="0.5" fill="none" stroke="#0F6B70" stroke-width="2" stroke-linecap="round" stroke-linejoin="round" stroke-miterlimit="10" d="
			M-0.667,224.535c4.645-14.28,12.794-27.272,24.688-36.597c14.611-11.455,31.308-17.761,48.534-24.05
			c13.497-4.928,25.458-11.41,32.302-24.652"/>
		
			<path opacity="0.5" fill="none" stroke="#0F6B70" stroke-width="2" stroke-linecap="round" stroke-linejoin="round" stroke-miterlimit="10" d="
			M500.125,147.047c0,0,2.02-12.872-1.001-19.584c-3.022-6.71-1.53-11.197-1.53-11.197S487.885,127.912,500.125,147.047z"/>
		
			<path opacity="0.5" fill="none" stroke="#0F6B70" stroke-width="2" stroke-linecap="round" stroke-linejoin="round" stroke-miterlimit="10" d="
			M463.674,84.429c0,0-8.476,24.275,1.766,31.569c10.242,7.291,7.44,12.146,7.44,12.146S479.898,112.1,463.674,84.429z"/>
		
			<path opacity="0.5" fill="none" stroke="#0F6B70" stroke-width="2" stroke-linecap="round" stroke-linejoin="round" stroke-miterlimit="10" d="
			M468.496,152.562c0,0,12.444-3.103,20.836-1.719c8.394,1.383,13.535,1.308,13.535,1.308s-16.572,11.818-26.979,6.852
			C465.482,154.037,468.496,152.562,468.496,152.562z"/>
		
			<path opacity="0.5" fill="none" stroke="#0F6B70" stroke-width="2" stroke-linecap="round" stroke-linejoin="round" stroke-miterlimit="10" d="
			M520.96,178.325c-10.923-30.051-40.043-44.109-66.151-62.185c-7.029-6.025-13.055-14.059-15.148-22.896"/>
		
			<path opacity="0.5" fill="none" stroke="#0F6B70" stroke-width="2" stroke-linecap="round" stroke-linejoin="round" stroke-miterlimit="10" d="
			M41.33,432.038c-11.969,18.739-29.884,58.56-42.413,73.122v5.316c10.862-7.186,27.456-18.88,37.338-29.321
			c15.617-16.503,41.776-28.288,52.708-45.579c10.933-17.291,15.617-40.081,23.426-44.796
			C112.388,390.78,55.385,410.034,41.33,432.038z"/>
		
			<path opacity="0.5" fill="none" stroke="#0F6B70" stroke-width="2" stroke-linecap="round" stroke-linejoin="round" stroke-miterlimit="10" d="
			M35.284,192.18c0,0-17.139,33.933-32.406,68.146c-1.48,3.317-2.793,6.982-3.96,10.893v79.145
			c3.179-9.938,7.819-23.608,13.837-39.142c12.335-31.834,29.151-47.522,34.372-75.463S35.284,192.18,35.284,192.18z"/>
		
			<path opacity="0.5" fill="none" stroke="#0F6B70" stroke-width="2" stroke-linecap="round" stroke-linejoin="round" stroke-miterlimit="10" d="
			M69.71,213.043C43.993,263.191,14.254,352.479-1.083,381.91v39.791c12.955-3.604,37.832-14.737,61.254-48.996
			c33.64-49.204,77.119-167.695,89.27-190.289s28.72-33.138,28.72-33.138S99.835,154.299,69.71,213.043z"/>
		
			<path id="feuille_8_" opacity="0.5" fill="none" stroke="#0F6B70" stroke-width="2" stroke-linecap="round" stroke-linejoin="round" stroke-miterlimit="10" d="
			M125.944,382.245c-21.844-1.457-96.251,7.416-127.027,55.651v5.101c0,0,37.154-21.59,63.262-25.606
			c26.108-4.017,128.031-28.117,151.629-50.711C213.809,366.68,148.538,383.751,125.944,382.245z"/>
		
			<path opacity="0.5" fill="none" stroke="#0F6B70" stroke-width="2" stroke-linecap="round" stroke-linejoin="round" stroke-miterlimit="10" d="
			M521.083,196.236c-3.729-3.076-8.662-6.474-13.392-7.656c-9.374-2.339-15.98,1.287-15.98,1.287s10.119,7.874,17.301,8.275
			c3.677,0.205,8.367,1.205,12.07,2.131L521.083,196.236L521.083,196.236z"/>
		
			<path opacity="0.5" fill="none" stroke="#0F6B70" stroke-width="2" stroke-linecap="round" stroke-linejoin="round" stroke-miterlimit="10" d="
			M521.083,156.577c-0.685,1.605-1.196,3.39-1.276,5.271c-0.117,2.752,0.56,5.854,1.276,8.757V156.577z"/>
		
			<path opacity="0.5" fill="none" stroke="#0F6B70" stroke-width="2" stroke-linecap="round" stroke-linejoin="round" stroke-miterlimit="10" d="
			M135.224,523.832c5.133-13.677,23.988-36.648,42.686-50.208c22.845-16.569,43.932-85.354,43.932-85.354
			s-15.564,39.163-52.321,71.961c-25.844,23.062-32.605,50.495-34.561,63.602H135.224z"/>
		
			<path id="feuille_3_" opacity="0.5" fill="none" stroke="#0F6B70" stroke-width="2" stroke-linecap="round" stroke-linejoin="round" stroke-miterlimit="10" d="
			M210.772,523.832c4.365-9.587,10.853-23.19,19.103-38.66c16.067-30.125,34.644-43.682,43.18-70.794
			c8.535-27.112-6.527-44.686-6.527-44.686s-21.087,31.632-40.351,63.765c-14.25,23.771-21.328,68.634-24.047,90.375H210.772z"/>
		
			<path opacity="0.5" fill="none" stroke="#0F6B70" stroke-width="2" stroke-linecap="round" stroke-linejoin="round" stroke-miterlimit="10" d="
			M189.925,482.333c25.954-11.083,61.789-73.469,61.789-73.469s-23.872,34.729-66.993,58.546
			c-31.309,17.294-43.811,43.646-48.266,55.501C143.754,510.736,168.037,491.68,189.925,482.333z"/>
		
			<path id="feuille_2_" opacity="0.5" fill="none" stroke="#0F6B70" stroke-width="2" stroke-linecap="round" stroke-linejoin="round" stroke-miterlimit="10" d="
			M234.873,523.832c7.998-12.532,34.154-42.836,54.248-58.241c22.351-17.136,13.556-80.334,13.556-80.334
			s-10.543,37.656-31.129,58.242c-16.358,16.356-38.418,62.192-46.792,80.333H234.873z"/>
		
			<path id="feuille_1_" opacity="0.5" fill="none" stroke="#0F6B70" stroke-width="2" stroke-linecap="round" stroke-linejoin="round" stroke-miterlimit="10" d="
			M422.424,468.101c40.861,25.772,74.727,45.582,92.414,55.731h6.245v-25.167c-14.057-20.553-46.949-65.369-77.822-83.283
			c-40.669-23.598-110.961-56.111-126.525-75.502C316.735,339.88,361.923,429.942,422.424,468.101z"/>
		
			<path id="feuille-1" opacity="0.5" fill="none" stroke="#0F6B70" stroke-width="2" stroke-linecap="round" stroke-linejoin="round" stroke-miterlimit="10" d="
			M521.083,255.28c-0.786-2.421-1.618-4.793-2.51-7.092c-23.599-60.752-37.656-98.408-81.338-116.985
			c-43.681-18.577-92.885-29.623-104.936-60.25c0,0,12.553,134.559,63.765,185.269c43.877,43.447,106.911,127.425,125.019,151.541
			V255.28z"/>
		
			<path id="feuille_6_" opacity="0.5" fill="none" stroke="#0F6B70" stroke-width="2" stroke-linecap="round" stroke-linejoin="round" stroke-miterlimit="10" d="
			M521.083,466.356c-8.508-34.414-22.735-90.233-31.129-113.734c-12.552-35.146-63.765-132.55-61.254-172.717
			c0,0-8.033,108.952,6.527,161.169c13.126,47.075,72.766,137.394,85.855,155.461V466.356z"/>
		
			<path id="feuille_5_" opacity="0.5" fill="none" stroke="#0F6B70" stroke-width="2" stroke-linecap="round" stroke-linejoin="round" stroke-miterlimit="10" d="
			M67.2,333.22c-18.66,22.846-50.822,71.325-68.283,88.274v15.058c36.786-24.253,131.901-89.325,150.523-125.603
			c23.197-45.188,43.281-72.803,43.281-72.803S88.79,306.789,67.2,333.22z"/>
		
			<path id="feuille_4_" opacity="0.5" fill="none" stroke="#0F6B70" stroke-width="2" stroke-linecap="round" stroke-linejoin="round" stroke-miterlimit="10" d="
			M18.687,218.558c-7.336,0.276-16.159,5.377-19.975,7.812c0.037,0.371,0.075,0.742,0.112,1.114
			c3.623-0.254,11.327-0.644,16.605,0.16c7.111,1.083,18.634-4.543,18.634-4.543S28.342,218.195,18.687,218.558z"/>
		
			<path id="feuille_9_" opacity="0.5" fill="none" stroke="#0F6B70" stroke-width="2" stroke-linecap="round" stroke-linejoin="round" stroke-miterlimit="10" d="
			M58.163,74.468c-16.964,26.389-43.215,85.503-59.246,98.065v5.221c13.398-8.612,38.481-25.578,52.719-40.525
			c20.083-21.088,53.723-36.146,67.781-58.24c14.058-22.094,20.083-51.214,30.125-57.239
			C149.542,21.749,76.238,46.352,58.163,74.468z"/>
	</g>
</g>
</svg>
