<?xml version="1.0" encoding="utf-8"?>
<!-- Generator: Adobe Illustrator 16.0.0, SVG Export Plug-In . SVG Version: 6.00 Build 0)  -->
<!DOCTYPE svg PUBLIC "-//W3C//DTD SVG 1.1//EN" "http://www.w3.org/Graphics/SVG/1.1/DTD/svg11.dtd">
<svg version="1.1" id="Calque_1" xmlns="http://www.w3.org/2000/svg" xmlns:xlink="http://www.w3.org/1999/xlink" x="0px" y="0px"
	 width="135.5px" height="135.5px" viewBox="0 0 135.5 135.5" enable-background="new 0 0 135.5 135.5" xml:space="preserve">
<g id="chapter_1_mobile">
</g>
<g id="ui">
</g>
<g id="Calque_2">
</g>
<g id="home-tablette">
</g>
<g id="home-desktop">
</g>
<g id="ui-pannel">
	<g>
		<g>
			<circle fill="#FFFFFF" cx="67.75" cy="67.75" r="63.75"/>
			<g opacity="0.8">
				<path fill="#A06964" d="M67.732,4c0.296,0,0.586,0.002,0.883,0.006c35.205,0.478,63.355,29.404,62.879,64.609
					c-0.475,34.908-28.926,62.885-63.727,62.885c-0.296,0-0.586-0.002-0.883-0.006C31.681,131.018,3.528,102.09,4.006,66.885
					C4.48,31.977,32.931,4.003,67.732,4 M67.738,0h-0.006c-17.9,0.001-34.785,6.928-47.544,19.504
					C7.418,32.093,0.25,48.9,0.006,66.831c-0.245,18.095,6.57,35.202,19.192,48.171c12.621,12.969,29.538,20.246,47.632,20.492
					c0.315,0.004,0.623,0.006,0.938,0.006c17.9,0,34.785-6.926,47.544-19.503c12.771-12.589,19.938-29.397,20.183-47.328
					c0.245-18.095-6.57-35.202-19.19-48.171C103.682,7.529,86.766,0.252,68.67,0.006C68.355,0.002,68.051,0,67.738,0L67.738,0z"/>
			</g>
			<circle fill="#FFFFFF" cx="67.75" cy="67.75" r="63.75"/>
		</g>
		<g>
			<defs>
				<circle id="SVGID_1_" cx="67.75" cy="67.75" r="63.75"/>
			</defs>
			<clipPath id="SVGID_2_">
				<use xlink:href="#SVGID_1_"  overflow="visible"/>
			</clipPath>
			<g clip-path="url(#SVGID_2_)">
				<path fill="none" stroke="#593B37" stroke-linecap="round" stroke-linejoin="round" stroke-miterlimit="10" d="M-338.59-548.243
					c0,0,127.803,408.686,392.274,610.603"/>
				<path fill="none" stroke="#593B37" stroke-linecap="round" stroke-linejoin="round" stroke-miterlimit="10" d="M470.487,558.764
					c0,0-314.014-136.855-419.525-496.404"/>
				<path fill="none" stroke="#593B37" stroke-linecap="round" stroke-linejoin="round" stroke-miterlimit="10" d="M498.972,568.702
					c0,0-339.974-167.183-425.55-509.035c0,0-71.397-46.898-173.035-198.41c-101.638-151.512-169.553-409.5-169.553-409.5"/>
				<path fill="none" stroke="#593B37" stroke-linecap="round" stroke-linejoin="round" stroke-miterlimit="10" d="M522.837,580.271
					c0,0-302.857-142.094-430.159-523.812c0,0-68.835-50.114-152.503-190.07c-83.667-139.956-146.307-414.631-146.307-414.631"/>
				<g id="indice_3_">
					<path fill="#855853" d="M120.891,52.224c0.275,1.922-1.06,3.704-2.981,3.979L34.761,68.104
						c-1.922,0.274-3.702-1.062-3.979-2.981l0,0c-0.274-1.926,1.061-3.706,2.982-3.98l83.148-11.901
						C118.834,48.965,120.614,50.301,120.891,52.224L120.891,52.224z"/>
					<polygon fill="#855853" points="71.016,57.163 12.127,409.194 33.157,409.194 79.192,57.163 					"/>
				</g>
			</g>
		</g>
	</g>
</g>
<g id="rtfm-desktop">
</g>
<g id="rtfm-tablette">
</g>
</svg>
