<?xml version="1.0" encoding="utf-8"?>
<!-- Generator: Adobe Illustrator 16.0.0, SVG Export Plug-In . SVG Version: 6.00 Build 0)  -->
<!DOCTYPE svg PUBLIC "-//W3C//DTD SVG 1.1//EN" "http://www.w3.org/Graphics/SVG/1.1/DTD/svg11.dtd">
<svg version="1.1" id="Calque_1" xmlns="http://www.w3.org/2000/svg" xmlns:xlink="http://www.w3.org/1999/xlink" x="0px" y="0px"
	 width="135.5px" height="135.5px" viewBox="0 0 135.5 135.5" enable-background="new 0 0 135.5 135.5" xml:space="preserve">
<g id="chapter_1_mobile">
</g>
<g id="ui">
</g>
<g id="Calque_2">
</g>
<g id="home-tablette">
</g>
<g id="home-desktop">
</g>
<g id="ui-pannel">
	<g>
		<g>
			<circle fill="#FFFFFF" cx="67.75" cy="67.75" r="63.75"/>
			<g opacity="0.8">
				<path fill="#A06964" d="M67.732,4c0.296,0,0.586,0.002,0.883,0.006c35.205,0.478,63.355,29.404,62.879,64.609
					c-0.475,34.908-28.926,62.885-63.727,62.885c-0.296,0-0.586-0.002-0.883-0.006C31.681,131.018,3.528,102.09,4.006,66.885
					C4.48,31.977,32.931,4.003,67.732,4 M67.738,0h-0.006c-17.9,0.001-34.785,6.928-47.544,19.504
					C7.418,32.093,0.25,48.9,0.006,66.831c-0.245,18.095,6.57,35.202,19.192,48.171c12.621,12.969,29.538,20.246,47.632,20.492
					c0.315,0.004,0.623,0.006,0.938,0.006c17.9,0,34.785-6.926,47.544-19.503c12.771-12.589,19.938-29.397,20.183-47.328
					c0.245-18.095-6.57-35.202-19.19-48.171C103.682,7.529,86.766,0.252,68.67,0.006C68.355,0.002,68.051,0,67.738,0L67.738,0z"/>
			</g>
			<circle fill="#FFFFFF" cx="67.75" cy="67.75" r="63.75"/>
		</g>
		<g>
			<defs>
				<circle id="SVGID_1_" cx="67.75" cy="67.75" r="63.75"/>
			</defs>
			<clipPath id="SVGID_2_">
				<use xlink:href="#SVGID_1_"  overflow="visible"/>
			</clipPath>
			<g id="groupe" clip-path="url(#SVGID_2_)">
				<polygon fill="#BB9490" points="146.662,300.379 246.501,344.324 246.501,398.629 -44.766,293.395 37.982,280.799 				"/>
				<path fill="#3B7B58" d="M98.442-2.187c0,0-52.063,259.473-60.46,282.986l-82.748,12.596c0,0,30.685-111.816,40.762-154.995
					S26.226-8.837,26.226-8.837L98.442-2.187z"/>
				<path fill="#61A27E" d="M26.226-8.837c0,0,46.184,0.625,78.934-8.119c0,0,5.878,137.269,15.114,185.602
					c9.237,48.334,26.388,131.733,26.388,131.733l-82.648,22.405c0,0-23.513-104.125-28.551-149.47S26.226-8.837,26.226-8.837z"/>
				<g id="indice_1_" opacity="0.8">
					<path fill="#DEF2F3" d="M39.357,76.858c-0.001-18.055,14.68-34.2,32.787-36.062c18.109-1.863,32.788,11.262,32.789,29.316
						c0,18.055-14.679,34.201-32.787,36.064C54.038,108.039,39.357,94.914,39.357,76.858z"/>
					<path fill="#073638" d="M72.383,43.514c-16.551,1.703-29.968,16.461-29.967,32.962c0,16.502,13.418,28.499,29.968,26.796
						c16.552-1.703,29.969-16.461,29.968-32.962C102.352,53.808,88.935,41.812,72.383,43.514z"/>
					<path fill="#0F6B70" d="M48.384,90.988c0,0-0.33,0.66-0.88,1.707c5.389,7.376,14.498,11.65,24.828,10.588
						c9.721-1,18.359-6.505,23.835-14.22L48.384,90.988z"/>
					<path fill="#12868C" d="M72.331,43.526C61.85,44.605,52.626,50.92,47.27,59.599c0.057,0.713,0.107,1.372,0.15,1.972
						c0.467,6.456,0.822,20.815,1.047,32.361c5.474,6.611,14.127,10.354,23.865,9.352c16.551-1.702,29.968-16.459,29.967-32.961
						C102.299,53.82,88.882,41.823,72.331,43.526z"/>
					<path fill="#12868C" d="M102.299,70.322c0-16.502-13.417-28.499-29.968-26.796c-3.577,0.368-7.007,1.347-10.188,2.82
						c-2.023,14.52,1.851,29.638,7.3,34.315c6.345,5.447,15.383,10.323,26.02,9.361C99.734,84.421,102.299,77.538,102.299,70.322z"
						/>
					<path fill="#DEF2F3" d="M102.299,70.322c0-16.502-13.417-28.499-29.968-26.796c-3.577,0.368-7.007,1.347-10.188,2.82
						c-2.023,14.52,1.851,29.638,7.3,34.315c6.345,5.447,15.383,10.323,26.02,9.361C99.734,84.421,102.299,77.538,102.299,70.322z"
						/>
					<path fill="#59BCC1" d="M72.331,43.526c-0.997,0.103-1.981,0.253-2.954,0.448c-0.343,3.086-0.458,6.577-0.223,10.115
						c0.588,6.474,1.733,12.025,4.972,16.879c1.051,1.522,2.289,2.85,3.742,3.907c2.227,1.621,4.557,2.803,6.91,3.6
						c1.806,0.021,3.722-0.463,5.727-1.54c5.205-2.798,7.931-10.544,9.285-18.338C95.158,48.539,84.608,42.263,72.331,43.526z"/>
					<path fill="#DEF2F3" d="M72.331,43.526c-0.277,0.028-0.554,0.062-0.83,0.098c-0.232,2.208-0.326,4.519-0.257,6.922
						c0.377,12.884,5.319,24.507,12.591,25.608c1.19-0.156,2.432-0.585,3.714-1.321c5.51-3.163,7.779-13.362,8.596-22.016
						C90.669,46.244,82.041,42.527,72.331,43.526z"/>
					<g>
						<path fill="#0B5154" d="M71.747,56.457c-0.024-0.173-0.048-0.345-0.07-0.517C71.699,56.112,71.723,56.284,71.747,56.457z"/>
						<path fill="#0B5154" d="M71.92,57.579c-0.027-0.168-0.055-0.336-0.081-0.503C71.865,57.243,71.893,57.411,71.92,57.579z"/>
						<path fill="#0B5154" d="M71.823,56.974c-0.026-0.171-0.052-0.344-0.076-0.517C71.771,56.63,71.797,56.803,71.823,56.974z"/>
						<path fill="#0B5154" d="M72.117,58.684c-0.032-0.165-0.062-0.331-0.092-0.496C72.056,58.353,72.085,58.518,72.117,58.684z"/>
						<path fill="#0B5154" d="M72.012,58.113c-0.027-0.155-0.055-0.312-0.08-0.469C71.957,57.802,71.984,57.958,72.012,58.113z"/>
						<path fill="#0B5154" d="M72.339,59.778c-0.072-0.331-0.14-0.666-0.204-1.003C72.199,59.112,72.267,59.447,72.339,59.778z"/>
						<path fill="#0B5154" d="M72.999,62.453c-0.089-0.318-0.175-0.639-0.259-0.963C72.824,61.814,72.91,62.135,72.999,62.453z"/>
						<path fill="#0B5154" d="M72.587,60.87c-0.037-0.152-0.073-0.307-0.108-0.461C72.514,60.563,72.55,60.718,72.587,60.87z"/>
						<path fill="#0B5154" d="M72.467,60.356c-0.037-0.162-0.075-0.325-0.109-0.489C72.392,60.031,72.43,60.194,72.467,60.356z"/>
						<path fill="#0B5154" d="M71.464,54.067c-0.017-0.177-0.033-0.353-0.048-0.529C71.431,53.715,71.447,53.891,71.464,54.067z"/>
						<path fill="#0B5154" d="M71.364,52.896c-0.012-0.173-0.024-0.347-0.035-0.521C71.34,52.549,71.353,52.723,71.364,52.896z"/>
						<path fill="#0B5154" d="M71.324,52.289c-0.011-0.16-0.02-0.32-0.027-0.481C71.305,51.969,71.313,52.129,71.324,52.289z"/>
						<path fill="#0B5154" d="M71.292,51.724c-0.009-0.176-0.017-0.351-0.024-0.525C71.275,51.373,71.283,51.548,71.292,51.724z"/>
						<path fill="#0B5154" d="M78.306,72.938c0.451,0.488,0.918,0.93,1.403,1.318C79.224,73.868,78.757,73.427,78.306,72.938z"/>
						<path fill="#0B5154" d="M71.264,51.084c-0.007-0.179-0.014-0.358-0.02-0.538C71.25,50.726,71.257,50.905,71.264,51.084z"/>
						<path fill="#0B5154" d="M71.663,55.836c-0.022-0.17-0.044-0.339-0.064-0.511C71.619,55.497,71.641,55.666,71.663,55.836z"/>
						<path fill="#0B5154" d="M71.415,53.536c-0.015-0.177-0.028-0.352-0.042-0.528C71.387,53.185,71.4,53.359,71.415,53.536z"/>
						<path fill="#0B5154" d="M71.526,54.691c-0.019-0.171-0.036-0.344-0.052-0.516C71.49,54.348,71.509,54.521,71.526,54.691z"/>
						<path fill="#0B5154" d="M71.589,55.244c-0.019-0.158-0.036-0.315-0.054-0.475C71.553,54.929,71.57,55.086,71.589,55.244z"/>
						<path fill="#0B5154" d="M73.157,62.998c-0.046-0.155-0.092-0.313-0.137-0.47C73.065,62.685,73.111,62.843,73.157,62.998z"/>
						<path fill="#0B5154" d="M72.721,61.41c-0.041-0.159-0.08-0.318-0.12-0.479C72.641,61.092,72.68,61.251,72.721,61.41z"/>
						<path fill="#0B5154" d="M77.767,72.32c-0.26-0.314-0.513-0.646-0.76-0.991C77.254,71.674,77.507,72.006,77.767,72.32z"/>
						<path fill="#0B5154" d="M78.298,72.93c-0.178-0.193-0.354-0.396-0.526-0.604C77.944,72.534,78.12,72.736,78.298,72.93z"/>
						<path fill="#0B5154" d="M76.273,70.22c-0.152-0.249-0.303-0.503-0.449-0.765C75.971,69.717,76.121,69.971,76.273,70.22z"/>
						<path fill="#0B5154" d="M79.713,74.26c0.485,0.39,0.988,0.727,1.507,1.005C80.701,74.986,80.198,74.649,79.713,74.26z"/>
						<path fill="#0B5154" d="M76.51,70.592c-0.078-0.119-0.156-0.242-0.232-0.366C76.354,70.35,76.432,70.473,76.51,70.592z"/>
						<path fill="#0B5154" d="M76.995,71.311c-0.161-0.227-0.32-0.462-0.476-0.701C76.675,70.849,76.834,71.084,76.995,71.311z"/>
						<path fill="#0B5154" d="M82.826,75.931c-0.549-0.161-1.085-0.385-1.604-0.663C81.741,75.546,82.277,75.77,82.826,75.931z"/>
						<path fill="#0B5154" d="M74.353,66.402c-0.059-0.144-0.117-0.288-0.175-0.435C74.235,66.114,74.294,66.259,74.353,66.402z"/>
						<path fill="#0B5154" d="M74.165,65.935c-0.057-0.145-0.113-0.291-0.169-0.438C74.052,65.644,74.108,65.79,74.165,65.935z"/>
						<path fill="#0B5154" d="M73.989,65.478c-0.056-0.148-0.11-0.297-0.165-0.448C73.879,65.181,73.934,65.329,73.989,65.478z"/>
						<path fill="#0B5154" d="M75.808,69.427c-0.144-0.256-0.285-0.518-0.423-0.785C75.522,68.909,75.664,69.171,75.808,69.427z"/>
						<path fill="#0B5154" d="M73.803,64.971c-0.107-0.301-0.212-0.605-0.314-0.914C73.591,64.365,73.695,64.67,73.803,64.971z"/>
						<path fill="#0B5154" d="M73.468,63.993c-0.049-0.151-0.099-0.306-0.146-0.46C73.369,63.688,73.419,63.842,73.468,63.993z"/>
						<path fill="#0B5154" d="M73.307,63.487c-0.047-0.15-0.093-0.301-0.139-0.453C73.214,63.187,73.26,63.337,73.307,63.487z"/>
						<path fill="#0B5154" d="M75.368,68.611c-0.068-0.134-0.136-0.269-0.202-0.405C75.232,68.343,75.3,68.478,75.368,68.611z"/>
						<path fill="#0B5154" d="M75.156,68.188c-0.067-0.138-0.136-0.278-0.201-0.419C75.021,67.91,75.089,68.051,75.156,68.188z"/>
						<path fill="#0B5154" d="M74.741,67.305c-0.126-0.281-0.249-0.566-0.369-0.856C74.492,66.738,74.615,67.023,74.741,67.305z"/>
						<path fill="#0B5154" d="M74.954,67.769c-0.065-0.139-0.13-0.279-0.193-0.42C74.824,67.489,74.889,67.63,74.954,67.769z"/>
					</g>
					<path fill="#9BD7DA" d="M101.266,78.23c-6.845,2.591-15.664,2.175-23.277-3.366c-8.26-6.014-9.631-20.693-8.489-30.912
						c-2.559,0.502-5.024,1.314-7.355,2.395c-2.023,14.52,1.851,29.638,7.3,34.315c6.345,5.447,15.383,10.323,26.02,9.361
						C98.137,86.516,100.139,82.507,101.266,78.23z"/>
					<path fill="#9BD7DA" d="M101.266,78.23c-6.845,2.591-15.664,2.175-23.277-3.366c-8.26-6.014-9.631-20.693-8.489-30.912
						c-2.559,0.502-5.024,1.314-7.355,2.395c-2.023,14.52,1.851,29.638,7.3,34.315c6.345,5.447,15.383,10.323,26.02,9.361
						C98.137,86.516,100.139,82.507,101.266,78.23z"/>
					<path fill="#0B5154" d="M83.261,76.044c-0.026-0.007-0.054-0.013-0.079-0.019C83.207,76.031,83.234,76.037,83.261,76.044z"/>
					<path fill="#0B5154" d="M83.182,76.025c-0.118-0.029-0.235-0.06-0.353-0.094C82.946,75.966,83.063,75.996,83.182,76.025z"/>
					<path fill="#0B5154" d="M83.666,76.126c-0.02-0.003-0.038-0.006-0.057-0.01C83.628,76.12,83.646,76.123,83.666,76.126z"/>
					<path fill="#0B5154" d="M83.609,76.116c-0.117-0.021-0.233-0.046-0.349-0.072C83.376,76.07,83.492,76.095,83.609,76.116z"/>
					<path fill="#0B5154" d="M96.145,52.817c-0.816,8.652-3.085,18.853-8.596,22.016c0.106-0.062,0.213-0.128,0.317-0.194
						c-0.254-1.56-0.662-4.371-0.972-7.891c-0.481-5.469-0.964-19.699-0.964-19.699s0.835-0.303,2.044-0.742
						c-1.92-0.977-3.982-1.728-6.156-2.227c0.013,0.324,0.021,0.51,0.021,0.51s-6.629,2.225-10.61,3.479
						c-0.014,0.814-0.01,1.641,0.015,2.478c0.017,0.528,0.04,1.055,0.07,1.579c0.618-0.188,1.322-0.41,2.101-0.669
						c3.129-1.042,8.905-3.315,8.905-3.315l1.425,27.997c-0.026-0.004-0.053-0.007-0.079-0.012c0.057,0.01,0.112,0.021,0.169,0.028
						c0.003,0,0.006,0,0.009-0.001c1.823,0.274,3.791-0.109,5.871-1.303c4.977-2.857,7.309-11.451,8.316-19.464
						C97.454,54.488,96.823,53.632,96.145,52.817z"/>
					<path fill="#59BCC1" d="M84.228,44.752c0.012,0.274,0.019,0.431,0.019,0.431s-10.831,3.635-13.117,4.229l-0.362,4.117
						c0,0,1.926-0.438,5.055-1.48s8.906-3.316,8.906-3.316l1.444,28.528l4.093-2.221c0,0-0.482-2.229-0.963-7.699
						c-0.482-5.471-0.964-19.699-0.964-19.699s0.479-0.174,1.237-0.449C87.909,46.193,86.119,45.373,84.228,44.752z"/>
					<path fill="#59BCC1" d="M95.464,90.022c2.673-3.507,4.676-7.516,5.802-11.793c-3.581,1.355-7.702,1.889-11.908,1.295
						l-0.096,0.02c0,0-1.242,0.597-2.299-0.189c-1.057-0.785-1.573-0.053-1.573-0.053s-0.602,0.758-2.045,1.438
						c-1.445,0.681-8.847,1.612-9.809,1.746c-0.963,0.134-1.952-0.094-1.952-0.094s0,0,0,0.001l3.053,2.13
						C80.363,88.165,87.461,90.746,95.464,90.022z"/>
					<path fill="#0F6B70" d="M86.975,73.619c0,0-3.771,2.188-2.127,5.738l2.407-1.088L86.975,73.619z"/>
					<path fill="#BCE4E6" d="M86.937,74.314c0,0-2.835-0.847-4.161-1.188c-1.324-0.341-2.835-1.103-3.276-1.756
						c-0.441-0.651-0.258-2.321-0.553-2.622c-0.294-0.301-0.993-0.595-0.993-0.595l-0.848,5.96c0,0,0.958,0.342,1.474,0.216
						c0.516-0.127,5.485,3.657,7.327,4.239C85.906,78.569,87.158,77.521,86.937,74.314z"/>
					<path fill="#12868C" d="M89.502,73.519l-2.527,0.101c0,0-0.562,5.019-2.127,5.738c0,0,2.408,0.072,3.45-0.115
						c1.044-0.187,0.964,0.302,0.964,0.302s5.549,2.058,11.849-0.742c0.515-1.82,0.871-3.693,1.051-5.598
						C99.862,72.868,89.502,73.519,89.502,73.519z"/>
					<path fill="#37AEB4" d="M94.461,50.98c-0.464,0.419-0.734,0.793-0.734,0.793s-6.17-3.566-11.125,2.617
						s1.675,11.952,1.675,11.952s-1.969,1.049-1.152,4.079c0.923,3.42,5.532,2.43,5.532,2.43s10.411-0.929,12.139-0.143
						c0.501,0.227,0.979,0.201,1.406,0.052c0.064-0.808,0.098-1.621,0.098-2.438C102.299,62.559,99.329,55.793,94.461,50.98z"/>
					<path fill="#0F7075" d="M94.682,51.205c-0.504,0.439-0.801,0.85-0.801,0.85s-6.077-3.518-10.958,2.582
						c-4.88,6.099,1.651,11.788,1.651,11.788s-1.94,1.034-1.136,4.024c0.908,3.372,5.448,2.396,5.448,2.396
						s10.254-0.913,11.956-0.139c0.482,0.22,0.943,0.201,1.357,0.062c0.064-0.81,0.099-1.626,0.099-2.446
						C102.299,62.678,99.419,56.003,94.682,51.205z"/>
					<path fill="#BCE4E6" d="M102.294,69.912c-0.342-0.221-0.77-0.306-1.108-0.117l0.035-2.157l-13.334,3.525
						c0,0-0.662,0.503-0.3,1.173c0.36,0.669,1.533,0.194,1.533,0.194s0.332,0.973,1.174,1.646c0.843,0.676,3.25,1.026,4.031,1.108
						c0.783,0.083,4.272-0.93,5.295-1.795c1.023-0.867,1.144-1.531,1.144-1.531s0.813,0.099,1.504-0.3
						c0.021-0.445,0.031-0.89,0.031-1.337C102.299,70.184,102.296,70.049,102.294,69.912z"/>
					<path fill="#0B5154" d="M93.435,65.653c0.78,0.452,1.254,1.481,1.263,3.068c0.014,2.353-0.441,3.854-3.025,4.209
						c-2.583,0.357-4.407-0.033-4.262-3.349c0.119-2.696,1.06-3.687,2.861-4.223C91.601,64.963,92.653,65.201,93.435,65.653z"/>
					<path fill="#16A1A8" d="M90.271,65.359c0.548-0.163,1.048-0.218,1.502-0.195c0.392,0.357,1.295,1.393,1.295,3.331
						c0,2.211-0.107,3.416-0.703,4.3c-0.212,0.056-0.442,0.102-0.693,0.136c-2.583,0.357-4.407-0.033-4.262-3.349
						C87.529,66.886,88.47,65.896,90.271,65.359z"/>
					<path fill="#DEF2F3" d="M87.845,69.531c0.112-2.537,0.997-3.468,2.691-3.974c0.516-0.153,0.986-0.204,1.414-0.184
						c0.061,0.056,0.134,0.129,0.215,0.22c0.414,0.538,0.903,1.476,0.903,2.901c0,1.986-0.086,3.161-0.537,4.021
						c-0.008,0.013-0.016,0.025-0.024,0.038c-0.2,0.053-0.416,0.096-0.651,0.128C89.424,73.017,87.707,72.649,87.845,69.531z"/>
					<path fill="#16A1A8" d="M91.786,72.69c0.337-0.863,0.347-2.04,0.347-3.965c0-1.781-0.598-2.836-0.984-3.307
						c-0.196,0.03-0.4,0.076-0.612,0.139c-0.321,0.096-0.613,0.208-0.877,0.342c-0.261,0.693-0.549,1.728-0.549,2.923
						c0,1.635-0.014,2.905,0.72,3.907C90.396,72.819,91.059,72.788,91.786,72.69z"/>
					<path fill="#59BCC1" d="M94.687,70.507c0,0-1.293,1.092-1.293,1.872c0,0,0.451,0.493,1.263,0.53L94.687,70.507z"/>
					<path fill="#0B5154" d="M91.5,73.152c-0.513,0.28-0.305,0.89,0.306,1.105s2.307,0.668,3.595,0.466
						c1.289-0.202,2.815-1.195,2.815-1.682c0-0.489-0.95-0.738-1.595-0.58c-0.645,0.16-1.695,0.802-2.205,0.831
						C93.907,73.322,92.179,72.781,91.5,73.152z"/>
					<path fill="#DEF2F3" d="M97.825,72.576c-0.335-0.158-0.822-0.208-1.204-0.114c-0.645,0.16-1.695,0.802-2.205,0.831
						c-0.366,0.021-1.367-0.254-2.151-0.271l0.201,0.565c0,0,1.326,0.351,2.83,0.104C96.746,73.45,97.756,72.633,97.825,72.576z"/>
					<path fill="#0B5154" d="M100.805,64.895c0.832,0.447,1.339,1.474,1.348,3.061c0.016,2.352-0.471,3.855-3.227,4.229
						s-4.701-0.004-4.546-3.319c0.126-2.697,1.13-3.693,3.052-4.242C98.849,64.217,99.972,64.448,100.805,64.895z"/>
					<path fill="#16A1A8" d="M97.432,64.623c0.55-0.158,1.057-0.219,1.519-0.208c0.383,0.346,1.306,1.382,1.306,3.34
						c0,2.226-0.108,3.433-0.715,4.318c-0.191,0.044-0.396,0.081-0.615,0.111c-2.756,0.374-4.701-0.004-4.546-3.319
						C94.506,66.168,95.51,65.172,97.432,64.623z"/>
					<path fill="#DEF2F3" d="M97.692,64.778c0.517-0.147,0.992-0.205,1.427-0.198c0.434,0.458,1.137,1.466,1.137,3.175
						c0,2.069-0.094,3.259-0.595,4.127c-0.17,0.038-0.351,0.071-0.545,0.098c-2.624,0.355-4.478-0.005-4.328-3.161
						C94.907,66.25,95.864,65.301,97.692,64.778z"/>
					<path fill="#16A1A8" d="M98.935,72.003c0.4-0.892,0.412-2.111,0.412-4.176c0-1.639-0.499-2.672-0.885-3.209
						c-0.245,0.032-0.501,0.084-0.77,0.16c-0.338,0.097-0.646,0.208-0.923,0.34c-0.248,0.701-0.498,1.685-0.498,2.808
						c0,1.754-0.016,3.095,0.861,4.139C97.667,72.117,98.275,72.084,98.935,72.003z"/>
					<path fill="#16A1A8" d="M101.667,73.153c0,0,0.08,2.266-1.108,2.628c0,0,0.247,1.468-0.025,2.072
						c-0.122,0.27,0.131,0.658,0.447,1.005c0.043-0.019,0.087-0.038,0.13-0.058c0.515-1.82,0.871-3.692,1.051-5.597
						C102.024,73.184,101.858,73.167,101.667,73.153z"/>
					<path fill="#BCE4E6" d="M98.898,78.193c-0.309-0.143-0.792-0.006-0.858,0.352c-0.065,0.359-0.506,1.194-0.396,1.424
						c0.11,0.229,0.616,0.354,0.836-0.239C98.701,79.136,98.898,78.193,98.898,78.193z"/>
					<path fill="#9BD7DA" d="M97.765,79.749c0,0,0.128,0.286,0.539,0.064v-0.206l-0.437-0.06L97.765,79.749z"/>
					<path fill="#9BD7DA" d="M98.281,80.041c0.076-0.068,0.146-0.169,0.198-0.312c0.222-0.594,0.419-1.536,0.419-1.536
						c-0.03-0.015-0.063-0.024-0.097-0.033c-0.035,0.083-0.068,0.175-0.099,0.277C98.605,78.767,98.351,79.512,98.281,80.041z"/>
					<path fill="#BCE4E6" d="M99.583,77.602c-0.421,0.043-0.617,0.305-0.77,0.825c-0.154,0.521-0.704,2.091-0.286,2.18
						s0.638-0.132,0.747-0.582c0.11-0.449,0.441-1.604,0.573-1.594C99.848,78.431,99.935,77.565,99.583,77.602z"/>
					<path fill="#9BD7DA" d="M99.433,78.495c-0.065,0.419-0.174,1.167-0.133,1.433c0.128-0.5,0.425-1.505,0.548-1.497
						c0,0,0.03-0.303-0.018-0.544C99.649,78.032,99.47,78.255,99.433,78.495z"/>
					<path fill="#9BD7DA" d="M98.554,79.991l-0.075,0.274c0,0,0.101,0.06,0.256,0.044c0.154-0.017,0.27-0.043,0.27-0.043v-0.243
						C99.004,80.023,98.713,80.035,98.554,79.991z"/>
					<path fill="#BCE4E6" d="M100.265,77.729c-0.174-0.014-0.682,0.356-0.748,0.779c-0.065,0.424-0.176,1.181-0.132,1.44
						c0.045,0.258,0.265,0.411,0.484,0.257c0.221-0.154,0.309-0.36,0.309-0.689s0.506-1.495,0.506-1.495
						S100.507,77.748,100.265,77.729z"/>
					<path fill="#9BD7DA" d="M99.48,79.968c0,0,0.221,0.052,0.505-0.052V79.71c0,0-0.384,0.1-0.444,0.046L99.48,79.968z"/>
					<path fill="#9BD7DA" d="M100.26,78.457c-0.067,0.365-0.182,1.018-0.137,1.238c0.006,0.03,0.017,0.058,0.028,0.083
						c0.018-0.079,0.026-0.165,0.026-0.263c0-0.329,0.506-1.495,0.506-1.495s-0.02-0.028-0.051-0.065
						C100.461,78.083,100.296,78.265,100.26,78.457z"/>
					<path fill="#BCE4E6" d="M101.146,77.792c-0.181-0.009-0.706,0.317-0.774,0.683c-0.069,0.365-0.183,1.018-0.138,1.238
						c0.046,0.221,0.273,0.349,0.502,0.212c0.017-0.01,0.03-0.02,0.045-0.03c0.213-0.665,0.407-1.337,0.578-2.016
						C101.306,77.834,101.237,77.796,101.146,77.792z"/>
					<path fill="#9BD7DA" d="M100.403,79.526l-0.05,0.2c0,0,0.271,0.027,0.411-0.042v-0.195
						C100.765,79.489,100.582,79.55,100.403,79.526z"/>
					<g>
						<g>
							<path fill="#257478" d="M80.319,64.946l1.793-0.669c0.38-0.123,0.712,0.461,0.239,0.817l-1.846,0.798L80.319,64.946z"/>
							<path fill="#257478" d="M78.179,67.325c0,0,1.018-1.395,1.371-1.797c0.353-0.401,0.998-0.864,1.283-0.538
								c0.285,0.328,0.021,0.73-0.795,1.688c-0.817,0.959-2.113,2.544-2.113,2.544L78.179,67.325z"/>
							<path fill="#0B5154" d="M78.208,67.057c0,0,0.67-0.875,1.023-1.276c0.353-0.401,0.966-0.953,1.25-0.626
								c0.285,0.327,0.021,0.729-0.795,1.688c-0.815,0.958-1.733,2.111-1.733,2.111L78.208,67.057z"/>
							<line fill="none" stroke="#12868C" stroke-miterlimit="10" x1="82.208" y1="64.423" x2="80.83" y2="64.974"/>
							<line fill="none" stroke="#12868C" stroke-miterlimit="10" x1="82.416" y1="64.519" x2="80.901" y2="65.138"/>
							<line fill="none" stroke="#12868C" stroke-miterlimit="10" x1="82.195" y1="64.95" x2="81.187" y2="65.413"/>
							<line fill="none" stroke="#12868C" stroke-miterlimit="10" x1="82.425" y1="65.001" x2="81.106" y2="65.609"/>
							<polygon fill="#16A1A8" points="78.029,69.282 78.535,65.52 73.965,67.261 72.921,76.507 77.208,74.161 							"/>
							<polygon fill="#7AC9CD" points="78.535,65.52 74.478,63.666 69.224,64.969 73.965,67.261 							"/>
							<polygon fill="#073638" points="72.921,76.507 68.602,74.291 69.116,68.639 69.224,64.969 73.965,67.261 							"/>
							<path fill="#37AEB4" d="M71.565,67.658c0,0,0.25,0.803-0.127,0.949c-0.38,0.146-0.41-0.077-0.439-0.301
								C70.969,68.084,71.148,67.423,71.565,67.658z"/>
							<path fill="#12868C" d="M71.58,67.712c0.047,0.179,0.178,0.771-0.142,0.896c-0.082,0.031-0.147,0.045-0.199,0.046
								c-0.034-0.065-0.048-0.155-0.06-0.245C71.154,68.218,71.281,67.709,71.58,67.712z"/>
							<polygon fill="#12868C" points="73.428,70.426 73.812,70.193 73.327,76.373 72.921,76.507 72.887,76.491 							"/>
							<path fill="#0C595D" d="M72.887,76.491l-4.285-2.2l0.423-5.635c0,0,0.83,0.64,1.841,1.125
								c1.012,0.485,2.525,0.668,2.525,0.668l0.037-0.023L72.887,76.491z"/>
							<path fill="#0F6B70" d="M71.435,68.435c-0.012,0.072-0.029,0.134-0.051,0.191c-0.057,0.018-0.104,0.027-0.145,0.027
								c-0.034-0.065-0.048-0.155-0.06-0.245c-0.012-0.094,0.012-0.263,0.075-0.411C71.363,68.056,71.476,68.173,71.435,68.435z"/>
							<path fill="#37AEB4" d="M70.923,68.489c0,0,0.237,0.401,0.507,0.314C71.43,68.804,71.033,69.006,70.923,68.489z"/>
							<path fill="#7AC9CD" d="M72.174,70.442c0,0-1.277-0.042-2.272-0.867C69.901,69.575,71.062,70.178,72.174,70.442z"/>
						</g>
					</g>
					<path fill="#BCE4E6" d="M78.188,70.544c0,0-0.239-0.516-0.741-0.345c-0.502,0.172-1.505-0.005-1.564,0.241
						c-0.061,0.246,0.24,0.795,0.902,0.688s0.622,1.156,0.782,1.3C77.729,72.571,78.188,70.544,78.188,70.544z"/>
					<path fill="#16A1A8" d="M84.246,45.183L81.84,44.59l-10.61,3.479l0.011,1.314C73.746,48.705,84.246,45.183,84.246,45.183z"/>
					<path fill="#0B5154" d="M62.373,102.131c-0.39,0.056-0.77,0.131-1.143,0.221c0.61,0.179,1.229,0.337,1.858,0.476
						c0.183-0.26,0.267-0.48,0.22-0.629C63.129,101.919,62.373,102.131,62.373,102.131z"/>
					<path fill="#59BCC1" d="M46.814,60.356c0.905,0.089,2.283,0.334,2.711,0.026c0.602-0.434,2.037-2.872,2.759-3.329
						c0.722-0.456,3.184,0.438,3.88-0.083c0.695-0.521,2.037-3.709,2.569-4.059c0.532-0.348,4.732-0.632,4.766-0.661l1.3-6.997
						C57.229,47.987,50.82,53.478,46.814,60.356z"/>
					<path opacity="0.5" fill="#FFFFFF" d="M56.645,49.558c-5.45,3.905-9.744,9.383-12.147,15.623L51.74,86.89l13.407-8.122
						l-2.102-32.821c-1.274,0.544-2.513,1.165-3.704,1.861L56.645,49.558z"/>
					<path fill="#DEF2F3" stroke="#7AC9CD" stroke-width="0.25" stroke-miterlimit="10" d="M55.999,64.535
						c-0.567-3.075-3.934-6.275-8.806-4.449c-0.099,0.037-0.193,0.076-0.288,0.117c-1.992,3.383-3.404,7.104-4.083,11.004
						c1.271,3.152,2.918,3.975,4.304,4.778c1.43,0.83,1.687,2.217,2.236,2.895c0.551,0.68,2.631,0.131,4.694-1.318
						c2.062-1.449,1.003-3.107,0.962-3.976C54.901,71.097,56.567,67.61,55.999,64.535z"/>
					
						<path fill="none" stroke="#12868C" stroke-width="0.25" stroke-linecap="round" stroke-linejoin="round" stroke-miterlimit="10" d="
						M52.806,76.988c0,0-0.181-4.255,0.103-5.544c0.282-1.288,0.077-5.728-1.191-5.506c-1.268,0.224-1.083,2.968-0.491,2.679
						c0.59-0.286-0.497-3.233-1.85-2.599s-1.494,3.748-0.507,3.408c0.988-0.339-1.009-3.752-2.605-2.346
						c-1.599,1.407,1.535,5.688,2.355,6.598c0.82,0.909,2.473,3.88,2.473,3.88"/>
					<path opacity="0.7" fill="#FFFFFF" d="M52.922,62.269c0,0,2.19,0.729,2.264,2.178c0.072,1.446,0.197,3.532-0.822,4.477
						c-1.021,0.948-3.185,0.736-3.621-0.892C50.306,66.401,50.715,62.157,52.922,62.269z"/>
					<path fill="#0F6B70" d="M57.026,77.473c0,0-0.789,1.833-4.017,3.135c-3.229,1.3-4.078,1.145-4.581,0.967
						c0,0,1.972-2.505,7.881-3.916L57.026,77.473z"/>
					<path fill="#16A1A8" d="M55.868,75.967c0,0,0.36,2.227,0.479,2.212c0.059-0.008-1.698,1.463-3.377,2.174
						c-1.716,0.728-3.635,1.115-3.635,1.115l-0.764-2.247C52.779,76.265,55.868,75.967,55.868,75.967z"/>
					<path fill="#12868C" d="M52.525,78.59c2.288-1.042,4.511-1.692,4.658-1.297c0.146,0.396,0.437,2.02,0.437,2.02
						s-0.894,2.095-3.521,3.252c-2.626,1.158-3.805,1.372-4.989,1.268c0,0-1.23-2.282-0.822-2.666
						C48.692,80.783,50.072,79.707,52.525,78.59z"/>
					<path fill="#BCE4E6" d="M53.715,51.907c0.376,0.786,0.799,1.72,1.303,1.697c0.662-0.028,1.842-2.969,2.417-2.994
						s1.348,2.132,1.871,2.149c0.459,0.015,1.188-2.581,1.672-2.835c0.484-0.253,2.157,2.365,2.521,2.326
						c0.644-2.265,1.103-5.238,1.341-7.013C60.723,46.718,56.947,49.016,53.715,51.907z"/>
					<path opacity="0.1" fill="#16A1A8" d="M50.611,55.054c-5.11,5.885-8.248,13.455-8.248,21.435c0,3.325,0.546,6.465,1.552,9.35
						l9.997-7.044L50.611,55.054z"/>
					<path fill="#59BCC1" d="M65.614,77.95c-0.246-0.003-11.597-0.198-11.597-0.198s4.186,15.863,3.92,18.684
						c-0.248,2.614-0.457,3.376-0.191,4.574c1.496,0.679,3.069,1.225,4.709,1.627c-0.028-0.304-0.207-2.612,0.676-3.857
						c0.944-1.334,2.899-4.761,2.883-7.441c-0.014-2.344-0.157-4.507-0.233-7.78C65.718,80.857,65.614,77.95,65.614,77.95z"/>
					<path fill="#BCE4E6" d="M65.614,77.95c-0.12-0.001-2.812-0.047-5.572-0.095c0.324,0.834,3.609,9.337,3.352,11.132
						c-0.271,1.889-1.054,3.049-1.054,3.049l0.756,0.865c0,0-0.989,1.648,0,1.801c0,0-1.789,4.948-1.261,7.796
						c0.206,0.057,0.414,0.11,0.622,0.162c-0.017-0.167-0.239-2.592,0.674-3.881c0.944-1.334,2.899-4.761,2.883-7.441
						c-0.014-2.344-0.157-4.507-0.233-7.78C65.718,80.857,65.614,77.95,65.614,77.95z"/>
					<path fill="#0B5154" d="M63.096,92.901c0,0-1.177,1.397-2.2,0.843s-1.898-0.651-2.093,0.002s2.025,2.747,4.225,1.15
						C63.027,94.896,62.528,93.845,63.096,92.901z"/>
					
						<path fill="#BCE4E6" stroke="#0F6B70" stroke-width="0.25" stroke-linecap="round" stroke-linejoin="round" stroke-miterlimit="10" d="
						M60.066,83.087c0,0-1.928-0.351-2.551,1.624c0,0,1.186,0.223,1.868-0.366C60.066,83.754,60.066,83.087,60.066,83.087z"/>
					<path fill="#0F6B70" d="M60.571,83.194c0,0,0.402,1.003-0.329,1.679L60.571,83.194z"/>
					<path fill="#0F6B70" d="M59.819,83.554c0-0.208-0.065-0.385-0.167-0.491c-0.146,0.005-0.319,0.021-0.507,0.064
						c-0.096,0.127-0.158,0.312-0.158,0.513c0,0.351,0.187,0.617,0.416,0.593c0.062-0.006,0.12-0.034,0.173-0.076
						c0.047-0.051,0.089-0.103,0.128-0.152C59.775,83.883,59.819,83.724,59.819,83.554z"/>
					
						<path fill="none" stroke="#0F6B70" stroke-width="0.25" stroke-linecap="round" stroke-linejoin="round" stroke-miterlimit="10" d="
						M56.601,83.946c0,0,0.384,0.689,1.025,0.469"/>
					
						<path fill="none" stroke="#0F6B70" stroke-width="0.25" stroke-linecap="round" stroke-linejoin="round" stroke-miterlimit="10" d="
						M57.026,83.368c0,0,0.112,0.776,0.817,0.647"/>
					
						<path fill="none" stroke="#0F6B70" stroke-width="0.25" stroke-linecap="round" stroke-linejoin="round" stroke-miterlimit="10" d="
						M57.844,83.038c0,0,0.02,0.424,0.343,0.577"/>
					
						<path fill="#BCE4E6" stroke="#0F6B70" stroke-width="0.25" stroke-linecap="round" stroke-linejoin="round" stroke-miterlimit="10" d="
						M65.325,81.639c0,0-1.407-0.794-2.403,0.685c0,0,0.863,0.494,1.547,0.182C65.152,82.193,65.325,81.639,65.325,81.639z"/>
					<path fill="#16A1A8" d="M62.867,82.258c0,0,0.171,0.913,0.961,0.945L62.867,82.258z"/>
					
						<path fill="none" stroke="#0F6B70" stroke-width="0.25" stroke-linecap="round" stroke-linejoin="round" stroke-miterlimit="10" d="
						M65.576,80.607c0,0,0.137,0.668-0.366,0.957"/>
					
						<path fill="none" stroke="#0F6B70" stroke-width="0.25" stroke-linecap="round" stroke-linejoin="round" stroke-miterlimit="10" d="
						M65.013,80.54c0,0,0.346,0.542-0.146,0.928"/>
					
						<path fill="none" stroke="#0F6B70" stroke-width="0.25" stroke-linecap="round" stroke-linejoin="round" stroke-miterlimit="10" d="
						M64.411,80.766c0,0,0.214,0.269,0.103,0.573"/>
					<path fill="#0F6B70" d="M64.221,81.964c0,0.262,0.11,0.47,0.263,0.534c0.192-0.09,0.342-0.199,0.46-0.308
						c0.034-0.092,0.055-0.195,0.055-0.307c0-0.162-0.043-0.305-0.111-0.404c-0.136-0.032-0.294-0.055-0.467-0.054
						C64.303,81.54,64.221,81.741,64.221,81.964z"/>
					<path fill="#DEF2F3" d="M59.25,83.736c0,0.126-0.103,0.239-0.229,0.252c-0.127,0.014-0.23-0.078-0.23-0.205
						s0.104-0.241,0.23-0.253C59.147,83.518,59.25,83.609,59.25,83.736z"/>
					<path fill="#DEF2F3" d="M64.45,81.888c0,0.097-0.078,0.183-0.176,0.192s-0.177-0.06-0.177-0.156s0.079-0.185,0.177-0.194
						S64.45,81.79,64.45,81.888z"/>
					<path fill="#0B5154" d="M44.024,86.142c2.428,6.705,7.36,11.981,13.722,14.868c-0.266-1.198-0.057-1.96,0.191-4.574
						c0.266-2.82-3.92-18.684-3.92-18.684S47.823,83.011,44.024,86.142z"/>
					<path fill="#0B5154" d="M44.024,86.142L44.024,86.142c0.985,2.723,2.386,5.211,4.126,7.398
						c0.001,0.001,0.001,0.001,0.002,0.002c0.132,0.167,0.266,0.331,0.402,0.493c0.003,0.004,0.005,0.007,0.009,0.011
						c0.134,0.161,0.271,0.32,0.41,0.479c0.004,0.004,0.007,0.008,0.011,0.012c0.14,0.157,0.28,0.314,0.423,0.469
						c0.003,0.002,0.004,0.005,0.006,0.007c2.331,2.516,5.152,4.555,8.329,5.996c0.002,0,0.003,0.001,0.004,0.002
						c-0.266-1.198-0.057-1.96,0.191-4.574c0.266-2.82-3.92-18.684-3.92-18.684S47.823,83.011,44.024,86.142z"/>
					<circle opacity="0" fill="#FFFFFF" cx="71.801" cy="72.588" r="39.07"/>
				</g>
				<g>
					<path fill="#CAE0D4" d="M41.552,35.366c0.493,0.628,1.06,1.287,1.81,2.13c0.375,0.423,0.655,0.748,0.842,0.965
						c0.239,0.279,0.38,0.441,0.428,0.483c0.094,0.097,0.177,0.179,0.242,0.228c0.013,0.014,0.025,0.016,0.036,0.029
						c0.024,0.015,0.076,0.005,0.15-0.047c0.073-0.052,0.16-0.114,0.257-0.209c0.226-0.218,0.395-0.352,0.493-0.401
						c0.093-0.044,0.191-0.011,0.235,0.082c0.045,0.091,0.011,0.19-0.081,0.234c-0.073,0.039-0.201,0.15-0.4,0.346
						c-0.218,0.198-0.399,0.319-0.549,0.365c-0.206,0.047-0.427-0.141-0.645-0.379c-0.048-0.042-0.193-0.212-0.439-0.497
						c-0.187-0.218-0.466-0.543-0.847-0.973c-0.756-0.85-1.311-1.494-1.815-2.136c-0.063-0.075-0.042-0.188,0.032-0.252
						C41.375,35.271,41.488,35.292,41.552,35.366z"/>
					<path fill="#CAE0D4" d="M43.989,33.381c-0.078,0.061-0.122,0.093-0.116,0.1c0.008,0.04,0.033,0.088,0.07,0.15
						c0.147,0.236,0.373,0.503,0.697,0.853c0.15,0.167,0.245,0.275,0.272,0.311c0.032,0.043,0.093,0.121,0.185,0.242
						c0.069,0.105,0.157,0.116,0.25,0.046c0.071-0.055,0.128-0.099,0.179-0.148c0.079-0.06,0.193-0.058,0.254,0.021
						c0.06,0.078,0.057,0.192-0.021,0.253c-0.051,0.05-0.13,0.11-0.207,0.171c-0.094,0.07-0.104,0.158-0.042,0.256
						c0.481,0.67,0.886,1.229,1.214,1.599c0.1,0.115,0.178,0.202,0.248,0.25c0.005,0.008,0.023,0.016,0.028,0.022
						c0.011,0.015,0.063,0.009,0.151-0.037c0.166-0.093,0.328-0.25,0.522-0.422c0.102-0.089,0.175-0.156,0.225-0.195
						c0.078-0.061,0.191-0.045,0.251,0.033c0.061,0.079,0.045,0.191-0.034,0.252c-0.042,0.033-0.107,0.094-0.201,0.178
						c-0.123,0.104-0.211,0.183-0.26,0.221c-0.224,0.194-0.418,0.309-0.582,0.345c-0.12,0.035-0.227-0.03-0.33-0.12
						c-0.08-0.062-0.177-0.157-0.286-0.288c-0.361-0.411-0.821-1.041-1.159-1.526c-0.172-0.24-0.312-0.438-0.431-0.606
						c-0.113-0.162-0.194-0.27-0.237-0.325c-0.022-0.029-0.105-0.123-0.251-0.283c-0.334-0.363-0.588-0.666-0.741-0.909
						c-0.093-0.166-0.173-0.329-0.116-0.476c0.013-0.043,0.05-0.082,0.101-0.134l0.463-0.354c0.353-0.247,0.542-0.382,0.565-0.411
						c0.08-0.072,0.188-0.064,0.255,0.009c0.039,0.037,0.053,0.084,0.053,0.129c-0.007,0.05-0.031,0.092-0.062,0.126
						s-0.234,0.179-0.601,0.437l-0.3,0.229L43.989,33.381z"/>
					<path fill="#CAE0D4" d="M48.055,31.883c-0.25-0.651-0.652-0.771-0.981-0.553c-0.354,0.226-0.515,0.729-0.276,1.217
						c0.223,0.466,0.586,0.59,1.389,0.713c0.449,0.077,0.568,0.096,0.972,0.214c0.401,0.12,0.694,0.334,0.955,0.645
						c0.574,0.685,0.471,1.42-0.101,1.726c-0.564,0.3-1.325,0.062-1.855-0.735c-0.055-0.082-0.032-0.193,0.05-0.249
						c0.082-0.054,0.193-0.032,0.248,0.05c0.441,0.665,1.018,0.819,1.389,0.616c0.348-0.188,0.428-0.651-0.009-1.178
						c-0.213-0.257-0.457-0.429-0.797-0.535c-0.341-0.108-0.478-0.136-0.909-0.203c-0.428-0.06-0.577-0.09-0.912-0.222
						c-0.343-0.127-0.581-0.356-0.747-0.687c-0.31-0.644-0.082-1.354,0.407-1.669c0.542-0.351,1.192-0.116,1.517,0.712
						c0.032,0.097-0.013,0.191-0.104,0.23C48.197,32.016,48.102,31.97,48.055,31.883z"/>
					<path fill="#CAE0D4" d="M54.076,28.533c0.777,1.199,1.459,2.424,2.047,3.682c0.041,0.09,0.003,0.197-0.087,0.239
						c-0.089,0.04-0.196,0.002-0.238-0.087c-0.359-0.771-0.752-1.527-1.178-2.269c-0.058-0.102-0.137-0.124-0.246-0.082
						c-0.211,0.078-0.418,0.165-0.625,0.252c-0.101,0.037-0.139,0.124-0.102,0.226c0.123,0.327,0.292,0.793,0.513,1.372
						c0.244,0.628,0.374,0.992,0.4,1.089c0.032,0.094-0.03,0.191-0.122,0.226c-0.094,0.033-0.192-0.03-0.226-0.122
						c-0.026-0.077-0.153-0.434-0.389-1.065c-0.531-1.413-0.898-2.407-1.09-3.179c-0.111-0.472-0.162-0.854-0.012-1.042
						c0.27-0.354,0.614-0.229,0.883,0.07c0.116,0.145,0.24,0.323,0.366,0.532L54.076,28.533z M53.646,29.921
						c0.162-0.076,0.329-0.144,0.503-0.215c0.117-0.046,0.155-0.133,0.095-0.242c-0.153-0.245-0.308-0.489-0.47-0.73
						c-0.019-0.04-0.164-0.288-0.269-0.447c-0.081-0.11-0.189-0.238-0.284-0.313c-0.063-0.049-0.139-0.083-0.188-0.021
						c-0.029,0.044-0.051,0.123-0.043,0.247c0.013,0.133,0.036,0.311,0.091,0.532c0.076,0.29,0.183,0.646,0.328,1.083
						C53.454,29.932,53.528,29.965,53.646,29.921z"/>
					<path fill="#CAE0D4" d="M57.412,30.137c-0.027-0.124-0.088-0.359-0.178-0.719c-0.189-0.703-0.235-0.926-0.364-1.518
						c-0.129-0.593-0.199-1.083-0.231-1.57c-0.01-0.102,0.063-0.187,0.165-0.196c0.105-0.001,0.19,0.071,0.191,0.177
						c0.036,0.475,0.109,0.945,0.229,1.513c0.123,0.576,0.169,0.798,0.351,1.505s0.341,1.327,0.37,1.479
						c0.028,0.152,0.056,0.275,0.062,0.369c0.017,0.118,0.002,0.181-0.016,0.235c-0.034,0.062-0.087,0.1-0.149,0.114
						c-0.045,0.007-0.11-0.016-0.123-0.021l-0.043-0.041c-0.012-0.005-0.018-0.021-0.032-0.035
						c-0.019-0.022-0.039-0.053-0.072-0.088c-0.054-0.065-0.119-0.165-0.192-0.281c-0.187-0.266-0.319-0.463-0.405-0.613
						c-0.767-1.289-1.175-1.987-1.244-2.095c-0.062-0.111-0.139-0.264-0.243-0.463c-0.205-0.393-0.357-0.641-0.56-0.947
						c-0.061-0.082-0.042-0.185,0.04-0.246c0.083-0.06,0.186-0.041,0.246,0.042c0.209,0.274,0.384,0.583,0.596,0.99
						c0.104,0.2,0.182,0.353,0.236,0.446c0.062,0.111,0.479,0.806,1.238,2.079c0.031,0.056,0.068,0.127,0.128,0.21
						c0.12,0.165,0.057-0.127,0.057-0.127L57.412,30.137z"/>
					<path fill="#CAE0D4" d="M58.801,25.568c-0.095,0.027-0.146,0.043-0.144,0.051c-0.008,0.04-0.002,0.094,0.011,0.165
						c0.053,0.274,0.168,0.604,0.345,1.047c0.08,0.21,0.129,0.346,0.142,0.389c0.016,0.051,0.043,0.146,0.086,0.292
						c0.026,0.123,0.104,0.165,0.216,0.133c0.087-0.026,0.156-0.046,0.222-0.074c0.095-0.028,0.2,0.015,0.229,0.109
						c0.027,0.095-0.016,0.201-0.11,0.229c-0.065,0.029-0.161,0.057-0.255,0.084c-0.113,0.033-0.154,0.111-0.131,0.226
						c0.207,0.798,0.384,1.465,0.557,1.927c0.052,0.145,0.094,0.254,0.142,0.323c0.003,0.009,0.017,0.023,0.02,0.032
						c0.005,0.018,0.056,0.029,0.155,0.02c0.188-0.027,0.395-0.116,0.64-0.207c0.126-0.046,0.218-0.083,0.278-0.1
						c0.094-0.028,0.194,0.026,0.223,0.121c0.027,0.095-0.027,0.194-0.121,0.222c-0.053,0.016-0.136,0.05-0.254,0.093
						c-0.152,0.055-0.261,0.096-0.321,0.113c-0.278,0.101-0.501,0.138-0.667,0.112c-0.125-0.01-0.2-0.109-0.265-0.23
						c-0.054-0.087-0.108-0.211-0.165-0.371c-0.188-0.515-0.391-1.268-0.531-1.843c-0.075-0.285-0.135-0.52-0.184-0.721
						c-0.048-0.191-0.085-0.32-0.105-0.389c-0.01-0.034-0.054-0.152-0.132-0.354c-0.182-0.459-0.31-0.832-0.365-1.115
						c-0.026-0.188-0.043-0.37,0.062-0.484c0.027-0.036,0.076-0.061,0.143-0.089l0.559-0.164c0.418-0.104,0.643-0.161,0.675-0.181
						c0.102-0.038,0.199,0.008,0.235,0.1c0.023,0.05,0.02,0.098,0.003,0.139c-0.024,0.045-0.062,0.075-0.103,0.097
						c-0.04,0.021-0.283,0.082-0.718,0.192l-0.361,0.105L58.801,25.568z"/>
					<path fill="#CAE0D4" d="M63.658,28.349c-0.047-0.22-0.139-0.612-0.276-1.178c-0.274-1.124-0.43-1.905-0.488-2.699
						c-0.011-0.098,0.063-0.178,0.17-0.191c0.099-0.012,0.179,0.062,0.191,0.17c0.053,0.767,0.203,1.523,0.474,2.628
						c0.135,0.549,0.229,0.95,0.28,1.196l0.146,0.692c0.024,0.159,0.051,0.282,0.062,0.381c0.002,0.054,0.001,0.09,0,0.127
						c-0.002,0.083-0.017,0.141-0.088,0.193c-0.063,0.05-0.147,0.04-0.207,0.016c-0.012-0.007-0.023-0.022-0.034-0.028
						c-0.011-0.008-0.033-0.03-0.05-0.063c-0.015-0.024-0.03-0.058-0.058-0.098L63.61,29.2l-0.368-0.654
						c-0.211-0.349-0.445-0.812-0.714-1.388c-0.136-0.291-0.253-0.541-0.35-0.74c-0.066-0.143-0.271-0.464-0.271-0.464
						c0.045,0.256,0.076,0.449,0.104,0.581c0.05,0.237,0.121,0.616,0.213,1.137c0.085,0.531,0.159,0.928,0.213,1.181
						c0.057,0.264,0.149,0.619,0.29,1.066c0.03,0.103-0.013,0.203-0.107,0.232c-0.103,0.031-0.203-0.012-0.232-0.106
						c-0.106-0.289-0.199-0.636-0.284-1.038c-0.085-0.403-0.171-0.853-0.248-1.349c-0.085-0.486-0.15-0.839-0.194-1.049
						C61.633,26.478,61.6,26.274,61.56,26c-0.045-0.257-0.077-0.451-0.104-0.583l-0.086-0.403c-0.002-0.009-0.002-0.009-0.003-0.018
						c0,0-0.015-0.023-0.031-0.057c-0.029-0.096-0.048-0.183,0.045-0.267c0.038-0.036,0.091-0.047,0.147-0.041
						c0.102,0.007,0.169,0.066,0.22,0.174c0.012,0.016,0.018,0.042,0.023,0.068c0.002,0.009,0.011,0.008,0.012,0.016
						c0.002,0.009,0.019,0.043,0.06,0.106c0.03,0.058,0.084,0.138,0.143,0.245c0.096,0.145,0.158,0.269,0.205,0.358
						c0.048,0.101,0.963,2.087,1.363,2.771l-0.133-0.238c0.089,0.155,0.277,0.399,0.269,0.354L63.658,28.349z"/>
					<path fill="#CAE0D4" d="M66.661,23.983c0.013,0.099-0.047,0.196-0.145,0.209c-0.167,0.03-0.416,0.062-0.736,0.095
						c-0.126,0.007-0.17,0.086-0.146,0.2c0.044,0.192,0.078,0.396,0.104,0.663c0.016,0.188,0.03,0.303,0.037,0.356
						c0.031,0.239,0.069,0.613,0.119,1.14c0.09,1.045,0.192,1.835,0.372,2.461c0.021,0.097-0.028,0.203-0.125,0.225
						c-0.097,0.021-0.202-0.028-0.224-0.125c-0.183-0.653-0.288-1.47-0.382-2.542c-0.049-0.526-0.089-0.9-0.116-1.112
						c-0.01-0.08-0.026-0.205-0.041-0.393c-0.021-0.16-0.026-0.276-0.041-0.383c0.031,0.24-0.076-0.17-0.087-0.26
						c-0.015-0.115-0.085-0.17-0.201-0.155c-0.177,0.024-0.337,0.044-0.467,0.079c-0.106,0.023-0.195-0.038-0.218-0.144
						c-0.022-0.097,0.039-0.185,0.136-0.206c0.237-0.049,0.564-0.091,0.993-0.137c0.455-0.041,0.774-0.082,0.96-0.115
						C66.551,23.826,66.648,23.887,66.661,23.983z"/>
					<path fill="#CAE0D4" d="M68.276,23.818c-0.02,0.495,0.017,1.183,0.099,2.075c0.101,1.053,0.146,1.759,0.146,2.117
						c0.001,0.351,0.031,0.591,0.084,0.74c0.072,0.184,0.166,0.261,0.405,0.212c0.258-0.05,0.383-0.227,0.471-0.59
						c0.054-0.191,0.058-0.469,0.048-0.648c-0.005-0.089-0.012-0.214-0.02-0.375c-0.018-0.16-0.023-0.276-0.027-0.349
						c-0.007-0.134-0.018-0.501-0.031-1.118c-0.023-0.609-0.043-0.976-0.067-1.108c-0.014-0.08-0.03-0.24-0.061-0.473
						c-0.038-0.204-0.055-0.373-0.062-0.498c-0.006-0.097,0.069-0.182,0.169-0.187c0.098-0.005,0.183,0.071,0.188,0.169
						c0.007,0.114,0.023,0.267,0.051,0.462c0.041,0.24,0.058,0.4,0.071,0.489c0.025,0.134,0.044,0.5,0.067,1.117
						c0.015,0.618,0.025,0.994,0.032,1.128c0.003,0.054,0.009,0.161,0.026,0.331c0.009,0.169,0.016,0.295,0.021,0.393
						c0.011,0.196,0.001,0.529-0.059,0.757c-0.111,0.444-0.292,0.759-0.744,0.854c-0.418,0.084-0.687-0.099-0.812-0.441
						c-0.072-0.185-0.105-0.479-0.108-0.864c0.002-0.313-0.044-1.011-0.145-2.082c-0.083-0.909-0.12-1.615-0.103-2.128
						c0.004-0.099,0.081-0.175,0.188-0.171C68.203,23.635,68.279,23.712,68.276,23.818z"/>
					<path fill="#CAE0D4" d="M71.06,27.478c0.011-0.225,0.021-0.367,0.021-0.439c0.062-1.262,0.062-2.363-0.014-3.287
						c-0.009-0.019-0.018-0.036-0.026-0.062c-0.026-0.1,0.028-0.188,0.128-0.215c0.717-0.174,1.289,0.019,1.608,0.478
						c0.319,0.423,0.288,1.077-0.118,1.584c-0.208,0.259-0.452,0.463-0.73,0.613c-0.099,0.053-0.126,0.134-0.073,0.241
						c0.114,0.216,0.247,0.494,0.389,0.827c0.044,0.081,0.141,0.341,0.309,0.781c0.113,0.314,0.22,0.557,0.317,0.736
						c0.061,0.099,0.024,0.188-0.064,0.241c-0.09,0.054-0.197,0.017-0.242-0.063c-0.115-0.198-0.229-0.459-0.353-0.782
						c-0.229-0.629-0.378-0.996-0.547-1.329c-0.079-0.162-0.211-0.467-0.215,0.053c-0.001,0.07-0.01,0.143-0.011,0.206
						c-0.009,0.08-0.01,0.224-0.021,0.438c-0.01,0.215-0.021,0.375-0.03,0.483c-0.011,0.215-0.013,0.591,0.013,0.869
						c0.008,0.098-0.064,0.187-0.163,0.195c-0.099,0.008-0.188-0.064-0.195-0.163c-0.025-0.286-0.023-0.698-0.013-0.922
						L71.06,27.478z M71.51,25.913l-0.01-0.01c0.091,0.001,0.145-0.008,0.225-0.052c0.521-0.256,0.883-0.755,0.913-1.167
						c0.01-0.215-0.033-0.395-0.148-0.529c-0.178-0.252-0.489-0.406-0.884-0.392c-0.116,0-0.171,0.079-0.172,0.188
						c0.032,0.501,0.047,1.083,0.042,1.764C71.475,25.841,71.491,25.913,71.51,25.913z"/>
					<path fill="#CAE0D4" d="M74.883,23.801c-0.098-0.007-0.151-0.011-0.152-0.002c-0.02,0.035-0.033,0.088-0.047,0.159
						c-0.045,0.275-0.051,0.625-0.039,1.102c0.003,0.226,0.002,0.369-0.001,0.413c-0.003,0.054-0.01,0.152-0.021,0.304
						c-0.018,0.125,0.041,0.192,0.157,0.2c0.09,0.006,0.16,0.011,0.232,0.007c0.099,0.006,0.184,0.084,0.177,0.182
						c-0.007,0.099-0.084,0.184-0.183,0.177c-0.072,0.004-0.171-0.003-0.27-0.009c-0.115-0.008-0.183,0.051-0.199,0.165
						c-0.083,0.821-0.147,1.508-0.146,2.002c-0.001,0.153-0.001,0.27,0.021,0.352c-0.001,0.01,0.007,0.027,0.006,0.037
						c-0.001,0.018,0.042,0.047,0.14,0.072c0.186,0.04,0.411,0.028,0.672,0.027c0.134,0.001,0.233-0.002,0.296,0.002
						c0.098,0.007,0.173,0.094,0.166,0.191c-0.006,0.099-0.092,0.173-0.19,0.167c-0.054-0.004-0.144-0.001-0.27-0.001
						c-0.162-0.002-0.277,0-0.341-0.004c-0.296-0.003-0.519-0.045-0.665-0.127c-0.113-0.053-0.15-0.172-0.167-0.308
						c-0.021-0.1-0.03-0.235-0.026-0.405c0-0.549,0.071-1.325,0.138-1.913c0.029-0.295,0.055-0.535,0.078-0.741
						c0.021-0.195,0.031-0.329,0.036-0.401c0.003-0.035,0.002-0.161-0.001-0.377c-0.012-0.495-0.003-0.889,0.043-1.173
						c0.04-0.187,0.089-0.363,0.228-0.436c0.038-0.023,0.092-0.029,0.164-0.033l0.581,0.04c0.428,0.047,0.66,0.072,0.696,0.064
						c0.108-0.001,0.184,0.076,0.186,0.175c0.005,0.054-0.015,0.098-0.044,0.132c-0.039,0.033-0.085,0.048-0.13,0.055
						c-0.046,0.005-0.296-0.021-0.741-0.069l-0.375-0.025H74.883z"/>
					<path fill="#CAE0D4" d="M78.928,25.368c0.244-0.654,0.021-1.009-0.369-1.062c-0.416-0.065-0.869,0.207-1.014,0.729
						c-0.14,0.497,0.05,0.83,0.57,1.452c0.287,0.355,0.364,0.447,0.587,0.803c0.223,0.356,0.301,0.71,0.291,1.115
						c-0.022,0.892-0.586,1.375-1.217,1.226c-0.621-0.147-1.034-0.827-0.904-1.777c0.014-0.097,0.104-0.165,0.201-0.152
						c0.098,0.014,0.167,0.104,0.153,0.202c-0.107,0.789,0.222,1.286,0.635,1.378c0.385,0.089,0.751-0.205,0.771-0.889
						c0.01-0.333-0.06-0.623-0.244-0.928c-0.184-0.306-0.269-0.416-0.548-0.752c-0.28-0.328-0.372-0.449-0.536-0.77
						c-0.174-0.323-0.201-0.651-0.106-1.01c0.193-0.688,0.833-1.069,1.408-0.982c0.638,0.096,0.971,0.702,0.667,1.538
						c-0.04,0.093-0.136,0.135-0.231,0.104S78.905,25.465,78.928,25.368z"/>
					<path fill="#CAE0D4" d="M84.758,25.249c0.379,0.143,0.564,0.396,0.738,0.812c0.341,0.796,0.258,1.66-0.236,2.587
						c-0.411,0.774-1.078,1.463-1.775,1.917c-0.034,0.019-0.067,0.036-0.104,0.034c-0.073-0.003-0.202-0.042-0.202-0.042
						c-0.074-0.031-0.113-0.091-0.118-0.167c0.006-0.017-0.001-0.028,0.002-0.036c0.144-0.696,0.369-1.536,0.675-2.521
						c0.114-0.35,0.599-1.832,0.787-2.459l0.006-0.017c0.028-0.094,0.126-0.14,0.221-0.111L84.758,25.249z M83.779,29.896
						c1.126-0.943,1.928-2.424,1.393-3.689c-0.067-0.151-0.124-0.271-0.201-0.359c-0.077-0.117-0.191-0.077-0.233,0.061
						c-0.197,0.623-0.544,1.68-0.66,2.038c-0.216,0.684-0.391,1.295-0.52,1.818C83.517,29.93,83.649,30.017,83.779,29.896z"/>
					<path fill="#CAE0D4" d="M87.703,26.026c0.186,0.402,0.126,0.877-0.175,1.435c-0.042,0.09-0.156,0.113-0.246,0.071
						s-0.114-0.156-0.072-0.246c0.252-0.45,0.304-0.823,0.171-1.111c-0.021-0.046-0.022-0.095-0.007-0.136
						c0.034-0.093,0.138-0.141,0.229-0.106C87.646,25.947,87.682,25.98,87.703,26.026z"/>
					<path fill="#CAE0D4" d="M90.552,27.703c-0.058-0.025-0.146-0.065-0.267-0.129c-0.245-0.108-0.558-0.246-0.772-0.312
						c-0.017-0.007-0.041-0.019-0.061-0.017c-0.041-0.019-0.105,0.061-0.105,0.061c-0.041,0.07-0.088,0.176-0.146,0.307
						c-0.039,0.091-0.091,0.205-0.141,0.34c-0.054,0.145-0.087,0.218-0.097,0.241c-0.087,0.197-0.18,0.43-0.292,0.704
						c-0.047,0.106-0.02,0.197,0.079,0.241c0.058,0.024,0.118,0.042,0.184,0.071c0.091,0.04,0.143,0.142,0.103,0.231
						c-0.039,0.091-0.142,0.143-0.231,0.104c-0.064-0.029-0.126-0.046-0.176-0.068c-0.114-0.051-0.186-0.023-0.235,0.092
						c-0.022,0.049-0.041,0.089-0.055,0.122c-0.252,0.613-0.474,1.113-0.669,1.487c-0.015,0.032-0.114,0.213-0.17,0.316
						c-0.036,0.062-0.062,0.119-0.072,0.163c-0.019,0.042-0.013,0.073,0.058,0.114c0.078,0.044,0.181,0.1,0.32,0.161
						c0.156,0.069,0.351,0.136,0.51,0.197c0.077,0.024,0.127,0.046,0.144,0.053c0.09,0.041,0.143,0.143,0.104,0.232
						c-0.041,0.091-0.143,0.143-0.231,0.104c-0.018-0.008-0.066-0.029-0.144-0.054c-0.168-0.064-0.363-0.132-0.519-0.201
						c-0.331-0.137-0.606-0.288-0.622-0.52c0.002-0.116,0.057-0.26,0.133-0.412c0.053-0.094,0.155-0.283,0.17-0.316
						c0.188-0.357,0.406-0.849,0.658-1.462c0.345-0.847,0.559-1.35,0.627-1.506c0.012-0.023,0.044-0.098,0.098-0.24
						c0.051-0.135,0.098-0.241,0.137-0.331c0.062-0.14,0.112-0.255,0.16-0.341c0.056-0.103,0.107-0.197,0.194-0.237
						c0.108-0.069,0.259-0.031,0.401,0.021c0.24,0.077,0.552,0.215,0.92,0.378c0.177,0.088,0.283,0.135,0.315,0.15
						c0.091,0.039,0.144,0.142,0.104,0.231s-0.142,0.143-0.232,0.103L90.552,27.703z M90.682,26.546
						c-0.087-0.001-0.215,0.021-0.271,0.036l-0.154,0.039c-0.146,0.043-0.323,0.133-0.377-0.099
						c-0.026-0.119,0.015-0.188,0.134-0.214l0.154-0.039c0.146-0.044,0.187-0.045,0.313-0.067c0.124-0.014,0.235-0.023,0.353-0.021
						c0.108-0.001,0.18,0.08,0.185,0.181c-0.004,0.096-0.096,0.172-0.185,0.172L90.682,26.546z"/>
					<path fill="#CAE0D4" d="M92.448,28.454c-0.414,0.682-0.829,1.445-1.354,2.444c-0.263,0.5-0.468,0.878-0.605,1.129
						c-0.176,0.322-0.278,0.512-0.301,0.571c-0.057,0.122-0.104,0.229-0.127,0.308c-0.009,0.016-0.006,0.028-0.014,0.044
						c-0.006,0.027,0.021,0.072,0.096,0.123c0.073,0.052,0.164,0.11,0.286,0.167c0.284,0.135,0.469,0.245,0.55,0.32
						c0.073,0.07,0.078,0.175,0.007,0.249c-0.07,0.073-0.175,0.077-0.249,0.007c-0.062-0.054-0.211-0.136-0.463-0.253
						c-0.264-0.134-0.439-0.26-0.536-0.385c-0.117-0.176-0.02-0.448,0.127-0.736c0.021-0.06,0.13-0.256,0.31-0.586
						c0.137-0.252,0.343-0.63,0.609-1.137c0.529-1.008,0.938-1.755,1.358-2.453c0.048-0.086,0.16-0.106,0.247-0.06
						S92.495,28.367,92.448,28.454z"/>
					<path fill="#CAE0D4" d="M95.163,30.007c-0.365,0.629-0.906,1.473-1.631,2.521c-0.165,0.246-0.371,0.571-0.61,1.003
						c-0.307,0.537-0.507,0.888-0.607,1.048c-0.053,0.083-0.163,0.107-0.247,0.056c-0.083-0.054-0.108-0.164-0.056-0.248
						c0.091-0.144,0.285-0.486,0.597-1.031c0.245-0.439,0.461-0.78,0.63-1.033c0.73-1.075,1.271-1.899,1.612-2.49
						c0.052-0.083,0.16-0.121,0.244-0.068C95.178,29.815,95.216,29.924,95.163,30.007z"/>
					<path fill="#CAE0D4" d="M96.922,32.677c0.526-0.458,0.501-0.877,0.184-1.11c-0.334-0.257-0.862-0.234-1.238,0.156
						c-0.359,0.368-0.354,0.751-0.194,1.547c0.082,0.449,0.105,0.567,0.13,0.986c0.026,0.419-0.075,0.768-0.278,1.118
						c-0.445,0.772-1.172,0.928-1.654,0.495c-0.475-0.428-0.513-1.223,0.056-1.994c0.06-0.08,0.172-0.098,0.251-0.038
						c0.079,0.058,0.098,0.171,0.038,0.25c-0.473,0.643-0.421,1.236-0.103,1.515c0.296,0.263,0.757,0.18,1.103-0.411
						c0.168-0.287,0.246-0.575,0.23-0.932c-0.016-0.355-0.036-0.493-0.121-0.923c-0.09-0.423-0.112-0.572-0.103-0.933
						c0.001-0.366,0.135-0.668,0.389-0.938c0.499-0.511,1.243-0.541,1.708-0.188c0.514,0.39,0.517,1.081-0.15,1.669
						c-0.081,0.063-0.185,0.055-0.253-0.019S96.856,32.751,96.922,32.677z"/>
					<path fill="#CAE0D4" d="M99.516,33.299c-0.074-0.065-0.114-0.101-0.12-0.095c-0.038,0.015-0.08,0.049-0.135,0.098
						c-0.203,0.189-0.422,0.462-0.703,0.847c-0.136,0.18-0.224,0.294-0.254,0.327c-0.035,0.039-0.101,0.113-0.202,0.228
						c-0.09,0.088-0.084,0.177,0.003,0.253c0.067,0.06,0.12,0.107,0.181,0.148c0.073,0.065,0.093,0.178,0.027,0.252
						c-0.065,0.073-0.179,0.093-0.253,0.027c-0.059-0.041-0.133-0.106-0.206-0.172c-0.088-0.077-0.176-0.071-0.26,0.01
						c-0.567,0.599-1.038,1.103-1.339,1.495c-0.094,0.119-0.164,0.212-0.198,0.291c-0.005,0.007-0.011,0.025-0.017,0.032
						c-0.013,0.014,0.003,0.063,0.065,0.142c0.123,0.146,0.309,0.273,0.515,0.433c0.106,0.082,0.186,0.142,0.232,0.183
						c0.074,0.066,0.081,0.18,0.015,0.253c-0.065,0.074-0.179,0.08-0.252,0.016c-0.041-0.036-0.113-0.089-0.214-0.165
						c-0.125-0.101-0.219-0.171-0.266-0.213c-0.233-0.183-0.383-0.351-0.449-0.506c-0.057-0.11-0.014-0.228,0.056-0.346
						c0.045-0.092,0.12-0.204,0.228-0.337c0.336-0.433,0.866-1.004,1.278-1.429c0.203-0.215,0.371-0.39,0.514-0.537
						c0.138-0.142,0.227-0.242,0.274-0.296c0.023-0.027,0.1-0.127,0.229-0.3c0.293-0.397,0.541-0.704,0.752-0.901
						c0.146-0.122,0.29-0.232,0.444-0.204c0.045,0.004,0.091,0.033,0.15,0.074l0.436,0.386c0.31,0.299,0.478,0.46,0.511,0.477
						c0.087,0.065,0.099,0.172,0.04,0.252c-0.028,0.047-0.071,0.067-0.115,0.077c-0.051,0.003-0.097-0.014-0.136-0.036
						c-0.039-0.024-0.221-0.196-0.544-0.507l-0.282-0.25L99.516,33.299z"/>
				</g>
				<path fill="none" stroke="#479369" stroke-miterlimit="10" d="M-3.188,137.93c0,0,5.485,16.079,13.281,22.022
					c3.811,2.905,12.578-10.458,6.672-10.452c-7.03,0.006-1.536,12.881,5.053,11.944c6.588-0.937,11.586-11.944,11.586-11.944"/>
				<g>
					<path fill="#CAE0D4" d="M58.538,128.584c0.023,0.149,0.102,0.222,0.221,0.208c0.024-0.015,0.044-0.017,0.069-0.021
						c0.11-0.022,0.184-0.032,0.229-0.036c0.101-0.012,0.206,0.069,0.228,0.195c0.019,0.126-0.036,0.249-0.137,0.26
						c-0.046,0.005-0.119,0.015-0.235,0.039c-0.057,0.007-0.092,0.021-0.137,0.027c-0.083,0.009-0.116,0.095-0.092,0.243
						c0.047,0.298,0.1,0.632,0.17,1.008c0.083,0.469,0.127,0.743,0.136,0.799c0.003,0.012,0.019,0.116,0.047,0.299
						c0.021,0.184,0.048,0.345,0.068,0.471c0.028,0.184,0.05,0.321,0.075,0.423l-0.028-0.171c0.024,0.148,0.064,0.224,0.11,0.219
						c0.103,0.001,0.231-0.013,0.404-0.046c0.119-0.013,0.257-0.028,0.43-0.059c0.165-0.019,0.257-0.03,0.275-0.031
						c0.101-0.012,0.199,0.082,0.219,0.209c0.021,0.124-0.045,0.238-0.146,0.25c-0.019,0.001-0.109,0.013-0.275,0.031
						c-0.164,0.03-0.302,0.045-0.421,0.058c-0.182,0.031-0.328,0.049-0.432,0.05c-0.064,0.007-0.109,0.013-0.156,0.006
						c-0.01,0.002-0.03-0.009-0.041-0.009c-0.02-0.008-0.062,0.009-0.139-0.053c-0.03-0.019-0.056-0.063-0.084-0.119
						c-0.012-0.021-0.016-0.044-0.031-0.078c-0.016-0.045-0.025-0.103-0.048-0.181c-0.027-0.113-0.051-0.262-0.081-0.457
						c-0.021-0.126-0.046-0.287-0.065-0.471c-0.03-0.184-0.047-0.287-0.049-0.298c-0.002-0.012-0.057-0.355-0.175-1.041
						c-0.118-0.688-0.211-1.271-0.288-1.752c-0.11-0.699-0.19-1.248-0.228-1.655c-0.028-0.241-0.041-0.438-0.047-0.589
						c-0.014-0.148-0.004-0.325,0.083-0.416c0.074-0.067,0.19-0.104,0.337-0.12c0.229-0.037,0.53-0.071,0.901-0.091
						c0.177-0.009,0.288-0.009,0.324-0.014c0.102-0.011,0.201,0.083,0.221,0.209c0.02,0.125-0.046,0.239-0.146,0.249
						c-0.038,0.005-0.15,0.007-0.335,0.015c-0.38,0.02-0.665,0.052-0.873,0.089c-0.028,0.003-0.047,0.005-0.073,0.008
						c-0.047,0.005-0.067,0.112-0.067,0.112c0.003,0.127,0.011,0.303,0.038,0.533c0.046,0.402,0.122,0.941,0.231,1.629
						L58.538,128.584z"/>
					<path fill="#CAE0D4" d="M63.11,130.55c-0.045-0.286-0.138-0.8-0.272-1.544c-0.273-1.473-0.426-2.493-0.476-3.513
						c-0.013-0.127,0.066-0.219,0.179-0.22c0.103,0.001,0.185,0.107,0.198,0.245c0.044,0.988,0.193,1.974,0.461,3.424
						c0.133,0.72,0.227,1.244,0.277,1.566l0.145,0.905c0.023,0.206,0.049,0.366,0.061,0.495c0,0.068,0,0.114-0.003,0.162
						c-0.001,0.105-0.019,0.178-0.094,0.232c-0.066,0.054-0.155,0.029-0.215-0.011c-0.013-0.011-0.025-0.032-0.036-0.043
						c-0.012-0.009-0.035-0.043-0.052-0.088c-0.014-0.031-0.032-0.077-0.058-0.132l-0.176-0.4l-0.376-0.891
						c-0.217-0.477-0.457-1.103-0.729-1.877c-0.137-0.393-0.255-0.729-0.354-0.998c-0.068-0.19-0.278-0.633-0.278-0.633
						c0.043,0.334,0.075,0.587,0.103,0.759c0.049,0.309,0.117,0.803,0.206,1.479c0.084,0.692,0.156,1.207,0.209,1.54
						c0.055,0.344,0.147,0.812,0.289,1.402c0.031,0.135-0.016,0.258-0.115,0.281c-0.107,0.023-0.211-0.047-0.241-0.172
						c-0.107-0.384-0.199-0.841-0.283-1.367c-0.083-0.526-0.168-1.112-0.242-1.756c-0.082-0.632-0.146-1.092-0.19-1.366
						c-0.026-0.172-0.059-0.438-0.098-0.794c-0.044-0.333-0.075-0.587-0.102-0.759l-0.085-0.527
						c-0.002-0.011-0.002-0.011-0.003-0.023c0,0-0.015-0.032-0.03-0.075c-0.03-0.126-0.049-0.24,0.048-0.334
						c0.042-0.038,0.096-0.046,0.153-0.028c0.108,0.022,0.178,0.108,0.229,0.254c0.013,0.022,0.019,0.057,0.023,0.09
						c0.002,0.012,0.012,0.011,0.013,0.021c0.003,0.013,0.02,0.058,0.062,0.146c0.031,0.077,0.085,0.188,0.146,0.333
						c0.097,0.2,0.162,0.366,0.209,0.49c0.049,0.134,0.979,2.804,1.389,3.738l-0.135-0.323c0.091,0.211,0.284,0.55,0.274,0.493
						L63.11,130.55z"/>
					<path fill="#CAE0D4" d="M67.283,124.795c0.417-0.013,0.714,0.2,1.079,0.613c0.703,0.784,1.051,1.852,1.05,3.192
						c0,1.12-0.275,2.259-0.696,3.135c-0.021,0.037-0.044,0.074-0.079,0.09c-0.069,0.033-0.208,0.047-0.208,0.047
						c-0.085-0.002-0.148-0.054-0.189-0.142c-0.004-0.023-0.016-0.033-0.017-0.045c-0.209-0.896-0.413-2.004-0.614-3.323
						c-0.066-0.471-0.347-2.468-0.48-3.306l-0.003-0.021c-0.021-0.127,0.048-0.229,0.149-0.24L67.283,124.795z M68.659,130.797
						c0.577-1.662,0.59-3.81-0.525-5.061c-0.137-0.147-0.248-0.263-0.361-0.333c-0.127-0.101-0.215,0.002-0.186,0.186
						c0.124,0.837,0.323,2.261,0.391,2.742c0.136,0.918,0.276,1.73,0.412,2.416C68.435,130.962,68.6,131.003,68.659,130.797z"/>
					<path fill="#CAE0D4" d="M71.556,124.707c-0.064,0.007-0.165,0.02-0.304,0.023c-0.275,0.032-0.624,0.07-0.848,0.132
						c-0.02,0.001-0.047,0.004-0.062,0.019c-0.048,0.006-0.055,0.133-0.055,0.133c0.008,0.104,0.032,0.255,0.061,0.438
						c0.02,0.125,0.045,0.287,0.083,0.468c0.042,0.194,0.057,0.297,0.062,0.331c0.045,0.275,0.105,0.595,0.174,0.972
						c0.024,0.148,0.103,0.233,0.213,0.221c0.065-0.008,0.126-0.025,0.2-0.034c0.102-0.013,0.208,0.069,0.227,0.195
						c0.021,0.126-0.033,0.25-0.135,0.261c-0.074,0.009-0.137,0.027-0.191,0.032c-0.13,0.016-0.173,0.09-0.148,0.251
						c0.013,0.068,0.021,0.125,0.028,0.172c0.154,0.845,0.265,1.544,0.324,2.086c0.008,0.045,0.03,0.311,0.045,0.462
						c0.005,0.092,0.019,0.171,0.036,0.229c0.01,0.057,0.032,0.089,0.116,0.091c0.096,0.001,0.216,0,0.373-0.017
						c0.174-0.021,0.38-0.067,0.553-0.1c0.081-0.021,0.137-0.026,0.155-0.029c0.1-0.01,0.206,0.07,0.227,0.195
						c0.021,0.128-0.035,0.251-0.136,0.261c-0.019,0.003-0.074,0.011-0.153,0.029c-0.184,0.032-0.391,0.079-0.564,0.099
						c-0.365,0.054-0.691,0.055-0.845-0.196c-0.066-0.132-0.107-0.325-0.133-0.543c-0.012-0.14-0.038-0.416-0.045-0.463
						c-0.054-0.517-0.165-1.205-0.318-2.052c-0.213-1.165-0.334-1.861-0.369-2.08c-0.005-0.034-0.022-0.139-0.062-0.33
						c-0.039-0.182-0.062-0.332-0.083-0.457c-0.03-0.194-0.055-0.354-0.067-0.481c-0.015-0.15-0.027-0.291,0.023-0.39
						c0.051-0.146,0.201-0.196,0.356-0.226c0.252-0.064,0.601-0.104,1.013-0.15c0.205-0.011,0.322-0.024,0.359-0.027
						c0.103-0.012,0.207,0.069,0.228,0.194c0.021,0.127-0.034,0.249-0.136,0.26L71.556,124.707z M70.972,123.328
						c-0.076,0.056-0.171,0.16-0.209,0.209l-0.108,0.143c-0.099,0.139-0.197,0.348-0.383,0.124
						c-0.093-0.118-0.101-0.223-0.014-0.324l0.109-0.142c0.099-0.14,0.131-0.166,0.228-0.27c0.097-0.093,0.187-0.173,0.288-0.242
						c0.09-0.069,0.201-0.023,0.265,0.087c0.055,0.109,0.023,0.253-0.052,0.308L70.972,123.328z"/>
					<path fill="#CAE0D4" d="M73.108,124.135c0.418-0.011,0.713,0.2,1.078,0.613c0.704,0.784,1.053,1.854,1.051,3.194
						c0.001,1.119-0.274,2.258-0.696,3.133c-0.022,0.038-0.045,0.075-0.08,0.092c-0.068,0.031-0.207,0.047-0.207,0.047
						c-0.085-0.002-0.148-0.054-0.19-0.143c-0.003-0.023-0.016-0.032-0.017-0.045c-0.209-0.897-0.411-2.006-0.614-3.322
						c-0.065-0.473-0.347-2.47-0.478-3.306l-0.005-0.022c-0.021-0.125,0.048-0.228,0.148-0.239L73.108,124.135z M74.484,130.138
						c0.577-1.663,0.589-3.811-0.525-5.061c-0.138-0.148-0.248-0.264-0.362-0.332c-0.128-0.102-0.214,0.001-0.185,0.186
						c0.124,0.835,0.323,2.26,0.39,2.742c0.138,0.917,0.276,1.729,0.414,2.413C74.259,130.304,74.424,130.342,74.484,130.138z"/>
					<path fill="#CAE0D4" d="M76.263,123.942c0.174,0.926,0.369,2.21,0.573,3.842c0.05,0.379,0.13,0.872,0.258,1.498
						c0.154,0.788,0.254,1.301,0.293,1.54c0.021,0.128-0.048,0.241-0.148,0.251c-0.101,0.013-0.198-0.082-0.22-0.209
						c-0.033-0.216-0.133-0.719-0.288-1.518c-0.13-0.637-0.214-1.153-0.265-1.544c-0.22-1.666-0.401-2.929-0.568-3.797
						c-0.019-0.125,0.036-0.248,0.137-0.26S76.24,123.816,76.263,123.942z"/>
					<path fill="#CAE0D4" d="M79.233,125.005c-0.082-0.515-0.203-0.863-0.375-1.064c-0.117-0.139-0.234-0.172-0.362-0.1
						c-0.311,0.164-0.577,0.835-0.51,1.725c0.129,1.747,0.322,3.428,0.688,4.134c0.254,0.483,0.523,0.65,0.736,0.581
						c0.203-0.07,0.353-0.367,0.335-0.89c-0.012-0.128,0.077-0.219,0.181-0.219c0.103,0,0.187,0.118,0.196,0.247
						c0.024,0.685-0.202,1.188-0.593,1.313c-0.392,0.126-0.845-0.196-1.157-0.812c-0.434-0.839-0.635-2.634-0.76-4.357
						c-0.081-1.029,0.229-1.904,0.712-2.157c0.553-0.284,1.081,0.333,1.275,1.559c0.021,0.125-0.047,0.239-0.147,0.249
						C79.353,125.225,79.253,125.132,79.233,125.005z"/>
					<path fill="#CAE0D4" d="M82.239,124.771c0.491,1.787,0.878,3.563,1.16,5.338c0.02,0.126-0.047,0.238-0.147,0.249
						c-0.102,0.012-0.201-0.082-0.221-0.208c-0.173-1.088-0.382-2.171-0.629-3.252c-0.034-0.147-0.109-0.21-0.23-0.206
						c-0.232,0.002-0.463,0.016-0.695,0.032c-0.112,0-0.173,0.09-0.16,0.227c0.044,0.451,0.1,1.084,0.178,1.881
						c0.092,0.865,0.133,1.361,0.136,1.489c0.01,0.128-0.077,0.219-0.181,0.218c-0.103,0.001-0.187-0.117-0.198-0.245
						c-0.007-0.104-0.047-0.59-0.128-1.455c-0.188-1.938-0.311-3.3-0.314-4.314c0.005-0.618,0.049-1.102,0.248-1.263
						c0.36-0.311,0.68-0.007,0.879,0.472c0.081,0.224,0.162,0.495,0.238,0.799L82.239,124.771z M81.459,126.258
						c0.184-0.021,0.368-0.031,0.562-0.04c0.131-0.003,0.191-0.093,0.158-0.25c-0.096-0.363-0.191-0.726-0.296-1.087
						c-0.009-0.058-0.094-0.421-0.161-0.658c-0.054-0.169-0.134-0.369-0.209-0.502c-0.053-0.089-0.12-0.161-0.186-0.106
						c-0.042,0.039-0.084,0.127-0.106,0.281c-0.02,0.164-0.039,0.389-0.041,0.68c0.006,0.384,0.024,0.859,0.063,1.449
						C81.262,126.187,81.328,126.262,81.459,126.258z"/>
					<path fill="#CAE0D4" d="M85.251,124.324c-0.083-0.515-0.202-0.863-0.376-1.065c-0.115-0.139-0.232-0.172-0.361-0.098
						c-0.311,0.161-0.576,0.833-0.511,1.725c0.13,1.746,0.322,3.427,0.688,4.132c0.255,0.484,0.522,0.651,0.736,0.581
						c0.203-0.07,0.353-0.366,0.334-0.889c-0.009-0.127,0.077-0.22,0.182-0.219c0.103-0.001,0.188,0.119,0.197,0.246
						c0.025,0.685-0.203,1.189-0.593,1.314c-0.392,0.126-0.846-0.196-1.158-0.813c-0.433-0.837-0.635-2.634-0.759-4.357
						c-0.08-1.029,0.229-1.902,0.711-2.156c0.553-0.285,1.081,0.334,1.276,1.558c0.02,0.126-0.047,0.239-0.147,0.251
						C85.369,124.545,85.271,124.449,85.251,124.324z"/>
					<path fill="#CAE0D4" d="M86.994,122.786c-0.101,0.012-0.155,0.019-0.152,0.028c-0.012,0.049-0.011,0.118-0.005,0.21
						c0.029,0.359,0.117,0.804,0.261,1.406c0.064,0.284,0.103,0.466,0.112,0.523c0.01,0.069,0.03,0.194,0.062,0.39
						c0.016,0.162,0.092,0.233,0.212,0.22c0.091-0.009,0.165-0.019,0.236-0.038c0.102-0.01,0.208,0.069,0.229,0.197
						c0.02,0.125-0.035,0.249-0.137,0.26c-0.07,0.02-0.173,0.031-0.274,0.042c-0.118,0.014-0.17,0.101-0.155,0.252
						c0.14,1.058,0.263,1.94,0.4,2.565c0.039,0.194,0.072,0.342,0.116,0.443c0.002,0.01,0.015,0.032,0.017,0.043
						c0.004,0.023,0.055,0.053,0.158,0.064c0.199,0.012,0.424-0.048,0.686-0.101c0.136-0.027,0.236-0.051,0.299-0.058
						c0.102-0.012,0.201,0.082,0.221,0.208c0.021,0.126-0.046,0.238-0.147,0.25c-0.055,0.006-0.145,0.028-0.271,0.055
						c-0.163,0.03-0.281,0.055-0.346,0.062c-0.299,0.057-0.534,0.048-0.704-0.026c-0.129-0.042-0.199-0.187-0.254-0.356
						c-0.047-0.122-0.094-0.292-0.137-0.508c-0.148-0.694-0.289-1.693-0.382-2.454c-0.05-0.378-0.091-0.688-0.123-0.952
						c-0.031-0.254-0.06-0.426-0.073-0.517c-0.008-0.047-0.043-0.205-0.104-0.479c-0.146-0.624-0.245-1.126-0.275-1.495
						c-0.012-0.244-0.012-0.478,0.11-0.596c0.03-0.038,0.084-0.057,0.156-0.076l0.597-0.066c0.443-0.028,0.684-0.044,0.719-0.061
						c0.108-0.022,0.205,0.06,0.234,0.185c0.022,0.068,0.012,0.127-0.008,0.176c-0.03,0.05-0.072,0.078-0.117,0.095
						c-0.044,0.018-0.302,0.034-0.766,0.063l-0.385,0.044L86.994,122.786z"/>
					<path fill="#CAE0D4" d="M61.213,138.782c0.126,1.023,0.302,2.136,0.553,3.576c0.124,0.722,0.211,1.271,0.27,1.638
						c0.075,0.47,0.118,0.744,0.14,0.824c0.037,0.17,0.069,0.318,0.105,0.42c0.002,0.023,0.014,0.033,0.018,0.056
						c0.015,0.033,0.066,0.062,0.159,0.062c0.095,0.002,0.205,0.001,0.343-0.025c0.317-0.06,0.538-0.074,0.654-0.051
						c0.106,0.021,0.179,0.131,0.171,0.26c-0.007,0.129-0.087,0.208-0.193,0.185c-0.087-0.013-0.26,0.007-0.542,0.061
						c-0.302,0.047-0.526,0.038-0.686-0.026c-0.213-0.104-0.318-0.465-0.393-0.877c-0.022-0.079-0.066-0.364-0.144-0.847
						c-0.059-0.366-0.147-0.916-0.272-1.647c-0.251-1.454-0.424-2.542-0.552-3.588c-0.021-0.126,0.057-0.229,0.156-0.239
						C61.102,138.551,61.193,138.656,61.213,138.782z"/>
					<path fill="#CAE0D4" d="M64.117,138.488c-0.1,0.012-0.155,0.018-0.153,0.03c-0.011,0.048-0.01,0.117-0.004,0.211
						c0.029,0.356,0.119,0.802,0.261,1.404c0.063,0.284,0.103,0.467,0.112,0.523c0.01,0.068,0.029,0.195,0.062,0.39
						c0.015,0.162,0.093,0.233,0.211,0.22c0.094-0.011,0.167-0.019,0.237-0.037c0.101-0.011,0.208,0.069,0.228,0.195
						c0.021,0.125-0.034,0.249-0.136,0.261c-0.071,0.02-0.173,0.03-0.274,0.043c-0.118,0.013-0.171,0.1-0.154,0.25
						c0.14,1.058,0.263,1.94,0.397,2.566c0.041,0.194,0.073,0.344,0.118,0.443c0.002,0.011,0.015,0.033,0.017,0.043
						c0.004,0.023,0.055,0.052,0.16,0.064c0.197,0.013,0.421-0.048,0.685-0.102c0.136-0.025,0.234-0.05,0.299-0.057
						c0.101-0.013,0.2,0.084,0.221,0.208c0.021,0.127-0.047,0.239-0.148,0.251c-0.055,0.005-0.146,0.026-0.271,0.055
						c-0.162,0.028-0.281,0.055-0.344,0.062c-0.3,0.058-0.535,0.048-0.706-0.025c-0.128-0.044-0.198-0.188-0.253-0.357
						c-0.047-0.121-0.094-0.29-0.136-0.509c-0.15-0.694-0.289-1.692-0.383-2.452c-0.05-0.379-0.091-0.688-0.123-0.954
						c-0.032-0.252-0.06-0.424-0.073-0.517c-0.008-0.046-0.042-0.204-0.104-0.477c-0.146-0.625-0.245-1.129-0.275-1.497
						c-0.011-0.244-0.011-0.478,0.11-0.596c0.031-0.039,0.085-0.056,0.156-0.076l0.596-0.067c0.444-0.027,0.685-0.043,0.721-0.058
						c0.107-0.025,0.205,0.057,0.233,0.183c0.021,0.068,0.012,0.126-0.008,0.178c-0.031,0.049-0.072,0.076-0.116,0.093
						c-0.045,0.018-0.304,0.035-0.767,0.063l-0.386,0.044H64.117z"/>
					<path fill="#CAE0D4" d="M70.63,137.857c0.044,0.286,0.151,0.835,0.318,1.653c0.159,0.764,0.258,1.324,0.298,1.692
						c0.151,1.291,0.286,2.325,0.408,3.093c0.002,0.011,0.004,0.022,0.006,0.033c0.003,0.023,0.07,0.027,0.196,0.001
						c0.192-0.021,0.358-0.04,0.486-0.055c0.102-0.011,0.2,0.082,0.221,0.209c0.02,0.126-0.046,0.237-0.147,0.249
						c-0.174,0.02-0.45,0.049-0.806,0.103c-0.356,0.052-0.631,0.083-0.806,0.102c-0.102,0.013-0.199-0.08-0.221-0.207
						c-0.02-0.125,0.046-0.238,0.147-0.249c0.156-0.019,0.349-0.04,0.576-0.077c-0.013-0.022-0.015-0.045-0.02-0.067
						c-0.135-0.836-0.271-1.871-0.413-3.114c-0.047-0.414-0.144-0.964-0.279-1.646c-0.062-0.32-0.147-0.684-0.161-0.776
						c-0.081-0.503-0.181-0.247-0.243-0.054c-0.016,0.025-0.019,0.061-0.033,0.086c-0.048,0.11-0.153,0.146-0.248,0.086
						c-0.093-0.059-0.133-0.193-0.104-0.303c0.107-0.326,0.264-0.637,0.447-0.948c0.031-0.039,0.074-0.066,0.129-0.073
						c0.046-0.005,0.095,0.012,0.139,0.055c0.012,0.01,0.014,0.021,0.024,0.031c0.013,0.023,0.061,0.088,0.081,0.155
						C70.626,137.847,70.626,137.847,70.63,137.857z"/>
					<path fill="#CAE0D4" d="M72.575,139.526c-0.195-0.759-0.082-1.564,0.266-1.966c0.402-0.467,0.969-0.262,1.416,0.621
						c0.372,0.751,0.27,1.566-0.155,2.116c-0.096,0.116-0.136,0.214-0.075,0.241c0.483,0.215,0.814,0.712,0.975,1.312
						c0.345,1.396,0.057,2.407-0.584,2.667c-0.639,0.271-1.354-0.29-1.569-1.351c-0.021-0.125,0.034-0.249,0.136-0.26
						s0.207,0.069,0.229,0.196c0.167,0.819,0.643,1.164,1.053,0.987c0.428-0.188,0.684-0.928,0.377-2.152
						c-0.109-0.455-0.374-0.819-0.697-0.971c-0.099-0.035-0.188-0.072-0.256-0.088c-0.088-0.024-0.169-0.003-0.169-0.003
						c-0.045,0.017-0.091,0.021-0.126,0.025c-0.202-0.024-0.325-0.336-0.169-0.529c0.039-0.039,0.09-0.079,0.151-0.1
						c0.019-0.001,0.043-0.016,0.062-0.018c0.055-0.018,0.134-0.051,0.134-0.051c0.524-0.397,0.706-1.141,0.366-1.803
						c-0.166-0.343-0.329-0.545-0.488-0.607c-0.251-0.102-0.494,0.183-0.574,0.739c-0.038,0.285-0.022,0.574,0.057,0.88
						c0.03,0.137-0.016,0.26-0.113,0.281C72.709,139.721,72.604,139.65,72.575,139.526z"/>
					<path fill="#CAE0D4" d="M76.941,143.428c0.057,0.053,0.092,0.106,0.098,0.188c0.028,0.603-0.347,0.656-0.609,0.348
						c-0.25-0.332-0.179-0.771,0.305-0.78c0.066,0.005,0.117,0.033,0.154,0.087c0.062,0.1,0.051,0.146,0.051,0.146L76.941,143.428z"
						/>
					<path fill="#CAE0D4" d="M79.207,138.122c0.109,0.396,0.148,0.637,0.213,0.989c0.125,0.723,0.203,1.099,0.313,1.96
						c0.145,1.209,0.149,2.164-0.184,2.61c-0.309,0.407-0.665,0.449-1.003,0.148c-0.51-0.443-0.937-1.655-1.195-2.745
						c-0.134-0.545-0.208-0.956-0.241-1.22c-0.141-1.419,0.003-2.45,0.436-3.082c0.417-0.607,0.901-0.371,1.252,0.242
						C78.98,137.344,79.125,137.724,79.207,138.122z M79.035,139.04c-0.021-0.126-0.293-1.366-0.534-1.771
						c-0.228-0.429-0.427-0.512-0.662-0.171c-0.372,0.544-0.488,1.456-0.357,2.748c0.052,0.495,0.344,1.731,0.666,2.594
						c0.204,0.514,0.406,0.853,0.594,1.029c0.077,0.073,0.155,0.099,0.239,0.089c0.092-0.009,0.192-0.079,0.292-0.219
						c0.219-0.271,0.24-1.065,0.09-2.249C79.307,140.618,79.197,139.942,79.035,139.04z"/>
					<path fill="#CAE0D4" d="M81.869,137.6c-0.02-0.126-0.046-0.228-0.084-0.294c-0.111-0.231-0.229-0.382-0.343-0.45
						c-0.082-0.049-0.165-0.04-0.26,0.006c-0.415,0.268-0.639,0.924-0.574,2.036c0.036,0.567,0.11,1.154,0.235,1.757
						c0.002,0.023,0.006,0.046,0.01,0.069c0.005,0.034,0.037-0.005,0.056-0.064c0.312-0.922,0.68-1.36,1.118-1.188
						c0.358,0.134,0.641,0.673,0.787,1.31c0.167,0.692,0.193,1.319,0.081,1.856c-0.126,0.621-0.479,0.976-1.02,0.814
						c-0.655-0.193-1.108-1.33-1.396-2.733c-0.246-1.242-0.334-2.622-0.162-3.188c0.164-0.544,0.388-0.908,0.679-1.081
						c0.374-0.229,0.781-0.017,1.111,0.656c0.056,0.109,0.098,0.256,0.127,0.44l0.025,0.16c0.015,0.091,0.025,0.161,0.042,0.205
						c0.029,0.126-0.024,0.248-0.124,0.271c-0.1,0.023-0.206-0.058-0.236-0.183c-0.005-0.035-0.013-0.081-0.019-0.127
						c-0.016-0.034-0.024-0.091-0.033-0.147L81.869,137.6z M81.147,141.81c0.013,0.08,0.429,1.106,0.771,1.195
						c0.324,0.104,0.526-0.094,0.616-0.525c0.104-0.465,0.075-0.999-0.076-1.599c-0.074-0.284-0.157-0.508-0.25-0.685
						c-0.173-0.318-0.332-0.381-0.531-0.172c-0.285,0.323-0.584,1.149-0.557,1.614C81.116,141.673,81.13,141.694,81.147,141.81z"/>
					<path fill="#CAE0D4" d="M84.775,142.542c0.057,0.052,0.093,0.106,0.098,0.188c0.029,0.603-0.346,0.657-0.61,0.349
						c-0.247-0.334-0.178-0.773,0.306-0.781c0.067,0.004,0.118,0.032,0.155,0.087c0.061,0.099,0.051,0.146,0.051,0.146
						L84.775,142.542z"/>
					<path fill="#CAE0D4" d="M85.692,136.152c0.045,0.286,0.15,0.836,0.318,1.654c0.159,0.764,0.259,1.324,0.298,1.692
						c0.15,1.29,0.287,2.323,0.408,3.091c0.002,0.011,0.004,0.022,0.005,0.034c0.004,0.023,0.071,0.027,0.198,0.002
						c0.191-0.022,0.357-0.04,0.486-0.055c0.1-0.012,0.198,0.081,0.219,0.208c0.02,0.126-0.045,0.237-0.146,0.249
						c-0.174,0.021-0.449,0.052-0.807,0.104c-0.355,0.052-0.63,0.082-0.805,0.104c-0.102,0.012-0.2-0.082-0.221-0.209
						c-0.019-0.126,0.046-0.238,0.147-0.25c0.156-0.018,0.348-0.04,0.575-0.076c-0.012-0.022-0.015-0.047-0.019-0.068
						c-0.134-0.837-0.271-1.87-0.413-3.113c-0.047-0.415-0.144-0.964-0.28-1.647c-0.061-0.32-0.146-0.683-0.161-0.775
						c-0.08-0.504-0.181-0.248-0.242-0.054c-0.015,0.024-0.018,0.061-0.033,0.086c-0.048,0.109-0.154,0.146-0.249,0.085
						c-0.092-0.06-0.132-0.192-0.104-0.303c0.107-0.326,0.264-0.636,0.447-0.948c0.031-0.038,0.073-0.066,0.129-0.072
						c0.046-0.006,0.095,0.012,0.139,0.054c0.011,0.011,0.013,0.021,0.023,0.032c0.014,0.021,0.062,0.086,0.081,0.154
						C85.689,136.141,85.689,136.141,85.692,136.152z"/>
					<path fill="#CAE0D4" d="M87.639,137.821c-0.196-0.759-0.082-1.564,0.266-1.965c0.401-0.467,0.967-0.264,1.416,0.62
						c0.373,0.75,0.269,1.567-0.157,2.117c-0.094,0.115-0.135,0.214-0.073,0.242c0.481,0.213,0.813,0.711,0.975,1.312
						c0.343,1.396,0.056,2.407-0.585,2.667c-0.639,0.27-1.354-0.29-1.568-1.351c-0.021-0.125,0.034-0.249,0.134-0.259
						c0.102-0.013,0.209,0.069,0.229,0.195c0.168,0.819,0.643,1.162,1.054,0.987c0.427-0.188,0.685-0.928,0.376-2.152
						c-0.11-0.455-0.372-0.821-0.696-0.972c-0.099-0.035-0.189-0.071-0.258-0.087c-0.087-0.025-0.167-0.005-0.167-0.005
						c-0.045,0.019-0.091,0.022-0.128,0.027c-0.199-0.024-0.324-0.338-0.169-0.53c0.041-0.04,0.092-0.078,0.152-0.099
						c0.02-0.001,0.045-0.017,0.063-0.02c0.054-0.016,0.132-0.05,0.132-0.05c0.525-0.397,0.706-1.141,0.366-1.802
						c-0.166-0.342-0.329-0.546-0.488-0.609c-0.251-0.1-0.494,0.185-0.573,0.742c-0.038,0.284-0.021,0.572,0.057,0.879
						c0.031,0.137-0.016,0.259-0.115,0.281C87.771,138.016,87.668,137.946,87.639,137.821z"/>
					<path fill="#CAE0D4" d="M56.379,152.258c0.419-0.013,0.716,0.198,1.078,0.612c0.705,0.784,1.053,1.852,1.052,3.193
						c0,1.119-0.275,2.258-0.696,3.134c-0.022,0.037-0.044,0.074-0.078,0.091c-0.07,0.032-0.209,0.047-0.209,0.047
						c-0.083-0.003-0.147-0.054-0.189-0.142c-0.004-0.023-0.016-0.034-0.018-0.045c-0.208-0.898-0.412-2.006-0.613-3.323
						c-0.066-0.471-0.346-2.469-0.48-3.306l-0.004-0.022c-0.019-0.125,0.049-0.229,0.149-0.238L56.379,152.258z M57.755,158.258
						c0.576-1.66,0.59-3.81-0.524-5.059c-0.135-0.148-0.248-0.265-0.361-0.333c-0.128-0.101-0.215,0.003-0.185,0.185
						c0.123,0.837,0.323,2.261,0.39,2.743c0.137,0.916,0.274,1.73,0.413,2.414C57.53,158.426,57.695,158.463,57.755,158.258z"/>
					<path fill="#CAE0D4" d="M59.58,152.116c-0.103,0.012-0.156,0.02-0.155,0.029c-0.012,0.048-0.008,0.117-0.003,0.21
						c0.028,0.359,0.118,0.803,0.261,1.404c0.063,0.285,0.103,0.468,0.112,0.524c0.01,0.07,0.03,0.195,0.062,0.39
						c0.017,0.163,0.094,0.234,0.212,0.221c0.093-0.009,0.165-0.019,0.238-0.037c0.1-0.013,0.206,0.068,0.226,0.195
						c0.021,0.126-0.034,0.249-0.135,0.26c-0.071,0.02-0.174,0.031-0.274,0.043c-0.117,0.014-0.17,0.102-0.156,0.251
						c0.141,1.057,0.264,1.941,0.399,2.566c0.04,0.194,0.073,0.343,0.118,0.443c0.002,0.01,0.015,0.033,0.016,0.044
						c0.004,0.022,0.056,0.052,0.16,0.063c0.197,0.012,0.423-0.048,0.685-0.101c0.137-0.028,0.235-0.052,0.3-0.059
						c0.099-0.012,0.2,0.082,0.22,0.209c0.02,0.126-0.046,0.237-0.147,0.249c-0.056,0.007-0.146,0.028-0.271,0.054
						c-0.164,0.031-0.281,0.057-0.346,0.063c-0.298,0.057-0.533,0.049-0.705-0.024c-0.128-0.044-0.197-0.188-0.253-0.356
						c-0.046-0.122-0.093-0.293-0.136-0.51c-0.147-0.694-0.288-1.692-0.382-2.453c-0.051-0.379-0.092-0.688-0.123-0.952
						c-0.032-0.255-0.06-0.425-0.074-0.518c-0.008-0.046-0.042-0.204-0.104-0.479c-0.146-0.625-0.245-1.126-0.275-1.496
						c-0.012-0.244-0.011-0.477,0.11-0.596c0.031-0.038,0.084-0.056,0.156-0.076l0.596-0.066c0.444-0.027,0.685-0.042,0.72-0.059
						c0.107-0.024,0.206,0.059,0.233,0.184c0.021,0.068,0.014,0.128-0.008,0.177c-0.029,0.048-0.072,0.077-0.115,0.094
						c-0.045,0.017-0.304,0.034-0.766,0.063l-0.386,0.044H59.58z"/>
					<path fill="#CAE0D4" d="M66.09,151.485c0.047,0.286,0.153,0.834,0.32,1.654c0.159,0.765,0.258,1.324,0.299,1.693
						c0.148,1.287,0.285,2.321,0.406,3.09c0.003,0.011,0.004,0.022,0.006,0.034c0.004,0.022,0.071,0.027,0.197,0.001
						c0.192-0.021,0.357-0.04,0.486-0.055c0.102-0.012,0.2,0.082,0.221,0.208c0.019,0.126-0.048,0.238-0.147,0.25
						c-0.175,0.02-0.45,0.051-0.807,0.104c-0.355,0.052-0.63,0.083-0.804,0.103c-0.104,0.011-0.201-0.082-0.222-0.208
						s0.046-0.24,0.146-0.25c0.156-0.019,0.35-0.041,0.577-0.077c-0.014-0.022-0.018-0.045-0.021-0.067
						c-0.132-0.837-0.269-1.87-0.412-3.112c-0.046-0.417-0.143-0.967-0.279-1.649c-0.061-0.318-0.146-0.684-0.162-0.774
						c-0.079-0.505-0.18-0.248-0.242-0.055c-0.014,0.025-0.018,0.061-0.032,0.086c-0.047,0.109-0.153,0.145-0.247,0.086
						c-0.094-0.06-0.135-0.194-0.105-0.304c0.107-0.326,0.263-0.636,0.447-0.948c0.03-0.039,0.074-0.067,0.129-0.072
						c0.046-0.006,0.095,0.012,0.139,0.055c0.012,0.01,0.013,0.021,0.024,0.032c0.012,0.021,0.06,0.085,0.079,0.152
						C66.088,151.473,66.088,151.473,66.09,151.485z"/>
					<path fill="#CAE0D4" d="M69.743,152.086c-0.019-0.126-0.045-0.229-0.082-0.293c-0.113-0.232-0.229-0.383-0.344-0.451
						c-0.082-0.05-0.165-0.039-0.26,0.007c-0.417,0.267-0.638,0.922-0.573,2.034c0.033,0.567,0.108,1.154,0.233,1.758
						c0.004,0.023,0.007,0.046,0.01,0.068c0.006,0.035,0.038-0.003,0.057-0.064c0.311-0.921,0.681-1.359,1.118-1.188
						c0.358,0.135,0.641,0.674,0.789,1.311c0.165,0.692,0.19,1.319,0.08,1.856c-0.126,0.621-0.48,0.976-1.019,0.815
						c-0.657-0.193-1.109-1.333-1.398-2.734c-0.244-1.243-0.335-2.621-0.163-3.188c0.166-0.544,0.39-0.907,0.68-1.079
						c0.373-0.23,0.781-0.019,1.113,0.655c0.054,0.109,0.096,0.256,0.125,0.438l0.025,0.162c0.017,0.09,0.026,0.16,0.042,0.205
						c0.03,0.125-0.025,0.248-0.124,0.271c-0.099,0.023-0.206-0.059-0.235-0.184c-0.005-0.034-0.013-0.08-0.021-0.126
						c-0.015-0.033-0.024-0.091-0.032-0.149L69.743,152.086z M69.023,156.296c0.013,0.08,0.428,1.106,0.77,1.196
						c0.323,0.102,0.526-0.096,0.616-0.524c0.104-0.467,0.075-1.001-0.077-1.601c-0.073-0.284-0.156-0.508-0.249-0.686
						c-0.173-0.317-0.332-0.38-0.532-0.171c-0.284,0.323-0.583,1.15-0.555,1.614C68.992,156.16,69.005,156.181,69.023,156.296z"/>
					<path fill="#CAE0D4" d="M72.189,153.955c-0.118,0.014-0.171,0.101-0.137,0.249c0.047,0.239,0.092,0.525,0.157,0.869
						c0.178,0.945,0.316,1.7,0.427,2.388c0.02,0.125-0.046,0.239-0.147,0.25c-0.1,0.012-0.199-0.083-0.22-0.208
						c-0.079-0.492-0.197-1.179-0.369-2.081c-0.332-1.793-0.357-1.838-0.526-3.125c-0.08-0.619-0.152-1.078-0.209-1.375
						c-0.021-0.138,0.035-0.248,0.146-0.261c0.102-0.011,0.197,0.07,0.218,0.196c0.062,0.331,0.136,0.801,0.217,1.41
						c0.06,0.437,0.104,0.78,0.143,1.021c0.023,0.149,0.101,0.222,0.22,0.208l0.863-0.097c0.119-0.015,0.171-0.101,0.155-0.251
						c-0.056-0.356-0.088-0.607-0.116-0.791c-0.017-0.104-0.039-0.241-0.056-0.414c-0.02-0.173-0.042-0.322-0.059-0.426
						c-0.034-0.205-0.101-0.513-0.195-0.699c-0.058-0.122-0.013-0.256,0.071-0.312c0.084-0.058,0.198,0.012,0.251,0.111
						c0.115,0.254,0.203,0.629,0.24,0.858c0.02,0.125,0.044,0.274,0.063,0.46c0.02,0.184,0.04,0.311,0.052,0.379
						c0.034,0.217,0.091,0.631,0.174,1.217c0.075,0.586,0.138,1.033,0.175,1.32c0.168,1.124,0.33,1.899,0.482,2.336
						c0.047,0.123,0.012,0.244-0.084,0.29c-0.095,0.047-0.197-0.014-0.247-0.135c-0.177-0.472-0.345-1.291-0.521-2.461
						c-0.026-0.219-0.062-0.493-0.109-0.804c-0.019-0.162-0.095-0.234-0.214-0.22L72.189,153.955z"/>
					<path fill="#CAE0D4" d="M79.415,153.464c-0.023-0.148-0.045-0.228-0.064-0.226c-0.285,0.032-0.534,0.047-0.722,0.034
						c-0.13,0.004-0.185,0.078-0.17,0.229c0.039,0.357,0.107,0.851,0.19,1.494c0.108,0.793,0.186,1.392,0.232,1.805
						c0.013,0.14-0.057,0.228-0.159,0.229c-0.11,0.013-0.191-0.085-0.211-0.211c-0.045-0.391-0.118-0.965-0.219-1.725
						c-0.212-1.505-0.357-2.712-0.376-3.817c0-0.245,0.055-0.775,0.177-1.128c0.168-0.531,0.525-0.747,0.905-0.125
						c0.379,0.622,0.448,1.232,0.816,3.604c0.124,0.837,0.25,1.452,0.363,1.871c0.147,0.521,0.311,0.839,0.488,0.948
						c0.096,0.069,0.143,0.205,0.105,0.314c-0.039,0.109-0.154,0.145-0.246,0.098c-0.571-0.355-0.786-1.357-1.077-3.189
						L79.415,153.464z M78.7,150.268c-0.023-0.031-0.037-0.066-0.06-0.086c-0.038-0.065-0.111-0.047-0.155,0.075
						c-0.016,0.025-0.028,0.062-0.043,0.099c-0.092,0.29-0.146,0.774-0.143,0.973c0.007,0.395,0.024,0.802,0.06,1.251
						c0.014,0.151,0.084,0.236,0.194,0.235c0.163,0.019,0.358,0.007,0.597-0.021c0.107-0.022,0.15-0.109,0.128-0.246
						C79.148,151.675,78.991,150.737,78.7,150.268z M77.976,148.704c-0.081-0.094-0.075-0.235-0.005-0.324
						c0.06-0.088,0.176-0.065,0.254,0.019c0.128,0.159,0.292,0.305,0.509,0.431c0.092,0.048,0.143,0.194,0.113,0.303
						s-0.145,0.156-0.234,0.107C78.355,149.095,78.138,148.909,77.976,148.704z"/>
					<path fill="#CAE0D4" d="M84.887,149.357c0.046,0.287,0.152,0.835,0.32,1.654c0.158,0.764,0.258,1.324,0.297,1.693
						c0.151,1.289,0.286,2.323,0.408,3.09c0.003,0.012,0.004,0.023,0.006,0.035c0.003,0.023,0.07,0.025,0.196,0.001
						c0.193-0.021,0.358-0.041,0.487-0.055c0.101-0.012,0.199,0.082,0.22,0.208c0.019,0.126-0.046,0.238-0.148,0.25
						c-0.173,0.02-0.448,0.05-0.804,0.103c-0.356,0.052-0.631,0.082-0.807,0.103c-0.101,0.012-0.2-0.082-0.22-0.208
						s0.046-0.239,0.147-0.251c0.155-0.017,0.348-0.039,0.576-0.076c-0.014-0.021-0.017-0.045-0.021-0.067
						c-0.132-0.837-0.27-1.87-0.411-3.113c-0.048-0.414-0.145-0.964-0.281-1.648c-0.06-0.318-0.146-0.682-0.161-0.773
						c-0.08-0.504-0.179-0.249-0.242-0.055c-0.016,0.025-0.018,0.061-0.032,0.086c-0.049,0.108-0.155,0.146-0.247,0.086
						c-0.094-0.061-0.135-0.194-0.105-0.303c0.106-0.327,0.263-0.636,0.446-0.948c0.031-0.039,0.074-0.067,0.13-0.074
						c0.045-0.005,0.096,0.012,0.139,0.055c0.012,0.011,0.013,0.021,0.023,0.033c0.014,0.021,0.06,0.085,0.08,0.153
						C84.885,149.347,84.885,149.347,84.887,149.357z"/>
					<path fill="#CAE0D4" d="M88.658,150.108c-0.007,0.189-0.071,1.07-0.172,1.384c-0.038,0.109-0.075,0.231-0.128,0.365
						c-0.054,0.135-0.02,0.235,0.087,0.316c0.294,0.2,0.455,0.334,0.734,0.617c0.336,0.346,0.525,0.779,0.623,1.328
						c0.147,0.87-0.268,1.616-0.852,1.87c-0.63,0.27-1.301-0.076-1.535-1.064c-0.155-0.692-0.131-1.36,0.076-2.003
						c0.041-0.144,0.117-0.315,0.204-0.524c0.054-0.134,0.019-0.234-0.078-0.317c-0.493-0.398-0.909-0.899-0.901-1.904
						c0.018-0.83,0.379-1.431,0.857-1.542c0.509-0.14,1.063,0.522,1.083,1.229L88.658,150.108z M88.033,152.64
						c-0.088,0.209-0.155,0.368-0.192,0.488c-0.184,0.546-0.204,1.119-0.063,1.711c0.157,0.691,0.583,0.9,1.01,0.712
						c0.456-0.19,0.757-0.76,0.648-1.391c-0.076-0.422-0.223-0.756-0.495-1.052c-0.234-0.241-0.384-0.353-0.657-0.544
						C88.178,152.483,88.088,152.507,88.033,152.64z M88.02,151.604c0.038-0.109,0.076-0.219,0.115-0.327
						c0.102-0.305,0.207-1.285,0.176-1.479c-0.008-0.047-0.038-0.182-0.073-0.282c-0.124-0.313-0.314-0.502-0.555-0.428
						c-0.297,0.068-0.573,0.497-0.584,1.14c-0.021,0.749,0.263,1.124,0.671,1.451C87.878,151.771,87.964,151.737,88.02,151.604z"/>
					<path fill="#CAE0D4" d="M91.133,151.811c-0.12,0.015-0.17,0.102-0.137,0.25c0.047,0.239,0.093,0.525,0.155,0.868
						c0.182,0.947,0.32,1.702,0.429,2.389c0.02,0.125-0.046,0.239-0.146,0.25c-0.102,0.012-0.201-0.083-0.222-0.208
						c-0.078-0.493-0.196-1.179-0.368-2.081c-0.331-1.793-0.358-1.837-0.526-3.125c-0.079-0.62-0.152-1.077-0.209-1.375
						c-0.021-0.137,0.035-0.248,0.145-0.261c0.102-0.011,0.198,0.069,0.219,0.197c0.062,0.331,0.138,0.8,0.215,1.41
						c0.062,0.437,0.105,0.78,0.145,1.02c0.024,0.15,0.101,0.224,0.22,0.209l0.863-0.097c0.118-0.015,0.172-0.101,0.155-0.251
						c-0.056-0.355-0.087-0.607-0.115-0.792c-0.018-0.104-0.039-0.24-0.057-0.413c-0.02-0.173-0.043-0.321-0.06-0.425
						c-0.031-0.206-0.1-0.513-0.195-0.7c-0.057-0.123-0.013-0.257,0.072-0.312c0.084-0.057,0.198,0.013,0.251,0.11
						c0.115,0.255,0.204,0.631,0.239,0.859c0.021,0.125,0.043,0.274,0.063,0.461c0.021,0.184,0.042,0.31,0.052,0.378
						c0.035,0.218,0.092,0.631,0.175,1.217c0.075,0.586,0.137,1.033,0.174,1.321c0.169,1.124,0.331,1.898,0.483,2.335
						c0.047,0.123,0.012,0.243-0.085,0.29c-0.095,0.046-0.198-0.013-0.245-0.135c-0.178-0.471-0.345-1.291-0.522-2.461
						c-0.026-0.219-0.06-0.494-0.108-0.804c-0.018-0.161-0.094-0.234-0.215-0.221L91.133,151.811z"/>
					<path fill="#CAE0D4" d="M95.31,149.414c0.11,0.395,0.147,0.635,0.214,0.99c0.123,0.72,0.202,1.098,0.312,1.959
						c0.146,1.208,0.149,2.164-0.182,2.609c-0.31,0.407-0.667,0.448-1.004,0.149c-0.51-0.444-0.937-1.656-1.195-2.745
						c-0.133-0.546-0.208-0.957-0.241-1.221c-0.142-1.418,0.004-2.449,0.435-3.082c0.418-0.604,0.903-0.37,1.253,0.243
						C95.081,148.636,95.228,149.016,95.31,149.414z M95.137,150.331c-0.02-0.125-0.291-1.366-0.533-1.771
						c-0.227-0.43-0.428-0.51-0.662-0.169c-0.372,0.544-0.489,1.454-0.356,2.747c0.051,0.494,0.342,1.732,0.665,2.594
						c0.204,0.514,0.406,0.852,0.594,1.029c0.077,0.073,0.155,0.1,0.238,0.089c0.092-0.01,0.194-0.079,0.293-0.219
						c0.218-0.27,0.241-1.065,0.089-2.251C95.408,151.91,95.301,151.234,95.137,150.331z"/>
					<path fill="#CAE0D4" d="M98.365,149.069c0.109,0.395,0.146,0.635,0.212,0.988c0.123,0.722,0.203,1.099,0.312,1.96
						c0.146,1.209,0.149,2.165-0.183,2.61c-0.308,0.407-0.666,0.447-1.003,0.148c-0.511-0.444-0.938-1.655-1.193-2.745
						c-0.136-0.545-0.21-0.956-0.243-1.221c-0.14-1.419,0.002-2.449,0.435-3.082c0.417-0.606,0.902-0.37,1.253,0.244
						C98.136,148.29,98.282,148.669,98.365,149.069z M98.191,149.986c-0.021-0.127-0.292-1.367-0.533-1.771
						c-0.229-0.428-0.428-0.512-0.663-0.169c-0.37,0.544-0.487,1.454-0.357,2.745c0.053,0.496,0.343,1.734,0.667,2.596
						c0.203,0.514,0.407,0.853,0.595,1.029c0.076,0.073,0.155,0.1,0.237,0.09c0.092-0.011,0.192-0.081,0.293-0.221
						c0.218-0.269,0.24-1.063,0.089-2.25C98.462,151.564,98.354,150.889,98.191,149.986z"/>
				</g>
			</g>
		</g>
	</g>
</g>
<g id="rtfm-desktop">
</g>
<g id="rtfm-tablette">
</g>
</svg>
