<?xml version="1.0" encoding="utf-8"?>
<!-- Generator: Adobe Illustrator 16.0.0, SVG Export Plug-In . SVG Version: 6.00 Build 0)  -->
<!DOCTYPE svg PUBLIC "-//W3C//DTD SVG 1.1//EN" "http://www.w3.org/Graphics/SVG/1.1/DTD/svg11.dtd">
<svg version="1.1" id="Calque_1" xmlns="http://www.w3.org/2000/svg" xmlns:xlink="http://www.w3.org/1999/xlink" x="0px" y="0px"
	 width="135.5px" height="135.5px" viewBox="0 0 135.5 135.5" enable-background="new 0 0 135.5 135.5" xml:space="preserve">
<g id="chapter_1_mobile">
</g>
<g id="ui">
</g>
<g id="Calque_2">
</g>
<g id="home-tablette">
</g>
<g id="home-desktop">
</g>
<g id="ui-pannel">
	<g>
		<g>
			<circle fill="#FFFFFF" cx="67.75" cy="67.75" r="63.75"/>
			<g opacity="0.8">
				<path fill="#479369" d="M67.732,4c0.296,0,0.586,0.002,0.883,0.006c35.205,0.478,63.355,29.404,62.879,64.609
					c-0.475,34.908-28.926,62.885-63.727,62.885c-0.296,0-0.586-0.002-0.883-0.006C31.681,131.018,3.528,102.09,4.006,66.885
					C4.48,31.977,32.931,4.003,67.732,4 M67.738,0h-0.006c-17.9,0.001-34.785,6.928-47.544,19.504
					C7.418,32.093,0.25,48.9,0.006,66.831c-0.245,18.095,6.57,35.202,19.192,48.171c12.621,12.969,29.538,20.246,47.632,20.492
					c0.315,0.004,0.623,0.006,0.938,0.006c17.9,0,34.785-6.926,47.544-19.503c12.771-12.589,19.938-29.397,20.183-47.328
					c0.245-18.095-6.57-35.202-19.19-48.171C103.682,7.529,86.766,0.252,68.67,0.006C68.355,0.002,68.051,0,67.738,0L67.738,0z"/>
			</g>
		</g>
		<g id="indice_1_">
			<path fill="#0F6B70" d="M36.167,28.957c0,0,2.484,21.809,1.932,32.575c-0.552,10.766,1.657,25.639,2.209,35.319
				c0.552,9.679,1.932,15.477,1.932,15.477s14.631,9.661,30.643,8.281c16.012-1.38,24.294-4.417,25.674-6.901
				c1.381-2.484,1.977-22.447,2.507-30.687c0.53-8.238,6.327-44.73,6.604-49.535C107.667,33.486,83.373,18.19,36.167,28.957z"/>
			<path fill="#9BD7DA" d="M36.167,28.957c0,0,16.622,9.89,33.403,10.49s31.195-0.88,38.097-5.961
				C107.667,33.486,83.373,18.19,36.167,28.957z"/>
			<path fill="#0F6B70" d="M61.93,21.381c0,0,1.062,5.714,1.062,6.818c0,0,7.315,4.146,18.914,1.104c0,0-0.412-2.558-0.001-6.064
				L61.93,21.381z"/>
			
				<ellipse transform="matrix(0.0928 -0.9957 0.9957 0.0928 43.0103 91.8521)" fill="#9BD7DA" cx="71.913" cy="22.322" rx="1.104" ry="10.03"/>
			
				<ellipse transform="matrix(0.0922 -0.9957 0.9957 0.0922 43.0543 91.8704)" fill="#12868C" cx="71.912" cy="22.323" rx="0.318" ry="7.526"/>
			<g>
				<path fill="none" stroke="#0B5154" stroke-miterlimit="10" d="M56.926,75.738c-0.757-0.172-1.502-0.356-2.233-0.549"/>
				<path fill="none" stroke="#0B5154" stroke-miterlimit="10" d="M86.88,76.366c-0.781,0.08-1.581,0.156-2.402,0.226"/>
				<path fill="none" stroke="#0B5154" stroke-miterlimit="10" d="M91.174,75.838c-0.724,0.104-1.472,0.205-2.242,0.298"/>
				<path fill="none" stroke="#0B5154" stroke-miterlimit="10" d="M84.478,76.592c-0.723,0.06-1.458,0.117-2.208,0.169"/>
				<path fill="none" stroke="#0B5154" stroke-miterlimit="10" d="M56.926,75.738c0.945,0.217,1.908,0.414,2.888,0.59"/>
				<path fill="none" stroke="#0B5154" stroke-miterlimit="10" d="M62.408,76.729c-0.874-0.115-1.741-0.249-2.594-0.401"/>
				<path fill="none" stroke="#0B5154" stroke-miterlimit="10" d="M72.032,77.155c-0.846,0.009-1.7,0.013-2.562,0.011"/>
				<path fill="none" stroke="#0B5154" stroke-miterlimit="10" d="M65.049,77.008c-0.887-0.07-1.768-0.163-2.641-0.278"/>
				<path fill="none" stroke="#0B5154" stroke-miterlimit="10" d="M88.932,76.136c-0.667,0.08-1.352,0.158-2.053,0.23"/>
				<path fill="none" stroke="#0B5154" stroke-miterlimit="10" d="M67.178,77.134c-0.713-0.026-1.422-0.069-2.129-0.126"/>
				<path fill="none" stroke="#0B5154" stroke-miterlimit="10" d="M69.47,77.166c-0.334,0-0.667-0.001-1.003-0.003
					c-0.431-0.003-0.861-0.015-1.289-0.03"/>
				<path fill="none" stroke="#0B5154" stroke-miterlimit="10" d="M97.93,74.511c-0.611,0.163-1.265,0.32-1.953,0.471"/>
				<path fill="none" stroke="#0B5154" stroke-miterlimit="10" d="M99.535,74.036c-0.5,0.163-1.034,0.322-1.605,0.474"/>
				<path fill="none" stroke="#0B5154" stroke-miterlimit="10" d="M80.675,76.862c-1.218,0.071-2.466,0.132-3.742,0.178"/>
				<path fill="none" stroke="#0B5154" stroke-miterlimit="10" d="M82.27,76.761c-0.524,0.036-1.057,0.07-1.595,0.102"/>
				<path fill="none" stroke="#0B5154" stroke-miterlimit="10" d="M102.22,72.932c-0.326,0.177-0.693,0.35-1.092,0.518"/>
				<path fill="none" stroke="#0B5154" stroke-miterlimit="10" d="M101.128,73.449c-0.481,0.202-1.014,0.398-1.593,0.587"/>
				<path fill="none" stroke="#0B5154" stroke-miterlimit="10" d="M76.933,77.04c-0.823,0.03-1.657,0.056-2.503,0.075"/>
				<path fill="none" stroke="#0B5154" stroke-miterlimit="10" d="M93.867,75.4c-0.855,0.155-1.753,0.301-2.693,0.438"/>
				<path fill="none" stroke="#0B5154" stroke-miterlimit="10" d="M93.867,75.4c0.736-0.134,1.44-0.273,2.109-0.42"/>
				<path fill="none" stroke="#0B5154" stroke-miterlimit="10" d="M72.032,77.155c0.808-0.009,1.608-0.022,2.397-0.04"/>
				<path fill="none" stroke="#0B5154" stroke-miterlimit="10" d="M42.083,70.63c-0.934-0.429-1.722-0.814-2.349-1.132"/>
				<path fill="none" stroke="#0B5154" stroke-miterlimit="10" d="M52.455,74.557c-0.822-0.245-1.62-0.5-2.393-0.761"/>
				<path fill="none" stroke="#0B5154" stroke-miterlimit="10" d="M50.062,73.796c-0.89-0.298-1.748-0.604-2.562-0.908"/>
				<path fill="none" stroke="#0B5154" stroke-miterlimit="10" d="M47.5,72.887c-0.99-0.371-1.917-0.741-2.778-1.099"/>
				<path fill="none" stroke="#0B5154" stroke-miterlimit="10" d="M44.722,71.788c-0.971-0.406-1.855-0.796-2.639-1.158"/>
				<path fill="none" stroke="#0B5154" stroke-miterlimit="10" d="M39.734,69.499c-1.065-0.539-1.662-0.88-1.662-0.88"/>
				<path fill="none" stroke="#0B5154" stroke-miterlimit="10" d="M54.693,75.189c-0.764-0.202-1.508-0.414-2.238-0.634"/>
				<path fill="none" stroke="#0B5154" stroke-miterlimit="10" d="M40.229,62.218c0.075,2.441-0.58,4.839-0.496,7.281"/>
				<path fill="none" stroke="#0B5154" stroke-miterlimit="10" d="M42.974,63.462c-0.116,2.409-0.513,4.791-0.892,7.169"/>
				<path fill="none" stroke="#0B5154" stroke-miterlimit="10" d="M45.344,64.093c-0.101,2.573-0.621,5.116-0.622,7.695"/>
				<path fill="none" stroke="#0B5154" stroke-miterlimit="10" d="M47.805,65.196c-0.087,2.565-0.256,5.125-0.306,7.691"/>
				<path fill="none" stroke="#0B5154" stroke-miterlimit="10" d="M50.324,65.779c0.186,2.677-0.249,5.342-0.262,8.017"/>
				<path fill="none" stroke="#0B5154" stroke-miterlimit="10" d="M52.748,66.558c0.177,2.672-0.286,5.329-0.292,7.999"/>
				<path fill="none" stroke="#0B5154" stroke-miterlimit="10" d="M54.976,67.234c-0.081,2.652-0.221,5.302-0.283,7.955"/>
				<path fill="none" stroke="#0B5154" stroke-miterlimit="10" d="M56.926,75.738c0.088-2.624,0.129-5.234,0.129-7.861"/>
				<path fill="none" stroke="#0B5154" stroke-miterlimit="10" d="M59.645,68.198c0.313,2.701,0.043,5.421,0.169,8.13"/>
				<path fill="none" stroke="#0B5154" stroke-miterlimit="10" d="M62.757,68.833c0.093,2.639-0.299,5.261-0.349,7.896"/>
				<path fill="none" stroke="#0B5154" stroke-miterlimit="10" d="M65.327,68.666c-0.022,2.782-0.083,5.565-0.279,8.342"/>
				<path fill="none" stroke="#0B5154" stroke-miterlimit="10" d="M67.441,68.795c0.195,2.784-0.267,5.557-0.264,8.339"/>
				<path fill="none" stroke="#0B5154" stroke-miterlimit="10" d="M69.4,69.01c0.034,2.719,0.106,5.438,0.069,8.156"/>
				<path fill="none" stroke="#0B5154" stroke-miterlimit="10" d="M72.032,77.155c-0.011-2.582,0.165-5.158,0.228-7.738"/>
				<path fill="none" stroke="#0B5154" stroke-miterlimit="10" d="M74.781,69.26c0.02,2.623-0.213,5.238-0.352,7.855"/>
				<path fill="none" stroke="#0B5154" stroke-miterlimit="10" d="M76.933,68.986c0,2.684,0,5.369,0,8.054"/>
				<path fill="none" stroke="#0B5154" stroke-miterlimit="10" d="M80.264,68.841c0.079,2.676,0.371,5.343,0.411,8.021"/>
				<path fill="none" stroke="#0B5154" stroke-miterlimit="10" d="M82.433,68.8c0.456,2.445-0.16,5.455-0.163,7.961"/>
				<path fill="none" stroke="#0B5154" stroke-miterlimit="10" d="M84.478,68.873c0,2.572,0,5.146,0,7.719"/>
				<path fill="none" stroke="#0B5154" stroke-miterlimit="10" d="M87.347,68.35c0.061,2.684-0.528,5.334-0.468,8.017"/>
				<path fill="none" stroke="#0B5154" stroke-miterlimit="10" d="M89.118,68.267c0.408,2.497-0.285,5.309-0.187,7.869"/>
				<path fill="none" stroke="#0B5154" stroke-miterlimit="10" d="M90.93,67.924c0.032,2.64,0.127,5.277,0.244,7.914"/>
				<path fill="none" stroke="#0B5154" stroke-miterlimit="10" d="M93.867,75.4c0.165-2.65,0.416-5.227,0.378-7.892"/>
				<path fill="none" stroke="#0B5154" stroke-miterlimit="10" d="M96.211,66.859c0.539,2.588-0.301,5.49-0.234,8.121"/>
				<path fill="none" stroke="#0B5154" stroke-miterlimit="10" d="M97.914,66.409c0.371,2.555,0.09,5.421,0.016,8.102"/>
				<path fill="none" stroke="#0B5154" stroke-miterlimit="10" d="M100.335,65.619c0.117,2.812-1.465,5.615-0.8,8.417"/>
				<path fill="none" stroke="#0B5154" stroke-miterlimit="10" d="M101.69,64.938c-0.064,2.844-0.425,5.671-0.562,8.511"/>
			</g>
			<path fill="#0B5154" d="M78.266,80.619c-0.016-0.016-0.033-0.031-0.05-0.047c11.251-1.19,21.806-5.239,21.806-5.239
				s-10.908,1.223-15.609,2.096c-4.7,0.873-8.649,1.048-21.625,0c-12.976-1.047-22.378-6.812-22.378-6.812
				c1.686,2.276,10.234,6.754,20.867,8.997c-1.433,0.857-4.612,2.399-8.82,2.273c-5.798-0.173-7.112-1.409-7.112-1.409
				s2.625,3.312,7.87,3.082c5.245-0.231,10.259-2.612,14.828-2.287c4.568,0.327,10.638,3.267,14.848,3.036
				c4.21-0.231,6.357-1.211,6.357-1.211S81.994,84.483,78.266,80.619z"/>
			<path fill="#16A1A8" d="M46.533,75.738c0,0,13.336,3.79,14.908,3.721C61.441,79.459,52.275,81.818,46.533,75.738z"/>
			<path fill="#16A1A8" d="M93.303,78.413c0,0-13.695,2.158-15.247,1.9C78.056,80.313,86.87,83.758,93.303,78.413z"/>
			<path fill="#0B5154" d="M46.733,75.938c1.2,1.213,2.536,2.079,3.904,2.68c-0.096-0.817-0.503-1.538-1.102-2.041
				c-1.099-0.303-1.989-0.553-2.507-0.699C46.928,75.894,46.83,75.914,46.733,75.938z"/>
			<path fill="#0B5154" d="M78.303,80.332c-0.016,0.018-0.03,0.038-0.045,0.056c0.565,0.198,2.292,0.744,4.543,0.943
				c-0.168-0.521-0.484-0.97-0.908-1.298C80.264,80.227,78.929,80.351,78.303,80.332z"/>
			<path fill="#0B5154" d="M46.178,89.34c0,0,21.808-12.024,42.84,1.986c0,0-17.992-6.317-22.854-5.912
				C61.301,85.822,46.178,89.34,46.178,89.34z"/>
		</g>
	</g>
</g>
<g id="rtfm-desktop">
</g>
<g id="rtfm-tablette">
</g>
</svg>
