<?xml version="1.0" encoding="utf-8"?>
<!-- Generator: Adobe Illustrator 16.0.0, SVG Export Plug-In . SVG Version: 6.00 Build 0)  -->
<!DOCTYPE svg PUBLIC "-//W3C//DTD SVG 1.1//EN" "http://www.w3.org/Graphics/SVG/1.1/DTD/svg11.dtd">
<svg version="1.1" id="svgCanvas" xmlns="http://www.w3.org/2000/svg" xmlns:xlink="http://www.w3.org/1999/xlink" x="0px" y="0px"
	 width="400px" height="519.981px" viewBox="0 0 400 519.981" enable-background="new 0 0 400 519.981" xml:space="preserve">
<path id="feuille_25_" opacity="0.9" fill="none" stroke="#2B5E47" stroke-linecap="round" stroke-linejoin="round" stroke-miterlimit="10" enable-background="new    " d="
	M-2,123.16c0,0,45.38-97.109,113-116c0,0-12.074,25.576-21.037,53.287C81,88.16,47,176.16-2,194.16V123.16z"/>
<path id="feuille_9_" opacity="0.9" fill="none" stroke="#2B5E47" stroke-linecap="round" stroke-linejoin="round" stroke-miterlimit="10" enable-background="new    " d="
	M-2,251.16c0,0,40-99.857,113-142.43s139.979-70.062,139.979-70.062S224,80.955,206,118.06c-18,37.102-62,149.102-123,186.102
	S-1.937,338.16-1.937,338.16L-2,251.16z"/>
<path id="feuille_8_" opacity="0.9" fill="none" stroke="#2B5E47" stroke-linecap="round" stroke-linejoin="round" stroke-miterlimit="10" enable-background="new    " d="
	M8,521.16c0,0,18-136,74-188s97-80,107-105c0,0-20,102-78,159s-96,134-96,134H8z"/>
<path id="feuille_7_" opacity="0.9" fill="none" stroke="#2B5E47" stroke-linecap="round" stroke-linejoin="round" stroke-miterlimit="10" enable-background="new    " d="
	M315,521.16c0,0-23.806-112,45.103-140c68.901-28,180.726,34,216.812,0c0,0-87.017,70-147.464,73
	c-60.444,3-100.229,67.1-100.229,67.1L315,521.16z"/>
<path id="feuille_6_" opacity="0.9" fill="none" stroke="#2B5E47" stroke-linecap="round" stroke-linejoin="round" stroke-miterlimit="10" enable-background="new    " d="
	M9.93,521.16c0,0-8.5-75,76.5-108.5s169.051-52.385,180.025-74.441c0,0-18.521,69.941-83.773,103.941s-159.797,48-158.524,79H9.93z"
	/>
<path opacity="0.9" fill="none" stroke="#2B5E47" stroke-linecap="round" stroke-linejoin="round" stroke-miterlimit="10" enable-background="new    " d="
	M98.5,521.257c0,0,186.55-150.102,212.524-158.102c0,0-79.733,113.955-128.381,136c-48.646,22.047-71.645,22-71.645,22L98.5,521.257
	z"/>
<path id="feuille_5_" opacity="0.9" fill="none" stroke="#2B5E47" stroke-linecap="round" stroke-linejoin="round" stroke-miterlimit="10" enable-background="new    " d="
	M204.762,521.16c0,0,43.296-90.174,80.267-123.088C322,365.16,344,350.275,350,338.218c0,0-32.709,86.941-68.354,123.941
	s-63.79,59.1-63.79,59.1L204.762,521.16z"/>
<path id="feuille_4_" opacity="0.9" fill="none" stroke="#2B5E47" stroke-linecap="round" stroke-linejoin="round" stroke-miterlimit="10" enable-background="new    " d="
	M-2,363.16c0,0,66.04-41.471,113-43c46.96-1.531,124.382-7,133.69-12c0,0-91.69,40-133.69,46S-2,363.16-2,363.16z"/>
<path id="feuille_3_" opacity="0.9" fill="none" stroke="#2B5E47" stroke-linecap="round" stroke-linejoin="round" stroke-miterlimit="10" enable-background="new    " d="
	M-2,82.326c0,0,39.437-24.369,43.942-48.041c4.509-23.676,8.451-31.562,8.451-31.562s-18.66,3.762-29.33,23.289
	C10.394,45.537-2,63.24-2,63.24v20.609"/>
<g opacity="0.9">
	<path fill="none" stroke="#2B5E47" stroke-linecap="round" stroke-linejoin="round" stroke-miterlimit="10" d="M-2,429.16
		c0,0,22.887-20.107,63-26c40.112-5.895,122.711-30,156.854-76C252,281.16,277,169.849,337,152.505c60-17.346,91,5.654,82,63.654
		s-58,91.896-89,86.947c-31-4.947-13-59.947,16-58.947s16,24.762,16,24.762"/>
	<path fill="none" stroke="#2B5E47" stroke-linecap="round" stroke-linejoin="round" stroke-miterlimit="10" d="M256.348,252.785
		c0,0-25.176-30.426-11.657-51.627C244.69,201.16,260.696,219.41,256.348,252.785z"/>
	<path fill="none" stroke="#2B5E47" stroke-linecap="round" stroke-linejoin="round" stroke-miterlimit="10" d="M268.804,226.97
		c0,0,14.194-14.811,22.194-17.311s20.5,0,26-6C317,203.66,310.608,228.285,268.804,226.97z"/>
	<path fill="none" stroke="#2B5E47" stroke-linecap="round" stroke-linejoin="round" stroke-miterlimit="10" d="M295.562,183.492
		c0,0-14.562-12.643,5.438-30.988C301,152.503,300.85,176.419,295.562,183.492z"/>
	<path fill="none" stroke="#2B5E47" stroke-linecap="round" stroke-linejoin="round" stroke-miterlimit="10" d="M384,146.857
		c0,0-1.5-10.197,14.5-16.197s24.5-6,30-10.5S414,147.554,384,146.857z"/>
	<path fill="none" stroke="#2B5E47" stroke-linecap="round" stroke-linejoin="round" stroke-miterlimit="10" d="M345.377,150.298
		c0,0,4.117,27.857,30.617,25.357c0,0-8-9.406-11-16.703C361.994,151.658,345.377,150.298,345.377,150.298z"/>
	<path fill="none" stroke="#2B5E47" stroke-linecap="round" stroke-linejoin="round" stroke-miterlimit="10" d="M420.049,188.443
		c0,0-17.055-0.783-22.055,5.717s-4.5,21.182-4.5,21.182S409.099,208.228,420.049,188.443z"/>
	<path fill="none" stroke="#2B5E47" stroke-linecap="round" stroke-linejoin="round" stroke-miterlimit="10" d="M404.121,257.535
		c0,0-4.621,7.621-4.121,19.621s6.688,23,6.688,23s5.557-15.5,4.686-27.5S404.121,257.535,404.121,257.535z"/>
	<path fill="none" stroke="#2B5E47" stroke-linecap="round" stroke-linejoin="round" stroke-miterlimit="10" d="M362.492,250.259
		c0,0-11.729-0.846-17.109,7.275C345.377,257.535,356.985,259.861,362.492,250.259z"/>
	<path fill="none" stroke="#2B5E47" stroke-linecap="round" stroke-linejoin="round" stroke-miterlimit="10" d="M325.498,255.66
		c0,0-12.832-24.184,6.52-38L325.498,255.66z"/>
	<path fill="none" stroke="#2B5E47" stroke-linecap="round" stroke-linejoin="round" stroke-miterlimit="10" d="M328.5,250.234
		c0,0,2-15.574,8-18.574C336.5,231.66,339.5,244.81,328.5,250.234z"/>
	<path fill="none" stroke="#2B5E47" stroke-linecap="round" stroke-linejoin="round" stroke-miterlimit="10" d="M318.554,297.111
		c0,0-5.56-6.254-12.06-9.104s-12.19-4.348-13.598-10.848C292.901,277.16,291.108,305.564,318.554,297.111z"/>
	<path fill="none" stroke="#2B5E47" stroke-linecap="round" stroke-linejoin="round" stroke-miterlimit="10" d="M242.734,282.269
		c0,0,4.766-8.609,19.266-9.109s13.92-4.238,13.92-4.238S260.469,292.878,242.734,282.269z"/>
	<path fill="none" stroke="#2B5E47" stroke-linecap="round" stroke-linejoin="round" stroke-miterlimit="10" d="M237.358,293.16
		c0,0-34.333-15.521-24.53-43.293C212.828,249.865,241.467,272.738,237.358,293.16z"/>
	<path fill="none" stroke="#2B5E47" stroke-linecap="round" stroke-linejoin="round" stroke-miterlimit="10" d="M178.312,363.201
		c0,0,34.099-14.822,47.604-14.822s20.463,10.188,29.737,7.412C255.654,355.789,227.734,379.568,178.312,363.201z"/>
	<path fill="none" stroke="#2B5E47" stroke-linecap="round" stroke-linejoin="round" stroke-miterlimit="10" d="M157.235,373.169
		c0,0-11.235-17.014,4.265-29.014C161.5,344.16,168.972,361.681,157.235,373.169z"/>
	<path fill="none" stroke="#2B5E47" stroke-linecap="round" stroke-linejoin="round" stroke-miterlimit="10" d="M130,384.816
		c0,0,18.688,21.342,33.845,18.342C163.843,403.16,152.5,386.474,130,384.816z"/>
	<path fill="none" stroke="#2B5E47" stroke-linecap="round" stroke-linejoin="round" stroke-miterlimit="10" d="M73.562,400.968
		c0,0,6.636,33.42,31.539,35.191C105.101,436.16,110.17,420.947,73.562,400.968z"/>
</g>
<g id="feuille_2_" opacity="0.9">
	<path fill="none" stroke="#2B5E47" stroke-linecap="round" stroke-linejoin="round" stroke-miterlimit="10" d="M-2,221.041
		c0,0,16-57.188,83-68.537c67-11.348,123.811-0.057,158-34.441c34.188-34.396,36.92-63.9,36.92-63.9"/>
	<path fill="none" stroke="#2B5E47" stroke-linecap="round" stroke-linejoin="round" stroke-miterlimit="10" d="M113.015,149.316
		c0,0,8.913-38.471,33.969-40.586C146.983,108.73,142.184,132.527,113.015,149.316z"/>
	<path fill="none" stroke="#2B5E47" stroke-linecap="round" stroke-linejoin="round" stroke-miterlimit="10" d="M237.603,117.05
		c0,0-14.562-12.643,5.438-30.982C243.041,86.064,242.891,109.98,237.603,117.05z"/>
	<path fill="none" stroke="#2B5E47" stroke-linecap="round" stroke-linejoin="round" stroke-miterlimit="10" d="M62.049,137.341
		c0,0-16.991,1.613-21.03,8.75c-4.04,7.141-1.485,21.604-1.485,21.604S53.981,158.466,62.049,137.341z"/>
	<path fill="none" stroke="#2B5E47" stroke-linecap="round" stroke-linejoin="round" stroke-miterlimit="10" d="M270.035,72.009
		c0,0-6.938-14.088-3.596-19.898C266.439,52.107,276.209,61.412,270.035,72.009z"/>
	<path fill="none" stroke="#2B5E47" stroke-linecap="round" stroke-linejoin="round" stroke-miterlimit="10" d="M138.075,146.208
		c0,0,9.757-1.283,18.771,10.084c9.017,11.367,11.679,8.686,11.679,8.686S140.077,166.779,138.075,146.208z"/>
	<path fill="none" stroke="#2B5E47" stroke-linecap="round" stroke-linejoin="round" stroke-miterlimit="10" d="M252.365,103.591
		c0,0,22.057-9.588,30.795-9.588c8.735,0,13.235,6.588,19.235,4.793C302.396,98.796,284.336,114.179,252.365,103.591z"/>
	<path fill="none" stroke="#2B5E47" stroke-linecap="round" stroke-linejoin="round" stroke-miterlimit="10" d="M176.975,143.529
		c0,0-11.236-17.012,4.264-29.012C181.238,114.517,188.71,132.039,176.975,143.529z"/>
	<path fill="none" stroke="#2B5E47" stroke-linecap="round" stroke-linejoin="round" stroke-miterlimit="10" d="M58.498,158.636
		c0,0,26.769,21.08,46.843,6.236C105.338,164.873,99.299,150.015,58.498,158.636z"/>
	<path fill="none" stroke="#2B5E47" stroke-linecap="round" stroke-linejoin="round" stroke-miterlimit="10" d="M229.963,153.427
		c0,0-18.032,5.74-25.961-13.916C204.002,139.511,221.727,138.726,229.963,153.427z"/>
</g>
</svg>
