<?xml version="1.0" encoding="utf-8"?>
<!-- Generator: Adobe Illustrator 16.0.0, SVG Export Plug-In . SVG Version: 6.00 Build 0)  -->
<!DOCTYPE svg PUBLIC "-//W3C//DTD SVG 1.1//EN" "http://www.w3.org/Graphics/SVG/1.1/DTD/svg11.dtd">
<svg version="1.1" id="Calque_1" xmlns="http://www.w3.org/2000/svg" xmlns:xlink="http://www.w3.org/1999/xlink" x="0px" y="0px"
	 width="135.5px" height="135.5px" viewBox="0 0 135.5 135.5" enable-background="new 0 0 135.5 135.5" xml:space="preserve">
<g id="chapter_1_mobile">
</g>
<g id="ui">
</g>
<g id="Calque_2">
</g>
<g id="home-tablette">
</g>
<g id="home-desktop">
</g>
<g id="ui-pannel">
	<g>
		<g>
			<circle fill="#FFFFFF" cx="67.75" cy="67.75" r="63.75"/>
			<g opacity="0.8">
				<path fill="#12868C" d="M67.732,4c0.296,0,0.586,0.002,0.883,0.006c35.205,0.478,63.355,29.404,62.879,64.609
					c-0.475,34.908-28.926,62.885-63.727,62.885c-0.296,0-0.586-0.002-0.883-0.006C31.681,131.018,3.528,102.09,4.006,66.885
					C4.48,31.977,32.931,4.003,67.732,4 M67.738,0h-0.006c-17.9,0.001-34.785,6.928-47.544,19.504
					C7.418,32.093,0.25,48.9,0.006,66.831c-0.245,18.095,6.57,35.202,19.192,48.171c12.621,12.969,29.538,20.246,47.632,20.492
					c0.315,0.004,0.623,0.006,0.938,0.006c17.9,0,34.785-6.926,47.544-19.503c12.771-12.589,19.938-29.397,20.183-47.328
					c0.245-18.095-6.57-35.202-19.19-48.171C103.682,7.529,86.766,0.252,68.67,0.006C68.355,0.002,68.051,0,67.738,0L67.738,0z"/>
			</g>
		</g>
		<g id="indice">
			<path fill="#12868C" d="M29.288,51.417c0,0-6.334,13.167-3.667,28.667s8.001,31.833,19.167,26c0,0,38.666,6.5,45.166,7.333
				s13.334,4.333,15.167-6c0,0,7.501,1.833,8.167-1.833s0.667-10.667,1-14.167s0.5-16.833-4.667-16.167s-7.167,7.667-7.167,7.667
				s-13.499-0.833-19.166-3.167s-8.334-12.167-8.334-12.167L29.288,51.417z"/>
			<path fill="#12868C" d="M29.288,51.417c0,0-6.334,13.167-3.667,28.667s8.001,31.833,19.167,26c0,0,38.666,6.5,45.166,7.333
				s13.334,4.333,15.167-6c0,0,7.501,1.833,8.167-1.833s0.667-10.667,1-14.167s0.5-16.833-4.667-16.167s-7.167,7.667-7.167,7.667
				s-13.499-0.833-19.166-3.167s-8.334-12.167-8.334-12.167L29.288,51.417z"/>
			<path fill="#12868C" d="M29.288,51.417c0,0-6.334,13.167-3.667,28.667s8.001,31.833,19.167,26c0,0,38.666,6.5,45.166,7.333
				s13.334,4.333,15.167-6c0,0,7.501,1.833,8.167-1.833s0.667-10.667,1-14.167s0.5-16.833-4.667-16.167s-7.167,7.667-7.167,7.667
				s-13.499-0.833-19.166-3.167s-8.334-12.167-8.334-12.167L29.288,51.417z"/>
			<path fill="#0F6B70" d="M47.663,75.417c9.533,1.666,18.75-4.25,25.125-10.375c-1.121-2.418-3.625-2.125-3.625-2.125l-39.875-11.5
				c0,0,0.014-0.358-0.875,2.375C32.452,60.997,39.114,73.922,47.663,75.417z"/>
			<g>
				<path fill="#16A1A8" d="M31.621,35.583c0,0-5.332-7.5-8.666-6.5c0,0-5.334,13.333,4.333,19.5c0,0,9.667,15,18,20
					s18.334,6,25.167,2s14.5-10.334,10.333-16.167s-13.333-13-14-15.333c0,0,1.833-2.333,4-3.5s6.334-6,0.667-6
					s-9.5,2.667-9.5,2.667s3.666-9.833-1.834-16.167c0,0-1.5,14.333-6,15.333c0,0-0.334-1.833,1-2.833c0,0-3.833,0.333-4.833,1.167
					c0,0-0.001-2.667-0.167-4c0,0-0.5,1.833-1.833,2.667c0,0-0.667-3-1.667-3.667c0,0-0.666,4-0.833,5.833
					c0,0-3.499-2.5-3.333-3.667l0.833,5.5c0,0-6.5-0.667-7.5-3.667s-2.833-7.667-1.833-10c0,0-5,3.167-4.167,8.833
					c0.914,6.216,3.333,7.333,3.333,7.333L31.621,35.583z"/>
				<path fill="#12868C" d="M70.455,70.583c3.031-1.774,6.225-4.009,8.479-6.455c-0.263,0.229-0.53,0.483-0.812,0.788
					c-6.167,6.667-32.5-6.5-36.333-12.667s-15.833-9.333-15.833-9.333c-3.188-2.169-3.352-9.708-3.252-13.124
					c-0.933,2.826-3.755,13.472,4.584,18.791c0,0,9.667,15,18,20S63.622,74.583,70.455,70.583z"/>
			</g>
			<path fill="#0F7075" d="M111.978,107.282c-0.024,0.005-0.04,0.004-0.064,0.009c-4.125,0.875-6-8.25-6-8.25
				s-0.375,4.5-0.792,8.375C105.121,107.417,109.646,108.514,111.978,107.282z"/>
			<path fill="#0F7075" d="M79.663,86.167c0,0,18.25,3.5,20.125,2.125s2.125-3.375,3.875-5.5c0,0-3,3.25-6,3.375
				s-13.875-3.75-13.875-3.75L79.663,86.167z"/>
			<path fill="#37AEB4" d="M83.288,79.75c-1.46-0.602-2.719-1.702-3.786-3.002c-5.604,0.098-24.048,1.328-27.714,13.168
				c-2.359,7.62-2.146,13.396-1.466,17.093c5.799,0.97,15.189,2.532,23.49,3.884c0.195-7.502,1.099-19.551,4.809-22.811
				c3.689-3.242,8.869-5.43,11.886-6.521C87.763,81.1,85.117,80.503,83.288,79.75z"/>
			<path fill="#0F7075" d="M103.663,82.792c0,0,2.375-3.125,4-1.25s-0.75,22.25,0.5,24.125s-3,1.25-3,1.25s2.625-21.75,2.125-23.125
				S104.663,81.792,103.663,82.792z"/>
			<path fill="#0F6B70" d="M63.288,52.417c-1.275,0.425,2.001,9,3.167,8.667S64.788,51.917,63.288,52.417z"/>
			<path fill="#0F6B70" d="M70.621,50.417c-1.321,0.378,0.501,8.667,2.334,8.167S71.787,50.083,70.621,50.417z"/>
			<circle fill="#0F6B70" cx="48.621" cy="47.25" r="1.667"/>
			<circle fill="#0F6B70" cx="59.204" cy="44.667" r="1.583"/>
			<circle fill="#BCE4E6" cx="58.371" cy="44.667" r="0.537"/>
			<circle fill="#BCE4E6" cx="47.787" cy="47.25" r="0.537"/>
			<path fill="#0F6B70" d="M38.288,77.167c0,0,11,24.333,6.5,28.917C44.788,106.083,55.538,104.417,38.288,77.167z"/>
			<path fill="#7AC9CD" d="M50.322,107.01c1.25,0.209,2.675,0.447,4.212,0.703l20.999-30.757c-1.585,0.134-3.4,0.349-5.317,0.694
				l-19.924,29.182C50.303,106.891,50.312,106.953,50.322,107.01z"/>
			<path fill="#7AC9CD" d="M51.153,92.175c-0.875,3.412-1.231,6.411-1.28,8.97l15.198-22.261c-2.463,0.757-4.884,1.781-7.001,3.161
				L51.153,92.175z"/>
			<path fill="#7AC9CD" d="M62.472,109.03L82.25,79.22c-1.027-0.625-1.941-1.491-2.748-2.472c-0.131,0.002-0.274,0.006-0.419,0.01
				l-20.938,31.555C59.538,108.544,60.99,108.785,62.472,109.03z"/>
			<g>
				<path fill="#7AC9CD" d="M71.983,110.595l1.962-3.104c0.144-2.809,0.398-5.898,0.837-8.811l-7.086,11.213
					C69.132,110.128,70.567,110.364,71.983,110.595z"/>
				<path fill="#7AC9CD" d="M86.168,80.666l-2.514,3.977c2.437-1.344,4.856-2.346,6.624-2.994l0.07-0.112
					C88.886,81.284,87.458,80.995,86.168,80.666z"/>
			</g>
			<path fill="#16A1A8" d="M61.274,80.307l19.546,6.09c1.523-1.055,3.144-1.963,4.704-2.725L67.801,78.15
				C65.608,78.663,63.372,79.359,61.274,80.307z"/>
			<path fill="#16A1A8" d="M76.248,92.23c0.513-1.5,1.133-2.744,1.878-3.616L57.443,82.47c-1.281,0.906-2.432,1.955-3.388,3.169
				L76.248,92.23z"/>
			<path fill="#16A1A8" d="M50.759,93.832l23.796,6.499c0.17-1.361,0.373-2.703,0.622-3.978l-23.401-6.391
				C51.358,91.312,51.024,92.602,50.759,93.832z"/>
			<path fill="#16A1A8" d="M74.119,104.705l-24.11-6.021c-0.152,1.698-0.172,3.238-0.104,4.619l23.96,5.984
				C73.918,107.85,73.999,106.299,74.119,104.705z"/>
			<path fill="#12868C" d="M54.121,31.417c0,0,3.668,1.167,5.001,0.333s4.331-10,0.999-15.667
				C60.121,16.083,58.621,30.417,54.121,31.417z"/>
			<path fill="#12868C" d="M54.788,31.417c0,0,1.833,2.333,0,4.5c0,0,7.167-2.501,7.167-3.667s-2.167,0.167-2-1.833
				S54.788,31.417,54.788,31.417z"/>
			<path fill="#12868C" d="M36.591,35.546c-0.478-0.881-1.796-3.274-3.636-6.296c-1.573-2.583-0.646-7.127,0.124-9.82
				c-1.393,1.207-3.9,4.008-3.291,8.154c0.688,4.684,2.231,6.473,2.118,7.902c0,0-4.118,2.099-2.951,5.432
				c0,0,4.17-4.502,7.835-5.001C38.283,35.713,37.748,35.604,36.591,35.546z"/>
		</g>
	</g>
</g>
<g id="rtfm-desktop">
</g>
<g id="rtfm-tablette">
</g>
</svg>
