<?xml version="1.0" encoding="utf-8"?>
<!-- Generator: Adobe Illustrator 16.0.0, SVG Export Plug-In . SVG Version: 6.00 Build 0)  -->
<!DOCTYPE svg PUBLIC "-//W3C//DTD SVG 1.1//EN" "http://www.w3.org/Graphics/SVG/1.1/DTD/svg11.dtd">
<svg version="1.1" id="Calque_1" xmlns="http://www.w3.org/2000/svg" xmlns:xlink="http://www.w3.org/1999/xlink" x="0px" y="0px"
	 width="135.5px" height="135.5px" viewBox="0 0 135.5 135.5" enable-background="new 0 0 135.5 135.5" xml:space="preserve">
<g id="chapter_1_mobile">
</g>
<g id="ui">
</g>
<g id="Calque_2">
</g>
<g id="home-tablette">
</g>
<g id="home-desktop">
</g>
<g id="ui-pannel">
	<g>
		<g>
			<circle fill="#FFFFFF" cx="67.75" cy="67.75" r="63.75"/>
			<g opacity="0.8">
				<path fill="#12868C" d="M67.732,4c0.296,0,0.586,0.002,0.883,0.006c35.205,0.478,63.355,29.404,62.879,64.609
					c-0.475,34.908-28.926,62.885-63.727,62.885c-0.296,0-0.586-0.002-0.883-0.006C31.681,131.018,3.528,102.09,4.006,66.885
					C4.48,31.977,32.931,4.003,67.732,4 M67.738,0h-0.006c-17.9,0.001-34.785,6.928-47.544,19.504
					C7.418,32.093,0.25,48.9,0.006,66.831c-0.245,18.095,6.57,35.202,19.192,48.171c12.621,12.969,29.538,20.246,47.632,20.492
					c0.315,0.004,0.623,0.006,0.938,0.006c17.9,0,34.785-6.926,47.544-19.503c12.771-12.589,19.938-29.397,20.183-47.328
					c0.245-18.095-6.57-35.202-19.19-48.171C103.682,7.529,86.766,0.252,68.67,0.006C68.355,0.002,68.051,0,67.738,0L67.738,0z"/>
				<g>
					<defs>
						<circle id="SVGID_1_" cx="67.75" cy="67.75" r="63.75"/>
					</defs>
					<clipPath id="SVGID_2_">
						<use xlink:href="#SVGID_1_"  overflow="visible"/>
					</clipPath>
					<g clip-path="url(#SVGID_2_)">
						<path fill="#0F6B70" d="M39.728,96.403c0,0-18.03,8.633-10.165,26.471l11.509-4.028L39.728,96.403z"/>
						<path fill="#BCE4E6" d="M39.547,99.719c0,0-13.556-5.459-19.894-7.747c-6.337-2.288-13.556-6.689-15.669-10.034
							c-2.112-3.346-1.232-11.268-2.64-12.852C-0.064,67.5-3.41,65.74-3.41,65.74l-4.049,28.168c0,0,4.577,2.112,7.042,1.761
							c2.464-0.352,26.231,20.247,35.032,23.943C34.616,119.612,40.604,115.212,39.547,99.719z"/>
						<path fill="#12868C" d="M39.728,96.403c0,0-2.685,23.785-10.165,26.471c0,0,11.509,1.535,16.495,1.15
							c4.987-0.384,4.604,1.919,4.604,1.919s35.104,16.687,70.397-4.028c0,0-1.918-16.305-6.905-19.375
							c-4.986-3.068-62.342-5.37-62.342-5.37L39.728,96.403z"/>
						<path fill="#0F7075" d="M48.873,93.636c0,0-21.712,2.438-26.051-14.182c-3.85-14.738,5.428-18.739,5.428-18.739
							s-31.228-30.51-7.89-57.352c23.338-26.843,52.393-6.97,52.393-6.97s13.026-16.714,27.139-0.507c0,0,12.108-7.636,21.167,7.092
							C131.75,0,162.75,34.5,131.5,50.25c19.691,3.25,9.75,36.75-10.441,43.386c-0.309,5.114-6.875,9.792-15.015,5.235
							C97.901,94.312,48.873,93.636,48.873,93.636z"/>
						<path fill="#BCE4E6" d="M44.092,85.073c0,0-3.163,2.086-1.438,5.476c1.727,3.391,7.336,1.694,7.336,1.694
							s1.583,4.824,5.611,8.476c4.028,3.65,15.536,6.52,19.277,7.301c3.74,0.783,20.428-2.346,25.319-5.997
							c4.893-3.65,5.467-6.779,5.467-6.779s5.756,1.303,9.208-2.087c3.451-3.391-3.166-9.909-7.193-8.083l0.166-10.331
							L44.092,85.073z"/>
						<path fill="#0B5154" d="M70.616,61.385c3.734,2.555,6,7.727,6.043,15.343c0.065,11.283-2.115,18.259-14.466,18.693
							c-12.353,0.434-21.078-2.34-20.38-18.162c0.567-12.875,5.066-17.158,13.679-18.843C61.85,57.172,66.882,58.831,70.616,61.385z
							"/>
						<path fill="#16A1A8" d="M55.492,58.416c2.62-0.513,5.014-0.526,7.186-0.193c1.867,1.905,6.191,7.317,6.191,16.614
							c0,10.6-0.514,16.326-3.362,20.273c-1.015,0.163-2.116,0.268-3.313,0.311c-12.353,0.434-21.078-2.34-20.38-18.162
							C42.381,64.383,46.88,60.101,55.492,58.416z"/>
						<path fill="#DEF2F3" d="M43.89,77.229c0.536-12.114,4.767-16.145,12.871-17.73c2.465-0.482,4.718-0.495,6.76-0.181
							c0.289,0.292,0.642,0.685,1.027,1.158c1.98,2.785,4.321,7.52,4.321,14.361c0,9.526-0.415,15.115-2.568,19.015
							c-0.039,0.057-0.079,0.114-0.118,0.171c-0.956,0.152-1.991,0.253-3.116,0.294C51.444,94.723,43.233,92.114,43.89,77.229z"/>
						<path fill="#16A1A8" d="M62.739,94.323c1.61-3.979,1.656-9.614,1.656-18.847c0-8.542-2.863-13.893-4.706-16.341
							c-0.941,0.049-1.917,0.165-2.929,0.363c-1.537,0.301-2.934,0.69-4.192,1.204c-1.251,3.199-2.627,8.015-2.627,13.75
							c0,7.837-0.062,13.925,3.443,19.091C56.088,94.254,59.257,94.43,62.739,94.323z"/>
						<path fill="#59BCC1" d="M76.605,85.277c0,0-6.186,4.604-6.186,8.345c0,0,2.157,2.589,6.041,3.164L76.605,85.277z"/>
						<path fill="#0B5154" d="M61.37,96.395c-2.453,1.093-1.461,4.118,1.458,5.454c2.92,1.336,11.028,4.343,17.189,4.009
							c6.163-0.335,13.461-4.342,13.461-6.681c0-2.338-4.541-4.008-7.622-3.562c-3.081,0.446-8.109,3.006-10.542,2.896
							C72.883,98.397,64.612,94.946,61.37,96.395z"/>
						<path fill="#DEF2F3" d="M91.614,96.752c-1.605-0.92-3.933-1.401-5.758-1.138c-3.081,0.446-8.109,3.006-10.542,2.896
							c-1.753-0.081-6.54-1.896-10.289-2.361l0.957,2.806c0,0,6.344,2.338,13.536,1.893C86.454,100.418,91.278,96.995,91.614,96.752
							z"/>
						<path fill="#0B5154" d="M105.859,61.385c3.982,2.555,6.4,7.727,6.446,15.343c0.068,11.283-2.256,18.259-15.431,18.693
							c-13.175,0.434-22.483-2.34-21.738-18.162c0.607-12.875,5.404-17.158,14.59-18.843
							C96.509,57.172,101.878,58.831,105.859,61.385z"/>
						<path fill="#16A1A8" d="M89.727,58.416c2.635-0.483,5.053-0.525,7.263-0.25c1.835,1.85,6.247,7.275,6.247,16.67
							c0,10.669-0.521,16.403-3.419,20.352c-0.917,0.116-1.892,0.197-2.942,0.232c-13.175,0.434-22.483-2.34-21.738-18.162
							C75.744,64.383,80.541,60.101,89.727,58.416z"/>
						<path fill="#DEF2F3" d="M90.979,59.291c2.471-0.454,4.74-0.496,6.818-0.247c2.073,2.414,5.438,7.59,5.438,15.793
							c0,9.92-0.45,15.572-2.844,19.493c-0.817,0.097-1.679,0.166-2.607,0.197C85.239,94.94,76.378,92.3,77.086,77.231
							C77.663,64.973,82.232,60.896,90.979,59.291z"/>
						<path fill="#16A1A8" d="M96.918,94.55c1.917-4.081,1.97-9.921,1.97-19.821c0-7.859-2.384-13.059-4.229-15.826
							c-1.174,0.031-2.399,0.154-3.679,0.389c-1.614,0.296-3.085,0.678-4.416,1.178c-1.187,3.235-2.381,7.826-2.381,13.213
							c0,8.409-0.072,14.841,4.119,20.277C90.862,94.473,93.765,94.616,96.918,94.55z"/>
						<path fill="#16A1A8" d="M114.153,102.54c-0.629-0.387-2.095-0.762-4.172-1.122c0,0.003,0.382,10.905-5.299,12.058
							c0,0,1.181,7.159-0.124,9.921c-0.584,1.238,0.625,3.227,2.14,5.046c4.725-1.572,9.54-3.698,14.36-6.527
							C121.059,121.915,119.141,105.61,114.153,102.54z"/>
						<path fill="#BCE4E6" d="M96.741,124.226c-1.474-0.841-3.788-0.421-4.103,1.264c-0.316,1.684-2.421,5.471-1.895,6.629
							c0.525,1.157,2.946,1.998,3.999-0.737C95.796,128.645,96.741,124.226,96.741,124.226z"/>
						<path fill="#9BD7DA" d="M91.32,131.121c0,0,0.612,1.439,2.577,0.576v-0.986l-2.088-0.504L91.32,131.121z"/>
						<path fill="#9BD7DA" d="M93.789,132.776c0.366-0.29,0.7-0.736,0.954-1.396c1.053-2.736,1.998-7.155,1.998-7.155
							c-0.146-0.083-0.301-0.151-0.462-0.209c-0.17,0.383-0.328,0.802-0.475,1.283C95.34,126.827,94.123,130.277,93.789,132.776z"/>
						<path fill="#BCE4E6" d="M100.017,121.723c-2.011,0-2.946,1.157-3.684,3.577c-0.736,2.421-3.366,9.681-1.366,10.312
							c1.999,0.632,3.051-0.315,3.576-2.419c0.528-2.105,2.104-7.473,2.737-7.366C101.28,125.826,101.7,121.723,100.017,121.723z"/>
						<path fill="#9BD7DA" d="M99.296,125.933c-0.313,1.982-0.832,5.513-0.637,6.805c0.614-2.331,2.031-7.01,2.621-6.911
							c0,0,0.143-1.438-0.086-2.613C100.332,123.821,99.476,124.8,99.296,125.933z"/>
						<path fill="#9BD7DA" d="M95.092,132.674l-0.357,1.277c0,0,0.478,0.336,1.22,0.336c0.743,0,1.296-0.07,1.296-0.07v-1.165
							C97.25,133.052,95.858,132.966,95.092,132.674z"/>
						<path fill="#BCE4E6" d="M103.28,122.669c-0.836-0.151-3.264,1.369-3.579,3.368c-0.316,1.998-0.843,5.577-0.63,6.839
							c0.209,1.264,1.261,2.104,2.313,1.474c1.053-0.632,1.474-1.579,1.474-3.157c0-1.579,2.416-6.92,2.416-6.92
							S104.436,122.88,103.28,122.669z"/>
						<path fill="#9BD7DA" d="M99.525,133.02c0,0,1.053,0.358,2.414,0v-0.986c0,0-1.837,0.287-2.125,0L99.525,133.02z"/>
						<path fill="#9BD7DA" d="M103.254,126.159c-0.328,1.717-0.873,4.787-0.654,5.871c0.029,0.146,0.076,0.282,0.134,0.412
							c0.081-0.367,0.125-0.778,0.125-1.25c0-1.579,2.416-6.92,2.416-6.92s-0.088-0.142-0.237-0.336
							C104.211,124.463,103.427,125.252,103.254,126.159z"/>
						<path fill="#BCE4E6" d="M109.981,127.296l-0.889-2.378c0.018-0.041,0.031-0.066,0.031-0.066s-0.069-0.189-0.217-0.431
							l-0.077-0.204l-0.022,0.059c-0.254-0.36-0.673-0.772-1.321-0.869c-0.862-0.131-3.379,1.175-3.706,2.892
							s-0.871,4.788-0.653,5.872c0.219,1.083,1.308,1.806,2.397,1.263c1.091-0.54,1.527-1.354,1.527-2.71
							c0-0.539,0.329-1.579,0.723-2.636L109.981,127.296z"/>
						<path fill="#9BD7DA" d="M103.938,131.361l-0.239,0.935c0,0,1.295,0.262,1.966,0v-0.935
							C105.665,131.361,104.792,131.56,103.938,131.361z"/>
					</g>
				</g>
			</g>
		</g>
	</g>
</g>
<g id="rtfm-desktop">
</g>
<g id="rtfm-tablette">
</g>
</svg>
