<?xml version="1.0" encoding="utf-8"?>
<!-- Generator: Adobe Illustrator 16.0.0, SVG Export Plug-In . SVG Version: 6.00 Build 0)  -->
<!DOCTYPE svg PUBLIC "-//W3C//DTD SVG 1.1//EN" "http://www.w3.org/Graphics/SVG/1.1/DTD/svg11.dtd">
<svg version="1.1" id="Calque_1" xmlns="http://www.w3.org/2000/svg" xmlns:xlink="http://www.w3.org/1999/xlink" x="0px" y="0px"
	 width="135.5px" height="135.5px" viewBox="0 0 135.5 135.5" enable-background="new 0 0 135.5 135.5" xml:space="preserve">
<g id="chapter_1_mobile">
</g>
<g id="ui">
</g>
<g id="Calque_2">
</g>
<g id="home-tablette">
</g>
<g id="home-desktop">
</g>
<g id="ui-pannel">
	<g>
		<g>
			<circle fill="#FFFFFF" cx="67.75" cy="67.75" r="63.75"/>
			<g opacity="0.8">
				<path fill="#479369" d="M67.732,4c0.296,0,0.586,0.002,0.883,0.006c35.205,0.478,63.355,29.404,62.879,64.609
					c-0.475,34.908-28.926,62.885-63.727,62.885c-0.296,0-0.586-0.002-0.883-0.006C31.681,131.018,3.528,102.09,4.006,66.885
					C4.48,31.977,32.931,4.003,67.732,4 M67.738,0h-0.006c-17.9,0.001-34.785,6.928-47.544,19.504
					C7.418,32.093,0.25,48.9,0.006,66.831c-0.245,18.095,6.57,35.202,19.192,48.171c12.621,12.969,29.538,20.246,47.632,20.492
					c0.315,0.004,0.623,0.006,0.938,0.006c17.9,0,34.785-6.926,47.544-19.503c12.771-12.589,19.938-29.397,20.183-47.328
					c0.245-18.095-6.57-35.202-19.19-48.171C103.682,7.529,86.766,0.252,68.67,0.006C68.355,0.002,68.051,0,67.738,0L67.738,0z"/>
			</g>
		</g>
		<g>
			<defs>
				<circle id="SVGID_1_" cx="67.75" cy="67.75" r="63.75"/>
			</defs>
			<clipPath id="SVGID_2_">
				<use xlink:href="#SVGID_1_"  overflow="visible"/>
			</clipPath>
			<g clip-path="url(#SVGID_2_)">
				<path fill="#0B5154" d="M88.397,159.498c0,0-1.75-1.993-6.805-2.583c-5.055-0.591-6.252,1.291-6.252,1.291l1.347,3.567
					l9.571,0.48L88.397,159.498z"/>
				<path fill="#0B5154" d="M54.379,159.391c0,0,1.75-1.993,6.804-2.583c5.055-0.591,6.251,1.291,6.251,1.291l-1.346,3.567
					l-9.571,0.48L54.379,159.391z"/>
				<path fill="#9BD7DA" d="M51.786,114.933c0,0-0.647,16.205,1.231,26.574c1.879,10.368,4.569,22.453,4.569,22.453l8.071,1.192
					c0,0-1.011-17.684-1.35-23.646c-0.338-5.963,1.35-27.478,1.35-27.478L51.786,114.933z"/>
				<path fill="#9BD7DA" d="M74.986,112.513c0,0,3.24,18.398,3.24,26.029s-1.62,23.661-1.62,23.661l9.999,0.437
					c0,0,1.472-13.396,2.768-19.727c1.296-6.332,0.777-32.348,0.777-32.348L74.986,112.513z"/>
				<path fill="#7AC9CD" d="M90.25,119.969c-0.018-5.321-0.1-9.403-0.1-9.403l-15.164,1.947c0,0,0.901,5.116,1.753,11.071
					c2.101,1.105,4.168,2.497,6.382,1.336C86.435,123.183,86.217,120.045,90.25,119.969z"/>
				<path fill="#7AC9CD" d="M51.805,123.463c1.121-0.356,1.267-1.064,4.132-0.971c4.239,0.139,4.81,2.127,9.07,2.488
					c0.371-5.892,0.767-10.951,0.767-10.951l-13.872,0.903C51.903,114.933,51.759,118.552,51.805,123.463z"/>
				<path fill="#16A1A8" d="M44.48,102.495l-1.637,13.097c0,0,2.485,0.733,6.86,1.112s2.624-1.252,6.882-1.112
					c4.258,0.139,4.812,2.146,9.126,2.494c4.313,0.35,4.508-2.634,7.794-2.494c3.285,0.139,6.283,4.176,9.616,2.428
					c3.334-1.748,3.092-4.914,7.199-4.953c4.107-0.04,5.659,4.279,8.99,2.525l-2.323-15.853L44.48,102.495z"/>
				<path fill="#9BD7DA" d="M116.191,36.6c0,0-2.723-6.607-4.317-5.254c-1.596,1.354-0.957,2.027-0.852,2.536
					c0.106,0.509,1.489,3.383,1.809,4.314C113.149,39.127,116.191,36.6,116.191,36.6z"/>
				<path fill="#7AC9CD" d="M115.619,36.609c0,0,0.11-4.928,0.718-7.744s0.213-10.433,2.146-10.765
					c1.932-0.331,2.03,1.656,1.788,2.706s-0.938,12.204-0.938,12.204s1.762-4.293,3.386-4.448c1.625-0.155,0.155,6.663,0.155,6.663
					s2.483-3.433,4.381-3.209s-2.796,4.758-2.796,4.758s4.718,2.224,5.151,2.811c0.435,0.587-5.979,1.465-5.813,1.643
					S115.619,36.609,115.619,36.609z"/>
				<path fill="#9BD7DA" d="M116.323,36.773h2.515c0,0,0.599-2.349,0.735-3.96c-0.046,0.124-0.071,0.196-0.071,0.196
					s-0.233-1.617,0.037-4.311c0.13-1.294,0.025-3.252,0.034-4.19c0.007-0.751,0.726-4.55,0.668-5.428
					c-0.046-0.181-0.109-0.349-0.193-0.495c-0.198-0.162-0.364-0.317-0.502-0.454c-0.188-0.073-0.414-0.09-0.688-0.033
					c-0.438,0.785-1.388,4.614-1.42,5.802c-0.045,1.602-0.964,3.7-1.051,5.466c-0.073,1.464-0.566,5.583-0.733,6.954
					C115.753,36.388,115.988,36.547,116.323,36.773z"/>
				<path fill="#B8E2E4" d="M47.14,33.633c0,0-14.677-0.355-12.631-12.897c0,0-13.697-4.447-11.118-18.856
					c2.58-14.409,10.14-16.188,10.14-16.188s-10.673-24.371,4.358-35.667c15.032-11.296,31.575,1.69,31.575,1.69
					s17.789-16.722,36.022-1.246c18.233,15.476,11.208,32.732,11.208,32.732s9.783,10.05,3.38,19.656
					c-6.404,9.606-18.234,10.585-18.501,10.496c-0.267-0.089,2.224,7.738-1.601,12.097c-3.825,4.358-8.582,4.84-8.582,4.84"/>
				<path fill="#0F7075" d="M48.038,33.633c0,0-14.158-0.349-12.184-12.668c0,0-13.213-4.368-10.725-18.521
					c2.489-14.154,9.781-15.901,9.781-15.901s-10.295-23.938,4.204-35.034c14.5-11.096,30.458,1.66,30.458,1.66
					s17.16-16.425,34.749-1.224c17.589,15.202,10.811,32.152,10.811,32.152s9.438,9.872,3.261,19.308
					c-6.178,9.436-17.589,10.396-17.847,10.31c-0.257-0.088,2.146,7.601-1.544,11.882c-3.689,4.281-8.278,4.754-8.278,4.754"/>
				<path fill="#9BD7DA" d="M89.922,33.515l-0.525,0.043l-18.187-3.75l-21.992,3.324c-1.84,0.129-1.794,2.763-0.598,3.625
					c0.949,0.684,2.352,0.899,3.436,0.252c1.809,1.727,2.771,3.426,5.365,4.714c3.688,1.833,7.908,3.022,11.981,3.594
					c3.951,0.554,5.786-0.574,9.224-2.136c1.956-0.89,7.115-3.807,7.648-5.75h0.179c0.674,0,2.089-0.132,2.692-0.541
					C90.541,35.946,89.763,34.818,89.922,33.515z"/>
				<path fill="#0B5154" d="M74.821,17.206c-2.144,1.411-3.444,4.266-3.469,8.471c-0.038,6.23,1.213,10.082,8.306,10.321
					s12.103-1.292,11.701-10.028c-0.325-7.108-2.908-9.473-7.854-10.403C79.855,14.879,76.965,15.796,74.821,17.206z"/>
				<path fill="#12868C" d="M83.506,15.566c-1.505-0.283-2.879-0.291-4.126-0.106c-1.072,1.051-3.555,4.04-3.555,9.173
					c0,5.852,0.295,9.014,1.931,11.193c0.582,0.09,1.214,0.148,1.902,0.171c7.093,0.24,12.103-1.292,11.701-10.028
					C91.034,18.861,88.451,16.497,83.506,15.566z"/>
				<path fill="#7AC9CD" d="M90.166,26.059c-0.305-6.759-2.724-9.008-7.355-9.892c-1.409-0.269-2.695-0.276-3.863-0.102
					c-0.165,0.164-0.367,0.383-0.587,0.646c-1.133,1.554-2.47,4.197-2.47,8.015c0,5.315,0.237,8.435,1.468,10.61
					c0.021,0.032,0.044,0.064,0.067,0.096c0.545,0.085,1.138,0.141,1.781,0.163C85.851,35.823,90.542,34.367,90.166,26.059z"/>
				<path fill="none" stroke="#0B5154" stroke-linecap="round" stroke-linejoin="round" stroke-miterlimit="10" d="M86.056,23.674
					c0.8,0.259,2.423,0.273,3.024-0.355"/>
				<path fill="none" stroke="#0B5154" stroke-linecap="round" stroke-linejoin="round" stroke-miterlimit="10" d="M86.268,25.242
					c0.816,0.485,2.092,0.668,2.935,0.178"/>
				<path fill="#16A1A8" d="M71.21,28.642c0,0,4.447,4.981,4.003,6.137c0,0-1.601,0.801-2.847,1.067"/>
				<path fill="#0B5154" d="M53.905,17.206c-2.286,1.411-3.674,4.266-3.701,8.471c-0.04,6.23,1.295,10.082,8.86,10.321
					c7.566,0.24,12.909-1.292,12.481-10.028c-0.348-7.108-3.103-9.473-8.377-10.403C59.274,14.879,56.191,15.796,53.905,17.206z"/>
				<path fill="#12868C" d="M63.167,15.566c-1.512-0.267-2.901-0.289-4.169-0.137c-1.054,1.021-3.586,4.017-3.586,9.204
					c0,5.891,0.298,9.056,1.963,11.236c0.526,0.064,1.086,0.109,1.689,0.128c7.566,0.24,12.909-1.292,12.481-10.028
					C71.197,18.861,68.442,16.497,63.167,15.566z"/>
				<path fill="#7AC9CD" d="M62.449,16.05c-1.419-0.25-2.722-0.274-3.916-0.137c-1.191,1.332-3.122,4.19-3.122,8.72
					c0,5.477,0.258,8.598,1.633,10.762c0.469,0.054,0.965,0.093,1.497,0.11c7.204,0.228,12.291-1.23,11.884-9.549
					C70.095,19.187,67.472,16.936,62.449,16.05z"/>
				<path fill="none" stroke="#0B5154" stroke-linecap="round" stroke-linejoin="round" stroke-miterlimit="10" d="M57.744,24.774
					c-0.898,0.398-2.474,0.107-3.38-0.178"/>
				<path fill="none" stroke="#0B5154" stroke-linecap="round" stroke-linejoin="round" stroke-miterlimit="10" d="M58.222,26.253
					c-0.864,0.276-1.817,0.563-2.757,0.534"/>
				<path fill="none" stroke="#0B5154" stroke-linecap="round" stroke-linejoin="round" stroke-miterlimit="10" d="M57.586,22.46
					c0,0,0.435,9.526,5.904,9.138c5.47-0.389,4.497-9.138,4.497-9.138"/>
				<path fill="none" stroke="#0B5154" stroke-linecap="round" stroke-linejoin="round" stroke-miterlimit="10" d="M77.902,22.46
					c0,0-0.518,10.574,4.311,10.283c4.828-0.291,3.758-9.603,3.758-9.603"/>
				<path fill="#0F6B70" d="M57.586,40.055c-1.322-1.322-0.194-3.168,2.917-3.042c3.11,0.125,9.701,1.098,13.113,0.709
					c3.412-0.389,6.802-1.821,8.752-0.716s-1.82,6.84-10.628,7.229C62.933,44.624,59.239,41.708,57.586,40.055z"/>
				<path fill="#E5F0EA" d="M8.109,40.772c0,0,2.592,26.854,4.147,39.298s6.221,27.738,6.221,27.738s35.704-3.747,54.142-4.336
					c18.439-0.59,54.016-3.182,54.016-3.182s-0.582-49.515,1.751-66.232c0,0-32.72,3.783-43.967,5.586s-35.095,1.747-46.759,1.127
					C25.995,40.152,8.109,40.772,8.109,40.772z"/>
				<path fill="#CAE0D4" d="M117.949,36.416c0,0-1.471,2.891,0.772,3.168c0,0,0.382,1.859,2.146,1.439c0,0-1.255,2.823,1.851,2.726
					c3.107-0.097,4.831-0.689,4.831-0.689l0.001,0c0.225-3.514,0.5-6.597,0.835-9c0,0-7.47,0.864-16.497,1.962L117.949,36.416z"/>
				<path fill="#9BD7DA" d="M128.879,32.736c0.688,1.41,0.195,2.462-1.25,3.805c-1.444,1.343-5.636,5.667-6.761,4.481
					c-1.126-1.185-0.821-2.246,0.475-3.335c1.295-1.087,3.53-4.29,4.387-5.008C126.586,31.963,128.304,31.557,128.879,32.736z"/>
				<path fill="#7AC9CD" d="M122.885,39.932l-0.773,0.687c0,0-0.398-0.221-0.652-0.741c-0.254-0.52-0.393-0.931-0.393-0.931
					l0.815-0.398C121.882,38.548,122.418,39.494,122.885,39.932z"/>
				<path fill="#9BD7DA" d="M130.075,40.583c-0.166,1.194-0.93,1.655-2.427,1.893c-1.496,0.239-6.022,1.204-6.233-0.034
					s0.438-1.785,1.73-1.925c1.292-0.14,4.09-1.226,4.943-1.318C128.942,39.107,130.213,39.583,130.075,40.583z"/>
				<path fill="#7AC9CD" d="M123.17,42.609l-0.789,0.107c0,0-0.159-0.312-0.098-0.751c0.061-0.441,0.147-0.763,0.147-0.763
					l0.69,0.095C123.121,41.296,123.059,42.129,123.17,42.609z"/>
				<path fill="#9BD7DA" d="M124.344,28.407c1.165,1.05,1.103,2.21,0.266,3.996s-3.104,7.365-4.592,6.688s-1.603-1.775-0.809-3.271
					c0.794-1.493,1.896-4.771,2.262-5.695C121.837,29.202,123.368,27.528,124.344,28.407z"/>
				<path fill="#7AC9CD" d="M121.479,37.323l-0.461,0.927c0,0-0.452-0.056-0.882-0.443c-0.43-0.387-0.713-0.717-0.713-0.717
					l0.607-0.674C120.031,36.416,120.882,37.092,121.479,37.323z"/>
				<path fill="#CAE0D4" d="M12.425,53.889c0,0,2.537-0.229,1.892,3.144c0,0,3.696,1.975,0.105,4.066c0,0,3.941,1.764-0.651,3.531
					c0,0,2.921,0.796,1.206,2.546c-1.715,1.75-3.243,1.652-3.257,2.139c-0.014,0.485-0.41,2.625-0.41,2.625L6.953,57.552
					L12.425,53.889z"/>
				<g>
					<path fill="#9BD7DA" d="M6.427,59.6c-0.835-1.146-0.701-3.107,0.669-3.524c1.369-0.418,4.319-2.516,5.329-2.187
						c1.009,0.33,1.932,2.261-0.242,3.389C10.009,58.404,6.427,59.6,6.427,59.6z"/>
					<path fill="#7AC9CD" d="M11.651,54.46c0,0,1.251,0.375,0.716,2.088l-0.819,0.091l-0.611-1.688L11.651,54.46z"/>
					<path fill="#7AC9CD" d="M13.252,56.356c-0.206,0.331-0.546,0.649-1.07,0.921C10.009,58.404,6.427,59.6,6.427,59.6
						c-0.083-0.114-0.154-0.237-0.217-0.365c0.302-0.176,0.635-0.347,1.021-0.513C8.456,58.195,11.208,56.865,13.252,56.356z"/>
					<path fill="#9BD7DA" d="M4.65,62.551c-0.186-1.67,0.689-2.554,2.631-3.39c1.941-0.835,7.726-3.69,8.436-2.089
						c0.709,1.601,0.02,2.562-1.679,3.194c-1.698,0.631-6.009,2.438-5.863,2.952C8.174,63.219,4.806,63.949,4.65,62.551z"/>
					<path fill="#7AC9CD" d="M8.08,61.562c1.616-0.442,4.5-1.2,5.59-1.156c-1.88,0.725-5.632,2.333-5.497,2.813
						c0,0-1.18,0.254-2.177,0.171C6.421,62.619,7.155,61.816,8.08,61.562z"/>
					<path fill="#7AC9CD" d="M13.288,57.447l1.028-0.415c0,0,0.323,0.366,0.391,0.982s0.062,1.082,0.062,1.082l-0.967,0.107
						C13.802,59.204,13.602,58.058,13.288,57.447z"/>
					<path fill="#9BD7DA" d="M5.725,65.13c-0.197-0.68,0.86-2.827,2.494-3.261c1.634-0.434,4.562-1.177,5.631-1.109
						c1.067,0.068,1.856,0.871,1.421,1.8c-0.435,0.928-1.186,1.358-2.497,1.492c-1.312,0.136-5.546,2.601-5.546,2.601
						S5.999,66.074,5.725,65.13z"/>
					<path fill="#7AC9CD" d="M13.986,61.099c0,0,0.393,0.84,0.223,2.003l-0.82,0.092c0,0,0.069-1.552-0.196-1.765L13.986,61.099z"/>
					<path fill="#7AC9CD" d="M8.633,64.828c1.396-0.432,3.896-1.168,4.816-1.086c0.123,0.011,0.241,0.036,0.354,0.073
						c-0.297,0.101-0.633,0.174-1.026,0.218c-1.311,0.146-5.522,2.647-5.522,2.647s-0.127-0.062-0.301-0.166
						C7.314,65.778,7.897,65.055,8.633,64.828z"/>
					<path fill="#9BD7DA" d="M11.367,71.522l-3.224-1.73c-0.032,0.019-0.052,0.03-0.052,0.03s-0.163-0.038-0.377-0.139l-0.177-0.045
						l0.046-0.024c-0.323-0.178-0.703-0.487-0.843-1.017c-0.189-0.705,0.664-2.915,2.058-3.345c1.395-0.431,3.896-1.167,4.815-1.086
						c0.921,0.081,1.622,0.919,1.271,1.874c-0.349,0.956-0.984,1.393-2.109,1.518c-0.448,0.05-0.995,0.28-1.836,0.707L11.367,71.522
						z"/>
					<path fill="#7AC9CD" d="M13.017,64.916l0.753-0.286c0,0,0.338,1.051,0.183,1.633l-0.777,0.086
						C13.176,66.349,13.26,65.605,13.017,64.916z"/>
				</g>
				<g opacity="0.9">
					<path opacity="0.3" fill="#CAE0D4" d="M125.229,45.46c-2.197,0.349-47.569,8.253-47.569,8.253l35.84-13.28
						C82.122,51.686,53.562,54.379,36.364,54.8c17.742,0.148,31.691-0.34,31.691-0.34L11.461,73.303
						c0.281,2.505,0.551,4.813,0.795,6.768c1.555,12.444,6.221,27.738,6.221,27.738s28.837-3.026,48.063-4.067l1.514-0.269
						C68.055,103.473,127.427,45.112,125.229,45.46z"/>
				</g>
				<path fill="none" stroke="#479369" stroke-miterlimit="10" d="M35.067,56.872c0.793-0.205,1.218-1.981,1.306-2.71
					c0.21-1.727,0.249-3.528,0.382-5.265c0.096-1.24,1.616-3.935,0.922-4.812c2.72,1.306,4.695,3.704,7.123,5.485
					c0.857,0.629,1.815,1.097,2.706,1.694c0.614,0.412,1.23,1.272,1.897,1.452c-0.347,0.878,0.482,2.904,0.699,3.779
					c0.414,1.667,1.071,3.253,1.555,4.879c0.466,1.567,1.201,3.563,1.018,5.196c-1.919-0.112-3.891,1.177-5.693,1.679
					c-0.816,0.228-1.615,0.271-2.452,0.577c-0.825,0.301-1.734,0.789-2.574,0.861c0.082-1.155-1.604-2.399-2.209-3.245
					c-0.748-1.046-1.535-2.085-2.274-3.127c-0.808-1.14-1.784-2.109-2.405-3.335"/>
				<path fill="none" stroke="#479369" stroke-miterlimit="10" d="M39.085,57.391c0.195-0.029,0.249-0.076,0.159-0.14
					c-0.096,0.006-0.192,0.009-0.289,0.01"/>
				<path fill="none" stroke="#479369" stroke-miterlimit="10" d="M44.788,53.891c-0.113,0.111-0.126,0.197-0.04,0.26
					c-0.009-0.071,0.011-0.294,0.013-0.376c-0.296,0.107-0.094,0.221-0.103,0.246"/>
				<path fill="none" stroke="#479369" stroke-miterlimit="10" d="M42.843,57.649c1.176,0.114,3.205,0.002,4.276-0.343
					c-0.641,0.562-0.975,1.928-1.684,2.157"/>
				<path fill="none" stroke="#479369" stroke-miterlimit="10" d="M39.344,61.797c1.407,1.261,5.231,1.23,6.915,0.681
					c1.491-0.488,1.906-1.518,2.806-2.625"/>
				<path fill="none" stroke="#479369" stroke-miterlimit="10" d="M33.123,70.092c-0.774,0.107-1.483,1.146-1.814,1.814"/>
				<path fill="none" stroke="#479369" stroke-miterlimit="10" d="M36.363,70.61c0.092,0.535-0.611,1.414-0.908,1.944"/>
				<path fill="none" stroke="#479369" stroke-miterlimit="10" d="M53.472,52.206c2.086-0.329,3.9-2.237,5.962-2.852"/>
				<path fill="none" stroke="#479369" stroke-miterlimit="10" d="M56.063,57.131c1.707-0.565,3.796-1.085,5.573-1.167"/>
				<path fill="none" stroke="#479369" stroke-miterlimit="10" d="M58.008,62.186c1.381,0.553,3.438,0.13,4.925,0.13"/>
				<path fill="none" stroke="#479369" stroke-miterlimit="10" d="M56.452,65.296c1.294,0.649,3.27,0.821,4.666,0.778"/>
				<path fill="none" stroke="#479369" stroke-miterlimit="10" d="M47.38,67.5c1.039,3.862,2.354,7.687,3.228,11.65
					c0.324,1.471,1.097,2.791,1.6,4.206c0.583,1.641,0.988,3.354,1.53,5.011c0.787,2.404,1.743,4.776,2.712,7.119
					c0.795,1.923,1.135,4.198,2.207,5.971"/>
				<path fill="none" stroke="#479369" stroke-miterlimit="10" d="M75.505,63.223c-0.786,0.376-0.513,3.358-0.639,4.172
					c-0.315,2.053-0.789,4.029-1.007,6.097c-0.187,1.765-1.05,3.891-0.817,5.674"/>
				<path fill="none" stroke="#479369" stroke-miterlimit="10" d="M73.042,79.294c-0.09,0.021-0.176,0.012-0.258-0.029
					c1.871-0.719,5.205,0.557,7.127,0.934c1.817,0.356,3.67,1.488,5.554,1.283c0.077-1.124,0.006-2.24,0.175-3.366
					c0.321-2.141,0.763-4.385,0.752-6.557c-0.012-2.592,0.163-4.751,0.778-7.169"/>
				<path fill="none" stroke="#479369" stroke-miterlimit="10" d="M75.246,63.352c-0.038-0.09-0.081-0.156-0.132-0.235
					c0.778-0.009,1.559,0.285,2.352,0.347c1.167,0.091,2.361-0.036,3.513,0.242c0.958,0.232,2.033,0.518,2.954,0.843
					c1.311,0.464,2.105,1.038,3.496,0.359"/>
				<path fill="none" stroke="#479369" stroke-miterlimit="10" d="M85.355,81.757c0.728-0.572,2.037-1.427,2.592-2.203
					c0.746-1.046,0.353-3.925,0.522-5.337c0.391-3.261,0.452-6.616,0.883-9.808c-0.92-0.135-1.808,0.921-2.701,0.628"/>
				<path fill="none" stroke="#479369" stroke-miterlimit="10" d="M74.986,63.093c0.197,0.263,3.942-0.616,4.702-0.804
					c1.469-0.361,1.686-0.312,3.098,0.282c2.109,0.89,4.32,1.912,6.587,2.207"/>
				<path fill="none" stroke="#479369" stroke-miterlimit="10" d="M77.319,79.294c-0.846,2.01-0.737,4.721-1.062,6.872
					c-0.172,1.132-0.249,0.944-1.14,1.063c-0.855,0.114-3.347,0.643-3.76,0.229"/>
				<path fill="none" stroke="#479369" stroke-miterlimit="10" d="M86.392,81.368c0.351,0.79,0.172,2.122,0.137,2.977
					c-0.059,1.457,0.079,2.969-0.015,4.395c-0.964-0.007-1.865,0.312-2.844,0.275"/>
				<path fill="none" stroke="#479369" stroke-miterlimit="10" d="M76.023,71.129c1.5,2.854,4.8,1.938,7.129,1.296"/>
				<path fill="none" stroke="#479369" stroke-miterlimit="10" d="M78.486,69.573c-0.168,1.502,2.646,1.436,2.312,0.256
					c-0.376-1.334-2.142-0.164-2.572,0.263"/>
				<path fill="none" stroke="#479369" stroke-miterlimit="10" d="M77.319,66.463c-0.082,0.163-0.165,0.358-0.243,0.501
					c0.235,0.023,0.148-0.118,0.243-0.241"/>
				<path fill="none" stroke="#479369" stroke-miterlimit="10" d="M83.541,67.629c-0.029-0.133,0.192-0.243-0.105-0.251
					c-0.036,0.212-0.02,0.421-0.024,0.64"/>
				<path fill="none" stroke="#479369" stroke-miterlimit="10" d="M88.854,69.703c1.322,0.231,3.83-2.746,4.79-3.592
					c0.9-0.791,1.865-1.521,2.806-2.253c-0.029,0.052-0.119,0.119-0.166,0.158c0.556,1.066,1.845,2.313,2.654,3.178
					c0.475,0.507,1.149,0.84,1.563,1.373c0.176,0.226,0.16,0.566,0.431,0.826c-0.65-0.028-1.357,0.622-1.946,0.944
					c-0.408-1.255-2.199-2.303-3.125-3.256c-0.588-0.604-1.172-1.152-1.952-1.397"/>
				<path fill="none" stroke="#479369" stroke-miterlimit="10" d="M99.742,42.355c-0.344-0.543-1.453-0.801-2.05-1.04
					c-1.361-0.545-2.463-0.835-3.939-0.365c-1.667,0.531-3.181,1.87-3.104,3.728c-3.226-2.275-8.099-3.291-11.387-0.488
					c-1.122,0.956-2.281,2.226-1.643,3.776c0.692,1.683,3.262,2.61,4.888,2.826c-2.039-0.407-4.195,2.03-2.401,3.664
					c2.217,2.018,6.406,0.647,8.758-0.411c0.834-0.376,1.683-0.822,2.397-1.4c0.569-0.462,1.018-1.146,1.632-1.519
					c1.691,1.755,5.334,2.54,7.643,1.866c2.495-0.729,2.936-2.207,3.114-4.501c0.754,2.501,5.532,2.092,7.249,1.692
					c2.178-0.507,8.307-4.407,4.882-7.302c-0.845-0.714-2.814-0.958-3.837-1.046c-1.81-0.156-3.362,0.484-4.917,1.293
					c-0.645-1.101-0.865-2.187-2.097-2.852c-1.012-0.547-2.306-0.479-3.379-0.159c-1.759,0.525-2.808,1.53-3.494,3.146"/>
				<path fill="none" stroke="#479369" stroke-miterlimit="10" d="M13.292,87.2c0.575,0.438,1.076,0.194,1.732,0.13
					c2.881-0.285,5.761,0.007,8.65,0.002c8.042-0.012,16.144-0.565,24.17-1.026c7.563-0.436,15.086-0.732,22.543-2.089
					c5.498-1.001,11.375-1.066,16.952-1.319c11.121-0.505,22.244-1.812,33.143-4.07c1.579-0.327,3.11-0.333,4.662-0.706
					c0.568-0.137,1.244-0.018,1.815-0.253"/>
				<path fill="#0F7075" d="M54.379,159.391c0.486,1.007,3.499,1.881,7.582,1.104c4.083-0.777,5.777-1.847,5.416-2.722
					c0,0-0.224,13.24,0.048,13.57c0.271,0.33-4.978,1.343-7.991,2.537c-3.014,1.195-12.054,4.694-15.359,2.751
					c-3.305-1.944-0.967-3.88,2.335-4.953c3.303-1.074,9.038-3.112,9.33-4.62C56.031,165.549,54.379,159.391,54.379,159.391z"/>
				<path fill="#0B5154" d="M88.397,159.498c-0.486,1.007-3.5,1.881-7.582,1.104c-4.083-0.777-5.778-1.847-5.417-2.722
					c0,0,0.225,13.24-0.047,13.57s4.978,1.343,7.991,2.537c3.013,1.195,12.054,4.694,15.358,2.751
					c3.305-1.944,0.968-3.88-2.335-4.953c-3.303-1.074-9.038-3.112-9.33-4.62C86.745,165.656,88.397,159.498,88.397,159.498z"/>
			</g>
		</g>
	</g>
</g>
<g id="rtfm-desktop">
</g>
<g id="rtfm-tablette">
</g>
</svg>
