<?xml version="1.0" encoding="utf-8"?>
<!-- Generator: Adobe Illustrator 16.0.0, SVG Export Plug-In . SVG Version: 6.00 Build 0)  -->
<!DOCTYPE svg PUBLIC "-//W3C//DTD SVG 1.1//EN" "http://www.w3.org/Graphics/SVG/1.1/DTD/svg11.dtd">
<svg version="1.1" id="Calque_1" xmlns="http://www.w3.org/2000/svg" xmlns:xlink="http://www.w3.org/1999/xlink" x="0px" y="0px"
	 width="135.5px" height="135.5px" viewBox="0 0 135.5 135.5" enable-background="new 0 0 135.5 135.5" xml:space="preserve">
<g id="chapter_1_mobile">
</g>
<g id="ui">
</g>
<g id="Calque_2">
</g>
<g id="home-tablette">
</g>
<g id="home-desktop">
</g>
<g id="ui-pannel">
	<g>
		<g>
			<circle fill="#FFFFFF" cx="67.75" cy="67.75" r="63.75"/>
			<g opacity="0.8">
				<path fill="#12868C" d="M67.732,4c0.296,0,0.586,0.002,0.883,0.006c35.205,0.478,63.355,29.404,62.879,64.609
					c-0.475,34.908-28.926,62.885-63.727,62.885c-0.296,0-0.586-0.002-0.883-0.006C31.681,131.018,3.528,102.09,4.006,66.885
					C4.48,31.977,32.931,4.003,67.732,4 M67.738,0h-0.006c-17.9,0.001-34.785,6.928-47.544,19.504
					C7.418,32.093,0.25,48.9,0.006,66.831c-0.245,18.095,6.57,35.202,19.192,48.171c12.621,12.969,29.538,20.246,47.632,20.492
					c0.315,0.004,0.623,0.006,0.938,0.006c17.9,0,34.785-6.926,47.544-19.503c12.771-12.589,19.938-29.397,20.183-47.328
					c0.245-18.095-6.57-35.202-19.19-48.171C103.682,7.529,86.766,0.252,68.67,0.006C68.355,0.002,68.051,0,67.738,0L67.738,0z"/>
			</g>
		</g>
		<g>
			<g id="indice">
				<path fill="#DEF2F3" stroke="#7AC9CD" stroke-width="3" stroke-miterlimit="10" d="M51.927,86.217
					c0.589,3.59-2.455,11.775,7.58,14.877c10.037,3.102,19.353,2.51,21.095-0.998c1.74-3.51,1.611-9.498,6.953-14.814
					c5.344-5.314,11.855-11.094,14.316-26.735c2.639-16.765-6.287-37.052-28.586-37.88C50.986,19.839,39.51,37.429,39.802,50.712
					C40.093,63.998,50.236,75.924,51.927,86.217z"/>
				
					<path fill="none" stroke="#12868C" stroke-width="2" stroke-linecap="round" stroke-linejoin="round" stroke-miterlimit="10" d="
					M64.315,97.062c0,0-2.977-17.559-5.311-22.418c-2.333-4.861-5.361-23.211,0.22-24.025c5.583-0.812,7.206,10.609,4.444,10.238
					c-2.764-0.371-0.736-13.835,5.564-13.085c6.301,0.748,9.645,13.226,5.152,13.183c-4.494-0.04,0.98-16.636,9.004-13.08
					c8.023,3.556-1.521,25.226-4.205,30.042c-2.682,4.816-7.09,19.145-7.09,19.145"/>
				<path opacity="0.7" fill="#FFFFFF" enable-background="new    " d="M50.876,37.32c0,0-8.661,5.939-7.697,11.927
					c0.964,5.988,2.268,14.644,7.431,17.111c5.163,2.466,14.171-1.324,14.591-8.547C65.621,50.591,60.154,33.875,50.876,37.32z"/>
			</g>
			<path fill="#12868C" d="M50.41,97.062c0,0,13.382-2.979,33.852,3.344C84.262,100.406,66.692,106.969,50.41,97.062z"/>
			<path fill="#12868C" d="M66.915,103.201c-10.635-1.135-20.644-0.773-20.921,1.037c-0.275,1.812-0.081,8.816-0.081,8.816
				s5.637,7.312,17.814,8.459c12.176,1.148,17.369,0.418,22.312-1.609c0,0,3.213-10.955,1.146-11.965
				C85.121,106.932,78.311,104.418,66.915,103.201z"/>
			<path fill="#0F6B70" d="M46.818,104.758c0,0,4.957,6.391,19.812,7.309c14.856,0.918,18.327-0.867,20.308-2.273
				c0,0-10.578-7.521-36.917-5.252L46.818,104.758z"/>
			<path fill="#16A1A8" d="M50.41,97.062c0,0,14.334,8.264,33.852,3.344l-1.27,10.184c0,0-8.494,1.025-16.417,0.391
				c-7.753-0.617-16.508-4.217-16.253-4.268C50.837,106.607,50.41,97.062,50.41,97.062z"/>
		</g>
	</g>
</g>
<g id="rtfm-desktop">
</g>
<g id="rtfm-tablette">
</g>
</svg>
