<?xml version="1.0" encoding="utf-8"?>
<!-- Generator: Adobe Illustrator 16.0.0, SVG Export Plug-In . SVG Version: 6.00 Build 0)  -->
<!DOCTYPE svg PUBLIC "-//W3C//DTD SVG 1.1//EN" "http://www.w3.org/Graphics/SVG/1.1/DTD/svg11.dtd">
<svg version="1.1" id="Calque_1" xmlns="http://www.w3.org/2000/svg" xmlns:xlink="http://www.w3.org/1999/xlink" x="0px" y="0px"
	 width="135.5px" height="135.5px" viewBox="0 0 135.5 135.5" enable-background="new 0 0 135.5 135.5" xml:space="preserve">
<g id="chapter_1_mobile">
</g>
<g id="ui">
</g>
<g id="Calque_2">
</g>
<g id="home-tablette">
</g>
<g id="home-desktop">
</g>
<g id="ui-pannel">
	<g>
		<g>
			<circle fill="#FFFFFF" cx="67.75" cy="67.75" r="63.75"/>
			<g opacity="0.8">
				<path fill="#479369" d="M67.732,4c0.296,0,0.586,0.002,0.883,0.006c35.205,0.478,63.355,29.404,62.879,64.609
					c-0.475,34.908-28.926,62.885-63.727,62.885c-0.296,0-0.586-0.002-0.883-0.006C31.681,131.018,3.528,102.09,4.006,66.885
					C4.48,31.977,32.931,4.003,67.732,4 M67.738,0h-0.006c-17.9,0.001-34.785,6.928-47.544,19.504
					C7.418,32.093,0.25,48.9,0.006,66.831c-0.245,18.095,6.57,35.202,19.192,48.171c12.621,12.969,29.538,20.246,47.632,20.492
					c0.315,0.004,0.623,0.006,0.938,0.006c17.9,0,34.785-6.926,47.544-19.503c12.771-12.589,19.938-29.397,20.183-47.328
					c0.245-18.095-6.57-35.202-19.19-48.171C103.682,7.529,86.766,0.252,68.67,0.006C68.355,0.002,68.051,0,67.738,0L67.738,0z"/>
			</g>
		</g>
		<g id="indice">
			<g>
				<path fill="#16A1A8" d="M75.324,74.282c-1.389-1.062-3.382-12.246-4.971-13.987c-1.588-1.74-3.838,3.089-7.608,4.932
					c-3.771,1.843-10.193,0.542-10.193,0.542s2.391,11.067,3.648,13.886c1.259,2.819,2.382,0.036,3.312,4.668
					c0.931,4.631,3.447,12.474,6.695,22.062c1.687,4.984,2.928,9.834,3.731,13.343c0.741,3.24,1.11,5.34,1.11,5.34
					s0.359,0.21,0.999,0.456c5.064-0.774,10.369-2.139,15.113-4.077c0.771-0.841,1.157-1.451,1.157-1.451
					c-0.146-0.492-0.683-2.218-1.461-4.703c-3.485-11.162-11.868-37.724-11.868-37.724s0,0,0.994-0.292
					C76.98,76.984,76.715,75.346,75.324,74.282z"/>
			</g>
			<path id="bougie" fill="#A2D9DC" d="M52.254,21.305c0,0-7.933,20.546-3.958,27.88c3.977,7.335,9.599,9.934,9.599,9.934
				s5.687,0.76,8.286-4.862C68.782,48.631,52.245,31.629,52.254,21.305z"/>
			<path fill="#12868C" d="M61.038,68.182c-0.235,0.068-0.509-0.015-0.7-0.246c-0.189-0.224-4.6-5.595-3.271-13.582
				c0.072-0.42,0.428-0.665,0.802-0.545c0.375,0.119,0.621,0.554,0.551,0.974c-1.192,7.17,2.825,12.062,2.867,12.11
				c0.273,0.327,0.285,0.826,0.022,1.114C61.229,68.095,61.137,68.152,61.038,68.182z"/>
			<path fill="#0F6B70" d="M59.852,80.872c1.992,0.828,1.964-2.353,1.426-3.468c0.668,0.674,3.55,8.354,4.024,3.068
				c0.121,0.601,0.397,1.047,0.78,1.482c0.504-0.003,0.754-0.282,0.732-0.791c0.046,0.527,0.265,1.247-0.039,1.72
				c-0.39,0.604-0.97,0.735-1.267-0.018c-0.344,0.767-1.026,2.162-1.937,1.656c-0.617-0.342-1.161-2.791-1.371-3.466
				c-0.059,0.8-0.938,1.121-1.484,0.541L59.852,80.872z"/>
			<path fill="#0F6B70" d="M57.177,67.599c2.076,1.906,8.836,1.033,9.314-2.232c-2.299,1.781-7.151,3.136-9.917,1.805
				c0.381,0.439,0.867,0.77,1.426,1.002"/>
		</g>
	</g>
</g>
<g id="rtfm-desktop">
</g>
<g id="rtfm-tablette">
</g>
</svg>
