<?xml version="1.0" encoding="utf-8"?>
<!-- Generator: Adobe Illustrator 16.0.0, SVG Export Plug-In . SVG Version: 6.00 Build 0)  -->
<!DOCTYPE svg PUBLIC "-//W3C//DTD SVG 1.1//EN" "http://www.w3.org/Graphics/SVG/1.1/DTD/svg11.dtd">
<svg version="1.1" id="Calque_1" xmlns="http://www.w3.org/2000/svg" xmlns:xlink="http://www.w3.org/1999/xlink" x="0px" y="0px"
	 width="522.667px" height="394px" viewBox="0 0 522.667 394" enable-background="new 0 0 522.667 394" xml:space="preserve">
<g id="chapter_1_mobile">
</g>
<g id="ui">
	<path fill="none" stroke="#FFFFFF" stroke-width="2" stroke-linecap="round" stroke-linejoin="round" stroke-miterlimit="10" d="
		M66,278.333c0,0-26-3-30-17s7.333-30.667,7.333-30.667s-52-22-36.667-61.667s49-37.667,65.333-26.667c0,0,14-26.333,42.333-22.333
		s48.666,24.333,42.333,49c0,0,25.333,8.658,26.333,28.829s5,39.838-29,48.504c0,0,10.667,22.333-13.667,27
		c0,0,6.167,9.5-7.5,11.333c0,0,17.167,6.5,24.167,16.833s10.667,21.167,12.5,21.667s4-0.333,6.333,1.667s3.333,3.167,1.667,3.833
		s-2.5-1.5-3-1s5,9,4.5,11.667c-0.455,2.425-2.287-0.523-3.242-2.457c-0.096-0.193-0.183-0.376-0.258-0.543
		c-0.833-1.833,2.667,7.333,0,8s-1.833-3.167-2.833-5.167s0.5,6-1.667,7.167s-0.667-5-2-6.167s0.167,2.667-2.5,3.667
		s-0.667-1.333-1.5-4.5s-3.667-9.166-3.833-10.833S144,307.833,136.333,306.333c0,0,2.833,22.167,2.5,32.667
		c-0.309,9.732-7.833,34.333-8.167,38.333s6.5,9.833,2.333,10.5s-11.167-3.667-14.167-4.833s-7.333-1.166-7-7.833
		s-3-25-6.667-24.167s-4.5,18.5-3.667,23.833s1,7.833-3.5,9s-17.667,9.5-20.667,6.5s7.333-5.333,5-10S73.167,351.167,73.5,336
		s2.333-22.167-0.833-21.667s-20.5,12.5-21,23.667s-0.014,14.76-1.68,15.593s-2.965-4.552-2.632-5.885c0,0-1.229,1.688-0.562,3.688
		s1.208,3.938-0.625,3.438c-1.599-0.436-2.197-0.715-3-3.125c-0.438-1.312,0.375-3.812-0.5-3.75c0,0-1.391,0-0.704,3.062
		c0.301,1.34,0.829,3.457-1.171,3.125c-2-0.334-1.997-7.031-2.625-6.979c-1.25,0.104,0.146,5-1.625,5.229
		c-1.848,0.238-3.375-7.521-1.375-10.688s3.734-3.729,3.401-4.563c-0.333-0.832-0.825-1.127-3.088-0.373
		c-2.25,0.75-5.812-1.5,0.938-4.375c1.912-0.814,2.562,0.188,4.062-1.812S41,322.5,47,313.333s15.833-22.833,25.167-25
		C72.167,288.333,59.833,288.167,66,278.333z"/>
	<path fill="none" stroke="#FFFFFF" stroke-width="2" stroke-linecap="round" stroke-linejoin="round" stroke-miterlimit="10" d="
		M110.434,253.001c-3.532,2.325-5.677,7.031-5.718,13.961c-0.062,10.269,2.001,16.617,13.691,17.013
		c11.691,0.395,19.949-2.129,19.288-16.529c-0.538-11.717-4.795-15.614-12.946-17.148
		C118.732,249.166,113.968,250.676,110.434,253.001z"/>
	<path fill="none" stroke="#FFFFFF" stroke-width="2" stroke-linecap="round" stroke-linejoin="round" stroke-miterlimit="10" d="
		M75.317,253.001c-3.769,2.325-6.056,7.031-6.1,13.961c-0.066,10.269,2.134,16.617,14.604,17.013
		c12.47,0.395,21.277-2.129,20.573-16.529c-0.574-11.717-5.116-15.614-13.809-17.148C84.167,249.166,79.086,250.676,75.317,253.001z
		"/>
	<path fill="#FFFFFF" d="M91.718,264.479c0-6.221-2.237-11.158-3.539-13.506c-1.705-0.177-3.706-0.154-5.195,0.025
		c-1.641,1.591-5.184,6.257-5.184,14.339c0,9.179,0.06,14.109,2.654,17.506c0.82,0.101,2.096,0.171,3.035,0.2
		c0.772,0.023,1.528,0.036,2.269,0.034C91.812,278.205,91.718,272.415,91.718,264.479z"/>
	<path fill="#FFFFFF" d="M125.887,264.521c0-6.113-2.199-10.969-3.477-13.275c-1.677-0.174-3.649-0.15-5.113,0.025
		c-1.613,1.563-5.087,6.15-5.087,14.094c0,9.021,0.052,13.867,2.601,17.205c0.807,0.1,2.067,0.168,2.99,0.197
		c0.76,0.023,1.502,0.035,2.23,0.033C125.979,278.012,125.887,272.321,125.887,264.521z"/>
	<path fill="none" stroke="#FFFFFF" stroke-width="2" stroke-linecap="round" stroke-linejoin="round" stroke-miterlimit="10" d="
		M90.585,250.298c-2.494-0.44-4.782-0.478-6.873-0.228c-1.736,1.685-5.911,6.623-5.911,15.172c0,9.71,0.491,14.928,3.235,18.521
		c0.868,0.104,1.79,0.178,2.785,0.211c12.469,0.395,21.277-2.129,20.573-16.529C103.82,255.729,99.278,251.832,90.585,250.298z"/>
	<path fill="none" stroke="#FFFFFF" stroke-width="2" stroke-linecap="round" stroke-linejoin="round" stroke-miterlimit="10" d="
		M89.4,251.095c-2.338-0.413-4.487-0.452-6.453-0.226c-1.964,2.195-5.146,6.906-5.146,14.373c0,9.027,0.426,14.172,2.691,17.736
		c0.773,0.09,1.589,0.153,2.467,0.183c11.873,0.376,20.26-2.027,19.589-15.739C102.002,256.266,97.679,252.555,89.4,251.095z"/>
	<path fill="none" stroke="#FFFFFF" stroke-width="2" stroke-linecap="round" stroke-linejoin="round" stroke-miterlimit="10" d="
		M124.749,250.298c-2.481-0.467-4.745-0.479-6.801-0.176c-1.767,1.733-5.859,6.659-5.859,15.121c0,9.646,0.485,14.858,3.181,18.448
		c0.96,0.149,2.002,0.246,3.136,0.283c11.691,0.396,19.949-2.127,19.288-16.528C137.157,255.729,132.9,251.832,124.749,250.298z"/>
	<path fill="none" stroke="#FFFFFF" stroke-width="2" stroke-linecap="round" stroke-linejoin="round" stroke-miterlimit="10" d="
		M135.728,267.417c-0.505-11.024-4.511-14.69-12.18-16.133c-2.334-0.439-4.464-0.45-6.399-0.165
		c-0.272,0.267-0.607,0.624-0.97,1.053c-1.875,2.535-4.09,6.844-4.09,13.071c0,8.668,0.394,13.755,2.429,17.305
		c0.038,0.052,0.075,0.104,0.113,0.154c0.902,0.141,1.883,0.231,2.95,0.267C128.581,283.34,136.35,280.966,135.728,267.417z"/>
	<path fill="none" stroke="#FFFFFF" stroke-width="2" stroke-linecap="round" stroke-linejoin="round" stroke-miterlimit="10" d="
		M99.417,287.77c1.5,3.939,7.5,4.314,8.75,0"/>
	<path fill="none" stroke="#FFFFFF" stroke-width="2" stroke-linecap="round" stroke-linejoin="round" stroke-miterlimit="10" d="
		M274.434,186.001c-3.532,2.325-5.677,7.031-5.718,13.961c-0.062,10.269,2,16.617,13.691,17.013
		c11.69,0.395,19.948-2.129,19.287-16.529c-0.537-11.717-4.795-15.614-12.945-17.148
		C282.732,182.166,277.968,183.676,274.434,186.001z"/>
	<path fill="none" stroke="#FFFFFF" stroke-width="2" stroke-linecap="round" stroke-linejoin="round" stroke-miterlimit="10" d="
		M239.317,186.001c-3.769,2.325-6.056,7.031-6.1,13.961c-0.066,10.269,2.134,16.617,14.604,17.013
		c12.47,0.395,21.277-2.129,20.573-16.529c-0.574-11.717-5.116-15.614-13.809-17.148
		C248.167,182.166,243.086,183.676,239.317,186.001z"/>
	<path fill="#FFFFFF" d="M255.718,197.479c0-6.221-2.237-11.159-3.539-13.506c-1.705-0.177-3.706-0.154-5.195,0.025
		c-1.641,1.591-5.184,6.257-5.184,14.339c0,9.179,0.06,14.108,2.654,17.506c0.82,0.101,2.096,0.171,3.035,0.2
		c0.772,0.023,1.528,0.036,2.269,0.034C255.812,211.205,255.718,205.415,255.718,197.479z"/>
	<path fill="#FFFFFF" d="M289.887,197.521c0-6.113-2.199-10.969-3.478-13.275c-1.677-0.174-3.648-0.15-5.113,0.025
		c-1.612,1.564-5.086,6.151-5.086,14.094c0,9.021,0.052,13.867,2.601,17.205c0.808,0.1,2.067,0.168,2.989,0.197
		c0.761,0.023,1.503,0.035,2.23,0.033C289.979,211.012,289.887,205.32,289.887,197.521z"/>
	<path fill="none" stroke="#FFFFFF" stroke-width="2" stroke-linecap="round" stroke-linejoin="round" stroke-miterlimit="10" d="
		M254.585,183.298c-2.494-0.44-4.782-0.478-6.873-0.227c-1.736,1.684-5.911,6.622-5.911,15.171c0,9.71,0.491,14.928,3.235,18.521
		c0.868,0.104,1.79,0.178,2.785,0.211c12.469,0.395,21.277-2.129,20.573-16.529C267.82,188.729,263.278,184.832,254.585,183.298z"/>
	<path fill="none" stroke="#FFFFFF" stroke-width="2" stroke-linecap="round" stroke-linejoin="round" stroke-miterlimit="10" d="
		M253.4,184.095c-2.338-0.413-4.487-0.452-6.453-0.226c-1.964,2.196-5.146,6.906-5.146,14.373c0,9.027,0.426,14.172,2.691,17.736
		c0.773,0.09,1.589,0.153,2.467,0.183c11.873,0.376,20.259-2.027,19.589-15.739C266.001,189.266,261.679,185.555,253.4,184.095z"/>
	<path fill="none" stroke="#FFFFFF" stroke-width="2" stroke-linecap="round" stroke-linejoin="round" stroke-miterlimit="10" d="
		M288.75,183.298c-2.481-0.467-4.746-0.479-6.801-0.176c-1.768,1.733-5.859,6.659-5.859,15.121c0,9.646,0.484,14.858,3.181,18.448
		c0.96,0.149,2.002,0.246,3.136,0.283c11.691,0.396,19.949-2.127,19.288-16.528C301.158,188.729,296.9,184.832,288.75,183.298z"/>
	<path fill="none" stroke="#FFFFFF" stroke-width="2" stroke-linecap="round" stroke-linejoin="round" stroke-miterlimit="10" d="
		M299.728,200.417c-0.505-11.024-4.512-14.69-12.18-16.133c-2.334-0.439-4.465-0.45-6.399-0.165
		c-0.272,0.267-0.606,0.624-0.97,1.053c-1.875,2.535-4.09,6.844-4.09,13.071c0,8.668,0.394,13.755,2.429,17.305
		c0.038,0.052,0.075,0.104,0.112,0.154c0.902,0.141,1.884,0.231,2.951,0.267C292.582,216.34,300.35,213.966,299.728,200.417z"/>
	<path fill="none" stroke="#FFFFFF" stroke-width="2" stroke-linecap="round" stroke-linejoin="round" stroke-miterlimit="10" d="
		M263.417,220.77c1.5,3.939,7.5,4.314,8.75,0"/>
	<path fill="none" stroke="#FFFFFF" stroke-width="2" stroke-linecap="round" stroke-linejoin="round" stroke-miterlimit="10" d="
		M434.412,163.403c1.5,3.939,7.5,4.314,8.75,0"/>
	<g>
		<path fill="#FFFFFF" d="M102.254,192.868c-1.008,0.912-1.536,1.44-2.064,2.208c-0.96,1.584-1.008,4.656-0.768,6.913
			c0,0.528-0.384,1.008-0.912,1.008c-0.528,0-1.008-0.384-1.008-0.912v0.144c0-0.432-0.048-0.72-0.096-1.151
			c-0.192-2.017,0.048-5.232,1.152-6.961c0.576-1.008,1.344-1.776,2.544-2.784c0.576-0.48,0.912-0.768,0.96-0.816
			c2.16-2.064,1.728-5.665,0.336-7.633c-0.768-1.104-1.872-1.584-3.36-1.488c-1.728,0.144-2.112,1.296-2.304,2.256
			c-0.24,0.96-0.288,1.536-0.288,2.833c-0.048,0.672-0.048,1.248-0.096,1.68c-0.048,0.528-0.48,0.912-1.008,0.864
			c-0.576-0.048-0.96-0.48-0.912-1.056c0.048-0.24,0.048-0.72,0.096-1.44c0-1.344,0-2.112,0.384-3.457
			c0.144-0.624,0.384-1.2,0.672-1.68c1.392-2.353,6.048-3.024,8.401,0.384c1.872,2.64,2.448,7.297-0.576,10.129L102.254,192.868z
			 M99.47,206.068c0.336,0.385,0.576,1.057,0.528,1.681c-0.192,1.536-2.017,1.584-2.448,0.24c-0.144-0.433-0.144-0.96-0.048-1.584
			c0.144-0.528,0.576-0.816,1.152-0.769c0.048,0,0.144,0.049,0.192,0.049C98.942,205.781,99.182,205.781,99.47,206.068z"/>
	</g>
	<g>
		<path fill="#FFFFFF" d="M270.068,123.833c-1.008,0.912-1.535,1.44-2.064,2.208c-0.959,1.584-1.008,4.656-0.768,6.913
			c0,0.528-0.384,1.008-0.912,1.008c-0.527,0-1.008-0.384-1.008-0.912v0.144c0-0.432-0.048-0.72-0.096-1.152
			c-0.192-2.016,0.048-5.232,1.152-6.961c0.576-1.008,1.344-1.776,2.543-2.784c0.576-0.48,0.912-0.768,0.961-0.816
			c2.16-2.064,1.728-5.665,0.336-7.633c-0.769-1.104-1.873-1.584-3.36-1.488c-1.728,0.144-2.112,1.296-2.304,2.256
			c-0.24,0.96-0.288,1.536-0.288,2.833c-0.048,0.672-0.048,1.248-0.097,1.68c-0.047,0.528-0.479,0.912-1.008,0.864
			c-0.576-0.048-0.959-0.48-0.912-1.056c0.049-0.24,0.049-0.72,0.096-1.44c0-1.344,0-2.112,0.385-3.457
			c0.145-0.624,0.384-1.2,0.672-1.68c1.393-2.353,6.048-3.024,8.4,0.384c1.873,2.64,2.449,7.297-0.575,10.129L270.068,123.833z
			 M267.285,137.035c0.336,0.384,0.575,1.056,0.527,1.68c-0.191,1.536-2.018,1.584-2.447,0.24c-0.145-0.432-0.145-0.96-0.049-1.584
			c0.145-0.528,0.576-0.816,1.152-0.768c0.048,0,0.144,0.048,0.191,0.048C266.755,136.747,266.996,136.747,267.285,137.035z"/>
	</g>
	<g>
		<path fill="#FFFFFF" d="M442.351,60.793c-1.008,0.912-1.535,1.44-2.062,2.208c-0.961,1.584-1.008,4.656-0.77,6.913
			c0,0.528-0.383,1.008-0.91,1.008c-0.529,0-1.01-0.384-1.01-0.912v0.144c0-0.432-0.047-0.72-0.096-1.152
			c-0.191-2.016,0.049-5.232,1.152-6.961c0.576-1.008,1.344-1.776,2.545-2.784c0.576-0.48,0.912-0.768,0.959-0.816
			c2.16-2.064,1.729-5.665,0.336-7.633c-0.768-1.104-1.871-1.584-3.359-1.488c-1.729,0.144-2.111,1.296-2.305,2.256
			c-0.24,0.96-0.287,1.536-0.287,2.833c-0.049,0.672-0.049,1.248-0.096,1.68c-0.049,0.528-0.48,0.912-1.008,0.864
			c-0.576-0.048-0.961-0.48-0.912-1.056c0.047-0.24,0.047-0.72,0.096-1.44c0-1.344,0-2.112,0.383-3.457
			c0.145-0.624,0.385-1.2,0.672-1.68c1.393-2.353,6.049-3.024,8.402,0.384c1.871,2.64,2.447,7.297-0.576,10.129L442.351,60.793z
			 M439.568,73.995c0.336,0.384,0.576,1.056,0.527,1.68c-0.191,1.536-2.016,1.584-2.447,0.24c-0.145-0.432-0.145-0.96-0.049-1.584
			c0.145-0.528,0.576-0.816,1.152-0.768c0.049,0,0.145,0.048,0.193,0.048C439.041,73.707,439.281,73.707,439.568,73.995z"/>
	</g>
	<path fill="none" stroke="#FFFFFF" stroke-width="2" stroke-linecap="round" stroke-linejoin="round" stroke-miterlimit="10" d="
		M337.628,299.164c1.391,1.896,1.645,4.423,1.264,7.456c-0.059,0.474-0.027,0.831,0.068,1.081c0.525,1.348,2.998-0.43,3.85-3.734
		c1.012-3.918-3.158-10.996-3.158-10.996c0.758,1.139,3.287,2.022,4.93,1.518c1.643-0.506,0.504-1.518-2.004-3.665
		c-2.508-2.148-1.998-5.587-5.664-7.989c-3.664-2.4-5.637-14.667-14.246-29c-4.633-7.714-8.357-29.443-14.832-34.167
		c-4.549-3.317-7.166-4.333-7.168-4.333c12.834-3,0.834-12.834,0.834-12.834c40.666-3.838,21.166-50.5,21.166-50.5
		s28-8.333,23.334-45.333c-4.668-37-44.334-36.333-44.334-36.333s-10-36.667-59.667-26.667C192.334,53.667,194.667,98,194.667,98
		s-20.667,15.333-18,42.333S211.333,172,211.333,172s-4.333,8-4,19.667s24,15.667,24,15.667s-3.374,0.93-2.183,6.545
		c1.016,4.789,9.349,4.955,9.349,4.955s-3.44,2.636-7.833,7.5c-4.31,4.771-5.568,14.913-9.391,21.277
		c-8.442,14.056-12.75,33.742-16.575,36.246c-3.824,2.506-3.995,4.748-6.612,6.99c-2.618,2.24-3.804,3.295-2.09,3.822
		c1.714,0.528,4.351-0.396,5.142-1.582c0,0-4.351,7.383-3.296,11.471c0.89,3.449,3.47,5.303,4.016,3.896
		c0.101-0.262,0.133-0.633,0.071-1.127c-0.396-3.165-0.132-5.801,1.318-7.779"/>
	<path fill="none" stroke="#FFFFFF" stroke-width="2" stroke-linecap="round" stroke-linejoin="round" stroke-miterlimit="10" d="
		M334.914,300.174c0,0,0.82,2.528,0.439,4.424c-0.379,1.896-1.137,5.182,0.633,5.561s2.975-2.458,2.975-2.458"/>
	<path fill="none" stroke="#FFFFFF" stroke-width="2" stroke-linecap="round" stroke-linejoin="round" stroke-miterlimit="10" d="
		M331.972,300.807c0,0,0.223,3.447-0.156,4.693c-0.381,1.247-1.518,3.97-0.381,4.693c1.139,0.724,3.479-1.438,3.479-1.438"/>
	<path fill="none" stroke="#FFFFFF" stroke-width="2" stroke-linecap="round" stroke-linejoin="round" stroke-miterlimit="10" d="
		M206.083,300.604c0,0-0.855,2.637-0.46,4.614c0.396,1.978,1.187,5.406-0.659,5.802c-1.846,0.396-3.104-2.564-3.104-2.564"/>
	<path fill="none" stroke="#FFFFFF" stroke-width="2" stroke-linecap="round" stroke-linejoin="round" stroke-miterlimit="10" d="
		M209.15,301.262c0,0-0.23,3.598,0.165,4.897s1.583,4.142,0.396,4.896c-1.187,0.756-3.627-1.5-3.627-1.5"/>
	<path fill="none" stroke="#FFFFFF" stroke-width="2" stroke-linecap="round" stroke-linejoin="round" stroke-miterlimit="10" d="
		M209.15,305.08c1.549,2.104,3.198,3.83,5.044,3.171c1.846-0.659-1.187-4.088-1.714-5.67c-0.528-1.583,1.631-4.321,2.354-7.081
		c1.04-3.973,0.696-6.346,3.333-11.488c2.637-5.142,21.073-35.24,21.073-35.24s-3.573,38.062-3.073,56.562s6,41.667,8.333,48.333
		s6.5,17.5,5,18.833s-17.334,5.167-17.167,7s9.5,0.5,15.667,0s18.667,0.667,19.667-2.167s-1.168-69.243,4.5-69.288
		c5.666-0.045,6.332,65.288,5.832,68.288s4.168,5.167,8.668,6s14.666,3.667,16.666,1.333s-4.5-2.833-4.5-7.833
		s4.668-36.167,4.5-63.167c-0.166-27-5.408-63.905-0.808-66.956c0,0,18.116,33.193,20.644,38.122
		c2.529,4.929,2.338,6.358,3.334,10.167c0.691,2.646,2.785,6.553,2.279,8.07c-0.506,1.517-3.414,4.803-1.645,5.435
		c1.77,0.631,3.35-1.022,4.834-3.04"/>
	<path fill="none" stroke="#FFFFFF" stroke-width="2" stroke-linecap="round" stroke-linejoin="round" stroke-miterlimit="10" d="
		M237.667,192.583c0,0,1.27,4.584,4.135,4.417"/>
	<path fill="none" stroke="#FFFFFF" stroke-width="2" stroke-linecap="round" stroke-linejoin="round" stroke-miterlimit="10" d="
		M236.167,197.829c0,0,4.043,2.756,5.646,2.63"/>
	<path fill="none" stroke="#FFFFFF" stroke-width="2" stroke-linecap="round" stroke-linejoin="round" stroke-miterlimit="10" d="
		M236.167,204.583c0,0,3.52,0.75,5.635,0"/>
	<path fill="none" stroke="#FFFFFF" stroke-width="2" stroke-linecap="round" stroke-linejoin="round" stroke-miterlimit="10" d="
		M301.732,195.833c0,0,2.936-0.5,4.436-3.25"/>
	<path fill="none" stroke="#FFFFFF" stroke-width="2" stroke-linecap="round" stroke-linejoin="round" stroke-miterlimit="10" d="
		M302.667,199.963c0,0,3.25-0.638,4.5-2.134"/>
	<path fill="none" stroke="#FFFFFF" stroke-width="2" stroke-linecap="round" stroke-linejoin="round" stroke-miterlimit="10" d="
		M301.732,204.917c0,0,3.436,2.417,5.436,1.417"/>
	<path fill="none" stroke="#FFFFFF" stroke-width="2" stroke-linecap="round" stroke-linejoin="round" stroke-miterlimit="10" d="
		M443.996,128.384c-3.066,2.371-4.928,7.17-4.965,14.239c-0.055,10.474,1.736,16.948,11.885,17.351
		c10.148,0.403,17.316-2.171,16.742-16.857c-0.467-11.951-4.162-15.925-11.236-17.49
		C451.197,124.471,447.062,126.012,443.996,128.384z"/>
	<path fill="none" stroke="#FFFFFF" stroke-width="2" stroke-linecap="round" stroke-linejoin="round" stroke-miterlimit="10" d="
		M413.511,128.384c-3.27,2.371-5.256,7.17-5.293,14.239c-0.059,10.474,1.854,16.948,12.676,17.351
		c10.822,0.403,18.469-2.171,17.857-16.857c-0.498-11.951-4.439-15.925-11.986-17.49
		C421.195,124.471,416.783,126.012,413.511,128.384z"/>
	<path fill="#FFFFFF" d="M427.75,140.089c0-6.345-1.943-11.381-3.072-13.775c-1.479-0.18-3.217-0.157-4.508,0.026
		c-1.424,1.623-4.5,6.382-4.5,14.625c0,9.361,0.051,14.391,2.303,17.854c0.713,0.102,1.82,0.173,2.637,0.205
		c0.67,0.024,1.324,0.036,1.969,0.035C427.83,154.09,427.75,148.184,427.75,140.089z"/>
	<path fill="#FFFFFF" d="M457.408,140.132c0-6.235-1.908-11.187-3.018-13.54c-1.457-0.177-3.168-0.153-4.438,0.025
		c-1.4,1.596-4.416,6.274-4.416,14.375c0,9.2,0.045,14.145,2.258,17.549c0.699,0.1,1.793,0.17,2.594,0.2
		c0.66,0.024,1.305,0.036,1.938,0.034C457.488,153.893,457.408,148.088,457.408,140.132z"/>
	<path fill="none" stroke="#FFFFFF" stroke-width="2" stroke-linecap="round" stroke-linejoin="round" stroke-miterlimit="10" d="
		M426.765,125.626c-2.166-0.449-4.15-0.487-5.967-0.231c-1.506,1.717-5.131,6.754-5.131,15.474c0,9.904,0.426,15.225,2.809,18.89
		c0.752,0.108,1.555,0.183,2.416,0.215c10.824,0.403,18.471-2.171,17.859-16.857C438.253,131.166,434.31,127.191,426.765,125.626z"
		/>
	<path fill="none" stroke="#FFFFFF" stroke-width="2" stroke-linecap="round" stroke-linejoin="round" stroke-miterlimit="10" d="
		M425.738,126.44c-2.031-0.421-3.896-0.461-5.602-0.23c-1.705,2.24-4.467,7.043-4.467,14.659c0,9.208,0.369,14.455,2.334,18.091
		c0.672,0.092,1.381,0.157,2.143,0.185c10.307,0.383,17.586-2.067,17.004-16.052C436.675,131.713,432.921,127.929,425.738,126.44z"
		/>
	<path fill="none" stroke="#FFFFFF" stroke-width="2" stroke-linecap="round" stroke-linejoin="round" stroke-miterlimit="10" d="
		M465.951,143.086c-0.439-11.243-3.916-14.983-10.572-16.455c-2.027-0.448-3.875-0.459-5.555-0.168
		c-0.236,0.272-0.527,0.636-0.842,1.075c-1.627,2.585-3.551,6.979-3.551,13.331c0,8.841,0.344,14.029,2.109,17.649
		c0.033,0.052,0.066,0.106,0.098,0.157c0.785,0.144,1.635,0.236,2.562,0.272C459.746,159.327,466.49,156.905,465.951,143.086z"/>
	<path fill="none" stroke="#FFFFFF" stroke-width="2" stroke-linecap="round" stroke-linejoin="round" stroke-miterlimit="10" d="
		M412.08,135.097c0,0,1.102,4.676,3.588,4.505"/>
	<path fill="none" stroke="#FFFFFF" stroke-width="2" stroke-linecap="round" stroke-linejoin="round" stroke-miterlimit="10" d="
		M410.777,140.447c0,0,3.51,2.811,4.9,2.683"/>
	<path fill="none" stroke="#FFFFFF" stroke-width="2" stroke-linecap="round" stroke-linejoin="round" stroke-miterlimit="10" d="
		M410.777,147.336c0,0,3.055,0.765,4.893,0"/>
	<path fill="none" stroke="#FFFFFF" stroke-width="2" stroke-linecap="round" stroke-linejoin="round" stroke-miterlimit="10" d="
		M467.691,138.412c0,0,2.547-0.51,3.848-3.315"/>
	<path fill="none" stroke="#FFFFFF" stroke-width="2" stroke-linecap="round" stroke-linejoin="round" stroke-miterlimit="10" d="
		M468.501,142.624c0,0,2.82-0.651,3.906-2.176"/>
	<path fill="none" stroke="#FFFFFF" stroke-width="2" stroke-linecap="round" stroke-linejoin="round" stroke-miterlimit="10" d="
		M467.691,147.676c0,0,2.98,2.464,4.717,1.444"/>
	<path fill="none" stroke="#FFFFFF" stroke-width="2" stroke-linecap="round" stroke-linejoin="round" stroke-miterlimit="10" d="
		M454.917,168.833c3.25-0.5,7.5-7,7.5-7s5.25,4,8.346-4.275c1.277-3.409-4.096-6.225-4.096-6.225
		c1.666-8.333,10-11.667,24.332-19.667c14.334-8,5-27.333,5-27.333s15-16.667,13-31s-12.332-17-12.332-17S507,14.667,475,6.667
		s-40,12-40,12S407,1,383,27.333s10,55,10,55s-18,4.333-21.332,22c-3.334,17.667,26.582,30.333,35.25,48c0,0-7.75-0.25-5.5,6
		s8.25,4,8.25,4s7.25,7,10.5,7.75c0,0-10,2.25-13.5,8.25s-18.5,35.5-22.25,41s-8.75,23-9.75,29s-1.471,6.008-4.672,7.532
		c-3.203,1.523-6.139,5.79-7.742,9.142c-1.6,3.353-3.736,7.009,0,5.181c3.738-1.828,4.271-6.398,6.139-6.703
		c0,0-2.668,10.056-1.867,14.32c0.801,4.268,1.068,9.446,2.936,9.143c1.869-0.305,0.535-6.398,0.801-9.751
		c0.268-3.353,1.869-7.009,1.869-7.009s-0.801,6.398,0.268,9.752c1.066,3.352,2.668,10.055,4.27,8.836
		c0.4-0.305,0.602-0.856,0.664-1.575c0.188-2.157-0.863-5.813-1.465-8.785c-0.801-3.961,0-6.397,0-6.397"/>
	<path fill="none" stroke="#FFFFFF" stroke-width="2" stroke-linecap="round" stroke-linejoin="round" stroke-miterlimit="10" d="
		M378.802,273.234c0,0,0,6.095,0.934,8.228s0.934,6.095-1.602,5.332"/>
	<path fill="none" stroke="#FFFFFF" stroke-width="2" stroke-linecap="round" stroke-linejoin="round" stroke-miterlimit="10" d="
		M454.917,168.833c0,0,11-1.5,14.5,4.5s20.783,36.64,24,42.467c3.262,5.908,8.6,21.533,12.068,29.214
		c2.502,5.543,1.469,6.008,4.672,7.531s6.139,5.79,7.74,9.143s3.736,7.008,0,5.181c-3.736-1.828-4.271-6.399-6.139-6.704
		c0,0,2.668,10.056,1.867,14.32c-0.801,4.268-1.068,9.447-2.936,9.143c-1.867-0.304-0.533-6.398-0.801-9.751
		s-1.867-7.008-1.867-7.008s0.801,6.397-0.268,9.751c-1.066,3.352-2.67,10.055-4.271,8.836c-0.4-0.305-0.602-0.855-0.662-1.575
		c-0.189-2.157,0.861-5.813,1.463-8.785c0.801-3.961,0-6.397,0-6.397"/>
	<path fill="none" stroke="#FFFFFF" stroke-width="2" stroke-linecap="round" stroke-linejoin="round" stroke-miterlimit="10" d="
		M501.349,269.915c0,0,0,6.095-0.934,8.228s-0.934,6.094,1.602,5.332"/>
	<path fill="none" stroke="#FFFFFF" stroke-width="2" stroke-linecap="round" stroke-linejoin="round" stroke-miterlimit="10" d="
		M501.197,273.721c-1.889,5.483-4.918,8.077-6.033,7.012c-1.113-1.066,1.648-5.334,2.449-8.381s-1.066-6.551-2.135-9.293
		c-1.066-2.742,0.934-6.552,0.934-6.552s-5.26-13.827-8.592-19.827c-3.334-6-18.986-38.004-24.652-41.232l-0.486,0.257
		c0,0,1.736,6.628-1.656,10.042c-3.271,3.293-0.025,9.92,3.309,22.92c3.332,13,6,51,5,63.333s0.666,69.667,0.332,76
		s4.668,10.667,0,12.231c-4.666,1.565-13-2.898-16.666-5.231c-3.668-2.333-6.668-45.333-6.668-62.667S442,258.667,442,258.667
		c-5.332,5.667-13.332,39.667-15.332,56.474c-2,16.805,1.666,47.526,3,54.192c1.332,6.666,12.332,6,7.666,9.667
		s-20.332-1.667-26-5.333c-5.666-3.666-7-32.667-7.666-42c-0.668-9.333,5.666-38.333,4.666-51.604
		c-1-13.272,0.666-28.062,1.334-36.396c0.666-8.333,6.666-21.667,8-27.866C419,209.602,415,198.896,415,198.896
		C409.333,202.125,395.667,234,392.333,240s-8.594,19.827-8.594,19.827s2.002,3.809,0.934,6.551
		c-1.066,2.743-2.936,6.247-2.135,9.294s3.562,7.312,2.449,8.38c-1.113,1.066-4.145-1.526-6.033-7.011"/>
</g>
</svg>
